<?xml version="1.0" standalone="no"?>
<!DOCTYPE svg PUBLIC "-//W3C//DTD SVG 1.1//EN" "http://www.w3.org/Graphics/SVG/1.1/DTD/svg11.dtd" >
<svg xmlns="http://www.w3.org/2000/svg">
<metadata></metadata>
<defs>
<font id="brandingsemilightitalic" horiz-adv-x="541" >
<font-face units-per-em="1000" ascent="770" descent="-230" />
<missing-glyph horiz-adv-x="245" />
<glyph unicode="&#xfb01;" horiz-adv-x="506" d="M328 612q-121 0 -143 -129l-3 -15l277 -1l-82 -467q-13 -3 -28 -3t-28 3l74 422l-220 1l-71 -424q-14 -3 -27 -3q-16 0 -28 3l72 424h-67q0 13 1 21q3 13 7 24h66l2 9q17 96 74 140.5t133 44.5q90 0 138 -53q-2 -13 -14 -25t-25 -13q-23 21 -46 31t-62 10z" />
<glyph unicode="&#xfb02;" horiz-adv-x="566" d="M499 68q23 -12 25 -38q-43 -38 -99 -38q-48 0 -74 27.5t-17 78.5l85 497q-39 17 -86 17q-54 0 -94.5 -31.5t-52.5 -99.5l-2 -13l121 -1q1 -3 1 -10q0 -17 -9 -35l-121 1l-75 -424q-12 -3 -27 -3q-14 0 -26 3l75 424h-67q0 13 1 21t7 24h67l1 6q17 95 77 141.5t135 46.5 q77 0 137 -34l-91 -523q-5 -30 8 -46t39 -16q31 0 62 25z" />
<glyph horiz-adv-x="0" />
<glyph horiz-adv-x="333" />
<glyph unicode=" "  horiz-adv-x="245" />
<glyph unicode="&#x09;" horiz-adv-x="245" />
<glyph unicode="&#xa0;" horiz-adv-x="245" />
<glyph unicode="!" horiz-adv-x="233" d="M94 148q-5 0 -15 2q28 233 73 494q16 3 30 3q16 0 30 -3q-52 -282 -102 -494q-10 -2 -16 -2zM73 -9q-17 0 -29 12t-12 29q0 16 12 28.5t29 12.5t29 -12t12 -29t-12 -29t-29 -12z" />
<glyph unicode="&#x22;" horiz-adv-x="282" d="M121 460q-7 0 -14 3l18 189q16 8 31 8t28 -8l-49 -189q-7 -3 -14 -3zM224 460q-7 0 -13 3l18 189q13 7 31 7q17 0 28 -7l-50 -189q-7 -3 -14 -3z" />
<glyph unicode="#" horiz-adv-x="631" d="M605 373h-112l-74 -181h105q-2 -26 -18 -47h-106l-79 -192q-28 -9 -52 0l79 192h-176l-79 -192q-29 -9 -52 0l79 192h-109q2 29 18 47h110l74 181h-104q2 25 19 47h104l80 195q30 7 52 0l-80 -195h176l80 195q30 7 52 0l-80 -195h111q0 -21 -18 -47zM367 192l74 181h-176 l-74 -181h176z" />
<glyph unicode="$" horiz-adv-x="468" d="M320 607q85 -7 134 -51q-9 -30 -33 -43q-46 38 -110 43l-35 -200q63 -17 98.5 -47.5t35.5 -98.5q0 -79 -52 -124t-139 -50l-15 -87q-21 -3 -22 -3q-3 0 -21 3l15 88q-109 7 -158 60q12 29 36 41q45 -45 131 -51l39 224q-34 9 -53 16t-43 21.5t-35 38.5t-11 59 q0 70 53.5 113.5t140.5 48.5l15 83q14 2 23 2t21 -2zM141 452q0 -37 23.5 -54.5t69.5 -30.5l33 189q-59 -4 -92.5 -31.5t-33.5 -72.5zM353 202q0 41 -22.5 63t-64.5 35l-38 -213q60 4 92.5 34t32.5 81z" />
<glyph unicode="%" horiz-adv-x="716" d="M54 -47l546 689q35 8 58 0l-546 -689q-37 -6 -58 0zM192 346q-60 0 -90.5 33.5t-30.5 91.5q0 75 43 121t109 46q60 0 90 -33.5t30 -91.5q0 -75 -42 -121t-109 -46zM199 389q45 0 71.5 32.5t26.5 86.5q0 88 -81 88q-44 0 -71.5 -33t-27.5 -87q0 -40 20.5 -63.5t61.5 -23.5 zM507 -10q-59 0 -89.5 34t-30.5 91q0 75 42.5 121t109.5 46q59 0 89.5 -34t30.5 -91q0 -75 -42.5 -121t-109.5 -46zM515 33q45 0 71.5 32.5t26.5 86.5q0 87 -82 87q-44 0 -71 -33t-27 -87q0 -40 20.5 -63t61.5 -23z" />
<glyph unicode="&#x26;" horiz-adv-x="585" d="M303 364h267v-12q0 -17 -9 -38h-100l-49 -287q-77 -40 -182 -40q-93 0 -144 40t-51 117q0 72 42.5 123t111.5 73q-72 36 -72 125q0 82 59 133t147 51q94 0 140 -48q-12 -27 -37 -41q-42 40 -109 40q-64 0 -105 -37t-41 -94q0 -105 132 -105zM363 58l44 256h-123 q-91 0 -141.5 -45t-50.5 -118q0 -54 38 -85t109 -31q75 0 124 23z" />
<glyph unicode="'" horiz-adv-x="179" d="M121 460q-7 0 -14 3l18 189q16 8 31 8t28 -8l-49 -189q-7 -3 -14 -3z" />
<glyph unicode="(" horiz-adv-x="251" d="M87 -174q-50 130 -50 269q0 313 201 587q25 -2 37 -22q-84 -125 -131 -274t-47 -293q0 -136 36 -249q-15 -20 -46 -18z" />
<glyph unicode=")" horiz-adv-x="250" d="M6 -175q-25 2 -37 23q83 125 130 273.5t47 292.5q0 140 -35 250q14 21 46 17q49 -130 49 -268q0 -313 -200 -588z" />
<glyph unicode="*" horiz-adv-x="335" d="M235 539l77 -36q-7 -28 -31 -43l-59 63q-9 -3 -10 -3l-10 -86q-30 -3 -50 16l41 76q-6 4 -7 9l-84 -17q-12 28 0 53l83 -16q1 5 7 11l-42 75q23 19 51 16l10 -84q4 0 12 -4l57 62q25 -14 31 -42l-76 -37q1 -2 1 -6q0 -5 -1 -7z" />
<glyph unicode="+" horiz-adv-x="473" d="M427 271q2 -24 -9 -49h-167l-31 -176q-21 -8 -47 1l31 175h-166q-3 24 8 49h166l31 175q25 7 47 0l-31 -175h168z" />
<glyph unicode="," horiz-adv-x="202" d="M3 -141q-19 2 -24 20q63 70 63 182q0 21 -4 36q35 11 66 -5v-17q0 -63 -32 -123t-69 -93z" />
<glyph unicode="-" horiz-adv-x="376" d="M66 227q-1 3 -1 12q0 18 9 34h229v-10q0 -18 -9 -36h-228z" />
<glyph unicode="." horiz-adv-x="213" d="M74 -11q-19 0 -32.5 14t-13.5 33t13.5 32.5t32.5 13.5t33 -13.5t14 -32.5q0 -20 -13.5 -33.5t-33.5 -13.5z" />
<glyph unicode="/" horiz-adv-x="495" d="M-27 -186q-10 0 -24 4l535 851q14 3 27 3t25 -3l-535 -851q-18 -4 -28 -4z" />
<glyph unicode="0" horiz-adv-x="587" d="M259 -13q-99 0 -148.5 66t-49.5 181q0 182 77 304.5t209 122.5q98 0 147 -64.5t49 -180.5q0 -122 -31 -217.5t-96.5 -153.5t-156.5 -58zM266 39q62 0 106.5 34.5t67 92t32.5 117.5t10 127q0 199 -143 199q-59 0 -103.5 -35.5t-68 -93t-34.5 -118t-11 -123.5 q0 -200 144 -200z" />
<glyph unicode="1" horiz-adv-x="321" d="M273 650q9 0 19 -2l-114 -648q-14 -3 -29 -3q-13 0 -27 3l102 573l-137 -67q-23 17 -21 46q42 22 101 52q64 33 79 39.5t27 6.5z" />
<glyph unicode="2" horiz-adv-x="511" d="M118 53h323q4 -26 -9 -53h-404q-3 6 -3 18q0 30 32 57q153 127 223 194.5t96.5 113t26.5 97.5q0 60 -35 93t-96 33q-52 0 -87.5 -20.5t-68.5 -54.5q-27 7 -34 33q82 95 196 95q81 0 133 -44.5t52 -129.5q0 -36 -8 -67t-31 -65.5t-44 -60.5t-69.5 -69t-84.5 -72.5 t-109 -88.5l-14 -10z" />
<glyph unicode="3" horiz-adv-x="502" d="M479 642q0 -34 -25 -59l-188 -187q74 -5 124.5 -50.5t50.5 -124.5q0 -111 -69.5 -172t-177.5 -61q-123 0 -179 63q11 29 34 42q60 -55 151 -55q83 0 133 47t50 124q0 72 -48 109.5t-132 37.5h-18q-1 2 -1 6q2 19 23 41l180 183h-290q-2 31 10 56h372z" />
<glyph unicode="4" horiz-adv-x="494" d="M385 228h74q0 -8 -2 -22q-1 -13 -8 -28h-73l-31 -178q-13 -3 -27 -3t-27 3l31 178h-299q-15 48 26 107l267 379q25 -5 44 -27l-258 -363q-19 -29 -18 -46h247l28 163q20 2 28 2q10 0 26 -2z" />
<glyph unicode="5" horiz-adv-x="500" d="M195 -14q-116 0 -177 58q12 30 35 43q52 -52 145 -52q86 0 134.5 50t48.5 134q0 136 -139 136q-39 0 -83.5 -13.5t-57.5 -13.5q-10 0 -18 4l55 310h341q0 -31 -10 -55h-286l-35 -200q46 22 102 22q93 0 141 -45.5t48 -134.5q0 -111 -68 -177t-176 -66z" />
<glyph unicode="6" horiz-adv-x="521" d="M488 611q-78 -15 -147.5 -48t-131.5 -97t-87 -147q70 67 164 67q80 0 129 -44.5t49 -127.5q0 -102 -64 -165.5t-157 -63.5t-144 55t-51 156q0 96 37.5 178.5t100 139.5t137.5 94t155 51q17 -16 10 -48zM274 332q-93 0 -165 -70q-4 -27 -4 -62q0 -79 38 -122.5t106 -43.5 t113 46t45 122q0 65 -39 97.5t-94 32.5z" />
<glyph unicode="7" horiz-adv-x="464" d="M499 642q6 -34 -25 -81l-368 -575q-34 7 -46 27l368 574h-350q0 32 10 55h411z" />
<glyph unicode="8" horiz-adv-x="525" d="M357 334q94 -52 94 -143q0 -53 -20.5 -93.5t-54.5 -64t-73 -35t-81 -11.5q-85 0 -137 36t-52 116q0 71 47.5 125.5t110.5 84.5q-77 48 -77 129q0 77 59 129t147 52q80 0 125 -39.5t45 -102.5q0 -111 -133 -183zM313 609q-64 0 -104 -34t-40 -86q0 -45 29.5 -72t90.5 -52 l23 -9q123 61 123 151q0 47 -32.5 74.5t-89.5 27.5zM228 37q71 0 119 34.5t48 107.5q0 51 -33.5 81t-95.5 54q-4 2 -13 5.5t-14 5.5q-58 -24 -103 -70.5t-45 -104.5q0 -113 137 -113z" />
<glyph unicode="9" horiz-adv-x="524" d="M289 659q94 0 144 -60.5t50 -170.5q0 -441 -412 -443q-2 10 -2 19q0 12 7 31q291 4 341 262q-73 -56 -160 -56q-85 0 -135.5 48.5t-50.5 139.5q0 101 61.5 165.5t156.5 64.5zM268 290q81 0 157 59q3 33 3 72q0 90 -38 139.5t-108 49.5q-68 0 -112.5 -46t-44.5 -126 q0 -74 40.5 -111t102.5 -37z" />
<glyph unicode=":" horiz-adv-x="237" d="M139 342q-20 0 -34 14t-14 34t14.5 34t33.5 14q20 0 34 -14t14 -34t-14 -34t-34 -14zM79 1q-19 0 -33.5 14.5t-14.5 33.5t14.5 33.5t33.5 14.5q20 0 34 -14t14 -34t-14 -34t-34 -14z" />
<glyph unicode=";" horiz-adv-x="253" d="M136 324q-20 0 -34 14t-14 34t14 34t34 14t34 -14t14 -34t-14 -34t-34 -14zM34 -141q-7 0 -13 5.5t-7 13.5q61 70 61 182q0 20 -5 35q39 11 68 -3q0 -1 0.5 -7t0.5 -10q0 -62 -33.5 -121.5t-71.5 -94.5z" />
<glyph unicode="&#x3c;" horiz-adv-x="540" d="M506 403l-405 -165l-14 -3l12 -4l348 -166q-8 -26 -26 -46l-391 185q-1 5 -1 18q0 19 11 43l457 184q11 -20 9 -46z" />
<glyph unicode="=" horiz-adv-x="514" d="M80 297v9q0 21 8 40h364v-8q0 -20 -9 -41h-363zM48 118v8q0 18 9 41h363v-9q0 -18 -8 -40h-364z" />
<glyph unicode="&#x3e;" horiz-adv-x="540" d="M497 265q1 -3 1 -13q0 -21 -12 -48l-457 -185q-12 23 -9 46l406 166l13 4l-12 3l-347 165q7 25 25 46z" />
<glyph unicode="?" horiz-adv-x="396" d="M147 153q-11 0 -18 3q2 53 24 93t51.5 64.5t58.5 47t49 52.5t20 69q0 49 -30 77t-83 28q-61 0 -107 -35q-25 12 -25 37q60 51 139 51q75 0 118.5 -40t43.5 -110q0 -35 -11 -64.5t-29 -50t-39.5 -38.5t-44 -36t-41.5 -37.5t-32.5 -47t-16.5 -60.5q-9 -3 -27 -3zM139 -9 q-17 0 -29 12t-12 29q0 16 12 28.5t29 12.5t29 -12t12 -29t-12 -29t-29 -12z" />
<glyph unicode="@" horiz-adv-x="800" d="M451 634q141 0 223 -81t82 -217q0 -124 -53.5 -196t-133.5 -72q-74 0 -84 68q-53 -54 -124 -54q-59 0 -95 37.5t-36 105.5q0 101 63 164.5t152 63.5q76 0 127 -45l-38 -217q-15 -77 50 -77q48 0 82.5 56.5t34.5 155.5q0 116 -69 187t-190 71q-142 0 -241 -108t-99 -267 q0 -114 66.5 -189t184.5 -75q67 0 132 30q19 -17 14 -47q-74 -34 -155 -34q-139 0 -218 88t-79 220q0 182 119 307t285 125zM370 129q70 0 115 61l34 192q-34 24 -83 24q-64 0 -109.5 -47.5t-45.5 -124.5q0 -48 24.5 -76.5t64.5 -28.5z" />
<glyph unicode="A" horiz-adv-x="562" d="M373 642l126 -637q-15 -8 -36 -8q-17 0 -23 2l-37 195h-272l-103 -194q-12 -3 -23 -3q-20 0 -33 8l344 637q13 4 29 4t28 -4zM157 242h237l-55 292l-6 42l-21 -42z" />
<glyph unicode="B" horiz-adv-x="557" d="M388 333q103 -30 103 -133q0 -99 -68 -155.5t-202 -56.5q-108 0 -176 13l102 582l9 50q70 15 164 15t143.5 -36t49.5 -103q0 -130 -125 -176zM314 599q-68 0 -109 -6l-43 -238h115q88 0 134 41.5t46 101.5q0 101 -143 101zM226 38q103 0 155.5 42t52.5 111 q0 113 -154 113h-127l-45 -257q56 -9 118 -9z" />
<glyph unicode="C" horiz-adv-x="583" d="M316 -14q-123 0 -191 73.5t-68 194.5q0 181 101.5 292.5t251.5 111.5q119 0 185 -64q-10 -29 -38 -42q-59 53 -157 53q-123 0 -203.5 -94.5t-80.5 -249.5q0 -102 55.5 -162t153.5 -60q99 0 170 57q25 -8 28 -37q-85 -73 -207 -73z" />
<glyph unicode="D" horiz-adv-x="649" d="M313 651q143 0 219.5 -72t76.5 -198q0 -80 -25 -149.5t-73 -124t-125 -85.5t-173 -31q-95 0 -168 11l104 583h-1l10 53q82 13 155 13zM224 42q162 0 243.5 93.5t81.5 237.5q0 107 -61.5 166.5t-182.5 59.5q-58 0 -100 -6l-95 -544q52 -7 114 -7z" />
<glyph unicode="E" horiz-adv-x="518" d="M516 590h-312l-41 -232h280q4 -24 -9 -51h-280l-45 -256h323q4 -25 -9 -51h-378l113 642h367q4 -25 -9 -52z" />
<glyph unicode="F" horiz-adv-x="490" d="M515 590h-310l-45 -253h276q1 -26 -9 -51h-276l-51 -286q-20 -4 -28 -4q-9 0 -27 4l113 642h366q3 -26 -9 -52z" />
<glyph unicode="G" horiz-adv-x="625" d="M408 605q-126 0 -208.5 -93.5t-82.5 -250.5q0 -102 54 -162t156 -60q84 0 145 29l35 196h-147q-3 26 10 53h202l-50 -280q-95 -51 -205 -51q-124 0 -191.5 72t-67.5 199q0 180 104 290.5t260 110.5q122 0 187 -69q-11 -31 -38 -45q-63 61 -163 61z" />
<glyph unicode="H" horiz-adv-x="659" d="M604 646q10 0 26 -4l-113 -642q-18 -4 -26 -4q-11 0 -29 4l54 305h-362l-54 -305q-20 -4 -29 -4q-8 0 -26 4l113 642q12 4 27 4q17 0 29 -4l-51 -287h361l51 287q20 4 29 4z" />
<glyph unicode="I" horiz-adv-x="242" d="M72 -4q-9 0 -27 4l113 642q13 4 29 4q15 0 27 -4l-114 -642q-18 -4 -28 -4z" />
<glyph unicode="J" horiz-adv-x="367" d="M80 -16q-35 0 -65 13.5t-43 29.5q10 30 32 42q36 -34 83 -34q42 0 73.5 28.5t42.5 90.5l86 488q11 4 28 4q16 0 27 -4l-85 -487q-30 -171 -179 -171z" />
<glyph unicode="K" horiz-adv-x="553" d="M586 641q-145 -186 -319 -308q73 -146 235 -330q-22 -5 -48 -5l-23 1q-126 146 -212 301q-23 -15 -73 -45l-45 -255q-20 -4 -30 -4q-8 0 -26 4l113 642q20 4 28 4q10 0 28 -4l-57 -325q113 68 193 140t174 186q9 2 27 2q23 0 35 -4z" />
<glyph unicode="L" horiz-adv-x="457" d="M403 50q5 -27 -9 -51h-349l113 643q20 4 28 4q10 0 28 -4l-105 -592h294z" />
<glyph unicode="M" horiz-adv-x="752" d="M693 645q14 0 32 -5l-113 -640q-20 -4 -28 -4t-26 4l82 467l14 64l-13 -26l-273 -443q-14 -3 -25 -3t-25 3l-121 448l-6 27l-9 -68l-83 -469q-18 -4 -28 -4q-8 0 -26 4l113 639q16 7 36 7q10 0 19 -3l135 -494l6 -29l16 29l302 494q14 2 21 2z" />
<glyph unicode="N" horiz-adv-x="654" d="M599 647q10 0 26 -4l-112 -639q-21 -6 -51 -6l-258 528l-10 26l-4 -30l-92 -522q-12 -4 -27 -4q-14 0 -26 4l112 637q24 12 52 8l259 -531l8 -22l5 32l91 519q20 4 27 4z" />
<glyph unicode="O" horiz-adv-x="683" d="M308 -13q-115 0 -182.5 73.5t-67.5 194.5q0 178 92 290.5t239 112.5q117 0 184.5 -74t67.5 -194q0 -183 -91 -293t-242 -110zM317 39q125 0 195 96t70 251q0 101 -53.5 160.5t-149.5 59.5q-120 0 -191 -98t-71 -249q0 -102 53 -161t147 -59z" />
<glyph unicode="P" horiz-adv-x="539" d="M323 653q104 0 158 -45.5t54 -129.5q0 -107 -71 -174.5t-205 -67.5q-67 0 -116 9l-43 -245q-12 -4 -29 -4q-15 0 -26 4l111 630v1q74 22 167 22zM266 286q106 0 157.5 51t51.5 132q0 63 -41 98t-121 35q-51 0 -108 -10l-53 -296q41 -10 114 -10z" />
<glyph unicode="Q" horiz-adv-x="683" d="M434 11q100 -38 155 -153q-17 -17 -53 -26q-35 77 -86 116t-144 39q-114 1 -181 74.5t-67 193.5q0 178 92 290.5t239 112.5q117 0 184.5 -74t67.5 -194q0 -141 -55 -240.5t-152 -138.5zM117 259q0 -102 53 -161t147 -59q125 0 195 96t70 251q0 101 -53.5 160.5 t-149.5 59.5q-120 0 -191 -98t-71 -249z" />
<glyph unicode="R" horiz-adv-x="552" d="M522 497q0 -92 -54.5 -150.5t-141.5 -75.5q62 -136 167 -267q-20 -6 -41 -6q-16 0 -22 2q-96 120 -162 265h-8q-63 0 -112 4l-48 -269q-13 -4 -29 -4q-15 0 -27 4l103 579h-1l10 53q84 21 169 21q99 0 148 -42t49 -114zM205 593l-48 -272q36 -5 112 -5q97 0 146.5 48.5 t49.5 123.5q0 52 -37.5 83.5t-111.5 31.5q-60 0 -111 -10z" />
<glyph unicode="S" horiz-adv-x="503" d="M205 -15q-136 0 -200 76q10 26 38 41q56 -65 168 -65q80 0 125 36.5t45 100.5q0 47 -29.5 76.5t-71 45.5t-83.5 32.5t-71.5 52t-29.5 91.5q0 83 60.5 133.5t157.5 50.5q123 0 183 -64q-4 -13 -15 -26t-23 -18q-59 56 -150 56q-69 0 -112.5 -34.5t-43.5 -92.5 q0 -42 29.5 -68t71.5 -41.5t83.5 -33.5t71 -55.5t29.5 -95.5q0 -91 -62.5 -144.5t-170.5 -53.5z" />
<glyph unicode="T" horiz-adv-x="507" d="M553 642q2 -22 -9 -51h-207l-104 -592q-15 -3 -29 -3t-27 3l104 592h-207q-1 24 9 51h470z" />
<glyph unicode="U" horiz-adv-x="644" d="M279 -14q-99 0 -151 51t-52 141q0 33 7 77l68 387q20 4 29 4q10 0 28 -4l-68 -387q-7 -37 -7 -68q0 -67 38 -107t119 -40q51 0 88.5 15t61 45t37.5 65.5t22 84.5l69 392q20 4 29 4q12 0 26 -4l-70 -399q-22 -124 -86 -190.5t-188 -66.5z" />
<glyph unicode="V" horiz-adv-x="579" d="M573 647q19 0 33 -7q-108 -390 -348 -640q-15 -3 -31 -3q-14 0 -29 3q-94 276 -111 640q19 7 36 7q13 0 23 -3q12 -329 94 -594q214 245 308 594q13 3 25 3z" />
<glyph unicode="W" horiz-adv-x="870" d="M865 647q17 0 31 -6q-102 -367 -303 -641q-15 -5 -33 -5t-30 5q-46 228 -53 433q-1 11 -1 33.5t-1 33.5l-21 -68q-81 -238 -225 -432q-20 -4 -31 -4q-13 0 -33 4q-61 245 -72 641q18 7 36 7q13 0 22 -3q3 -321 57 -593q92 138 159 291t97 283q9 3 29 3q14 0 25 -3 q3 -298 56 -574q185 279 267 592q12 3 24 3z" />
<glyph unicode="X" horiz-adv-x="548" d="M588 642l-270 -321l162 -317q-16 -6 -40 -6q-8 0 -22 2l-143 285l-241 -285q-10 -2 -29 -2q-23 0 -38 6l281 329l-149 309q20 5 41 5q15 0 20 -1l132 -277l229 277q6 1 20 1q30 0 47 -5z" />
<glyph unicode="Y" horiz-adv-x="538" d="M586 641l-291 -382l-45 -259q-18 -4 -29 -4q-9 0 -27 4l47 261l-162 380q18 6 37 6q11 0 23 -2l130 -314l7 -20l14 20l237 314q8 2 27 2q18 0 32 -6z" />
<glyph unicode="Z" horiz-adv-x="531" d="M524 569l-442 -499l-21 -21h397q2 -25 -9 -49h-455q-2 8 -2 15q0 28 25 57l445 501l19 20l-384 -1q-3 29 8 50h444q2 -4 2 -11q0 -33 -27 -62z" />
<glyph unicode="[" horiz-adv-x="275" d="M303 637h-92l-135 -768h92q2 -26 -9 -50h-147l153 868h147q2 -24 -9 -50z" />
<glyph unicode="\" horiz-adv-x="470" d="M343 -186q-9 0 -27 4l-230 813q18 4 27 4t25 -4l231 -813q-18 -4 -26 -4z" />
<glyph unicode="]" horiz-adv-x="275" d="M109 687h147l-153 -868h-147q-2 27 8 50h93l135 768h-92q-2 26 9 50z" />
<glyph unicode="^" horiz-adv-x="502" d="M106 341q-22 4 -36 23l235 314q28 6 53 0l127 -318q-19 -14 -45 -19l-116 287z" />
<glyph unicode="_" horiz-adv-x="416" d="M-58 -82q0 2 -0.5 6.5t-0.5 6.5q0 17 9 33h408v-10q0 -20 -8 -36h-408z" />
<glyph unicode="`" horiz-adv-x="217" d="M271 526l-136 109q13 35 43 46l116 -129q-7 -16 -23 -26z" />
<glyph unicode="a" horiz-adv-x="525" d="M321 483q99 0 157 -42l-78 -444q-21 -5 -50 0l10 79q-72 -88 -168 -88q-68 0 -112 46t-44 133q0 140 84 228t201 88zM204 39q49 0 94 33.5t76 92.5l43 244q-36 22 -104 22q-91 0 -155 -71t-64 -183q0 -65 29.5 -101.5t80.5 -36.5z" />
<glyph unicode="b" horiz-adv-x="532" d="M279 483q91 0 146 -53.5t55 -144.5q0 -136 -78.5 -216t-199.5 -80q-102 0 -168 41l111 628q15 3 28 3q15 0 27 -3l-34 -194q51 19 113 19zM209 39q96 0 155 65.5t59 170.5q0 72 -40 115t-117 43q-60 0 -110 -22l-61 -347q45 -25 114 -25z" />
<glyph unicode="c" horiz-adv-x="460" d="M234 -12q-87 0 -140 54t-53 147q0 132 70.5 213t182.5 81q94 0 144 -52q-11 -25 -35 -40q-46 41 -115 41q-91 0 -140 -69.5t-49 -162.5q0 -71 37 -115.5t109 -44.5q64 0 120 46q24 -13 28 -38q-67 -60 -159 -60z" />
<glyph unicode="d" horiz-adv-x="529" d="M493 661q13 0 27 -3l-111 -631q-68 -39 -161 -39q-97 0 -153.5 53t-56.5 149q0 129 81 210.5t204 81.5q66 0 108 -16l34 192q13 3 28 3zM359 58l63 355q-43 18 -102 18q-100 0 -162 -65.5t-62 -167.5q0 -75 41.5 -116.5t113.5 -41.5q61 0 108 18z" />
<glyph unicode="e" horiz-adv-x="482" d="M217 199q-68 0 -119 19q-1 -7 -1 -23q0 -77 38.5 -116t106.5 -39q71 0 132 54q26 -10 31 -38q-70 -68 -170 -68q-87 0 -141 50t-54 150q0 133 72.5 213.5t177.5 80.5q72 0 113.5 -35t41.5 -92q0 -71 -59.5 -113.5t-168.5 -42.5zM286 432q-67 0 -116.5 -44.5t-65.5 -121.5 q49 -19 120 -19q80 0 121.5 27.5t41.5 77.5q0 34 -27 57t-74 23z" />
<glyph unicode="f" horiz-adv-x="299" d="M308 662q58 0 98 -30q-6 -28 -29 -42q-36 22 -78 22q-91 0 -110 -106l-7 -38l131 -1q3 -25 -8 -45l-130 1l-72 -424q-12 -3 -27 -3q-14 0 -27 3l72 424h-67q-3 23 8 45h67l5 31q14 83 60 123t114 40z" />
<glyph unicode="g" horiz-adv-x="528" d="M318 483q99 0 162 -42l-76 -433q-17 -93 -76.5 -147t-149.5 -54q-131 0 -189 78q14 27 42 37q48 -65 147 -65q68 0 113.5 41.5t56.5 109.5l6 34q-65 -35 -125 -35q-85 0 -137 49.5t-52 137.5q0 132 81.5 210.5t196.5 78.5zM364 98l55 310q-38 23 -109 23q-90 0 -151 -62 t-61 -168q0 -68 38.5 -106t105.5 -38q60 0 122 41z" />
<glyph unicode="h" d="M299 483q105 0 145.5 -52.5t25.5 -137.5l-52 -293q-13 -3 -28 -3t-27 3l49 277q13 72 -16 113t-104 41q-76 0 -133 -25l-72 -406q-13 -3 -28 -3t-27 3l115 657q15 3 29 3q15 0 27 -3l-35 -199q61 25 131 25z" />
<glyph unicode="i" horiz-adv-x="218" d="M167 565q-18 0 -31 13t-13 31t13 31t31 13t31 -13t13 -31t-13 -31t-31 -13zM60 -3q-14 0 -27 3l83 470q12 4 29 4q15 0 26 -4l-83 -470q-12 -3 -28 -3z" />
<glyph unicode="j" horiz-adv-x="231" d="M181 564q-18 0 -31 12.5t-13 31.5q0 18 13 31t31 13t31 -13t13 -31q0 -19 -13 -31.5t-31 -12.5zM-66 -196q-64 0 -103 39q9 28 33 41q33 -30 71 -30q39 0 67.5 27t39.5 86l86 501q15 3 28 3q16 0 28 -3l-87 -502q-28 -162 -163 -162z" />
<glyph unicode="k" horiz-adv-x="492" d="M458 357q0 -61 -44.5 -104t-118.5 -64l116 -188q-20 -5 -38 -5t-28 2l-104 173q-12 19 -12 46q87 21 129 53.5t42 80.5q0 81 -121 81q-70 0 -121 -23l-72 -409q-12 -3 -28 -3q-14 0 -26 3l115 657q15 3 28 3q15 0 27 -3l-34 -195q56 21 123 21q80 0 123.5 -34t43.5 -92z " />
<glyph unicode="l" horiz-adv-x="280" d="M139 -8q-42 0 -68 21t-26 61q0 8 2 24l99 560q12 4 28 4t27 -4l-98 -553q-1 -5 -1 -15q0 -47 48 -47q31 0 62 25q25 -13 25 -38q-40 -38 -98 -38z" />
<glyph unicode="m" horiz-adv-x="820" d="M594 483q82 0 121 -39t39 -104q0 -26 -4 -47l-54 -293q-14 -3 -28 -3q-15 0 -27 3l50 274q4 21 4 47q0 110 -112 110q-74 0 -137 -44q6 -22 6 -49q0 -13 -4 -45l-52 -293q-14 -3 -29 -3q-13 0 -27 3l49 274q3 24 3 45q0 112 -117 112q-67 0 -118 -21l-73 -410 q-12 -3 -28 -3q-15 0 -27 3l78 441q78 42 180 42q97 0 138 -54q82 54 169 54z" />
<glyph unicode="n" horiz-adv-x="539" d="M295 483q91 0 134.5 -39.5t43.5 -105.5q0 -13 -4 -45l-52 -293q-13 -3 -29 -3q-14 0 -27 3l49 277q4 20 4 43q0 111 -126 111q-76 0 -133 -23l-71 -408q-14 -3 -28 -3q-15 0 -27 3l77 441q82 42 189 42z" />
<glyph unicode="o" horiz-adv-x="532" d="M234 -11q-91 0 -142.5 56t-51.5 145q0 128 68.5 210.5t179.5 82.5q90 0 140 -55.5t50 -146.5q0 -127 -67 -209.5t-177 -82.5zM241 38q82 0 130.5 68t48.5 165q0 75 -35.5 118.5t-104.5 43.5q-85 0 -134 -68.5t-49 -163.5q0 -73 37 -118t107 -45z" />
<glyph unicode="p" horiz-adv-x="531" d="M276 483q95 0 149.5 -52t54.5 -143q0 -138 -78 -218.5t-197 -80.5q-67 0 -119 20l-34 -196q-13 -3 -29 -3q-14 0 -26 3l110 628q79 42 169 42zM213 39q93 0 151 65t58 173q0 72 -38.5 114t-117.5 42q-62 0 -111 -23l-60 -347q45 -24 118 -24z" />
<glyph unicode="q" horiz-adv-x="532" d="M318 483q110 0 167 -42l-112 -628q-14 -3 -28 -3q-15 0 -27 3l38 211q-56 -35 -126 -35q-86 0 -139 52.5t-53 143.5q0 131 81.5 214.5t198.5 83.5zM235 41q79 0 132 45l58 324q-42 21 -112 21q-95 0 -156 -67t-61 -175q0 -68 36.5 -108t102.5 -40z" />
<glyph unicode="r" horiz-adv-x="354" d="M282 483q54 0 94 -14q-3 -26 -23 -48q-31 9 -79 9q-72 0 -118 -22l-71 -408q-13 -3 -29 -3q-15 0 -27 3l77 441q78 42 176 42z" />
<glyph unicode="s" horiz-adv-x="430" d="M175 -11q-115 0 -172 57q11 28 36 41q54 -49 145 -49q58 0 89.5 26t31.5 68q0 34 -24.5 54t-59.5 29.5t-69.5 20.5t-59 38.5t-24.5 71.5q0 60 48.5 98.5t133.5 38.5q52 0 91.5 -13.5t58.5 -31.5q-9 -26 -32 -43q-48 38 -126 38q-55 0 -86.5 -22.5t-31.5 -57.5 q0 -30 24.5 -48.5t59 -28.5t69.5 -22t59.5 -39t24.5 -70q0 -71 -51 -113.5t-135 -42.5z" />
<glyph unicode="t" horiz-adv-x="372" d="M191 422l-47 -268q-5 -20 -5 -46q0 -70 76 -70q41 0 88 32q22 -15 22 -40q-57 -41 -122 -41q-55 0 -87.5 26t-32.5 79q0 26 4 46l50 282h-93v10q0 16 8 35h92l23 128q13 3 28 3t26 -3l-22 -128h175q1 -3 1 -10q0 -17 -9 -35h-175z" />
<glyph unicode="u" horiz-adv-x="531" d="M462 470q15 0 27 -3l-78 -439q-94 -41 -194 -41q-83 0 -124 36t-41 102q0 19 5 46l52 296q14 3 28 3q15 0 28 -3l-49 -276q-5 -32 -5 -52q0 -100 120 -100q67 0 132 25l71 403q14 3 28 3z" />
<glyph unicode="v" horiz-adv-x="479" d="M432 470q16 -36 16 -87q0 -92 -76 -201.5t-183 -182.5q-15 -3 -31 -3q-15 0 -27 3q-27 92 -46 220t-23 246q13 5 36 5q12 0 22 -2q2 -103 17.5 -219.5t32.5 -184.5q2 -7 4 -21q2 2 4 4.5t4.5 4.5t3.5 3q91 74 148 164t57 162q0 51 -19 89q21 3 25 3q21 0 35 -3z" />
<glyph unicode="w" horiz-adv-x="729" d="M681 470q16 -36 16 -87q0 -93 -66.5 -203.5t-155.5 -180.5q-13 -3 -29 -3q-15 0 -27 3q-33 105 -54 252q-54 -146 -172 -252q-13 -3 -29 -3q-15 0 -27 3q-30 95 -51.5 222.5t-24.5 243.5q13 5 37 5q11 0 21 -2q1 -104 18 -219t37 -183q4 -16 5 -24q4 5 11 12 q67 74 115 165.5t44 173.5h1q-2 22 -4 72q12 5 35 5q10 0 22 -2q1 -107 17 -221t36 -181q4 -16 5 -24q4 5 11 12q69 66 120 158.5t51 170.5q0 48 -20 88q14 2 29 2q18 0 29 -3z" />
<glyph unicode="x" horiz-adv-x="448" d="M450 467l-200 -232l130 -233q-10 -4 -30 -6q-21 0 -30 2l-109 201l-175 -201q-13 -3 -32.5 -2t-29.5 5l213 241l-120 224q22 5 36 5q15 0 23 -1l101 -193l160 194q36 4 63 -4z" />
<glyph unicode="y" horiz-adv-x="529" d="M457 471q15 0 27 -3l-81 -460q-17 -93 -75.5 -147t-149.5 -54q-125 0 -178 69q12 26 42 38q43 -57 134 -57q72 0 116 40.5t56 110.5l7 41q-70 -35 -147 -35q-89 0 -125.5 49.5t-21.5 133.5l47 271q15 3 28 3q15 0 28 -3l-45 -251q-12 -74 11 -112.5t100 -38.5 q73 0 135 38l64 364q14 3 28 3z" />
<glyph unicode="z" horiz-adv-x="453" d="M377 67q8 -5 13.5 -18.5t3.5 -24.5q-74 -34 -163 -34q-96 0 -171 43l-37 -40q-30 0 -30 22q0 19 40 59l303 333l16 13h-286q-1 28 8 48h344q1 -3 1 -12q0 -30 -33 -66l-289 -316q64 -35 139 -35q69 0 141 28z" />
<glyph unicode="{" horiz-adv-x="301" d="M339 687q2 -24 -9 -50h-33q-32 0 -49.5 -20t-25.5 -62l-33 -190q-14 -79 -64 -110q40 -33 25 -110l-34 -194q-15 -79 46 -79h33q2 -26 -9 -50h-34q-58 0 -79.5 35.5t-11.5 93.5l34 194q15 83 -44 83h-30q0 2 -0.5 7t-0.5 8q0 17 11 39h30q58 0 73 83l33 190 q11 58 45.5 95t91.5 37h35z" />
<glyph unicode="|" horiz-adv-x="232" d="M13 -175l151 855q25 8 49 0l-151 -855q-29 -8 -49 0z" />
<glyph unicode="}" horiz-adv-x="301" d="M274 282l1 -15q0 -17 -11 -39h-29q-59 0 -74 -83l-34 -194q-11 -58 -45 -93.5t-91 -35.5h-35q-2 26 9 50h33q32 0 49 19t25 60l34 194q14 78 64 110q-40 32 -25 110l34 190q7 43 -3.5 62.5t-42.5 19.5h-33q-2 26 9 50h34q58 0 79.5 -36.5t11.5 -95.5l-34 -190 q-15 -83 44 -83h30z" />
<glyph unicode="~" horiz-adv-x="522" d="M93 172q-26 3 -37 25q49 71 125 71q28 0 78 -20t74 -20q47 0 79 47q28 -3 37 -26q-47 -74 -125 -74q-32 0 -81 20t-71 20q-48 0 -79 -43z" />
<glyph unicode="&#xa1;" horiz-adv-x="221" d="M139 400q-17 0 -29 12t-12 29t12 29t29 12t29 -12t12 -29t-12 -29t-29 -12zM33 -174q-21 0 -30 3q48 264 102 493q7 3 16 3q7 0 15 -3q-35 -272 -73 -493q-11 -3 -30 -3z" />
<glyph unicode="&#xa2;" horiz-adv-x="479" d="M338 543q87 -7 130 -54q-12 -26 -39 -40q-39 39 -99 44l-65 -371q65 0 125 45q23 -15 24 -40q-73 -56 -158 -56l-18 -102q-11 -3 -23 -3q-11 0 -21 3l18 105q-73 12 -115 61t-42 130q0 119 69 194.5t170 83.5l19 107q11 3 22 3t22 -3zM113 274q0 -58 28 -97t81 -51 l64 367q-80 -8 -126.5 -70t-46.5 -149z" />
<glyph unicode="&#xa3;" horiz-adv-x="522" d="M341 659q103 0 158 -62q-11 -30 -39 -43q-46 55 -125 55q-70 0 -110.5 -47t-40.5 -118q0 -49 -2 -115h179q2 -22 -8 -49h-174q-5 -73 -17 -114.5t-38 -96.5q-6 -14 -6 -18h330q1 -3 1 -12q0 -19 -10 -39h-402q3 34 22 65q29 53 43.5 98t20.5 117h-71q-1 25 9 49h65 q2 60 2 105q0 105 60.5 165t152.5 60z" />
<glyph unicode="&#xa4;" horiz-adv-x="603" d="M298 76q-90 0 -147 49l-56 -53q-20 9 -33 34l57 53q-34 53 -34 126q0 99 56 169l-41 44q11 23 35 34l39 -42q61 50 146 50q88 0 145 -51l58 54q22 -10 33 -33l-59 -56q34 -49 34 -125q0 -101 -58 -170l40 -42q-13 -24 -35 -34l-38 41q-59 -48 -142 -48zM301 131 q83 0 130 56.5t47 138.5q0 76 -44.5 118.5t-114.5 42.5q-82 0 -131 -56.5t-49 -140.5q0 -77 44.5 -118t117.5 -41z" />
<glyph unicode="&#xa5;" horiz-adv-x="520" d="M552 635l-243 -322h116v-8q0 -17 -8 -36h-133l-13 -74h133v-9q0 -15 -8 -36h-133l-26 -150q-13 -3 -29 -3q-14 0 -28 3l27 150h-134l-1 9q0 15 9 36h134l13 74h-134q-1 2 -1 8q0 15 8 36h118l-128 322q18 5 35 5q15 0 25 -2l110 -292l6 -18l11 18l220 292q7 2 25 2 q16 0 29 -5z" />
<glyph unicode="&#xa6;" horiz-adv-x="231" d="M101 331l62 349q27 9 49 0l-61 -349q-26 -9 -50 0zM12 -175l62 350q27 7 49 0l-62 -350q-28 -8 -49 0z" />
<glyph unicode="&#xa7;" horiz-adv-x="526" d="M231 129l-102 124q-59 71 -58 154q3 111 79 181t176 70q64 0 106 -18t77 -52q-11 -31 -40 -43q-32 31 -63.5 45.5t-84.5 14.5q-79 0 -136 -52.5t-58 -139.5q-1 -60 47 -119l104 -128q-16 -27 -47 -37zM202 -106q-64 0 -106 18t-77 52q11 30 39 43q31 -31 63.5 -45.5 t84.5 -14.5q79 0 136 52.5t59 140.5q0 61 -47 118l-104 128q14 27 47 36l102 -123q58 -70 57 -153q-3 -112 -78.5 -182t-175.5 -70z" />
<glyph unicode="&#xa8;" horiz-adv-x="321" d="M171 561q-17 0 -28.5 12t-11.5 29t12 29t28 12q17 0 29 -12t12 -29t-12 -29t-29 -12zM362 561q-17 0 -29 12t-12 29t12 29t29 12q16 0 28.5 -12.5t12.5 -28.5q0 -17 -12 -29t-29 -12z" />
<glyph unicode="&#xa9;" horiz-adv-x="732" d="M335 -24q-123 0 -199 80t-76 205q0 167 96 273.5t253 106.5q123 0 199.5 -81.5t76.5 -203.5q0 -168 -96 -274t-254 -106zM342 17q136 0 218.5 93.5t82.5 238.5q0 107 -66.5 178.5t-175.5 71.5q-136 0 -217 -92.5t-81 -238.5q0 -111 65.5 -181t173.5 -70zM353 115 q-69 0 -111.5 43.5t-42.5 120.5q0 97 59.5 158t143.5 61q72 0 116 -42q-11 -26 -34 -38q-34 34 -90 34q-68 0 -107 -48.5t-39 -115.5q0 -56 30 -91t83 -35q57 0 102 39q21 -14 22 -37q-58 -49 -132 -49z" />
<glyph unicode="&#xaa;" horiz-adv-x="364" d="M247 665q55 0 82.5 -29t15.5 -93l-30 -173q-65 -29 -131 -29q-50 0 -76.5 23t-26.5 60q0 54 39.5 85t99.5 31q45 0 77 -17l5 26q12 71 -66 73q-48 0 -94 -32q-18 11 -18 33q55 42 123 42zM130 433q0 -25 17.5 -38.5t48.5 -13.5q42 0 79 14l15 85q-31 21 -73 21 q-41 0 -64 -18t-23 -50z" />
<glyph unicode="&#xab;" horiz-adv-x="400" d="M140 106l-100 149l153 153q18 -4 22 -22l-108 -130l63 -130q-11 -16 -30 -20zM279 106l-100 149l153 153q16 -4 22 -22l-108 -130l62 -130q-9 -16 -29 -20z" />
<glyph unicode="&#xad;" horiz-adv-x="376" d="M66 227q-1 3 -1 12q0 18 9 34h229v-10q0 -18 -9 -36h-228z" />
<glyph unicode="&#xae;" horiz-adv-x="731" d="M427 745q123 0 199.5 -82t76.5 -204q0 -167 -96 -273t-254 -106q-123 0 -199 80t-76 205q0 167 96 273.5t253 106.5zM360 120q136 0 218.5 94t82.5 238q0 108 -66.5 179.5t-175.5 71.5q-136 0 -217 -93t-81 -238q0 -111 65.5 -181.5t173.5 -70.5zM413 611q128 0 128 -101 q0 -50 -26.5 -83t-73.5 -45l61 -163q-12 -3 -26 -3h-21l-59 158h-15q-35 0 -73 5l-28 -160q-10 -3 -19 -3q-12 0 -24 3l66 373l1 4q52 15 109 15zM388 415q108 0 108 88q0 67 -90 67q-34 0 -65 -6l-26 -143q33 -8 73 -6z" />
<glyph unicode="&#xaf;" horiz-adv-x="299" d="M129 569q-1 2 -1 11q0 17 9 35h243v-10q0 -20 -8 -36h-243z" />
<glyph unicode="&#xb0;" horiz-adv-x="327" d="M212 450q-47 0 -80 33.5t-33 80.5t33 80.5t80 33.5t80.5 -33.5t33.5 -80.5t-33.5 -80.5t-80.5 -33.5zM213 489q31 0 53 22t22 53q0 32 -22 54t-53 22q-32 0 -54 -22t-22 -54q0 -31 22.5 -53t53.5 -22z" />
<glyph unicode="&#xb1;" horiz-adv-x="514" d="M457 327q3 -24 -9 -49h-166l-27 -156q-26 -6 -48 0l27 156h-166q-3 26 9 49h166l27 153q25 9 48 0l-27 -153h166zM27 47h381q2 -24 -9 -49h-380q-3 24 8 49z" />
<glyph unicode="&#xb4;" horiz-adv-x="206" d="M138 526q-16 10 -21 29l149 127q29 -14 37 -49z" />
<glyph unicode="&#xb6;" horiz-adv-x="552" d="M517 623l-2 -5h1l-140 -797q-13 -4 -29 -4q-15 0 -27 4l74 419q-63 -10 -127 -10q-102 0 -156 48.5t-54 128.5q0 109 74 176.5t208 67.5q106 0 178 -28zM277 281q69 0 126 10l52 293q-59 16 -124 16q-105 0 -160 -50.5t-55 -136.5q0 -62 40.5 -97t120.5 -35zM230 143 q12 4 28 4q15 0 26 -4l-57 -321q-18 -4 -27 -4q-11 0 -27 4z" />
<glyph unicode="&#xb7;" horiz-adv-x="219" d="M118 289q-17 0 -30 12.5t-13 29.5t13 30t30 13t29.5 -13t12.5 -30t-12.5 -29.5t-29.5 -12.5z" />
<glyph unicode="&#xb8;" horiz-adv-x="217" d="M95 6h40l-22 -48q63 -14 63 -59q0 -47 -35 -67.5t-83 -20.5q-43 0 -58 12q5 21 20 35q16 -9 43 -9t45 11t18 32q0 18 -16 26t-51 12z" />
<glyph unicode="&#xba;" horiz-adv-x="401" d="M221 342q-61 0 -96.5 36.5t-35.5 100.5q0 83 49.5 134.5t122.5 51.5q60 0 95.5 -36.5t35.5 -100.5q0 -82 -49 -134t-122 -52zM228 386q53 0 84 37.5t31 97.5q0 48 -23 73.5t-67 25.5q-53 0 -84.5 -37.5t-31.5 -97.5q0 -47 24 -73t67 -26z" />
<glyph unicode="&#xbb;" horiz-adv-x="408" d="M62 106q-18 4 -23 20l108 129l-62 131q11 18 30 22l99 -153zM210 106q-18 4 -23 20l108 129l-62 131q11 18 30 22l99 -153z" />
<glyph unicode="&#xbc;" horiz-adv-x="717" d="M592 657q27 6 53 0l-575 -704q-28 -8 -52 0zM102 547q-18 13 -18 38q74 38 96 47t42 9q14 0 18 -2l-66 -375q-12 -3 -25 -3q-15 0 -25 3l57 322zM610 123h49l-3 -18q-1 -9 -5 -27h-49l-14 -79q-8 -1 -24 -1q-15 0 -23 1l14 79h-173q-11 39 15 75l165 237q27 -1 42 -22 l-149 -210q-15 -21 -15 -35h123l20 112q16 2 23 2q9 0 23 -2z" />
<glyph unicode="&#xbd;" horiz-adv-x="714" d="M598 657q27 6 53 0l-575 -704q-28 -8 -52 0zM102 547q-18 13 -18 38q74 38 96 47t42 9q14 0 18 -2l-66 -375q-12 -3 -25 -3q-15 0 -25 3l57 322zM651 287q0 -52 -40 -99t-143 -136l-12 -9l18 2h165q4 -20 -8 -45h-248q0 1 -0.5 3t-0.5 4q0 19 22 40q132 120 165.5 158 t33.5 75q0 24 -17.5 40t-45.5 16q-46 0 -83 -35q-23 7 -25 28q48 52 114 52q45 0 75 -24.5t30 -69.5z" />
<glyph unicode="&#xbe;" horiz-adv-x="757" d="M651 657q28 6 53 0l-574 -704q-29 -8 -53 0zM320 406q0 -68 -43 -105t-109 -37q-76 0 -115 41q10 24 30 35q35 -35 91 -35q44 0 71 24.5t27 67.5q0 73 -95 73h-21q-1 1 -1 6q0 12 12 25l96 97h-166q0 25 8 44h234q0 -22 -18 -40l-98 -96q44 -4 70.5 -29t26.5 -71z M669 235l-20 -112h49q0 -5 -2 -19q-2 -11 -6 -26h-49l-14 -79q-8 -1 -24 -1q-15 0 -23 1l14 79h-172q-12 37 15 75l165 237q26 -1 41 -22l-149 -210q-15 -22 -14 -35h122l20 112q16 2 23 2q8 0 24 -2z" />
<glyph unicode="&#xbf;" horiz-adv-x="389" d="M231 399q-17 0 -29 12t-12 29q0 16 12 28.5t29 12.5t29 -12t12 -29t-12 -29t-29 -12zM153 -169q-76 0 -119.5 39.5t-42.5 109.5q0 40 15 73t37.5 53.5t49 43.5t50 43t41 52t21.5 70q9 3 27 3q9 0 18 -3q-2 -53 -24 -93.5t-51.5 -65.5t-58.5 -47.5t-49 -52.5t-20 -68 q0 -49 29.5 -76.5t82.5 -27.5q60 0 108 35q25 -15 25 -38q-59 -50 -139 -50z" />
<glyph unicode="&#xc0;" horiz-adv-x="562" d="M434 705q-5 -17 -18 -27l-155 86q8 35 36 50zM373 642l126 -637q-15 -8 -36 -8q-17 0 -23 2l-37 195h-272l-103 -194q-12 -3 -23 -3q-20 0 -33 8l344 637q13 4 29 4t28 -4zM157 242h237l-55 292l-6 42l-21 -42z" />
<glyph unicode="&#xc1;" horiz-adv-x="562" d="M274 680q-12 10 -13 26l171 105q23 -15 25 -50zM373 642l126 -637q-15 -8 -36 -8q-17 0 -23 2l-37 195h-272l-103 -194q-12 -3 -23 -3q-20 0 -33 8l344 637q13 4 29 4t28 -4zM157 242h237l-55 292l-6 42l-21 -42z" />
<glyph unicode="&#xc2;" horiz-adv-x="562" d="M240 678q-15 11 -18 29l122 96q21 6 41 0l90 -96q-9 -19 -25 -29l-90 80zM373 642l126 -637q-15 -8 -36 -8q-17 0 -23 2l-37 195h-272l-103 -194q-12 -3 -23 -3q-20 0 -33 8l344 637q13 4 29 4t28 -4zM157 242h237l-55 292l-6 42l-21 -42z" />
<glyph unicode="&#xc3;" horiz-adv-x="562" d="M235 696q-27 0 -39 16q41 77 105 77q28 0 68.5 -21t57.5 -21q38 0 54 44q29 0 39 -14q-13 -37 -38.5 -57.5t-56.5 -20.5q-28 0 -67 20.5t-59 20.5q-38 0 -64 -44zM345 646q16 0 28 -4l126 -637q-15 -8 -36 -8q-17 0 -23 2l-37 195h-272l-103 -194q-12 -3 -23 -3 q-20 0 -33 8l344 637q13 4 29 4zM157 242h237l-55 292l-6 42l-21 -42z" />
<glyph unicode="&#xc4;" horiz-adv-x="562" d="M263 709q-17 0 -28.5 12t-11.5 29q0 16 11.5 28t28.5 12t28.5 -12t11.5 -28q0 -17 -11.5 -29t-28.5 -12zM451 709q-17 0 -28.5 12t-11.5 29q0 16 11.5 28t28.5 12t28.5 -12t11.5 -28q0 -17 -11.5 -29t-28.5 -12zM373 642l126 -637q-15 -8 -36 -8q-17 0 -23 2l-37 195 h-272l-103 -194q-12 -3 -23 -3q-20 0 -33 8l344 637q13 4 29 4t28 -4zM157 242h237l-55 292l-6 42l-21 -42z" />
<glyph unicode="&#xc5;" horiz-adv-x="562" d="M351 655q-38 0 -60.5 22.5t-22.5 57.5q0 46 29 74.5t68 28.5q37 0 59.5 -22t22.5 -56q0 -48 -27 -76.5t-69 -28.5zM362 801q-23 0 -38.5 -18.5t-15.5 -43.5q0 -21 11.5 -34t34.5 -13q25 0 39.5 18t14.5 44q0 21 -11.5 34t-34.5 13zM373 642l126 -637q-15 -8 -36 -8 q-17 0 -23 2l-37 195h-272l-103 -194q-12 -3 -23 -3q-20 0 -33 8l344 637q13 4 29 4t28 -4zM157 242h237l-55 292l-6 42l-21 -42z" />
<glyph unicode="&#xc6;" horiz-adv-x="766" d="M763 590h-265l-48 -272h237q2 -23 -9 -52h-238l-38 -214h280q1 -28 -10 -52h-334l47 266h-176l-196 -267q-8 -2 -24 -2q-17 0 -34 7l468 638h350q0 -32 -10 -52zM247 318h147l41 230l9 40l-29 -41z" />
<glyph unicode="&#xc7;" horiz-adv-x="583" d="M410 658q119 0 185 -64q-10 -29 -38 -42q-59 53 -157 53q-123 0 -203.5 -94.5t-80.5 -249.5q0 -102 55.5 -162t153.5 -60q99 0 170 57q25 -8 28 -37q-81 -69 -194 -73l-13 -28q63 -14 63 -59q0 -47 -35 -67.5t-83 -20.5q-43 0 -58 12q5 21 20 35q17 -9 43 -9q27 0 45 11 t18 32q0 18 -16 26t-51 12l27 57q-110 8 -171 80.5t-61 186.5q0 181 101.5 292.5t251.5 111.5z" />
<glyph unicode="&#xc8;" horiz-adv-x="518" d="M437 705q-5 -17 -18 -27l-155 86q8 35 36 50zM516 590h-312l-41 -232h280q4 -24 -9 -51h-280l-45 -256h323q4 -25 -9 -51h-378l113 642h367q4 -25 -9 -52z" />
<glyph unicode="&#xc9;" horiz-adv-x="518" d="M277 680q-12 10 -13 26l171 105q23 -15 25 -50zM516 590h-312l-41 -232h280q4 -24 -9 -51h-280l-45 -256h323q4 -25 -9 -51h-378l113 642h367q4 -25 -9 -52z" />
<glyph unicode="&#xca;" horiz-adv-x="518" d="M243 678q-15 11 -18 29l122 96q21 6 41 0l90 -96q-9 -19 -25 -29l-90 80zM516 590h-312l-41 -232h280q4 -24 -9 -51h-280l-45 -256h323q4 -25 -9 -51h-378l113 642h367q4 -25 -9 -52z" />
<glyph unicode="&#xcb;" horiz-adv-x="518" d="M266 709q-17 0 -28.5 12t-11.5 29q0 16 12 28t28 12t28 -12t12 -28q0 -17 -11.5 -29t-28.5 -12zM454 709q-17 0 -28.5 12t-11.5 29q0 16 12 28t28 12t28 -12t12 -28q0 -17 -11.5 -29t-28.5 -12zM516 590h-312l-41 -232h280q4 -24 -9 -51h-280l-45 -256h323q4 -25 -9 -51 h-378l113 642h367q4 -25 -9 -52z" />
<glyph unicode="&#xcc;" horiz-adv-x="242" d="M260 678l-155 86q8 35 36 50l137 -109q-5 -17 -18 -27zM72 -4q-9 0 -27 4l113 642q13 4 29 4q15 0 27 -4l-114 -642q-18 -4 -28 -4z" />
<glyph unicode="&#xcd;" horiz-adv-x="242" d="M119 680q-12 10 -13 26l171 105q23 -15 25 -50zM72 -4q-9 0 -27 4l113 642q13 4 29 4q15 0 27 -4l-114 -642q-18 -4 -28 -4z" />
<glyph unicode="&#xce;" horiz-adv-x="242" d="M230 803l75 -104q-5 -16 -24 -23l-75 79l-101 -79q-17 4 -21 22l111 105q17 3 35 0zM72 -4q-9 0 -27 4l113 642q13 4 29 4q15 0 27 -4l-114 -642q-18 -4 -28 -4z" />
<glyph unicode="&#xcf;" horiz-adv-x="242" d="M125 709q-17 0 -28.5 12t-11.5 29q0 16 11.5 28t28.5 12t28.5 -12t11.5 -28q0 -17 -11.5 -29t-28.5 -12zM279 709q-17 0 -29 12t-12 29q0 16 12 28t29 12t28.5 -12t11.5 -28q0 -17 -11.5 -29t-28.5 -12zM72 -4q-9 0 -27 4l113 642q13 4 29 4q15 0 27 -4l-114 -642 q-18 -4 -28 -4z" />
<glyph unicode="&#xd0;" horiz-adv-x="649" d="M313 651q143 0 219.5 -72t76.5 -198q0 -80 -25 -149.5t-73 -124t-125 -85.5t-173 -31q-95 0 -168 11l53 296h-81q-2 26 7 40h81l44 247h-1l10 53q82 13 155 13zM224 42q162 0 243.5 93.5t81.5 237.5q0 107 -61.5 166.5t-182.5 59.5q-58 0 -100 -6l-45 -255h88 q3 -21 -7 -40h-88l-43 -249q52 -7 114 -7z" />
<glyph unicode="&#xd1;" horiz-adv-x="654" d="M286 696q-27 0 -39 16q41 77 105 77q28 0 68.5 -21t57.5 -21q38 0 54 44q28 0 39 -14q-13 -37 -38.5 -57.5t-56.5 -20.5q-28 0 -67 20.5t-59 20.5q-38 0 -64 -44zM599 647q10 0 26 -4l-112 -639q-21 -6 -51 -6l-258 528l-10 26l-4 -30l-92 -522q-12 -4 -27 -4 q-14 0 -26 4l112 637q24 12 52 8l259 -531l8 -22l5 32l91 519q20 4 27 4z" />
<glyph unicode="&#xd2;" horiz-adv-x="683" d="M457 678l-155 86q8 35 36 50l137 -109q-5 -17 -18 -27zM308 -13q-115 0 -182.5 73.5t-67.5 194.5q0 178 92 290.5t239 112.5q117 0 184.5 -74t67.5 -194q0 -183 -91 -293t-242 -110zM317 39q125 0 195 96t70 251q0 101 -53.5 160.5t-149.5 59.5q-120 0 -191 -98t-71 -249 q0 -102 53 -161t147 -59z" />
<glyph unicode="&#xd3;" horiz-adv-x="683" d="M316 680q-12 10 -13 26l171 105q23 -15 25 -50zM308 -13q-115 0 -182.5 73.5t-67.5 194.5q0 178 92 290.5t239 112.5q117 0 184.5 -74t67.5 -194q0 -183 -91 -293t-242 -110zM317 39q125 0 195 96t70 251q0 101 -53.5 160.5t-149.5 59.5q-120 0 -191 -98t-71 -249 q0 -102 53 -161t147 -59z" />
<glyph unicode="&#xd4;" horiz-adv-x="683" d="M427 803l90 -96q-9 -19 -25 -29l-90 80l-120 -80q-15 11 -18 29l122 96q21 6 41 0zM308 -13q-115 0 -182.5 73.5t-67.5 194.5q0 178 92 290.5t239 112.5q117 0 184.5 -74t67.5 -194q0 -183 -91 -293t-242 -110zM317 39q125 0 195 96t70 251q0 101 -53.5 160.5 t-149.5 59.5q-120 0 -191 -98t-71 -249q0 -102 53 -161t147 -59z" />
<glyph unicode="&#xd5;" horiz-adv-x="683" d="M277 696q-27 0 -39 16q41 77 105 77q28 0 68.5 -21t57.5 -21q38 0 54 44q29 0 39 -14q-13 -37 -38.5 -57.5t-56.5 -20.5q-28 0 -67 20.5t-59 20.5q-38 0 -64 -44zM308 -13q-115 0 -182.5 73.5t-67.5 194.5q0 178 92 290.5t239 112.5q117 0 184.5 -74t67.5 -194 q0 -183 -91 -293t-242 -110zM317 39q125 0 195 96t70 251q0 101 -53.5 160.5t-149.5 59.5q-120 0 -191 -98t-71 -249q0 -102 53 -161t147 -59z" />
<glyph unicode="&#xd6;" horiz-adv-x="683" d="M305 709q-17 0 -28.5 12t-11.5 29q0 16 11.5 28t28.5 12t28.5 -12t11.5 -28q0 -17 -11.5 -29t-28.5 -12zM493 709q-17 0 -28.5 12t-11.5 29q0 16 11.5 28t28.5 12t28.5 -12t11.5 -28q0 -17 -11.5 -29t-28.5 -12zM308 -13q-115 0 -182.5 73.5t-67.5 194.5q0 178 92 290.5 t239 112.5q117 0 184.5 -74t67.5 -194q0 -183 -91 -293t-242 -110zM317 39q125 0 195 96t70 251q0 101 -53.5 160.5t-149.5 59.5q-120 0 -191 -98t-71 -249q0 -102 53 -161t147 -59z" />
<glyph unicode="&#xd7;" horiz-adv-x="438" d="M392 371l-145 -129l99 -128q-15 -20 -39 -35l-100 128l-143 -127q-16 10 -28 34l144 128l-99 128q14 20 40 35l99 -128l144 128q19 -13 28 -34z" />
<glyph unicode="&#xd8;" horiz-adv-x="683" d="M567 591q74 -74 74 -201q0 -183 -91 -293t-242 -110q-75 0 -130 32l-54 -79q-28 3 -37 28l53 78q-82 73 -82 209q0 178 92 290.5t239 112.5q83 0 144 -39l58 85q27 -3 37 -24zM117 259q0 -104 56 -165l327 477q-49 35 -121 35q-120 0 -191 -98t-71 -249zM317 39 q125 0 195 96t70 251q0 97 -49 155l-323 -475q44 -27 107 -27z" />
<glyph unicode="&#xd9;" horiz-adv-x="644" d="M458 678l-155 86q8 35 36 50l137 -109q-5 -17 -18 -27zM279 -14q-99 0 -151 51t-52 141q0 33 7 77l68 387q20 4 29 4q10 0 28 -4l-68 -387q-7 -37 -7 -68q0 -67 38 -107t119 -40q51 0 88.5 15t61 45t37.5 65.5t22 84.5l69 392q20 4 29 4q12 0 26 -4l-70 -399 q-22 -124 -86 -190.5t-188 -66.5z" />
<glyph unicode="&#xda;" horiz-adv-x="644" d="M316 680q-12 10 -13 26l171 105q23 -15 25 -50zM279 -14q-99 0 -151 51t-52 141q0 33 7 77l68 387q20 4 29 4q10 0 28 -4l-68 -387q-7 -37 -7 -68q0 -67 38 -107t119 -40q51 0 88.5 15t61 45t37.5 65.5t22 84.5l69 392q20 4 29 4q12 0 26 -4l-70 -399 q-22 -124 -86 -190.5t-188 -66.5z" />
<glyph unicode="&#xdb;" horiz-adv-x="644" d="M427 803l90 -96q-9 -19 -25 -29l-90 80l-120 -80q-15 11 -18 29l122 96q21 6 41 0zM279 -14q-99 0 -151 51t-52 141q0 33 7 77l68 387q20 4 29 4q10 0 28 -4l-68 -387q-7 -37 -7 -68q0 -67 38 -107t119 -40q51 0 88.5 15t61 45t37.5 65.5t22 84.5l69 392q20 4 29 4 q12 0 26 -4l-70 -399q-22 -124 -86 -190.5t-188 -66.5z" />
<glyph unicode="&#xdc;" horiz-adv-x="644" d="M305 709q-17 0 -28.5 12t-11.5 29q0 16 11.5 28t28.5 12t28.5 -12t11.5 -28q0 -17 -11.5 -29t-28.5 -12zM493 709q-17 0 -28.5 12t-11.5 29q0 16 11.5 28t28.5 12t28.5 -12t11.5 -28q0 -17 -11.5 -29t-28.5 -12zM279 -14q-99 0 -151 51t-52 141q0 33 7 77l68 387 q20 4 29 4q10 0 28 -4l-68 -387q-7 -37 -7 -68q0 -67 38 -107t119 -40q51 0 88.5 15t61 45t37.5 65.5t22 84.5l69 392q20 4 29 4q12 0 26 -4l-70 -399q-22 -124 -86 -190.5t-188 -66.5z" />
<glyph unicode="&#xdd;" horiz-adv-x="538" d="M258 680q-12 10 -13 26l171 105q23 -15 25 -50zM586 641l-291 -382l-45 -259q-18 -4 -29 -4q-9 0 -27 4l47 261l-162 380q18 6 37 6q11 0 23 -2l130 -314l7 -20l14 20l237 314q8 2 27 2q18 0 32 -6z" />
<glyph unicode="&#xde;" horiz-adv-x="519" d="M293 528q99 0 149.5 -45.5t50.5 -125.5q0 -101 -71 -168t-192 -67q-63 0 -105 7l-23 -129q-20 -4 -29 -4q-10 0 -28 4l114 643q18 4 29 4q9 0 27 -4l-22 -126q47 11 100 11zM239 172q98 0 146.5 49t48.5 126q0 61 -37 95.5t-111 34.5q-56 0 -102 -10l-50 -286 q40 -9 105 -9z" />
<glyph unicode="&#xdf;" horiz-adv-x="534" d="M315 -11q-49 0 -85.5 16t-53.5 35q5 26 34 40q44 -42 109 -42q47 0 73 22t26 54q0 29 -17 51t-42 37t-49.5 30t-41.5 38t-17 53q0 40 20 67t48.5 41t57 27.5t48.5 37t20 59.5q0 37 -26 60.5t-80 23.5q-68 0 -111 -39t-56 -112l-86 -488q-14 -3 -27 -3q-15 0 -27 3l85 486 q16 95 78.5 149.5t150.5 54.5q70 0 113.5 -35.5t43.5 -93.5q0 -47 -20 -78.5t-48.5 -47t-57 -28t-48.5 -31t-20 -45.5q0 -21 17 -38.5t41.5 -31.5t48.5 -30.5t41 -44t17 -64.5q0 -60 -44.5 -96.5t-114.5 -36.5z" />
<glyph unicode="&#xe0;" horiz-adv-x="525" d="M403 552q-7 -16 -23 -26l-136 109q13 35 43 46zM321 483q99 0 157 -42l-78 -444q-21 -5 -50 0l10 79q-72 -88 -168 -88q-68 0 -112 46t-44 133q0 140 84 228t201 88zM204 39q49 0 94 33.5t76 92.5l43 244q-36 22 -104 22q-91 0 -155 -71t-64 -183q0 -65 29.5 -101.5 t80.5 -36.5z" />
<glyph unicode="&#xe1;" horiz-adv-x="525" d="M261 526q-16 10 -21 29l149 127q29 -14 37 -49zM321 483q99 0 157 -42l-78 -444q-21 -5 -50 0l10 79q-72 -88 -168 -88q-68 0 -112 46t-44 133q0 140 84 228t201 88zM204 39q49 0 94 33.5t76 92.5l43 244q-36 22 -104 22q-91 0 -155 -71t-64 -183q0 -65 29.5 -101.5 t80.5 -36.5z" />
<glyph unicode="&#xe2;" horiz-adv-x="525" d="M219 529q-18 8 -23 28l127 122q18 6 34 0l89 -126q-10 -17 -31 -24l-81 100zM321 483q99 0 157 -42l-78 -444q-21 -5 -50 0l10 79q-72 -88 -168 -88q-68 0 -112 46t-44 133q0 140 84 228t201 88zM204 39q49 0 94 33.5t76 92.5l43 244q-36 22 -104 22q-91 0 -155 -71 t-64 -183q0 -65 29.5 -101.5t80.5 -36.5z" />
<glyph unicode="&#xe3;" horiz-adv-x="525" d="M215 558q-28 0 -40 16q34 75 97 75q28 0 68 -20.5t57 -20.5q32 0 50 44q27 0 39 -15q-11 -36 -35.5 -56t-53.5 -20q-28 0 -65 20t-55 20q-37 0 -62 -43zM36 167q0 140 84 228t201 88q99 0 157 -42l-78 -444q-21 -5 -50 0l10 79q-72 -88 -168 -88q-68 0 -112 46t-44 133z M204 39q49 0 94 33.5t76 92.5l43 244q-36 22 -104 22q-91 0 -155 -71t-64 -183q0 -65 29.5 -101.5t80.5 -36.5z" />
<glyph unicode="&#xe4;" horiz-adv-x="525" d="M234 561q-17 0 -28.5 12t-11.5 29t12 29t28 12q17 0 29 -12t12 -29t-12 -29t-29 -12zM425 561q-17 0 -29 12t-12 29t12 29t29 12t29 -12.5t12 -28.5q0 -17 -12 -29t-29 -12zM321 483q99 0 157 -42l-78 -444q-21 -5 -50 0l10 79q-72 -88 -168 -88q-68 0 -112 46t-44 133 q0 140 84 228t201 88zM204 39q49 0 94 33.5t76 92.5l43 244q-36 22 -104 22q-91 0 -155 -71t-64 -183q0 -65 29.5 -101.5t80.5 -36.5z" />
<glyph unicode="&#xe5;" horiz-adv-x="525" d="M322 509q-39 0 -60.5 23t-21.5 59q0 45 28.5 73.5t68.5 28.5q38 0 59.5 -22.5t21.5 -59.5q0 -46 -28 -74t-68 -28zM334 654q-23 0 -38.5 -17t-15.5 -42q0 -20 11.5 -33.5t32.5 -13.5q26 0 40.5 15.5t14.5 43.5q0 47 -45 47zM321 483q99 0 157 -42l-78 -444q-21 -5 -50 0 l10 79q-72 -88 -168 -88q-68 0 -112 46t-44 133q0 140 84 228t201 88zM204 39q49 0 94 33.5t76 92.5l43 244q-36 22 -104 22q-91 0 -155 -71t-64 -183q0 -65 29.5 -101.5t80.5 -36.5z" />
<glyph unicode="&#xe6;" horiz-adv-x="792" d="M171 -12q-61 0 -98.5 41t-37.5 127q0 137 77.5 232t190.5 95q92 0 151 -68q70 67 159 67q67 0 105.5 -34.5t38.5 -90.5q0 -158 -217 -158q-59 0 -117 16q-2 -29 -1 -43q10 -132 131 -132q67 0 123 49q26 -10 31 -39q-70 -62 -160 -62q-75 0 -120.5 39t-54.5 106 q-33 -67 -86 -106t-115 -39zM546 246q75 0 114.5 27t39.5 76q0 37 -25 60t-71 23q-57 0 -106.5 -42t-68.5 -129q48 -15 117 -15zM182 39q60 0 115 60.5t72 142.5q16 78 49 129q-44 60 -122 60q-89 0 -146 -77.5t-57 -188.5q0 -63 24 -94.5t65 -31.5z" />
<glyph unicode="&#xe7;" horiz-adv-x="460" d="M294 483q94 0 144 -52q-11 -25 -35 -40q-46 41 -115 41q-91 0 -140 -69.5t-49 -162.5q0 -71 37 -115.5t109 -44.5q64 0 120 46q24 -13 28 -38q-65 -57 -149 -60l-14 -30q63 -14 63 -59q0 -47 -35 -67.5t-83 -20.5q-43 0 -58 12q5 21 20 35q17 -9 43 -9q27 0 45 11t18 32 q0 18 -16 26t-51 12l28 60q-75 9 -119 62t-44 137q0 132 70.5 213t182.5 81z" />
<glyph unicode="&#xe8;" horiz-adv-x="482" d="M373 552q-7 -16 -23 -26l-136 109q13 35 43 46zM217 199q-68 0 -119 19q-1 -7 -1 -23q0 -77 38.5 -116t106.5 -39q71 0 132 54q26 -10 31 -38q-70 -68 -170 -68q-87 0 -141 50t-54 150q0 133 72.5 213.5t177.5 80.5q72 0 113.5 -35t41.5 -92q0 -71 -59.5 -113.5 t-168.5 -42.5zM286 432q-67 0 -116.5 -44.5t-65.5 -121.5q49 -19 120 -19q80 0 121.5 27.5t41.5 77.5q0 34 -27 57t-74 23z" />
<glyph unicode="&#xe9;" horiz-adv-x="482" d="M231 526q-16 10 -21 29l149 127q29 -14 37 -49zM217 199q-68 0 -119 19q-1 -7 -1 -23q0 -77 38.5 -116t106.5 -39q71 0 132 54q26 -10 31 -38q-70 -68 -170 -68q-87 0 -141 50t-54 150q0 133 72.5 213.5t177.5 80.5q72 0 113.5 -35t41.5 -92q0 -71 -59.5 -113.5 t-168.5 -42.5zM286 432q-67 0 -116.5 -44.5t-65.5 -121.5q49 -19 120 -19q80 0 121.5 27.5t41.5 77.5q0 34 -27 57t-74 23z" />
<glyph unicode="&#xea;" horiz-adv-x="482" d="M189 529q-18 8 -23 28l127 122q18 6 34 0l89 -126q-10 -17 -31 -24l-81 100zM217 199q-68 0 -119 19q-1 -7 -1 -23q0 -77 38.5 -116t106.5 -39q71 0 132 54q26 -10 31 -38q-70 -68 -170 -68q-87 0 -141 50t-54 150q0 133 72.5 213.5t177.5 80.5q72 0 113.5 -35t41.5 -92 q0 -71 -59.5 -113.5t-168.5 -42.5zM286 432q-67 0 -116.5 -44.5t-65.5 -121.5q49 -19 120 -19q80 0 121.5 27.5t41.5 77.5q0 34 -27 57t-74 23z" />
<glyph unicode="&#xeb;" horiz-adv-x="482" d="M204 561q-17 0 -28.5 12t-11.5 29t12 29t28 12q17 0 29 -12t12 -29t-12 -29t-29 -12zM395 561q-17 0 -29 12t-12 29t12 29t29 12t29 -12.5t12 -28.5q0 -17 -12 -29t-29 -12zM217 199q-68 0 -119 19q-1 -7 -1 -23q0 -77 38.5 -116t106.5 -39q71 0 132 54q26 -10 31 -38 q-70 -68 -170 -68q-87 0 -141 50t-54 150q0 133 72.5 213.5t177.5 80.5q72 0 113.5 -35t41.5 -92q0 -71 -59.5 -113.5t-168.5 -42.5zM286 432q-67 0 -116.5 -44.5t-65.5 -121.5q49 -19 120 -19q80 0 121.5 27.5t41.5 77.5q0 34 -27 57t-74 23z" />
<glyph unicode="&#xec;" horiz-adv-x="218" d="M216 526l-136 109q13 35 43 46l116 -129q-7 -16 -23 -26zM60 -3q-14 0 -27 3l83 470q12 4 29 4q15 0 26 -4l-83 -470q-12 -3 -28 -3z" />
<glyph unicode="&#xed;" horiz-adv-x="218" d="M97 526q-16 10 -21 29l149 127q29 -14 37 -49zM60 -3q-14 0 -27 3l83 470q12 4 29 4q15 0 26 -4l-83 -470q-12 -3 -28 -3z" />
<glyph unicode="&#xee;" horiz-adv-x="218" d="M189 680l82 -126q-8 -15 -28 -23l-76 92l-105 -92q-17 7 -21 23l116 126q16 5 32 0zM60 -3q-14 0 -27 3l83 470q12 4 29 4q15 0 26 -4l-83 -470q-12 -3 -28 -3z" />
<glyph unicode="&#xef;" horiz-adv-x="218" d="M87 561q-17 0 -29 12t-12 29q0 16 12 28.5t29 12.5t29 -12t12 -29t-12 -29t-29 -12zM237 561q-17 0 -29 12t-12 29q0 16 12 28.5t29 12.5t29 -12t12 -29t-12 -29t-29 -12zM60 -3q-14 0 -27 3l83 470q12 4 29 4q15 0 26 -4l-83 -470q-12 -3 -28 -3z" />
<glyph unicode="&#xf0;" horiz-adv-x="520" d="M401 498q60 -102 60 -254q0 -110 -62 -183t-170 -73q-89 0 -140 53.5t-51 139.5q0 115 68 184.5t166 69.5q70 0 122 -47q-16 50 -43 92q-22 33 -51 58l-88 -62q-22 10 -24 36l76 54q-33 22 -72 38q3 33 28 52q53 -23 93 -56l80 56q22 -12 25 -35l-72 -50q32 -34 55 -73z M237 38q80 0 125 57.5t45 145.5q0 64 -37.5 104.5t-101.5 40.5q-76 0 -124.5 -53t-48.5 -145q0 -68 37.5 -109t104.5 -41z" />
<glyph unicode="&#xf1;" horiz-adv-x="539" d="M202 558q-28 0 -40 16q34 75 97 75q29 0 69 -20.5t56 -20.5q32 0 50 44q27 0 39 -15q-11 -36 -35.5 -56t-53.5 -20q-28 0 -65 20t-55 20q-37 0 -62 -43zM295 483q91 0 134.5 -39.5t43.5 -105.5q0 -13 -4 -45l-52 -293q-13 -3 -29 -3q-14 0 -27 3l49 277q4 20 4 43 q0 111 -126 111q-76 0 -133 -23l-71 -408q-14 -3 -28 -3q-15 0 -27 3l77 441q82 42 189 42z" />
<glyph unicode="&#xf2;" horiz-adv-x="532" d="M357 526l-136 109q13 35 43 46l116 -129q-7 -16 -23 -26zM234 -11q-91 0 -142.5 56t-51.5 145q0 128 68.5 210.5t179.5 82.5q90 0 140 -55.5t50 -146.5q0 -127 -67 -209.5t-177 -82.5zM241 38q82 0 130.5 68t48.5 165q0 75 -35.5 118.5t-104.5 43.5q-85 0 -134 -68.5 t-49 -163.5q0 -73 37 -118t107 -45z" />
<glyph unicode="&#xf3;" horiz-adv-x="532" d="M238 526q-16 10 -21 29l149 127q29 -14 37 -49zM234 -11q-91 0 -142.5 56t-51.5 145q0 128 68.5 210.5t179.5 82.5q90 0 140 -55.5t50 -146.5q0 -127 -67 -209.5t-177 -82.5zM241 38q82 0 130.5 68t48.5 165q0 75 -35.5 118.5t-104.5 43.5q-85 0 -134 -68.5t-49 -163.5 q0 -73 37 -118t107 -45z" />
<glyph unicode="&#xf4;" horiz-adv-x="532" d="M335 679l89 -126q-10 -17 -31 -24l-81 100l-115 -100q-18 8 -23 28l127 122q18 6 34 0zM234 -11q-91 0 -142.5 56t-51.5 145q0 128 68.5 210.5t179.5 82.5q90 0 140 -55.5t50 -146.5q0 -127 -67 -209.5t-177 -82.5zM241 38q82 0 130.5 68t48.5 165q0 75 -35.5 118.5 t-104.5 43.5q-85 0 -134 -68.5t-49 -163.5q0 -73 37 -118t107 -45z" />
<glyph unicode="&#xf5;" horiz-adv-x="532" d="M192 558q-28 0 -40 16q34 75 97 75q29 0 69 -20.5t56 -20.5q32 0 50 44q27 0 39 -15q-11 -36 -35.5 -56t-53.5 -20q-28 0 -65 20t-55 20q-37 0 -62 -43zM234 -11q-91 0 -142.5 56t-51.5 145q0 128 68.5 210.5t179.5 82.5q90 0 140 -55.5t50 -146.5q0 -127 -67 -209.5 t-177 -82.5zM241 38q82 0 130.5 68t48.5 165q0 75 -35.5 118.5t-104.5 43.5q-85 0 -134 -68.5t-49 -163.5q0 -73 37 -118t107 -45z" />
<glyph unicode="&#xf6;" horiz-adv-x="532" d="M211 561q-17 0 -28.5 12t-11.5 29t12 29t28 12q17 0 29 -12t12 -29t-12 -29t-29 -12zM402 561q-17 0 -29 12t-12 29t12 29t29 12q16 0 28.5 -12.5t12.5 -28.5q0 -17 -12 -29t-29 -12zM234 -11q-91 0 -142.5 56t-51.5 145q0 128 68.5 210.5t179.5 82.5q90 0 140 -55.5 t50 -146.5q0 -127 -67 -209.5t-177 -82.5zM241 38q82 0 130.5 68t48.5 165q0 75 -35.5 118.5t-104.5 43.5q-85 0 -134 -68.5t-49 -163.5q0 -73 37 -118t107 -45z" />
<glyph unicode="&#xf7;" horiz-adv-x="507" d="M275 343q-20 0 -34 14t-14 34q0 19 14.5 33.5t33.5 14.5q20 0 34 -14t14 -34t-14 -34t-34 -14zM53 212q-1 1 -1 4.5t1 5.5q0 19 8 38h381v-10q0 -16 -9 -38h-380zM221 35q-20 0 -34 14t-14 34q0 19 14.5 33.5t33.5 14.5t33.5 -14.5t14.5 -33.5q0 -20 -14 -34t-34 -14z " />
<glyph unicode="&#xf8;" horiz-adv-x="532" d="M417 439q61 -55 61 -158q0 -127 -67 -209.5t-177 -82.5q-56 0 -98 22l-55 -83q-23 3 -33 24l54 82q-62 56 -62 156q0 128 68.5 210.5t179.5 82.5q55 0 97 -22l52 79q24 -3 33 -21zM97 201q0 -75 37 -118l220 332q-30 18 -74 18q-85 0 -134 -68.5t-49 -163.5zM241 38 q82 0 130.5 68t48.5 165q0 75 -35 118l-219 -332q32 -19 75 -19z" />
<glyph unicode="&#xf9;" horiz-adv-x="531" d="M389 552q-7 -16 -23 -26l-136 109q13 35 43 46zM462 470q15 0 27 -3l-78 -439q-94 -41 -194 -41q-83 0 -124 36t-41 102q0 19 5 46l52 296q14 3 28 3q15 0 28 -3l-49 -276q-5 -32 -5 -52q0 -100 120 -100q67 0 132 25l71 403q14 3 28 3z" />
<glyph unicode="&#xfa;" horiz-adv-x="531" d="M247 526q-16 10 -21 29l149 127q29 -14 37 -49zM462 470q15 0 27 -3l-78 -439q-94 -41 -194 -41q-83 0 -124 36t-41 102q0 19 5 46l52 296q14 3 28 3q15 0 28 -3l-49 -276q-5 -32 -5 -52q0 -100 120 -100q67 0 132 25l71 403q14 3 28 3z" />
<glyph unicode="&#xfb;" horiz-adv-x="531" d="M205 529q-18 8 -23 28l127 122q18 6 34 0l89 -126q-10 -17 -31 -24l-81 100zM462 470q15 0 27 -3l-78 -439q-94 -41 -194 -41q-83 0 -124 36t-41 102q0 19 5 46l52 296q14 3 28 3q15 0 28 -3l-49 -276q-5 -32 -5 -52q0 -100 120 -100q67 0 132 25l71 403q14 3 28 3z" />
<glyph unicode="&#xfc;" horiz-adv-x="531" d="M220 561q-17 0 -28.5 12t-11.5 29t12 29t28 12q17 0 29 -12t12 -29t-12 -29t-29 -12zM411 561q-17 0 -29 12t-12 29t12 29t29 12t29 -12.5t12 -28.5q0 -17 -12 -29t-29 -12zM462 470q15 0 27 -3l-78 -439q-94 -41 -194 -41q-83 0 -124 36t-41 102q0 19 5 46l52 296 q14 3 28 3q15 0 28 -3l-49 -276q-5 -32 -5 -52q0 -100 120 -100q67 0 132 25l71 403q14 3 28 3z" />
<glyph unicode="&#xfd;" horiz-adv-x="529" d="M248 526q-16 10 -21 29l149 127q29 -14 37 -49zM457 471q15 0 27 -3l-81 -460q-17 -93 -75.5 -147t-149.5 -54q-125 0 -178 69q12 26 42 38q43 -57 134 -57q72 0 116 40.5t56 110.5l7 41q-70 -35 -147 -35q-89 0 -125.5 49.5t-21.5 133.5l47 271q15 3 28 3q15 0 28 -3 l-45 -251q-12 -74 11 -112.5t100 -38.5q73 0 135 38l64 364q14 3 28 3z" />
<glyph unicode="&#xfe;" horiz-adv-x="533" d="M273 483q97 0 153 -51t56 -145q0 -136 -77.5 -217t-198.5 -81q-65 0 -119 18l-34 -194q-14 -3 -30 -3q-12 0 -24 3l148 845q15 3 26 3q15 0 27 -3l-34 -193q52 18 107 18zM215 40q92 0 150.5 64.5t58.5 174.5q0 71 -41 111t-117 40q-61 0 -109 -21l-60 -343 q47 -26 118 -26z" />
<glyph unicode="&#xff;" horiz-adv-x="529" d="M221 561q-17 0 -28.5 12t-11.5 29t12 29t28 12q17 0 29 -12t12 -29t-12 -29t-29 -12zM412 561q-17 0 -29 12t-12 29t12 29t29 12q16 0 28.5 -12.5t12.5 -28.5q0 -17 -12 -29t-29 -12zM457 471q15 0 27 -3l-81 -460q-17 -93 -75.5 -147t-149.5 -54q-125 0 -178 69 q12 26 42 38q43 -57 134 -57q72 0 116 40.5t56 110.5l7 41q-70 -35 -147 -35q-89 0 -125.5 49.5t-21.5 133.5l47 271q15 3 28 3q15 0 28 -3l-45 -251q-12 -74 11 -112.5t100 -38.5q73 0 135 38l64 364q14 3 28 3z" />
<glyph unicode="&#x13f;" horiz-adv-x="459" d="M403 50q5 -27 -9 -51h-349l113 643q20 4 28 4q10 0 28 -4l-105 -592h294zM356 297q-17 0 -29.5 12.5t-12.5 30.5q0 17 12.5 29.5t29.5 12.5q18 0 30.5 -12.5t12.5 -29.5q0 -18 -12.5 -30.5t-30.5 -12.5z" />
<glyph unicode="&#x140;" horiz-adv-x="270" d="M139 -8q-42 0 -68 21t-26 61q0 8 2 24l99 560q12 4 28 4t27 -4l-98 -553q-1 -5 -1 -15q0 -47 48 -47q31 0 62 25q25 -13 25 -38q-40 -38 -98 -38zM243 291q-17 0 -29.5 12t-12.5 30q0 17 12.5 30t29.5 13q18 0 30.5 -13t12.5 -30q0 -18 -12.5 -30t-30.5 -12z" />
<glyph unicode="&#x152;" horiz-adv-x="840" d="M503 642h344v-12q0 -18 -10 -41h-288l-40 -230h257v-12q0 -18 -10 -41h-256l-45 -253h299q1 -3 1 -13q0 -18 -10 -40h-351q-46 -8 -91 -8q-115 0 -181 72t-66 191q0 165 101 279t252 114q52 0 94 -6zM117 262q0 -97 51 -157t145 -60q43 0 85 8l94 533q-36 8 -92 8 q-124 0 -203.5 -97.5t-79.5 -234.5z" />
<glyph unicode="&#x153;" horiz-adv-x="848" d="M742 95q26 -9 31 -38q-71 -69 -171 -69q-65 0 -111 30.5t-64 89.5q-29 -56 -77.5 -87.5t-109.5 -31.5q-98 0 -148.5 57t-50.5 156q0 123 67.5 202t171.5 79q68 0 112.5 -34.5t61.5 -94.5q32 61 85 94.5t115 33.5q72 0 112.5 -35t40.5 -89q0 -75 -55 -116.5t-167 -41.5 q-67 0 -115 18q-1 -8 -1 -23q0 -75 36.5 -115t102.5 -40q74 0 134 55zM245 40q76 0 122 63.5t46 163.5q0 75 -35.5 120.5t-103.5 45.5q-81 0 -128 -63t-47 -162q0 -168 146 -168zM645 432q-61 0 -107.5 -44.5t-61.5 -122.5q49 -18 117 -18q81 0 119 28.5t38 74.5 q0 34 -27.5 58t-77.5 24z" />
<glyph unicode="&#x178;" horiz-adv-x="538" d="M247 709q-17 0 -28.5 12t-11.5 29q0 16 11.5 28t28.5 12t28.5 -12t11.5 -28q0 -17 -11.5 -29t-28.5 -12zM435 709q-17 0 -28.5 12t-11.5 29q0 16 11.5 28t28.5 12t28.5 -12t11.5 -28q0 -17 -11.5 -29t-28.5 -12zM586 641l-291 -382l-45 -259q-18 -4 -29 -4q-9 0 -27 4 l47 261l-162 380q18 6 37 6q11 0 23 -2l130 -314l7 -20l14 20l237 314q8 2 27 2q18 0 32 -6z" />
<glyph unicode="&#x2c6;" horiz-adv-x="282" d="M277 679l89 -126q-10 -17 -31 -24l-81 100l-115 -100q-18 8 -23 28l127 122q18 6 34 0z" />
<glyph unicode="&#x2dc;" horiz-adv-x="344" d="M161 558q-28 0 -40 16q34 75 97 75q29 0 68.5 -20.5t56.5 -20.5q32 0 50 44q27 0 39 -15q-11 -36 -35.5 -56t-53.5 -20q-28 0 -65 20t-55 20q-37 0 -62 -43z" />
<glyph unicode="&#x2000;" horiz-adv-x="419" />
<glyph unicode="&#x2001;" horiz-adv-x="838" />
<glyph unicode="&#x2002;" horiz-adv-x="419" />
<glyph unicode="&#x2003;" horiz-adv-x="838" />
<glyph unicode="&#x2004;" horiz-adv-x="279" />
<glyph unicode="&#x2005;" horiz-adv-x="209" />
<glyph unicode="&#x2006;" horiz-adv-x="139" />
<glyph unicode="&#x2007;" horiz-adv-x="139" />
<glyph unicode="&#x2008;" horiz-adv-x="104" />
<glyph unicode="&#x2009;" horiz-adv-x="167" />
<glyph unicode="&#x200a;" horiz-adv-x="46" />
<glyph unicode="&#x2010;" horiz-adv-x="376" d="M66 227q-1 3 -1 12q0 18 9 34h229v-10q0 -18 -9 -36h-228z" />
<glyph unicode="&#x2011;" horiz-adv-x="376" d="M66 227q-1 3 -1 12q0 18 9 34h229v-10q0 -18 -9 -36h-228z" />
<glyph unicode="&#x2012;" horiz-adv-x="376" d="M66 227q-1 3 -1 12q0 18 9 34h229v-10q0 -18 -9 -36h-228z" />
<glyph unicode="&#x2013;" horiz-adv-x="555" d="M65 225q0 2 -0.5 7t-0.5 6q0 18 9 34h408l1 -9q0 -18 -9 -38h-408z" />
<glyph unicode="&#x2014;" horiz-adv-x="1026" d="M65 226v13q0 16 9 34h878q1 -3 1 -10q0 -19 -9 -37h-879z" />
<glyph unicode="&#x2018;" horiz-adv-x="195" d="M128 473q-17 0 -27 5q-1 3 -1 22q0 55 30 100.5t65 72.5q6 -1 11.5 -6t5.5 -11q-28 -26 -41.5 -68t-13.5 -74q0 -23 3 -35q-15 -6 -32 -6z" />
<glyph unicode="&#x2019;" horiz-adv-x="193" d="M109 473q-6 1 -11.5 6t-5.5 12q27 25 40.5 67.5t13.5 74.5q0 21 -3 35q13 5 33 5q18 0 26 -4q1 -3 1 -22q0 -55 -29 -100.5t-65 -73.5z" />
<glyph unicode="&#x201a;" horiz-adv-x="200" d="M4 -107q-6 1 -11.5 6t-5.5 12q28 26 41.5 68t13.5 73q0 22 -3 36q12 5 33 5q18 0 26 -4q2 -6 2 -22q0 -55 -30 -101t-66 -73z" />
<glyph unicode="&#x201c;" horiz-adv-x="316" d="M127 473q-16 0 -25 5q-2 6 -2 22q0 55 29.5 101t64.5 72q7 -1 12.5 -6t5.5 -11q-29 -27 -42 -69.5t-13 -72.5q0 -23 3 -35q-15 -6 -33 -6zM248 473q-17 0 -27 5q-2 6 -2 22q0 55 30 101t66 72q6 -1 11.5 -6t5.5 -11q-28 -26 -41.5 -68t-13.5 -74q0 -23 3 -35 q-15 -6 -32 -6z" />
<glyph unicode="&#x201d;" horiz-adv-x="315" d="M109 471q-6 1 -11.5 6t-5.5 11q27 25 40.5 67.5t13.5 74.5q0 19 -2 35q15 6 32 6t26 -5q2 -6 2 -22q0 -55 -30 -100.5t-65 -72.5zM229 471q-6 1 -11.5 6t-5.5 11q29 27 42 70.5t13 71.5q0 23 -3 35q15 6 32 6t26 -5q2 -6 2 -22q0 -55 -30 -100.5t-65 -72.5z" />
<glyph unicode="&#x201e;" horiz-adv-x="319" d="M4 -107q-6 1 -11.5 6t-5.5 12q28 26 41.5 68t13.5 75q0 22 -3 34q12 5 32 5t27 -4q2 -6 2 -22q0 -55 -30 -101t-66 -73zM125 -107q-7 1 -12.5 6t-5.5 12q29 26 42 69.5t13 73.5q0 22 -3 34q13 5 33 5q19 0 26 -4q2 -6 2 -22q0 -55 -29.5 -100.5t-65.5 -73.5z" />
<glyph unicode="&#x2022;" horiz-adv-x="357" d="M176 165q-40 0 -68 28t-28 67q0 40 28 68t68 28t67.5 -28t27.5 -68q0 -39 -27.5 -67t-67.5 -28z" />
<glyph unicode="&#x2026;" horiz-adv-x="525" d="M69 -9q-17 0 -29 12t-12 29t12 29t29 12q16 0 28 -12t12 -29t-11.5 -29t-28.5 -12zM231 -9q-17 0 -29 12t-12 29q0 16 12 28.5t29 12.5t29 -12t12 -29t-12 -29t-29 -12zM390 -9q-17 0 -29 12t-12 29q0 16 12.5 28.5t28.5 12.5q17 0 29 -12t12 -29t-12 -29t-29 -12z" />
<glyph unicode="&#x202f;" horiz-adv-x="167" />
<glyph unicode="&#x2039;" horiz-adv-x="261" d="M140 106l-100 149l153 153q18 -4 22 -22l-108 -131l63 -129q-11 -16 -30 -20z" />
<glyph unicode="&#x203a;" horiz-adv-x="260" d="M62 106q-18 4 -23 20l108 129l-62 131q11 18 30 22l99 -153z" />
<glyph unicode="&#x205f;" horiz-adv-x="209" />
<glyph unicode="&#x20ac;" horiz-adv-x="615" d="M445 659q111 0 172 -74q-13 -22 -35 -32q-60 58 -143 58q-88 0 -151 -50.5t-92 -143.5h219v-9q0 -16 -8 -35h-223q-8 -42 -10 -98h199q0 -13 -1 -20q-2 -13 -7 -24h-190q7 -93 54 -144t131 -51q87 0 156 51q21 -13 22 -36q-78 -63 -187 -63q-108 0 -167.5 65t-64.5 178 h-89v8q0 15 8 36h80q1 48 11 98h-57v8q0 19 8 36h60q35 114 116.5 178t188.5 64z" />
<glyph unicode="&#x2122;" horiz-adv-x="713" d="M665 661q24 0 36 -2l-62 -350q-13 -3 -26 -3q-11 0 -21 3l38 211l12 49l-126 -219q-11 -4 -27 -4t-26 4l-54 222l-7 -52l-37 -211q-9 -3 -22 -3q-12 0 -24 3l61 349q13 4 35 4q15 0 19 -1l62 -234l4 -27l14 27l136 234h15zM347 616h-100l-54 -308q-14 -3 -24 -3 q-12 0 -24 3l54 308h-105v7q0 13 8 37h252q1 -11 -1 -21q-2 -11 -6 -23z" />
<glyph unicode="&#x25fc;" horiz-adv-x="470" d="M0 470h470v-470h-470v470z" />
<glyph horiz-adv-x="564" d="M376 642q79 -267 119 -637q-15 -8 -37 -8q-17 0 -23 2q-10 110 -22 195h-291q-50 -102 -90 -194q-12 -3 -23 -3q-20 0 -33 8q176 385 344 637q12 4 29 4q16 0 27 -4zM146 242h260q-26 172 -62 302l-8 33l-20 -34q-93 -149 -170 -301z" />
<glyph horiz-adv-x="564" d="M278 680q-12 10 -13 26l171 105q23 -15 25 -50zM376 642q79 -267 119 -637q-15 -8 -37 -8q-17 0 -23 2q-10 110 -22 195h-291q-50 -102 -90 -194q-12 -3 -23 -3q-20 0 -33 8q176 385 344 637q12 4 29 4q16 0 27 -4zM146 242h260q-26 172 -62 302l-8 33l-20 -34 q-93 -149 -170 -301z" />
<glyph horiz-adv-x="564" d="M245 678q-15 11 -18 29l122 96q21 6 41 0l90 -96q-9 -19 -25 -29l-90 80zM376 642q79 -267 119 -637q-15 -8 -37 -8q-17 0 -23 2q-10 110 -22 195h-291q-50 -102 -90 -194q-12 -3 -23 -3q-20 0 -33 8q176 385 344 637q12 4 29 4q16 0 27 -4zM146 242h260q-26 172 -62 302 l-8 33l-20 -34q-93 -149 -170 -301z" />
<glyph horiz-adv-x="564" d="M268 709q-17 0 -28.5 12t-11.5 29q0 16 12 28t28 12t28 -12t12 -28q0 -17 -11.5 -29t-28.5 -12zM456 709q-17 0 -28.5 12t-11.5 29q0 16 12 28t28 12t28 -12t12 -28q0 -17 -11.5 -29t-28.5 -12zM349 646q16 0 27 -4q79 -267 119 -637q-15 -8 -37 -8q-17 0 -23 2 q-10 110 -22 195h-291q-50 -102 -90 -194q-12 -3 -23 -3q-20 0 -33 8q176 385 344 637q12 4 29 4zM146 242h260q-26 172 -62 302l-8 33l-20 -34q-93 -149 -170 -301z" />
<glyph horiz-adv-x="564" d="M438 705q-5 -17 -18 -27l-155 86q8 35 36 50zM376 642q79 -267 119 -637q-15 -8 -37 -8q-17 0 -23 2q-10 110 -22 195h-291q-50 -102 -90 -194q-12 -3 -23 -3q-20 0 -33 8q176 385 344 637q12 4 29 4q16 0 27 -4zM146 242h260q-26 172 -62 302l-8 33l-20 -34 q-93 -149 -170 -301z" />
<glyph horiz-adv-x="564" d="M355 655q-38 0 -60.5 22.5t-22.5 57.5q0 46 29 74.5t68 28.5q37 0 59.5 -22t22.5 -56q0 -48 -27 -76.5t-69 -28.5zM366 801q-23 0 -38.5 -18.5t-15.5 -43.5q0 -21 11.5 -34t34.5 -13q25 0 39.5 18t14.5 44q0 21 -11.5 34t-34.5 13zM376 642q79 -267 119 -637 q-15 -8 -37 -8q-17 0 -23 2q-10 110 -22 195h-291q-50 -102 -90 -194q-12 -3 -23 -3q-20 0 -33 8q176 385 344 637q12 4 29 4q16 0 27 -4zM146 242h260q-26 172 -62 302l-8 33l-20 -34q-93 -149 -170 -301z" />
<glyph horiz-adv-x="564" d="M240 696q-27 0 -39 16q41 77 105 77q28 0 68.5 -21t57.5 -21q38 0 54 44q28 0 39 -14q-13 -37 -38.5 -57.5t-56.5 -20.5q-28 0 -67 20.5t-59 20.5q-38 0 -64 -44zM349 646q16 0 27 -4q79 -267 119 -637q-15 -8 -37 -8q-17 0 -23 2q-10 110 -22 195h-291 q-50 -102 -90 -194q-12 -3 -23 -3q-20 0 -33 8q176 385 344 637q12 4 29 4zM146 242h260q-26 172 -62 302l-8 33l-20 -34q-93 -149 -170 -301z" />
<glyph horiz-adv-x="467" d="M331 654q88 0 138 -41q-8 -28 -31 -45q-49 35 -114 35q-71 0 -114 -38t-43 -101q0 -43 33 -72t102 -29h60q1 -2 1 -11q0 -18 -9 -39h-71q-90 0 -141 -45t-51 -116q0 -54 35 -83t102 -29q91 0 159 47q18 -14 17 -42q-82 -55 -185 -55q-89 0 -137.5 38.5t-48.5 111.5 q0 74 42 126t111 74q-73 34 -73 118q0 86 62.5 141t155.5 55z" />
<glyph horiz-adv-x="467" d="M258 680q-12 10 -13 26l171 105q23 -15 25 -50zM331 654q88 0 138 -41q-8 -28 -31 -45q-49 35 -114 35q-71 0 -114 -38t-43 -101q0 -43 33 -72t102 -29h60q1 -2 1 -11q0 -18 -9 -39h-71q-90 0 -141 -45t-51 -116q0 -54 35 -83t102 -29q91 0 159 47q18 -14 17 -42 q-82 -55 -185 -55q-89 0 -137.5 38.5t-48.5 111.5q0 74 42 126t111 74q-73 34 -73 118q0 86 62.5 141t155.5 55z" />
<glyph horiz-adv-x="467" d="M224 678q-15 11 -18 29l122 96q21 6 41 0l90 -96q-9 -19 -25 -29l-90 80zM331 654q88 0 138 -41q-8 -28 -31 -45q-49 35 -114 35q-71 0 -114 -38t-43 -101q0 -43 33 -72t102 -29h60q1 -2 1 -11q0 -18 -9 -39h-71q-90 0 -141 -45t-51 -116q0 -54 35 -83t102 -29 q91 0 159 47q18 -14 17 -42q-82 -55 -185 -55q-89 0 -137.5 38.5t-48.5 111.5q0 74 42 126t111 74q-73 34 -73 118q0 86 62.5 141t155.5 55z" />
<glyph horiz-adv-x="467" d="M248 709q-17 0 -28.5 12t-11.5 29q0 16 12 28t28 12t28 -12t12 -28q0 -17 -11.5 -29t-28.5 -12zM436 709q-17 0 -28.5 12t-11.5 29q0 16 12 28t28 12t28 -12t12 -28q0 -17 -11.5 -29t-28.5 -12zM113 458q0 86 62.5 141t155.5 55q88 0 138 -41q-8 -28 -31 -45 q-49 35 -114 35q-71 0 -114 -38t-43 -101q0 -43 33 -72t102 -29h60q1 -2 1 -11q0 -18 -9 -39h-71q-90 0 -141 -45t-51 -116q0 -54 35 -83t102 -29q91 0 159 47q18 -14 17 -42q-82 -55 -185 -55q-89 0 -137.5 38.5t-48.5 111.5q0 74 42 126t111 74q-73 34 -73 118z" />
<glyph horiz-adv-x="467" d="M418 705q-5 -17 -18 -27l-155 86q8 35 36 50zM331 654q88 0 138 -41q-8 -28 -31 -45q-49 35 -114 35q-71 0 -114 -38t-43 -101q0 -43 33 -72t102 -29h60q1 -2 1 -11q0 -18 -9 -39h-71q-90 0 -141 -45t-51 -116q0 -54 35 -83t102 -29q91 0 159 47q18 -14 17 -42 q-82 -55 -185 -55q-89 0 -137.5 38.5t-48.5 111.5q0 74 42 126t111 74q-73 34 -73 118q0 86 62.5 141t155.5 55z" />
<glyph horiz-adv-x="683" d="M641 390q0 -122 -42 -214t-118 -141l55 -93q-16 -21 -44 -27l-56 97q-57 -25 -128 -25q-115 0 -182.5 73.5t-67.5 194.5q0 178 92 290.5t239 112.5q117 0 184.5 -74t67.5 -194zM317 39q50 0 93 17l-51 88q17 17 43 26l53 -90q62 42 94.5 121.5t32.5 184.5 q0 101 -53.5 160.5t-149.5 59.5q-120 0 -191 -98t-71 -249q0 -102 53 -161t147 -59z" />
<glyph horiz-adv-x="542" d="M421 122q-5 -32 5 -53t40 -36q-1 -12 -10 -25t-19 -19q-60 17 -72 72q-70 -73 -165 -73q-73 0 -118 48t-45 140q0 133 83.5 220t199.5 87q98 0 157 -42zM216 39q43 0 83.5 23.5t67.5 64.5l50 281q-39 23 -101 23q-94 0 -157.5 -68t-63.5 -178q0 -71 31.5 -108.5 t89.5 -37.5z" />
<glyph horiz-adv-x="481" d="M366 82q0 -17 8.5 -26.5t30.5 -18.5q-2 -32 -25 -46q-67 10 -68 66q-1 2 -1 17q-59 -86 -160 -86q-64 0 -100.5 33t-36.5 89q0 73 58 116.5t160 44.5h111l5 28q3 19 3 36q0 96 -109 96q-66 0 -131 -48q-23 12 -27 36q72 64 168 64q70 0 112.5 -33t42.5 -103q0 -23 -4 -46 l-14 -77l-21 -118q-2 -18 -2 -24zM163 36q59 0 106.5 44t64.5 144l-110 -1q-79 0 -115.5 -29.5t-36.5 -76.5q0 -37 23.5 -59t67.5 -22z" />
<glyph horiz-adv-x="479" d="M261 483q82 0 126 -46t28 -138l-48 -271q-82 -40 -187 -40q-82 0 -123.5 36t-41.5 97q0 77 59.5 121t147.5 44q77 0 132 -24l6 35q12 65 -18 99.5t-93 34.5q-73 0 -136 -47q-24 12 -24 38q25 22 71 41.5t101 19.5zM73 128q0 -42 29.5 -66t87.5 -24q68 0 129 23l26 150 q-52 25 -132 25q-64 0 -102 -28.5t-38 -79.5z" />
<glyph horiz-adv-x="542" d="M262 526q-16 10 -21 29l149 127q29 -14 37 -49zM421 122q-5 -32 5 -53t40 -36q-1 -12 -10 -25t-19 -19q-60 17 -72 72q-70 -73 -165 -73q-73 0 -118 48t-45 140q0 133 83.5 220t199.5 87q98 0 157 -42zM216 39q43 0 83.5 23.5t67.5 64.5l50 281q-39 23 -101 23 q-94 0 -157.5 -68t-63.5 -178q0 -71 31.5 -108.5t89.5 -37.5z" />
<glyph horiz-adv-x="481" d="M198 526q-16 10 -21 29l149 127q29 -14 37 -49zM366 82q0 -17 8.5 -26.5t30.5 -18.5q-2 -32 -25 -46q-67 10 -68 66q-1 2 -1 17q-59 -86 -160 -86q-64 0 -100.5 33t-36.5 89q0 73 58 116.5t160 44.5h111l5 28q3 19 3 36q0 96 -109 96q-66 0 -131 -48q-23 12 -27 36 q72 64 168 64q70 0 112.5 -33t42.5 -103q0 -23 -4 -46l-14 -77l-21 -118q-2 -18 -2 -24zM163 36q59 0 106.5 44t64.5 144l-110 -1q-79 0 -115.5 -29.5t-36.5 -76.5q0 -37 23.5 -59t67.5 -22z" />
<glyph horiz-adv-x="479" d="M214 526q-16 10 -21 29l149 127q29 -14 37 -49zM261 483q82 0 126 -46t28 -138l-48 -271q-82 -40 -187 -40q-82 0 -123.5 36t-41.5 97q0 77 59.5 121t147.5 44q77 0 132 -24l6 35q12 65 -18 99.5t-93 34.5q-73 0 -136 -47q-24 12 -24 38q25 22 71 41.5t101 19.5zM73 128 q0 -42 29.5 -66t87.5 -24q68 0 129 23l26 150q-52 25 -132 25q-64 0 -102 -28.5t-38 -79.5z" />
<glyph horiz-adv-x="542" d="M220 529q-18 8 -23 28l127 122q18 6 34 0l89 -126q-10 -17 -31 -24l-81 100zM421 122q-5 -32 5 -53t40 -36q-1 -12 -10 -25t-19 -19q-60 17 -72 72q-70 -73 -165 -73q-73 0 -118 48t-45 140q0 133 83.5 220t199.5 87q98 0 157 -42zM216 39q43 0 83.5 23.5t67.5 64.5 l50 281q-39 23 -101 23q-94 0 -157.5 -68t-63.5 -178q0 -71 31.5 -108.5t89.5 -37.5z" />
<glyph horiz-adv-x="481" d="M156 529q-18 8 -23 28l127 122q18 6 34 0l89 -126q-10 -17 -31 -24l-81 100zM366 82q0 -17 8.5 -26.5t30.5 -18.5q-2 -32 -25 -46q-67 10 -68 66q-1 2 -1 17q-59 -86 -160 -86q-64 0 -100.5 33t-36.5 89q0 73 58 116.5t160 44.5h111l5 28q3 19 3 36q0 96 -109 96 q-66 0 -131 -48q-23 12 -27 36q72 64 168 64q70 0 112.5 -33t42.5 -103q0 -23 -4 -46l-14 -77l-21 -118q-2 -18 -2 -24zM163 36q59 0 106.5 44t64.5 144l-110 -1q-79 0 -115.5 -29.5t-36.5 -76.5q0 -37 23.5 -59t67.5 -22z" />
<glyph horiz-adv-x="479" d="M172 529q-18 8 -23 28l127 122q18 6 34 0l89 -126q-10 -17 -31 -24l-81 100zM261 483q82 0 126 -46t28 -138l-48 -271q-82 -40 -187 -40q-82 0 -123.5 36t-41.5 97q0 77 59.5 121t147.5 44q77 0 132 -24l6 35q12 65 -18 99.5t-93 34.5q-73 0 -136 -47q-24 12 -24 38 q25 22 71 41.5t101 19.5zM73 128q0 -42 29.5 -66t87.5 -24q68 0 129 23l26 150q-52 25 -132 25q-64 0 -102 -28.5t-38 -79.5z" />
<glyph horiz-adv-x="542" d="M235 561q-17 0 -28.5 12t-11.5 29t12 29t28 12q17 0 29 -12t12 -29t-12 -29t-29 -12zM426 561q-17 0 -29 12t-12 29t12 29t29 12q16 0 28.5 -12.5t12.5 -28.5q0 -17 -12 -29t-29 -12zM421 122q-5 -32 5 -53t40 -36q-1 -12 -10 -25t-19 -19q-60 17 -72 72 q-70 -73 -165 -73q-73 0 -118 48t-45 140q0 133 83.5 220t199.5 87q98 0 157 -42zM216 39q43 0 83.5 23.5t67.5 64.5l50 281q-39 23 -101 23q-94 0 -157.5 -68t-63.5 -178q0 -71 31.5 -108.5t89.5 -37.5z" />
<glyph horiz-adv-x="481" d="M171 561q-17 0 -28.5 12t-11.5 29t12 29t28 12q17 0 29 -12t12 -29t-12 -29t-29 -12zM362 561q-17 0 -29 12t-12 29t12 29t29 12q16 0 28.5 -12.5t12.5 -28.5q0 -17 -12 -29t-29 -12zM366 82q0 -17 8.5 -26.5t30.5 -18.5q-2 -32 -25 -46q-67 10 -68 66q-1 2 -1 17 q-59 -86 -160 -86q-64 0 -100.5 33t-36.5 89q0 73 58 116.5t160 44.5h111l5 28q3 19 3 36q0 96 -109 96q-66 0 -131 -48q-23 12 -27 36q72 64 168 64q70 0 112.5 -33t42.5 -103q0 -23 -4 -46l-14 -77l-21 -118q-2 -18 -2 -24zM163 36q59 0 106.5 44t64.5 144l-110 -1 q-79 0 -115.5 -29.5t-36.5 -76.5q0 -37 23.5 -59t67.5 -22z" />
<glyph horiz-adv-x="479" d="M186 561q-17 0 -28.5 12t-11.5 29t12 29t28 12q17 0 29 -12t12 -29t-12 -29t-29 -12zM377 561q-17 0 -29 12t-12 29t12 29t29 12t29 -12.5t12 -28.5q0 -17 -12 -29t-29 -12zM261 483q82 0 126 -46t28 -138l-48 -271q-82 -40 -187 -40q-82 0 -123.5 36t-41.5 97 q0 77 59.5 121t147.5 44q77 0 132 -24l6 35q12 65 -18 99.5t-93 34.5q-73 0 -136 -47q-24 12 -24 38q25 22 71 41.5t101 19.5zM73 128q0 -42 29.5 -66t87.5 -24q68 0 129 23l26 150q-52 25 -132 25q-64 0 -102 -28.5t-38 -79.5z" />
<glyph horiz-adv-x="542" d="M404 552q-7 -16 -23 -26l-136 109q13 35 43 46zM421 122q-5 -32 5 -53t40 -36q-1 -12 -10 -25t-19 -19q-60 17 -72 72q-70 -73 -165 -73q-73 0 -118 48t-45 140q0 133 83.5 220t199.5 87q98 0 157 -42zM216 39q43 0 83.5 23.5t67.5 64.5l50 281q-39 23 -101 23 q-94 0 -157.5 -68t-63.5 -178q0 -71 31.5 -108.5t89.5 -37.5z" />
<glyph horiz-adv-x="481" d="M340 552q-7 -16 -23 -26l-136 109q13 35 43 46zM366 82q0 -17 8.5 -26.5t30.5 -18.5q-2 -32 -25 -46q-67 10 -68 66q-1 2 -1 17q-59 -86 -160 -86q-64 0 -100.5 33t-36.5 89q0 73 58 116.5t160 44.5h111l5 28q3 19 3 36q0 96 -109 96q-66 0 -131 -48q-23 12 -27 36 q72 64 168 64q70 0 112.5 -33t42.5 -103q0 -23 -4 -46l-14 -77l-21 -118q-2 -18 -2 -24zM163 36q59 0 106.5 44t64.5 144l-110 -1q-79 0 -115.5 -29.5t-36.5 -76.5q0 -37 23.5 -59t67.5 -22z" />
<glyph horiz-adv-x="479" d="M356 552q-7 -16 -23 -26l-136 109q13 35 43 46zM261 483q82 0 126 -46t28 -138l-48 -271q-82 -40 -187 -40q-82 0 -123.5 36t-41.5 97q0 77 59.5 121t147.5 44q77 0 132 -24l6 35q12 65 -18 99.5t-93 34.5q-73 0 -136 -47q-24 12 -24 38q25 22 71 41.5t101 19.5zM73 128 q0 -42 29.5 -66t87.5 -24q68 0 129 23l26 150q-52 25 -132 25q-64 0 -102 -28.5t-38 -79.5z" />
<glyph horiz-adv-x="542" d="M323 509q-39 0 -60.5 23t-21.5 59q0 45 28.5 73.5t68.5 28.5q38 0 59.5 -22.5t21.5 -59.5q0 -46 -28 -74t-68 -28zM335 654q-23 0 -38.5 -17t-15.5 -42q0 -20 11.5 -33.5t32.5 -13.5q26 0 40.5 15.5t14.5 43.5q0 47 -45 47zM421 122q-5 -32 5 -53t40 -36q-1 -12 -10 -25 t-19 -19q-60 17 -72 72q-70 -73 -165 -73q-73 0 -118 48t-45 140q0 133 83.5 220t199.5 87q98 0 157 -42zM216 39q43 0 83.5 23.5t67.5 64.5l50 281q-39 23 -101 23q-94 0 -157.5 -68t-63.5 -178q0 -71 31.5 -108.5t89.5 -37.5z" />
<glyph horiz-adv-x="481" d="M259 509q-39 0 -60.5 23t-21.5 59q0 45 28.5 73.5t68.5 28.5q38 0 59.5 -22.5t21.5 -59.5q0 -46 -28 -74t-68 -28zM271 654q-23 0 -38.5 -17t-15.5 -42q0 -20 11.5 -33.5t32.5 -13.5q26 0 40.5 15.5t14.5 43.5q0 47 -45 47zM366 82q0 -17 8.5 -26.5t30.5 -18.5 q-2 -32 -25 -46q-67 10 -68 66q-1 2 -1 17q-59 -86 -160 -86q-64 0 -100.5 33t-36.5 89q0 73 58 116.5t160 44.5h111l5 28q3 19 3 36q0 96 -109 96q-66 0 -131 -48q-23 12 -27 36q72 64 168 64q70 0 112.5 -33t42.5 -103q0 -23 -4 -46l-14 -77l-21 -118q-2 -18 -2 -24z M163 36q59 0 106.5 44t64.5 144l-110 -1q-79 0 -115.5 -29.5t-36.5 -76.5q0 -37 23.5 -59t67.5 -22z" />
<glyph horiz-adv-x="479" d="M275 509q-39 0 -60.5 23t-21.5 59q0 45 28.5 73.5t68.5 28.5q38 0 59.5 -22.5t21.5 -59.5q0 -46 -28 -74t-68 -28zM287 654q-23 0 -38.5 -17t-15.5 -42q0 -20 11.5 -33.5t32.5 -13.5q26 0 40.5 15.5t14.5 43.5q0 47 -45 47zM261 483q82 0 126 -46t28 -138l-48 -271 q-82 -40 -187 -40q-82 0 -123.5 36t-41.5 97q0 77 59.5 121t147.5 44q77 0 132 -24l6 35q12 65 -18 99.5t-93 34.5q-73 0 -136 -47q-24 12 -24 38q25 22 71 41.5t101 19.5zM73 128q0 -42 29.5 -66t87.5 -24q68 0 129 23l26 150q-52 25 -132 25q-64 0 -102 -28.5t-38 -79.5z " />
<glyph horiz-adv-x="542" d="M216 558q-28 0 -40 16q34 75 97 75q29 0 69 -20.5t56 -20.5q32 0 50 44q27 0 39 -15q-11 -36 -35.5 -56t-53.5 -20q-28 0 -65 20t-55 20q-37 0 -62 -43zM477 441l-56 -319q-5 -32 5 -53t40 -36q-1 -12 -10 -25t-19 -19q-60 17 -72 72q-70 -73 -165 -73q-73 0 -118 48 t-45 140q0 133 83.5 220t199.5 87q98 0 157 -42zM216 39q43 0 83.5 23.5t67.5 64.5l50 281q-39 23 -101 23q-94 0 -157.5 -68t-63.5 -178q0 -71 31.5 -108.5t89.5 -37.5z" />
<glyph horiz-adv-x="481" d="M152 558q-28 0 -40 16q34 75 97 75q29 0 69 -20.5t56 -20.5q32 0 50 44q27 0 39 -15q-11 -36 -35.5 -56t-53.5 -20q-28 0 -65 20t-55 20q-37 0 -62 -43zM389 224l-21 -118q-2 -18 -2 -24q0 -17 8.5 -26.5t30.5 -18.5q-2 -32 -25 -46q-67 10 -68 66q-1 2 -1 17 q-59 -86 -160 -86q-64 0 -100.5 33t-36.5 89q0 73 58 116.5t160 44.5h111l5 28q3 19 3 36q0 96 -109 96q-66 0 -131 -48q-23 12 -27 36q72 64 168 64q70 0 112.5 -33t42.5 -103q0 -23 -4 -46zM163 36q59 0 106.5 44t64.5 144l-110 -1q-79 0 -115.5 -29.5t-36.5 -76.5 q0 -37 23.5 -59t67.5 -22z" />
<glyph horiz-adv-x="479" d="M167 558q-28 0 -40 16q34 75 97 75q28 0 68 -20.5t57 -20.5q32 0 50 44q27 0 39 -15q-11 -36 -35.5 -56t-53.5 -20q-28 0 -65 20t-55 20q-37 0 -62 -43zM261 483q82 0 126 -46t28 -138l-48 -271q-82 -40 -187 -40q-82 0 -123.5 36t-41.5 97q0 77 59.5 121t147.5 44 q77 0 132 -24l6 35q12 65 -18 99.5t-93 34.5q-73 0 -136 -47q-24 12 -24 38q25 22 71 41.5t101 19.5zM73 128q0 -42 29.5 -66t87.5 -24q68 0 129 23l26 150q-52 25 -132 25q-64 0 -102 -28.5t-38 -79.5z" />
<glyph horiz-adv-x="527" d="M318 483q72 0 116 -47.5t44 -133.5q0 -142 -82 -228t-206 -86q-94 0 -156 39l111 631q15 3 28 3q15 0 27 -3l-45 -256q67 81 163 81zM197 40q96 0 159.5 69t63.5 183q0 65 -30.5 102.5t-82.5 37.5q-102 0 -167 -114l-45 -256q39 -22 102 -22z" />
<glyph horiz-adv-x="528" d="M489 661q15 0 27 -3l-116 -660q-9 -3 -29 -3q-18 0 -27 3l11 59l2 14q-69 -83 -165 -83q-68 0 -112 46t-44 131q0 143 82.5 230.5t199.5 87.5q64 0 109 -17l34 192q14 3 28 3zM203 39q51 0 96 32t74 88l44 249q-39 23 -106 23q-93 0 -155 -69.5t-62 -185.5 q0 -64 29.5 -100.5t79.5 -36.5z" />
<glyph horiz-adv-x="504" d="M453 229h-353q-1 -8 -1 -23q0 -80 40.5 -123.5t113.5 -43.5q71 0 133 53q25 -11 29 -40q-75 -64 -172 -64q-93 0 -147 55.5t-54 154.5q0 132 71 208.5t168 76.5q89 0 133.5 -51.5t44.5 -137.5q0 -27 -6 -65zM277 433q-63 0 -108.5 -43t-61.5 -114h292q2 11 2 29 q0 61 -33.5 94.5t-90.5 33.5z" />
<glyph horiz-adv-x="488" d="M280 217h-183q-1 -7 -1 -21q0 -69 40 -113t113 -44q69 0 128 51q26 -11 28 -43q-73 -59 -165 -59q-91 0 -145.5 53t-54.5 149q0 134 73 213.5t177 79.5q75 0 118 -36.5t43 -91.5q0 -63 -44 -100.5t-127 -37.5zM281 433q-63 0 -112.5 -44.5t-66.5 -124.5h188 q47 0 74.5 22.5t27.5 61.5t-29 62t-82 23z" />
<glyph horiz-adv-x="504" d="M228 526q-16 10 -21 29l149 127q29 -14 37 -49zM453 229h-353q-1 -8 -1 -23q0 -80 40.5 -123.5t113.5 -43.5q71 0 133 53q25 -11 29 -40q-75 -64 -172 -64q-93 0 -147 55.5t-54 154.5q0 132 71 208.5t168 76.5q89 0 133.5 -51.5t44.5 -137.5q0 -27 -6 -65zM277 433 q-63 0 -108.5 -43t-61.5 -114h292q2 11 2 29q0 61 -33.5 94.5t-90.5 33.5z" />
<glyph horiz-adv-x="488" d="M239 526q-16 10 -21 29l149 127q29 -14 37 -49zM280 217h-183q-1 -7 -1 -21q0 -69 40 -113t113 -44q69 0 128 51q26 -11 28 -43q-73 -59 -165 -59q-91 0 -145.5 53t-54.5 149q0 134 73 213.5t177 79.5q75 0 118 -36.5t43 -91.5q0 -63 -44 -100.5t-127 -37.5zM281 433 q-63 0 -112.5 -44.5t-66.5 -124.5h188q47 0 74.5 22.5t27.5 61.5t-29 62t-82 23z" />
<glyph horiz-adv-x="504" d="M187 529q-18 8 -23 28l127 122q18 6 34 0l89 -126q-10 -17 -31 -24l-81 100zM453 229h-353q-1 -8 -1 -23q0 -80 40.5 -123.5t113.5 -43.5q71 0 133 53q25 -11 29 -40q-75 -64 -172 -64q-93 0 -147 55.5t-54 154.5q0 132 71 208.5t168 76.5q89 0 133.5 -51.5t44.5 -137.5 q0 -27 -6 -65zM277 433q-63 0 -108.5 -43t-61.5 -114h292q2 11 2 29q0 61 -33.5 94.5t-90.5 33.5z" />
<glyph horiz-adv-x="488" d="M198 529q-18 8 -23 28l127 122q18 6 34 0l89 -126q-10 -17 -31 -24l-81 100zM280 217h-183q-1 -7 -1 -21q0 -69 40 -113t113 -44q69 0 128 51q26 -11 28 -43q-73 -59 -165 -59q-91 0 -145.5 53t-54.5 149q0 134 73 213.5t177 79.5q75 0 118 -36.5t43 -91.5 q0 -63 -44 -100.5t-127 -37.5zM281 433q-63 0 -112.5 -44.5t-66.5 -124.5h188q47 0 74.5 22.5t27.5 61.5t-29 62t-82 23z" />
<glyph horiz-adv-x="504" d="M201 561q-17 0 -28.5 12t-11.5 29t12 29t28 12q17 0 29 -12t12 -29t-12 -29t-29 -12zM392 561q-17 0 -29 12t-12 29t12 29t29 12q16 0 28.5 -12.5t12.5 -28.5q0 -17 -12 -29t-29 -12zM453 229h-353q-1 -8 -1 -23q0 -80 40.5 -123.5t113.5 -43.5q71 0 133 53 q25 -11 29 -40q-75 -64 -172 -64q-93 0 -147 55.5t-54 154.5q0 132 71 208.5t168 76.5q89 0 133.5 -51.5t44.5 -137.5q0 -27 -6 -65zM277 433q-63 0 -108.5 -43t-61.5 -114h292q2 11 2 29q0 61 -33.5 94.5t-90.5 33.5z" />
<glyph horiz-adv-x="488" d="M212 561q-17 0 -28.5 12t-11.5 29t12 29t28 12q17 0 29 -12t12 -29t-12 -29t-29 -12zM403 561q-17 0 -29 12t-12 29t12 29t29 12t29 -12.5t12 -28.5q0 -17 -12 -29t-29 -12zM280 217h-183q-1 -7 -1 -21q0 -69 40 -113t113 -44q69 0 128 51q26 -11 28 -43 q-73 -59 -165 -59q-91 0 -145.5 53t-54.5 149q0 134 73 213.5t177 79.5q75 0 118 -36.5t43 -91.5q0 -63 -44 -100.5t-127 -37.5zM281 433q-63 0 -112.5 -44.5t-66.5 -124.5h188q47 0 74.5 22.5t27.5 61.5t-29 62t-82 23z" />
<glyph horiz-adv-x="504" d="M370 552q-7 -16 -23 -26l-136 109q13 35 43 46zM453 229h-353q-1 -8 -1 -23q0 -80 40.5 -123.5t113.5 -43.5q71 0 133 53q25 -11 29 -40q-75 -64 -172 -64q-93 0 -147 55.5t-54 154.5q0 132 71 208.5t168 76.5q89 0 133.5 -51.5t44.5 -137.5q0 -27 -6 -65zM277 433 q-63 0 -108.5 -43t-61.5 -114h292q2 11 2 29q0 61 -33.5 94.5t-90.5 33.5z" />
<glyph horiz-adv-x="488" d="M381 552q-7 -16 -23 -26l-136 109q13 35 43 46zM280 217h-183q-1 -7 -1 -21q0 -69 40 -113t113 -44q69 0 128 51q26 -11 28 -43q-73 -59 -165 -59q-91 0 -145.5 53t-54.5 149q0 134 73 213.5t177 79.5q75 0 118 -36.5t43 -91.5q0 -63 -44 -100.5t-127 -37.5zM281 433 q-63 0 -112.5 -44.5t-66.5 -124.5h188q47 0 74.5 22.5t27.5 61.5t-29 62t-82 23z" />
<glyph horiz-adv-x="306" d="M313 662q59 0 99 -30q-6 -28 -29 -42q-36 22 -79 22q-91 0 -108 -106l-6 -39h130q4 -23 -8 -45h-129l-74 -460q-25 -162 -167 -162q-62 0 -102 30q4 25 27 42q34 -23 78 -23q92 0 109 107l74 467h-79q-3 21 7 45h79l5 31q14 81 59 122t114 41z" />
<glyph horiz-adv-x="525" d="M316 483q101 0 161 -42l-76 -434q-16 -89 -83.5 -145t-158.5 -56q-68 0 -104 28.5t-36 79.5q0 90 129 131q-50 20 -78.5 63t-28.5 104q0 121 79.5 196t195.5 75zM98 218q0 -65 39.5 -102t106.5 -37q63 0 121 39l52 292q-35 21 -105 21q-92 0 -153 -57.5t-61 -155.5z M166 -144q69 0 118.5 41.5t61.5 109.5l9 54q-40 -23 -90 -29q-105 -20 -147 -45.5t-42 -65.5q0 -31 24 -48t66 -17z" />
<glyph horiz-adv-x="453" d="M463 509q-35 -72 -93 -82q30 -46 30 -107q0 -80 -51.5 -131.5t-138.5 -51.5q-32 0 -56 7q-24 -23 -24 -50q1 -18 25.5 -29t59 -18t69.5 -17.5t59 -34t24 -60.5q0 -60 -52.5 -96.5t-149.5 -36.5q-70 0 -117.5 17t-69.5 39q12 29 34 42q52 -48 157 -48q72 0 107 21t35 55 q0 26 -24.5 41.5t-59.5 23t-69.5 16t-59 26.5t-24.5 48q0 42 36 80q-61 38 -61 123q0 84 58 138t152 54h70q32 0 52 12.5t37 44.5q30 -3 45 -26zM214 188q62 0 96.5 37.5t34.5 98.5q0 57 -33 100h-60q-65 0 -105 -37.5t-40 -95.5q0 -49 28.5 -76t78.5 -27z" />
<glyph horiz-adv-x="496" d="M505 500q-26 -39 -57.5 -52t-82.5 -15q63 -39 63 -128q0 -54 -20.5 -101t-60.5 -75q53 -45 53 -124q0 -82 -61 -140.5t-165 -58.5q-140 0 -192 91q19 25 46 35q43 -73 152 -73q79 0 121 42.5t42 98.5q0 68 -53 101q-32 -8 -64 -8q-84 0 -133.5 45.5t-49.5 121.5 q0 101 64.5 160t155.5 59h84q42 0 67.5 10t51.5 43q28 -7 39 -32zM373 298q0 56 -30.5 92t-92.5 36t-106.5 -43t-44.5 -118q0 -57 34 -88.5t94 -31.5q69 0 107.5 45.5t38.5 107.5z" />
<glyph horiz-adv-x="481" d="M486 504q-22 -38 -45.5 -55.5t-58.5 -22.5q27 -45 27 -104q0 -83 -50.5 -135t-139.5 -52h-44q-39 0 -60.5 -17.5t-21.5 -44.5q0 -52 62 -52h232q1 -4 1 -15q0 -21 -10 -40h-233q-57 0 -85.5 25t-28.5 70q0 73 80 105q-52 40 -52 118q0 88 59.5 141t156.5 53h68 q39 0 59.5 11t40.5 41q29 -3 43 -26zM223 186q62 0 97 38t35 101q0 55 -30 99h-62q-66 0 -106.5 -37t-40.5 -99q0 -49 28 -75.5t79 -26.5z" />
<glyph horiz-adv-x="496" d="M462 367q0 -66 -44 -111t-120 -67l117 -188q-20 -5 -42 -5q-18 0 -28 2l-104 173q-12 21 -12 46q92 21 134 53t42 87q0 34 -23.5 54.5t-63.5 20.5q-64 0 -116.5 -45t-67.5 -114l-48 -273q-12 -3 -28 -3q-14 0 -26 3l115 657q15 3 28 3q15 0 27 -3l-46 -261q70 86 171 86 q63 0 99 -32t36 -83z" />
<glyph horiz-adv-x="459" d="M451 466q-91 -133 -220 -221l176 -243q-20 -5 -44 -5q-16 0 -25 2l-155 215q-38 -21 -65 -33l-32 -181q-12 -3 -28 -3q-14 0 -26 3l115 657q15 3 28 3q15 0 27 -3l-74 -417q72 37 144 98.5t120 129.5q10 3 29 3q17 0 30 -5z" />
<glyph horiz-adv-x="218" d="M61 -3q-15 0 -27 3l116 658q13 3 28 3t27 -3l-116 -658q-13 -3 -28 -3z" />
<glyph horiz-adv-x="529" d="M322 483q70 0 114 -46t44 -135q0 -142 -82 -228t-203 -86q-60 0 -107 15l-34 -190q-13 -4 -28 -4q-17 0 -28 4l38 215l79 441q13 3 28 3q13 0 27 -3l-11 -65q65 79 163 79zM202 40q94 0 157 69.5t63 181.5q0 67 -30.5 104t-82.5 37q-48 0 -92 -29t-73 -83l-46 -257 q39 -23 104 -23z" />
<glyph horiz-adv-x="527" d="M324 481q97 0 157 -40l-112 -629q-12 -4 -28 -4t-27 4l45 255q-67 -81 -162 -81q-73 0 -117 47t-44 134q0 143 82.5 228.5t205.5 85.5zM207 37q50 0 93.5 29.5t73.5 84.5l45 257q-40 21 -102 21q-96 0 -159 -69t-63 -183q0 -65 30.5 -102.5t81.5 -37.5z" />
<glyph horiz-adv-x="508" d="M142 -13q-46 0 -71 24.5t-25 69.5q0 16 3 34l61 352q14 3 28 3t28 -3l-59 -337q-3 -16 -3 -31q0 -60 54 -60q31 0 74 26.5t85 70.5t71 110t29 135q0 50 -19 88q14 3 32 3q20 0 29 -3q14 -28 14 -89q0 -72 -31 -145t-79 -127t-107.5 -87.5t-113.5 -33.5z" />
<glyph horiz-adv-x="467" d="M432 470q21 0 31 -5q-25 -129 -100.5 -255t-165.5 -211q-12 -3 -27 -3t-27 3q-70 198 -83 466q13 5 37 5q11 0 21 -2q4 -106 22.5 -220.5t38.5 -183.5l3 -12q0 1 8 11q69 72 130 180t85 225q16 2 27 2z" />
<glyph horiz-adv-x="696" d="M657 470q19 0 31 -5q-28 -129 -89.5 -255t-138.5 -211q-14 -3 -28 -3q-15 0 -27 3q-38 153 -43 353q-51 -190 -184 -353q-12 -3 -27 -3t-25 3q-29 93 -46 218.5t-16 247.5q12 5 33 5q9 0 21 -2q0 -108 13 -223.5t29 -183.5q0 -2 1 -6.5t1 -6.5q2 2 4 6.5t4 6.5 q53 73 102 178t74 219q14 2 29 2q14 0 28 -2q1 -166 37 -397q1 -3 1.5 -8t0.5 -8l12 15q50 59 103.5 175.5t78.5 232.5q10 2 21 2z" />
<glyph horiz-adv-x="519" d="M447 471q13 0 27 -3l-82 -464q-15 -90 -78 -144.5t-160 -54.5q-63 0 -99 28.5t-36 78.5q0 92 137 130q-64 10 -91 52.5t-15 113.5l46 260q15 3 29 3q13 0 27 -3l-42 -237q-14 -75 10 -114.5t101 -39.5t136 38l62 353q13 3 28 3zM163 -145q67 0 114.5 40.5t59.5 108.5 l10 54q-50 -22 -95 -29q-99 -21 -137 -47.5t-38 -63.5q0 -31 23.5 -47t62.5 -16z" />
<glyph horiz-adv-x="493" d="M445 467q9 -37 9 -74q0 -187 -128 -336.5t-355 -258.5q-19 12 -22 43q144 74 244 153q-131 171 -131 414q0 39 4 58q12 4 32 4q11 0 25 -2q-5 -33 -5 -68q0 -213 116 -370q164 152 164 359q0 37 -11 78q9 3 30 3q7 0 28 -3z" />
<glyph horiz-adv-x="519" d="M231 526q-16 10 -21 29l149 127q29 -14 37 -49zM447 471q13 0 27 -3l-82 -464q-15 -90 -78 -144.5t-160 -54.5q-63 0 -99 28.5t-36 78.5q0 92 137 130q-64 10 -91 52.5t-15 113.5l46 260q15 3 29 3q13 0 27 -3l-42 -237q-14 -75 10 -114.5t101 -39.5t136 38l62 353 q13 3 28 3zM163 -145q67 0 114.5 40.5t59.5 108.5l10 54q-50 -22 -95 -29q-99 -21 -137 -47.5t-38 -63.5q0 -31 23.5 -47t62.5 -16z" />
<glyph horiz-adv-x="493" d="M194 526q-16 10 -21 29l149 127q29 -14 37 -49zM445 467q9 -37 9 -74q0 -187 -128 -336.5t-355 -258.5q-19 12 -22 43q144 74 244 153q-131 171 -131 414q0 39 4 58q12 4 32 4q11 0 25 -2q-5 -33 -5 -68q0 -213 116 -370q164 152 164 359q0 37 -11 78q9 3 30 3q7 0 28 -3 z" />
<glyph horiz-adv-x="519" d="M204 561q-17 0 -28.5 12t-11.5 29t12 29t28 12q17 0 29 -12t12 -29t-12 -29t-29 -12zM395 561q-17 0 -29 12t-12 29t12 29t29 12t29 -12.5t12 -28.5q0 -17 -12 -29t-29 -12zM447 471q13 0 27 -3l-82 -464q-15 -90 -78 -144.5t-160 -54.5q-63 0 -99 28.5t-36 78.5 q0 92 137 130q-64 10 -91 52.5t-15 113.5l46 260q15 3 29 3q13 0 27 -3l-42 -237q-14 -75 10 -114.5t101 -39.5t136 38l62 353q13 3 28 3zM163 -145q67 0 114.5 40.5t59.5 108.5l10 54q-50 -22 -95 -29q-99 -21 -137 -47.5t-38 -63.5q0 -31 23.5 -47t62.5 -16z" />
<glyph horiz-adv-x="493" d="M167 561q-17 0 -28.5 12t-11.5 29t12 29t28 12q17 0 29 -12t12 -29t-12 -29t-29 -12zM358 561q-17 0 -29 12t-12 29t12 29t29 12q16 0 28.5 -12.5t12.5 -28.5q0 -17 -12 -29t-29 -12zM445 467q9 -37 9 -74q0 -187 -128 -336.5t-355 -258.5q-19 12 -22 43q144 74 244 153 q-131 171 -131 414q0 39 4 58q12 4 32 4q11 0 25 -2q-5 -33 -5 -68q0 -213 116 -370q164 152 164 359q0 37 -11 78q9 3 30 3q7 0 28 -3z" />
<glyph horiz-adv-x="506" d="M327 612q-119 0 -142 -135l-2 -9l276 -1l-82 -467q-13 -3 -28 -3t-28 3l74 422l-219 1l-79 -461q-13 -81 -56.5 -121.5t-109.5 -40.5q-65 0 -104 29q4 25 29 43q34 -23 78 -23q91 0 108 107l80 467h-67q0 13 1 21t7 24h67l1 6q16 98 72.5 143t131.5 45q91 0 141 -53 q-2 -13 -13.5 -24.5t-25.5 -13.5q-24 21 -47.5 31t-62.5 10z" />
<glyph horiz-adv-x="562" d="M494 68q25 -13 25 -38q-43 -38 -99 -38q-48 0 -74 27.5t-17 78.5l86 496q-39 18 -87 18q-52 0 -92.5 -32t-51.5 -99l-2 -13l121 -1q1 -3 1 -10q0 -17 -9 -35l-121 1l-76 -461q-13 -81 -58.5 -121.5t-114.5 -40.5q-63 0 -98 29q4 25 29 43q34 -23 78 -23q46 0 72.5 21.5 t36.5 85.5l78 467h-67q0 13 1 21t7 24h67l1 6q15 94 75.5 141t133.5 47q77 0 137 -34l-91 -523q-5 -30 8 -46t39 -16q31 0 62 25z" />
<glyph horiz-adv-x="587" d="M262 -13q-105 0 -158 60.5t-53 165.5q0 141 75.5 237.5t201.5 96.5q101 0 153 -61t52 -166q0 -142 -72 -237.5t-199 -95.5zM271 39q69 0 116 41t66.5 101.5t19.5 134.5q0 179 -154 179q-70 0 -118.5 -41t-69.5 -102t-21 -135q0 -178 161 -178z" />
<glyph horiz-adv-x="303" d="M241 541q10 0 18 -2l-95 -539q-12 -3 -28 -3q-14 0 -27 3l83 469l-120 -59q-21 18 -18 45q165 82 177 85q4 1 10 1z" />
<glyph horiz-adv-x="467" d="M110 53h278q1 -3 1 -13q0 -20 -10 -40h-370q-1 2 -1 11q0 37 39 65q195 137 254 195.5t59 126.5q0 46 -29 72t-83 26q-79 0 -140 -63q-23 7 -28 33q30 35 76.5 58.5t100.5 23.5q73 0 117 -36.5t44 -105.5q0 -31 -8 -59t-30 -57t-41.5 -50.5t-63 -55.5t-72.5 -55t-91 -64 l-22 -13z" />
<glyph horiz-adv-x="461" d="M285 257q96 -35 96 -129q0 -92 -60 -149t-158 -57q-116 0 -170 63q9 24 32 38q30 -30 60.5 -42t79.5 -12q70 0 114.5 40t44.5 109q0 114 -152 114q-3 24 8 45q83 0 123.5 38.5t40.5 91.5q0 42 -25 66t-71 24q-78 0 -138 -58q-26 9 -29 32q69 76 171 76q66 0 107 -33.5 t41 -94.5q0 -58 -33 -99.5t-82 -62.5z" />
<glyph horiz-adv-x="500" d="M430 108q2 -24 -9 -49h-75l-25 -138q-13 -3 -27 -3t-27 3l25 138h-292q-2 10 -2 19q0 24 20 47l360 409q7 2 26 2q18 0 26 -2l-76 -426h76zM67 108h233l58 325l4 18l-14 -18z" />
<glyph horiz-adv-x="473" d="M169 -79q-119 0 -168 58q11 28 37 42q14 -20 49.5 -35.5t90.5 -15.5q69 0 114 39.5t45 106.5q0 80 -60.5 110t-206.5 30l49 276h317v-8q0 -22 -9 -45h-263l-30 -170q127 -2 194 -43t67 -135q0 -97 -62 -153.5t-164 -56.5z" />
<glyph horiz-adv-x="496" d="M480 607q-121 -28 -225 -106t-141 -197q66 69 161 69q74 0 118.5 -42t44.5 -123q0 -97 -63 -160t-154 -63q-85 0 -132.5 51.5t-47.5 146.5q0 89 37.5 170.5t99.5 140.5t137 100t154 59q15 -15 11 -46zM259 323q-85 0 -158 -75q-4 -24 -4 -57q0 -75 34 -115.5t96 -40.5 q66 0 111.5 45t45.5 119q0 65 -36 94.5t-89 29.5z" />
<glyph horiz-adv-x="452" d="M83 531h381v-8q0 -35 -30 -78l-364 -535q-30 7 -42 27l369 539h-323q-1 1 -1 8q0 21 10 47z" />
<glyph horiz-adv-x="485" d="M302 335q53 -34 81.5 -71t28.5 -91q0 -91 -60.5 -139.5t-147.5 -48.5q-76 0 -124.5 33t-48.5 103q0 71 49.5 125t118.5 89q-94 68 -94 150q0 75 55 126t137 51q69 0 112.5 -37t43.5 -98q0 -120 -151 -192zM290 611q-57 0 -92.5 -32.5t-35.5 -85.5q0 -42 27 -72.5 t74 -59.5q71 34 103.5 68.5t32.5 85.5q0 44 -28.5 70t-80.5 26zM212 34q59 0 101 32t42 95q0 27 -8 48t-27.5 39.5t-34.5 29t-45 29.5q-64 -29 -108 -74t-44 -100q0 -49 34.5 -74t89.5 -25z" />
<glyph horiz-adv-x="492" d="M264 547q85 0 131 -55.5t46 -148.5q0 -109 -30.5 -190.5t-86.5 -129.5t-126 -72.5t-156 -28.5q-7 21 4 50q134 8 218 65t110 183q-67 -55 -156 -55q-71 0 -117 43.5t-46 123.5q0 93 58 154t151 61zM230 213q80 0 152 57q3 30 3 66q0 76 -33 119t-95 43q-66 0 -107 -45 t-41 -114q0 -62 34 -94t87 -32z" />
<glyph d="M237 -13q-181 0 -181 237q0 186 70 309.5t198 123.5q178 0 178 -236q0 -124 -28 -220t-89 -155t-148 -59zM246 37q54 0 93.5 39t60 101.5t29.5 124t9 121.5q0 184 -123 184q-44 0 -79.5 -27.5t-56.5 -69t-35 -95t-19.5 -101.5t-5.5 -93q0 -184 127 -184z" />
<glyph d="M424 48q3 -20 -8 -48h-337q-2 22 8 48h147l92 520l-166 -78q-17 18 -15 49l211 103q9 3 20 3q12 0 19 -3l-106 -594h135z" />
<glyph d="M149 55h303q3 -33 -10 -55h-398v11q0 29 36 64q219 208 276.5 277.5t57.5 142.5q0 49 -32 79t-88 30q-36 0 -68.5 -13.5t-48 -26t-40.5 -35.5q-28 8 -35 34q80 94 198 94q74 0 122.5 -41.5t48.5 -114.5q0 -62 -38.5 -126t-83 -110t-164.5 -158q-24 -23 -37 -35l-19 -18z " />
<glyph d="M202 -12q-117 0 -168 60q12 27 39 43q55 -53 134 -53q83 0 136.5 47.5t53.5 131.5q0 138 -182 138h-19l1 10q2 17 23 37l193 184h-288q-1 3 -1 13q0 17 10 43h368q-3 -38 -33 -68l-187 -176q73 -4 123 -48t50 -121q0 -115 -73.5 -178t-179.5 -63z" />
<glyph d="M403 233h74q0 -15 -2 -23q-1 -9 -7 -27h-74l-32 -183q-14 -3 -27 -3t-27 3l32 183h-287q-14 48 26 107l258 374q26 -5 48 -21l-250 -364q-20 -31 -21 -46h235l27 152q18 2 27 2q11 0 27 -2z" />
<glyph d="M215 -14q-116 0 -174 58q13 29 39 42q51 -51 140 -51q85 0 132.5 51.5t47.5 136.5q0 63 -34 97.5t-100 34.5q-35 0 -81 -14.5t-61 -14.5q-10 0 -18 4l55 312h338q1 -2 1 -9q0 -20 -10 -46h-284l-36 -202q53 24 105 24q88 0 135.5 -45.5t47.5 -128.5q0 -113 -64 -181 t-179 -68z" />
<glyph d="M494 611q-74 -17 -140.5 -50t-127.5 -94t-88 -139q71 62 159 62q78 0 126 -44.5t48 -127.5q0 -107 -61.5 -170t-157.5 -63q-92 0 -142.5 53t-50.5 152t38 183.5t100.5 141t135 93t149.5 51.5q16 -17 12 -48zM286 338q-89 0 -163 -70q-6 -33 -6 -69q0 -79 36 -122t103 -43 q69 0 114 45.5t45 128.5q0 66 -37 98t-92 32z" />
<glyph d="M540 642q2 -6 2 -11q0 -31 -32 -77l-377 -568q-32 5 -44 27l382 574h-356q0 17 2 26q2 13 8 29h415z" />
<glyph d="M360 329q89 -64 89 -145q0 -96 -63.5 -146.5t-149.5 -50.5q-82 0 -133 38t-51 115q0 68 46 123.5t106 90.5q-72 52 -72 128q0 77 57.5 127.5t139.5 50.5q74 0 116.5 -37.5t42.5 -101.5q0 -113 -128 -192zM321 610q-57 0 -95 -34.5t-38 -84.5q0 -43 27.5 -70.5t82.5 -55.5 q16 -8 23 -13q54 33 83 70t29 88q0 46 -30 73t-82 27zM245 37q63 0 106 34.5t43 100.5q0 48 -31.5 81t-88.5 61q-15 7 -32 17q-53 -28 -93 -76.5t-40 -104.5q0 -58 37.5 -85.5t98.5 -27.5z" />
<glyph d="M297 661q89 0 140.5 -60.5t51.5 -166.5q0 -219 -110.5 -334t-298.5 -115q-7 23 5 50q124 1 215 66t121 200q-63 -51 -154 -51q-80 0 -129.5 48.5t-49.5 137.5q0 101 60.5 163t148.5 62zM278 299q85 0 152 55q4 31 4 73q0 87 -38.5 136t-103.5 49q-63 0 -106.5 -45.5 t-43.5 -123.5q0 -70 40 -107t96 -37z" />
<glyph horiz-adv-x="599" d="M521 276q0 -99 -60 -169l49 -54q-13 -25 -34 -34l-49 53q-65 -49 -149 -49q-82 0 -138 50l-52 -49q-22 11 -32 34l53 50q-36 51 -36 124q0 98 59 167l-51 56q10 24 35 34l49 -55q65 52 148 52q84 0 140 -50l52 48q23 -11 32 -33l-53 -50q37 -52 37 -125zM127 239 q0 -71 42.5 -117t113.5 -46q81 0 132 53.5t51 140.5q0 72 -43.5 118.5t-114.5 46.5q-77 0 -129 -54.5t-52 -141.5z" />
<glyph horiz-adv-x="449" d="M297 530q82 -7 131 -51q-9 -30 -35 -43q-46 37 -105 44l-32 -184q30 -9 49.5 -17t40.5 -23.5t31.5 -40t10.5 -57.5q0 -70 -50 -112t-134 -47l-19 -106q-8 -2 -22 -2t-22 2l19 106q-103 8 -156 67q10 26 40 41q45 -49 125 -57l35 199q-25 7 -40.5 12t-36 15t-31.5 22 t-19.5 31.5t-8.5 44.5q0 67 50 109t136 47l18 104q6 3 22 3t21 -3zM125 387q0 -33 22.5 -50t66.5 -29l31 173q-57 -4 -88.5 -29t-31.5 -65zM331 149q0 37 -22.5 56.5t-63.5 31.5l-32 -187q55 4 86.5 31t31.5 68z" />
<glyph horiz-adv-x="481" d="M302 545q96 0 149 -64q-11 -26 -39 -36q-42 51 -114 51q-59 0 -95 -39t-35 -112q0 -42 -2 -61h174q1 -22 -8 -48h-171q-8 -51 -28.5 -107.5t-20.5 -79.5h292q4 -26 -9 -49h-350q0 55 26.5 121.5t34.5 114.5h-66q-1 22 9 48h62q2 34 2 55q-1 96 52 151t137 55z" />
<glyph horiz-adv-x="504" d="M517 526l-218 -272h99v-8q0 -15 -8 -36h-124l-12 -70h123q1 -2 1 -9q0 -15 -8 -36h-124l-16 -95q-14 -3 -29 -3q-14 0 -28 3l17 95h-125v9q0 15 8 36h125l12 70h-125v8q0 17 8 36h104l-124 272q18 5 35 5q18 0 32 -2l105 -249l5 -15l10 15l199 249q9 2 29 2q16 0 29 -5z " />
<glyph horiz-adv-x="817" d="M831 386q6 -24 -4 -49q-88 -3 -184 -14q1 -8 1 -24q0 -143 -91 -227.5t-229 -84.5q-129 0 -201 71.5t-72 182.5q0 107 62.5 174.5t158.5 67.5q71 0 118 -38.5t66 -104.5q84 16 126 22q-13 74 -61 152q26 17 56 14q47 -74 61 -159q103 13 193 17zM268 433 q-73 0 -116.5 -52t-43.5 -139q143 54 291 86q-34 105 -131 105zM588 295v20q-231 -32 -476 -118q13 -71 68 -115t147 -44q118 0 189.5 70t71.5 187z" />
<glyph horiz-adv-x="237" d="M160 680q-11 8 -14 26l172 105q22 -14 25 -50z" />
<glyph horiz-adv-x="301" d="M293 803l90 -96q-9 -19 -25 -29l-90 80l-120 -80q-15 11 -18 29l122 96q21 6 41 0z" />
<glyph horiz-adv-x="331" d="M194 709q-17 0 -28.5 12t-11.5 29q0 16 12 28t28 12t28 -12t12 -28q0 -17 -11.5 -29t-28.5 -12zM382 709q-17 0 -29 12t-12 29q0 16 12 28t29 12q16 0 28 -12t12 -28q0 -17 -11.5 -29t-28.5 -12z" />
<glyph horiz-adv-x="240" d="M312 678l-156 86q10 35 37 50l136 -109q-4 -17 -17 -27z" />
<glyph horiz-adv-x="320" d="M155 720q-1 22 8 46h248q2 -26 -8 -46h-248z" />
<glyph horiz-adv-x="366" d="M181 696q-27 0 -39 16q41 77 105 77q28 0 68.5 -21t57.5 -21q38 0 54 44q29 0 39 -14q-13 -37 -38.5 -57.5t-56.5 -20.5q-28 0 -67 20.5t-59 20.5q-38 0 -64 -44z" />
<glyph horiz-adv-x="218" d="M167 565q-18 0 -31 13t-13 31t13 31t31 13t31 -13t13 -31t-13 -31t-31 -13zM60 -3q-14 0 -27 3l83 470q12 4 29 4q15 0 26 -4l-83 -470q-12 -3 -28 -3z" />
<glyph horiz-adv-x="540" d="M381 548q93 0 147 -49q-10 -25 -33 -39q-48 41 -122 41q-72 0 -123.5 -40.5t-77.5 -110.5h183q1 -18 -8 -45h-188q-7 -33 -9 -71h168q2 -23 -8 -44h-159q6 -74 45.5 -114t107.5 -40q77 0 133 44q19 -17 19 -40q-67 -52 -160 -52q-92 0 -144 54t-57 148h-73q-1 20 8 44h65 q1 36 9 71h-45q-1 22 8 45h50q32 91 102 144.5t162 53.5z" />
</font>
</defs>
</svg>
