<svg id="Layer_2" data-name="Layer 2" xmlns="http://www.w3.org/2000/svg" viewBox="0 0 451.2 451.2">
  <defs>
    <style>
      .cls-1 {
        fill: #fff;
      }
    </style>
  </defs>
  <title>icon_linkedin_001</title>
  <path id="background" d="M445.23,26.4H60.69C42.29,26.4,27.4,41,27.4,58.9V445.1c0,18,14.89,32.51,33.29,32.51H445.17c18.39,0,33.43-14.53,33.43-32.51V58.9c0-18-15-32.51-33.43-32.51h0.06Z" transform="translate(-27.4 -26.4)"/>
  <path id="whiteShape" class="cls-1" d="M393.83,391.92H334.58V299.07c0-22.14-.45-50.63-30.88-50.63-30.89,0-35.61,24.09-35.61,49v94.48H208.83V201h56.92v26h0.77c8-15,27.29-30.84,56.19-30.84,60,0,71.14,39.51,71.14,90.95v104.8h0ZM141.91,174.86a34.41,34.41,0,1,1,34.41-34.43A34.38,34.38,0,0,1,141.91,174.86Zm29.71,217.06H112.2V201h59.42V391.92Zm251.85-341h-341c-16.32,0-29.53,12.9-29.53,28.83V422.24c0,15.94,13.2,28.83,29.53,28.83h341c16.31,0,29.64-12.89,29.64-28.83V79.76c0-15.92-13.34-28.83-29.64-28.83h0.05Z" transform="translate(-27.4 -26.4)"/>
</svg>
