<svg id="Layer_1" data-name="Layer 1" xmlns="http://www.w3.org/2000/svg" viewBox="0 0 480.84 480.84">
  <defs>
    <style>
      .cls-1 {
        fill: #fff;
      }

      .cls-2, .cls-3, .cls-4, .cls-5 {
        fill: none;
        stroke: #000;
        stroke-linecap: round;
        stroke-miterlimit: 10;
      }

      .cls-2 {
        stroke-width: 32px;
      }

      .cls-3 {
        stroke-width: 23px;
      }

      .cls-4 {
        stroke-width: 18px;
      }

      .cls-5 {
        stroke-width: 14px;
      }
    </style>
  </defs>
  <title>icon_phone_002</title>
  <circle id="background" class="cls-1" cx="240.42" cy="240.42" r="240.42"/>
  <g id="shape">
    <path id="whiteShape" d="M420,124.08l-65.05-15a15.11,15.11,0,0,0-17.2,8.69l-30,70.06A15,15,0,0,0,312,205.34l37.91,31A231.83,231.83,0,0,1,239.06,347.2L208,309.3A15,15,0,0,0,190.52,305l-70.06,30a15.19,15.19,0,0,0-8.76,17.26l15,65.05A15,15,0,0,0,141.35,429c160.2,0,290.24-129.8,290.24-290.24A15,15,0,0,0,420,124.08Z" transform="translate(-9.1 -9.1)"/>
    <path class="cls-2" d="M58.06,198.51c9.08-24.42,76.1-136.8,236.65-120.45" transform="translate(-9.1 -9.1)"/>
    <path class="cls-3" d="M137.75,251S161.83,163.29,271.5,146" transform="translate(-9.1 -9.1)"/>
    <path class="cls-4" d="M213.63,277.72c-5.19-34.31,21.89-76.79,64.68-82.6" transform="translate(-9.1 -9.1)"/>
    <path class="cls-5" d="M270.12,287.45c-10.26-21-1.47-53.7,24.81-66.08" transform="translate(-9.1 -9.1)"/>
  </g>
</svg>
