<svg id="Layer_1" data-name="Layer 1" xmlns="http://www.w3.org/2000/svg" viewBox="0 0 480.84 480.84"><defs><style>.cls-1{fill:#fff;}</style></defs><title>icon_phone_01</title><circle id="background" cx="240.42" cy="240.42" r="240.42"/><path id="whiteShape" class="cls-1" d="M420,124.08l-65.05-15a15.11,15.11,0,0,0-17.2,8.69l-30,70.06A15,15,0,0,0,312,205.34l37.91,31A231.83,231.83,0,0,1,239.06,347.2L208,309.3A15,15,0,0,0,190.52,305l-70.06,30a15.19,15.19,0,0,0-8.76,17.26l15,65.05A15,15,0,0,0,141.35,429c160.2,0,290.24-129.8,290.24-290.24A15,15,0,0,0,420,124.08Z" transform="translate(-9.1 -9.1)"/></svg>