<svg id="Layer_1" data-name="Layer 1" xmlns="http://www.w3.org/2000/svg" viewBox="0 0 480.84 480.84"><defs><style>.cls-1{fill:#fff;}</style></defs><title>icons</title><circle id="background" cx="240.42" cy="240.42" r="240.42"/><path id="whiteShape" class="cls-1" d="M248.52,48.54A203.46,203.46,0,1,0,359.61,422.46a19.72,19.72,0,0,0,4.55-29l-8.35-10.2A19.63,19.63,0,0,0,330.08,379,151.36,151.36,0,0,1,248.52,403c-83.24,0-151-67.72-151-151s67.72-151,151-151c82.15,0,151,47.27,151,131.26,0,31.82-17.3,65.42-47.72,68.66-14.23-.37-13.87-10.55-11.06-24.63L359.92,177a19.69,19.69,0,0,0-19.33-23.43h-36.9a11.09,11.09,0,0,0-11,9.84v0.08c-12.06-14.69-33.18-17.86-49.2-17.86-61.19,0-113.08,51.06-113.08,124.26,0,53.57,30.18,86.86,78.76,86.86,22.14,0,47.07-12.83,61.52-31.45,7.81,28,33.32,28,58,28C418,353.25,452,294.5,452,232.31,452,120.45,361.75,48.54,248.52,48.54ZM230.73,298.3c-18.25,0-29.59-12.82-29.59-33.45,0-36.91,25.25-59.67,48.1-59.67,18.29,0,29.21,12.5,29.21,33.45,0,37-27.79,59.67-47.72,59.67h0Z" transform="translate(-9.1 -9.1)"/></svg>