<svg id="Layer_1" data-name="Layer 1" xmlns="http://www.w3.org/2000/svg" viewBox="0 0 480.84 480.84">
  <defs>
    <style>
      .cls-1 {
        fill: #fff;
      }
    </style>
  </defs>
  <title>icon_email_004</title>
  <circle id="whiteBackgorund" class="cls-1" cx="240.42" cy="240.42" r="240.42"/>
  <circle id="blackBackground" cx="239.41" cy="241.09" r="203.66"/>
  <path id="whiteShape" class="cls-1" d="M419.48,234.37c0-94.19-76-154.85-171.44-154.85A171.44,171.44,0,1,0,349.73,389a8.28,8.28,0,0,0,1.45-11.9l-10.52-12.86a8.32,8.32,0,0,0-11.36-1.41A138.59,138.59,0,0,1,248,389.22c-76.24,0-138.26-62-138.26-138.26S171.8,112.7,248,112.7c75.68,0,138.26,44.95,138.26,121.67,0,43.63-29.37,67.95-57.39,67.95-13.48,0-13.92-8.72-11.31-21.75l19.79-102.7a8.3,8.3,0,0,0-8.15-9.86H302.15a8.3,8.3,0,0,0-8.15,6.73c-0.76,4-1.15,5.76-1.58,9.67-8.24-13.51-24.8-21.48-45.07-21.48-49.5,0-93.33,43.2-93.33,105.68,0,42.28,22.73,70.59,64.42,70.59,20.6,0,42.41-11.64,55.13-29.2,2.87,21.32,19.7,26.28,41,26.28C383.17,336.27,419.48,292.29,419.48,234.37Zm-189.35,67.3c-19.68,0-31.43-13.45-31.43-36,0-39.76,27.35-64.57,51.58-64.57,20.82,0,31.43,14.89,31.43,35.66C281.71,269.17,258.78,301.67,230.14,301.67Z" transform="translate(-9.1 -9.1)"/>
</svg>
