<svg id="Layer_1" data-name="Layer 1" xmlns="http://www.w3.org/2000/svg" viewBox="0 0 480.84 480.84">
  <defs>
    <style>
      .cls-1 {
        fill: #fff;
      }
    </style>
  </defs>
  <title>icon_phone_003a</title>
  <circle id="whitebackground" class="cls-1" cx="240.42" cy="240.42" r="240.42"/>
  <circle id="blackBackground" cx="239.41" cy="241.09" r="203.66"/>
  <path id="shape" class="cls-1" d="M397.42,125.69l-60.5-14a14.05,14.05,0,0,0-16,8.09L293,185a13.93,13.93,0,0,0,4,16.29l35.25,28.85A215.59,215.59,0,0,1,229.19,333.19l-28.85-35.25a14,14,0,0,0-16.29-4L118.9,321.84a14.13,14.13,0,0,0-8.14,16.06l14,60.5a14,14,0,0,0,13.61,10.82c149,0,269.91-120.7,269.91-269.91A13.94,13.94,0,0,0,397.42,125.69Z" transform="translate(-9.1 -9.1)"/>
</svg>
