<?xml version="1.0" standalone="no"?>
<!DOCTYPE svg PUBLIC "-//W3C//DTD SVG 1.1//EN" "http://www.w3.org/Graphics/SVG/1.1/DTD/svg11.dtd" >
<svg xmlns="http://www.w3.org/2000/svg">
<metadata></metadata>
<defs>
<font id="brandingmediumitalic" horiz-adv-x="549" >
<font-face units-per-em="1000" ascent="770" descent="-230" />
<missing-glyph horiz-adv-x="234" />
<glyph unicode="&#xfb01;" horiz-adv-x="509" d="M205 468l264 -1l-83 -467q-17 -4 -40 -4q-22 0 -41 4l71 402l-182 1l-69 -404q-19 -4 -40 -4q-24 0 -40 4l71 404h-63q0 20 2 32q3 15 9 33h63l2 10q16 93 73.5 139.5t132.5 46.5q95 0 146 -56q-4 -19 -20.5 -36.5t-35.5 -18.5q-24 21 -45.5 30.5t-58.5 9.5 q-95 0 -113 -106z" />
<glyph unicode="&#xfb02;" horiz-adv-x="574" d="M497 87q32 -17 36 -54q-44 -42 -107 -42q-51 0 -80.5 28.5t-19.5 81.5l84 477q-31 15 -79 15q-45 0 -79 -25.5t-44 -80.5l-3 -20h98v-14q0 -22 -12 -51h-98l-71 -403q-17 -4 -39 -4t-38 4l71 404h-63q0 20 2 32q3 15 9 33h63l2 10q16 92 79.5 139t138.5 47q86 0 152 -39 l-90 -510q-4 -25 6.5 -37.5t30.5 -12.5q24 0 51 22z" />
<glyph horiz-adv-x="0" />
<glyph horiz-adv-x="333" />
<glyph unicode=" "  horiz-adv-x="234" />
<glyph unicode="&#x09;" horiz-adv-x="234" />
<glyph unicode="&#xa0;" horiz-adv-x="234" />
<glyph unicode="!" horiz-adv-x="246" d="M101 147q-10 0 -22 3q26 265 66 492q20 4 44 4q25 0 44 -4q-52 -273 -109 -492q-10 -3 -23 -3zM80 -10q-22 0 -37 15t-15 36q0 22 15 37t37 15q21 0 36.5 -15t15.5 -37q0 -21 -15.5 -36t-36.5 -15z" />
<glyph unicode="&#x22;" horiz-adv-x="283" d="M123 459q-6 0 -18 4l11 186q20 11 42 11q23 0 39 -11l-55 -186q-12 -4 -19 -4zM222 459q-6 0 -18 4l11 186q20 11 42 11q23 0 39 -11l-55 -186q-12 -4 -19 -4z" />
<glyph unicode="#" horiz-adv-x="644" d="M612 364h-104l-67 -160h107q-4 -37 -26 -68h-109l-76 -183q-43 -12 -75 0l76 183h-153l-76 -183q-43 -12 -75 0l76 183h-100q1 40 25 68h103l67 160h-105q2 35 26 68h107l76 183q42 11 74 0l-76 -183h154l76 183q43 11 75 0l-76 -183h102q-1 -33 -26 -68zM366 204l67 160 h-154l-66 -160h153z" />
<glyph unicode="$" horiz-adv-x="477" d="M421 492q-44 37 -101 44l-30 -168q62 -19 97.5 -51t35.5 -101q0 -84 -54.5 -130.5t-137.5 -52.5l-15 -86q-15 -4 -31 -4q-17 0 -30 4l15 87q-57 5 -97 22.5t-58 37.5q16 38 52 59q38 -38 116 -47l35 196q-33 9 -52.5 16.5t-43 23t-35 40.5t-11.5 60q0 70 53 115.5 t143 52.5l15 82q15 3 30 3q17 0 30 -3l-15 -83q87 -10 135 -56q-10 -39 -46 -61zM162 453q0 -27 18 -42.5t53 -26.5l26 153q-47 -6 -72 -28.5t-25 -55.5zM340 204q0 56 -65 80l-31 -179q44 6 70 30.5t26 68.5z" />
<glyph unicode="%" horiz-adv-x="720" d="M43 -47l546 689q50 9 83 0l-546 -689q-52 -7 -83 0zM194 342q-125 0 -125 131q0 74 44 121.5t114 47.5q62 0 92.5 -34.5t30.5 -96.5q0 -74 -44 -121.5t-112 -47.5zM204 401q38 0 59.5 28.5t21.5 74.5q0 79 -69 79q-38 0 -60 -29t-22 -74q0 -79 70 -79zM510 -14 q-125 0 -125 131q0 74 44 121.5t114 47.5q62 0 92.5 -34.5t30.5 -96.5q0 -74 -44 -121.5t-112 -47.5zM520 45q38 0 59.5 28.5t21.5 74.5q0 79 -69 79q-38 0 -60 -29t-22 -74q0 -79 70 -79z" />
<glyph unicode="&#x26;" horiz-adv-x="591" d="M578 356q0 -26 -13 -56h-92l-45 -273q-77 -43 -193 -43q-204 0 -204 163q0 66 38 116.5t104 75.5q-59 40 -59 124q0 82 60 133.5t151 51.5q95 0 144 -45q-19 -40 -53 -60q-42 36 -100 36q-56 0 -89.5 -31t-33.5 -80q0 -96 119 -96h265q1 -4 1 -16zM357 71l38 229h-113 q-81 0 -124.5 -36.5t-43.5 -106.5q0 -49 34 -76.5t100 -27.5q65 0 109 18z" />
<glyph unicode="'" horiz-adv-x="184" d="M123 459q-6 0 -18 4l11 186q20 11 42 11q23 0 39 -11l-55 -186q-12 -4 -19 -4z" />
<glyph unicode="(" horiz-adv-x="264" d="M83 -174q-50 132 -50 272q0 311 201 582q34 -2 54 -31q-80 -125 -124 -271t-44 -290q0 -132 30 -236q-10 -13 -29 -20.5t-38 -5.5z" />
<glyph unicode=")" horiz-adv-x="264" d="M22 -174q-34 2 -54 31q80 125 124 271t44 289q0 138 -30 237q20 28 67 26q51 -134 51 -272q0 -309 -202 -582z" />
<glyph unicode="*" horiz-adv-x="338" d="M241 544l82 -34q-9 -39 -41 -57l-58 69q-4 -2 -6 -2l-7 -91q-40 -4 -66 22l47 77q-3 2 -5 5l-87 -21q-16 36 0 70l86 -21q2 5 4 7l-47 77q29 26 67 22l6 -89q7 -2 8 -3l57 67q35 -19 41 -56l-81 -33v-4v-5z" />
<glyph unicode="+" horiz-adv-x="484" d="M445 285q0 -37 -13 -70h-166l-31 -176q-36 -7 -69 0l31 176h-165q-2 35 12 70h166l31 175q35 8 68 0l-31 -175h167z" />
<glyph unicode="," horiz-adv-x="217" d="M12 -155q-28 2 -36 28q19 23 30.5 41.5t21.5 57.5t10 88q0 20 -4 39q25 6 50.5 4t41.5 -11q1 -3 1 -17q0 -67 -36 -130t-79 -100z" />
<glyph unicode="-" horiz-adv-x="386" d="M62 215q-2 10 -2 17q0 26 13 50h243q1 -3 1 -13q0 -25 -12 -54h-243z" />
<glyph unicode="." horiz-adv-x="228" d="M83 -13q-25 0 -43 18t-18 43q0 26 18 43.5t43 17.5t43 -18t18 -43t-18 -43t-43 -18z" />
<glyph unicode="/" horiz-adv-x="519" d="M-17 -190q-18 0 -36 5l540 855q22 5 39 5q16 0 36 -5l-540 -855q-22 -5 -39 -5z" />
<glyph unicode="0" horiz-adv-x="600" d="M262 -16q-102 0 -153.5 68t-51.5 186q0 179 81 301t218 122q103 0 154 -67t51 -184q0 -186 -80.5 -306t-218.5 -120zM273 59q47 0 83.5 23.5t58 59.5t35 83.5t18 89.5t4.5 85q0 186 -127 186q-58 0 -100 -35.5t-62 -92t-28.5 -108.5t-8.5 -103q0 -188 127 -188z" />
<glyph unicode="1" horiz-adv-x="327" d="M278 652q15 0 26 -4l-115 -648q-19 -4 -42 -4q-20 0 -39 4l95 537l-108 -52q-34 26 -31 66q26 14 53 28t42.5 22.5t32.5 17.5t25 13t18 8.5t14.5 6t10 3t9.5 2t9 0.5z" />
<glyph unicode="2" horiz-adv-x="516" d="M163 76l283 1q5 -38 -14 -77h-401q-3 8 -3 24q0 39 41 74q148 126 215 194.5t83 102t16 80.5q0 50 -29 79.5t-85 29.5q-33 0 -63 -13t-44 -24t-35 -32q-41 11 -51 49q85 97 202 97q86 0 140 -47t54 -133q0 -31 -8.5 -61t-19 -53.5t-36.5 -55.5t-43.5 -51t-60 -56 t-64.5 -55l-77 -63l-16 -11z" />
<glyph unicode="3" horiz-adv-x="508" d="M488 642q0 -44 -30 -75l-160 -167q61 -9 106 -54t45 -119q0 -115 -72.5 -178t-187.5 -63q-65 0 -111 19t-65 43q15 40 47 61q58 -51 136 -51q80 0 124 43t44 106q0 67 -43.5 101.5t-118.5 34.5h-21q-1 2 -1 7q0 24 31 58l140 153h-257q-3 46 14 81h380z" />
<glyph unicode="4" horiz-adv-x="500" d="M399 236h67q0 -18 -3 -34q-3 -18 -11 -38h-66l-29 -164q-19 -3 -40 -3q-20 0 -38 3l29 164h-285q-19 65 37 146l245 354q36 -7 64 -38l-231 -331q-25 -35 -26 -59h209l29 167q20 3 39 3q21 0 39 -3z" />
<glyph unicode="5" horiz-adv-x="508" d="M203 -14q-118 0 -188 62q16 42 49 62q64 -53 142 -53q83 0 122 44.5t39 117.5q0 58 -30 88.5t-88 30.5q-35 0 -82.5 -12.5t-67.5 -12.5q-13 0 -23 4l58 325h355q0 -44 -13 -80h-276l-30 -163q40 18 90 18q93 0 142.5 -47.5t49.5 -134.5q0 -112 -67 -180.5t-182 -68.5z " />
<glyph unicode="6" horiz-adv-x="528" d="M494 599q-271 -63 -343 -253q66 49 145 49q84 0 132.5 -45.5t48.5 -128.5q0 -103 -67 -169.5t-162 -66.5q-97 0 -150.5 55.5t-53.5 160.5q0 95 37 177t99.5 139t138.5 95.5t159 55.5q25 -25 16 -69zM278 316q-83 0 -146 -50q-4 -25 -4 -58q0 -74 34.5 -113t94.5 -39 q59 0 98.5 39.5t39.5 108.5q0 55 -34.5 83.5t-82.5 28.5z" />
<glyph unicode="7" horiz-adv-x="469" d="M502 642q7 -47 -34 -113l-346 -545q-47 8 -66 39l343 539h-322q0 46 14 80h411z" />
<glyph unicode="8" horiz-adv-x="532" d="M375 337q90 -54 90 -143q0 -54 -21.5 -96t-57 -66t-75 -35.5t-81.5 -11.5q-88 0 -143.5 37t-55.5 121q0 69 42.5 120t102.5 84q-69 50 -69 130q0 78 62.5 131t150.5 53q82 0 129 -41.5t47 -104.5q0 -106 -121 -178zM310 589q-54 0 -88 -27t-34 -69q0 -40 27 -65.5 t80 -50.5q3 -2 9 -4.5t9 -3.5q53 27 78 57.5t25 73.5q0 41 -28.5 65t-77.5 24zM236 57q62 0 104.5 28.5t42.5 88.5q0 47 -32 74.5t-91 52.5l-23 11q-122 -65 -122 -151q0 -104 121 -104z" />
<glyph unicode="9" horiz-adv-x="530" d="M295 661q98 0 148 -59.5t50 -171.5q0 -111 -25 -193.5t-63.5 -129.5t-96.5 -75.5t-112 -37.5t-122 -9q-4 9 -4 27q0 20 10 43q60 1 106 10.5t90.5 32.5t75.5 68t46 112q-63 -47 -145 -47q-88 0 -137 51t-49 143q0 100 63.5 168t164.5 68zM269 302q76 0 140 48q3 32 3 69 q0 171 -128 171q-63 0 -100.5 -41t-37.5 -109q0 -67 36 -102.5t87 -35.5z" />
<glyph unicode=":" horiz-adv-x="260" d="M150 320q-26 0 -45 18.5t-19 44.5t19 44.5t45 18.5t44.5 -18.5t18.5 -44.5t-18.5 -44.5t-44.5 -18.5zM90 -13q-26 0 -44.5 19t-18.5 45t18.5 44.5t44.5 18.5t45 -18.5t19 -44.5t-19 -45t-45 -19z" />
<glyph unicode=";" horiz-adv-x="263" d="M142 320q-26 0 -45 18.5t-19 44.5t19 44.5t45 18.5t44.5 -18.5t18.5 -44.5t-18.5 -44.5t-44.5 -18.5zM32 -155q-11 0 -19 8t-9 18q18 23 28.5 41.5t20 57.5t9.5 88q0 20 -6 37q52 17 96 -3q1 -3 1 -17q0 -66 -38 -127.5t-83 -102.5z" />
<glyph unicode="&#x3c;" horiz-adv-x="552" d="M518 393l-394 -155l-9 -2l8 -2l346 -159q-11 -35 -36 -66l-406 185q-1 6 -1 21q0 29 14 62l466 182q15 -33 12 -66z" />
<glyph unicode="=" horiz-adv-x="545" d="M77 296q-1 2 -1 11q0 23 13 59h400v-11q0 -25 -12 -59h-400zM41 97v11q0 27 13 59h400v-11q0 -25 -12 -59h-401z" />
<glyph unicode="&#x3e;" horiz-adv-x="552" d="M513 277q1 -4 1 -17q0 -30 -16 -66l-472 -185q-15 31 -12 66l402 159l9 2l-8 2l-341 155q10 34 36 66z" />
<glyph unicode="?" horiz-adv-x="404" d="M152 147q-16 0 -27 4q0 51 20 92t48.5 67t56.5 49t48 51.5t20 62.5q0 45 -26 69t-72 24q-55 0 -101 -33q-35 20 -36 55q61 54 150 54q77 0 121.5 -41.5t44.5 -114.5q0 -48 -20.5 -86.5t-50.5 -64t-60 -50t-52.5 -58.5t-25.5 -76q-12 -4 -38 -4zM148 -10q-22 0 -37 15 t-15 36q0 22 15 37t37 15q21 0 36.5 -15t15.5 -37q0 -21 -15.5 -36t-36.5 -15z" />
<glyph unicode="@" horiz-adv-x="816" d="M447 639q145 0 232.5 -83.5t87.5 -219.5q0 -143 -56.5 -210.5t-143.5 -67.5q-64 0 -85 55q-53 -43 -110 -43q-66 0 -105 41t-39 113q0 102 63.5 166.5t155.5 64.5q91 0 138 -48l-38 -216q-6 -33 3 -49.5t40 -16.5q40 0 69.5 45.5t29.5 149.5q0 105 -70 176t-185 71 q-125 0 -218 -99t-93 -255q0 -108 65 -183.5t181 -75.5q57 0 115 28q11 -10 17 -29.5t2 -37.5q-68 -34 -147 -34q-145 0 -229 93.5t-84 228.5q0 95 34 178t90.5 138.5t129.5 87.5t150 32zM301 236q0 -46 23.5 -72.5t60.5 -26.5q52 0 92 40l35 194q-32 17 -77 17 q-58 0 -96 -41.5t-38 -110.5z" />
<glyph unicode="A" horiz-adv-x="571" d="M392 642l118 -635q-21 -11 -50 -11q-22 0 -37 4l-30 179h-250l-93 -179q-17 -4 -35 -4q-28 0 -46 11l338 635q18 6 44 6q25 0 41 -6zM179 249h202l-41 248l-7 52l-26 -52z" />
<glyph unicode="B" horiz-adv-x="563" d="M417 333q85 -32 85 -124q0 -104 -67.5 -162.5t-210.5 -58.5q-111 0 -186 13l98 557l13 73q79 17 174 17q99 0 150 -36t51 -105q0 -125 -107 -174zM316 578q-53 0 -96 -4l-36 -207h110q78 0 114.5 37t36.5 87q0 87 -129 87zM230 60q97 0 143 36.5t46 100.5q0 97 -139 97 h-109l-41 -227q42 -7 100 -7z" />
<glyph unicode="C" horiz-adv-x="585" d="M325 -16q-128 0 -200.5 75t-72.5 194q0 95 30 173.5t81 128.5t115.5 77.5t135.5 27.5q123 0 187 -59q-15 -44 -56 -63q-54 46 -144 46q-109 0 -186 -84.5t-77 -235.5q0 -92 54.5 -148t145.5 -56q52 0 85.5 13t68.5 39q38 -14 40 -55q-86 -73 -207 -73z" />
<glyph unicode="D" horiz-adv-x="649" d="M315 651q145 0 221.5 -72t76.5 -195q0 -175 -102.5 -284t-295.5 -109q-100 0 -176 12l112 635q83 13 164 13zM231 64q157 0 226.5 84t69.5 225q0 94 -55.5 148.5t-167.5 54.5q-40 0 -83 -4l-89 -503q55 -5 99 -5z" />
<glyph unicode="E" horiz-adv-x="524" d="M518 567h-299l-35 -199h266q4 -37 -13 -74h-266l-39 -220h309q6 -35 -13 -74h-389l113 642h380q6 -37 -14 -75z" />
<glyph unicode="F" horiz-adv-x="495" d="M515 566h-296l-38 -220h262q0 -39 -13 -74h-262l-48 -272q-25 -5 -42 -5t-39 5l113 642h377q2 -41 -14 -76z" />
<glyph unicode="G" horiz-adv-x="630" d="M409 583q-111 0 -191 -83.5t-80 -232.5q0 -95 53.5 -151t146.5 -56q65 0 119 22l31 173h-127q-3 40 13 77h209l-53 -298q-98 -50 -207 -50q-124 0 -197 72.5t-73 203.5q0 183 110.5 291.5t267.5 108.5q63 0 113.5 -17.5t77.5 -43.5q-15 -46 -54 -68q-61 52 -159 52z" />
<glyph unicode="H" horiz-adv-x="661" d="M601 647q17 0 39 -5l-114 -642q-22 -5 -38 -5q-19 0 -42 5l51 292h-326l-51 -292q-27 -5 -44 -5q-14 0 -37 5l113 642q18 5 39 5q25 0 42 -5l-49 -277h326l49 277q25 5 42 5z" />
<glyph unicode="I" horiz-adv-x="254" d="M79 -5q-17 0 -40 5l113 642q18 6 42 6q23 0 39 -6l-114 -642q-23 -5 -40 -5z" />
<glyph unicode="J" horiz-adv-x="382" d="M91 -16q-39 0 -73.5 15.5t-46.5 32.5q14 39 44 61q39 -35 85 -35q82 0 101 106l84 478q16 5 41 5q24 0 40 -5l-84 -479q-31 -179 -191 -179z" />
<glyph unicode="K" horiz-adv-x="569" d="M601 641q-146 -182 -315 -310q68 -139 242 -325q-27 -8 -66 -8q-20 0 -38 2q-118 122 -206 281q-10 -7 -29 -20t-26 -18l-43 -243q-25 -5 -43 -5q-16 0 -38 5l113 642q23 5 40 5q18 0 41 -5l-54 -307q105 74 175 139.5t155 169.5q19 3 40 3q29 0 52 -6z" />
<glyph unicode="L" horiz-adv-x="462" d="M409 73q6 -39 -13 -73h-357l113 642q23 5 40 5q19 0 41 -5l-101 -569h277z" />
<glyph unicode="M" horiz-adv-x="754" d="M690 646q23 0 43 -7l-113 -639q-23 -5 -40 -5q-15 0 -38 5l68 389l22 98l-16 -32l-237 -393q-19 -4 -37 -4q-17 0 -36 4l-99 396l-8 34l-14 -103l-68 -389q-23 -5 -40 -5q-15 0 -38 5l113 638q23 9 49 9q17 0 32 -4l120 -469l5 -31l16 31l282 469q16 3 34 3z" />
<glyph unicode="N" horiz-adv-x="656" d="M596 647q17 0 39 -5l-113 -636q-30 -9 -73 -9l-233 482l-11 31l-5 -36l-84 -474q-19 -5 -39 -5q-22 0 -38 5l111 634q29 18 75 11l234 -480l11 -30l7 45l80 462q27 5 39 5z" />
<glyph unicode="O" horiz-adv-x="689" d="M307 -15q-114 0 -184 74t-70 195q0 180 94.5 293t248.5 113q117 0 187 -74.5t70 -195.5q0 -183 -94.5 -294t-251.5 -111zM320 60q118 0 182.5 90t64.5 233q0 93 -49 147.5t-135 54.5q-116 0 -180 -90.5t-64 -233.5q0 -92 49 -146.5t132 -54.5z" />
<glyph unicode="P" horiz-adv-x="547" d="M326 653q110 0 165.5 -46t55.5 -129q0 -109 -74 -178t-204 -69q-62 0 -108 8l-42 -239q-19 -5 -42 -5t-39 5l111 630v1q81 22 177 22zM279 301q91 0 136.5 45.5t45.5 118.5q0 56 -38 85.5t-110 29.5q-46 0 -94 -8l-46 -263q43 -8 106 -8z" />
<glyph unicode="Q" horiz-adv-x="689" d="M465 22q90 -39 148 -152q-26 -26 -79 -40q-40 83 -87 119t-134 36h-6q-114 0 -184 74t-70 195q0 180 94.5 293t248.5 113q117 0 187 -74.5t70 -195.5q0 -130 -49.5 -226.5t-138.5 -141.5zM139 261q0 -92 49 -146.5t132 -54.5q118 0 182.5 90t64.5 233q0 93 -49 147.5 t-135 54.5q-116 0 -180 -90.5t-64 -233.5z" />
<glyph unicode="R" horiz-adv-x="564" d="M538 497q0 -89 -54 -148t-136 -79q55 -126 165 -264q-29 -8 -59 -8q-25 0 -33 2q-96 121 -158 260q-54 0 -97 4l-47 -264q-19 -5 -42 -5t-39 5l111 632q89 21 183 21q102 0 154 -41.5t52 -114.5zM220 573l-41 -236q35 -4 104 -4q88 0 130 42.5t42 107.5q0 47 -34.5 72.5 t-101.5 25.5q-48 0 -99 -8z" />
<glyph unicode="S" horiz-adv-x="507" d="M206 -16q-75 0 -127.5 22.5t-77.5 52.5q15 39 55 61q25 -27 67 -44t89 -17q151 0 151 119q0 31 -15 54t-39 36.5t-53.5 24.5t-58.5 24.5t-53 30.5t-39 47.5t-15 71.5q0 85 61.5 138t161.5 53q124 0 193 -63q-5 -19 -21 -38t-33 -27q-60 53 -145 53q-58 0 -96 -29t-38 -78 q0 -36 28 -60t68.5 -38.5t80.5 -33t68 -56.5t28 -96q0 -99 -63.5 -153.5t-176.5 -54.5z" />
<glyph unicode="T" horiz-adv-x="508" d="M553 642q1 -38 -13 -74h-193l-100 -569q-25 -5 -42 -5t-39 5l100 569h-193q-2 36 13 74h467z" />
<glyph unicode="U" horiz-adv-x="646" d="M280 -16q-102 0 -156 50.5t-54 141.5q0 41 8 84l67 382q27 5 42 5q18 0 41 -5l-67 -382q-7 -37 -7 -70q0 -56 33.5 -92t108.5 -36q91 0 131 48t56 141l69 391q27 5 43 5q19 0 37 -5l-71 -403q-23 -128 -88 -191.5t-193 -63.5z" />
<glyph unicode="V" horiz-adv-x="593" d="M580 649q29 0 49 -10q-113 -385 -353 -637q-19 -5 -44 -5q-22 0 -41 5q-94 290 -104 637q27 10 53 10q18 0 33 -4q3 -297 78 -569q203 252 294 569q17 4 35 4z" />
<glyph unicode="W" horiz-adv-x="865" d="M846 649q25 0 47 -10q-112 -377 -285 -638q-24 -6 -46 -6t-43 6q-39 205 -51 380q0 8 -1 23t-1.5 27.5t-0.5 23.5q-16 -52 -24 -76q-74 -202 -192 -377q-24 -6 -44 -6q-26 0 -47 6q-60 240 -71 638q28 10 53 10q18 0 31 -4q3 -277 47 -563q82 137 145 292t83 252 q18 5 42 5q23 0 39 -5q14 -322 56 -543q150 265 229 561q17 4 34 4z" />
<glyph unicode="X" horiz-adv-x="563" d="M607 641l-267 -321l160 -314q-24 -8 -55 -8q-13 0 -35 2l-132 267l-217 -267q-20 -2 -44 -2q-34 0 -53 8l277 331l-146 304q27 8 57 8q15 0 31 -2l121 -258l206 258q16 2 32 2q44 0 65 -8z" />
<glyph unicode="Y" d="M601 640l-290 -394l-43 -246q-23 -5 -43 -5q-15 0 -38 5l44 249l-155 391q29 8 53 8q23 0 36 -3l108 -293l9 -31l22 31l212 293q14 3 41 3q23 0 44 -8z" />
<glyph unicode="Z" horiz-adv-x="540" d="M519 537l-399 -442l-24 -24h372q3 -37 -13 -71h-459q-3 9 -3 17q0 44 40 88l405 449l17 17l-360 -1q-3 40 13 72h449q2 -6 2 -13q0 -48 -40 -92z" />
<glyph unicode="[" horiz-adv-x="295" d="M319 616h-93l-127 -726h92q1 -34 -13 -72h-172l153 870h173q0 -37 -13 -72z" />
<glyph unicode="\" horiz-adv-x="492" d="M353 -190q-16 0 -38 5l-229 820q22 5 39 5q18 0 36 -5l229 -820q-20 -5 -37 -5z" />
<glyph unicode="]" horiz-adv-x="296" d="M110 688h173l-154 -870h-172q-1 36 12 72h93l127 726h-92q0 37 13 72z" />
<glyph unicode="^" horiz-adv-x="519" d="M117 329q-33 8 -53 34l239 317q40 9 74 0l129 -324q-29 -20 -67 -27l-110 278z" />
<glyph unicode="_" horiz-adv-x="426" d="M-60 -105q-1 5 -1 17q0 26 13 50h414v-13q0 -25 -12 -54h-414z" />
<glyph unicode="`" horiz-adv-x="228" d="M277 519l-146 100q16 50 63 67l114 -130q-11 -24 -31 -37z" />
<glyph unicode="a" horiz-adv-x="530" d="M320 485q109 0 169 -44l-78 -447q-36 -6 -73 0l7 64q-67 -72 -154 -72q-71 0 -115.5 47.5t-44.5 133.5q0 136 83 227t206 91zM364 185l37 211q-35 14 -92 14q-85 0 -139 -65t-54 -163q0 -57 24.5 -90t67.5 -33q49 0 91 35.5t65 90.5z" />
<glyph unicode="b" horiz-adv-x="539" d="M286 485q92 0 148.5 -54.5t56.5 -147.5q0 -138 -79.5 -217t-206.5 -79q-101 0 -177 45l112 626q19 4 40 4q23 0 40 -4l-33 -187q45 14 99 14zM216 59q90 0 141 57.5t51 151.5q0 66 -34.5 105.5t-108.5 39.5q-47 0 -92 -17l-56 -312q42 -25 99 -25z" />
<glyph unicode="c" horiz-adv-x="460" d="M236 -14q-89 0 -144.5 55.5t-55.5 147.5q0 130 70.5 213t187.5 83q99 0 148 -53q-16 -38 -50 -57q-41 37 -106 37q-44 0 -77.5 -20t-52 -51.5t-27.5 -65.5t-9 -67q0 -65 33 -106.5t100 -41.5q55 0 104 43q35 -19 41 -54q-65 -63 -162 -63z" />
<glyph unicode="d" horiz-adv-x="534" d="M490 661q23 0 40 -4l-110 -630q-30 -18 -76.5 -29.5t-88.5 -11.5q-103 0 -162 54t-59 156q0 124 82 206t206 82q55 0 96 -11l32 184q19 4 40 4zM117 206q0 -70 38 -108t102 -38q50 0 91 14l57 323q-36 14 -85 14q-94 0 -148.5 -58t-54.5 -147z" />
<glyph unicode="e" horiz-adv-x="488" d="M371 113q40 -15 46 -55q-70 -72 -176 -72q-92 0 -148.5 50.5t-56.5 155.5q0 132 71.5 212t176.5 80q79 0 123.5 -37.5t44.5 -100.5q0 -72 -60 -112t-161 -40q-62 0 -113 17v-10q0 -140 132 -140q31 0 58 10.5t36.5 18t26.5 23.5zM279 412q-57 0 -97 -35.5t-55 -97.5 q48 -18 118 -18q125 0 125 84q0 30 -25 48.5t-66 18.5z" />
<glyph unicode="f" horiz-adv-x="308" d="M314 664q63 0 107 -35q-8 -39 -42 -60q-36 24 -78 24q-73 0 -88 -85l-7 -41h115q3 -38 -12 -65h-115l-71 -403q-17 -4 -39 -4t-39 4l71 404h-62q-4 36 11 65h63l5 31q29 165 181 165z" />
<glyph unicode="g" horiz-adv-x="533" d="M319 485q100 0 172 -44l-75 -429q-17 -95 -80.5 -151.5t-156.5 -56.5q-141 0 -198 82q20 37 61 53q41 -63 134 -63q67 0 107.5 37.5t51.5 98.5l5 27q-54 -28 -111 -28q-85 0 -139 50.5t-54 139.5q0 127 82.5 205.5t200.5 78.5zM249 82q54 0 104 34l49 277q-34 18 -95 18 q-81 0 -134 -54t-53 -147q0 -62 34.5 -95t94.5 -33z" />
<glyph unicode="h" horiz-adv-x="547" d="M296 485q113 0 157.5 -54t29.5 -138l-52 -293q-17 -4 -42 -4q-20 0 -39 4l47 265q13 71 -15 108t-92 37q-69 0 -115 -21l-69 -389q-19 -4 -41 -4q-23 0 -40 4l116 657q19 4 41 4q23 0 40 -4l-34 -193q54 21 108 21z" />
<glyph unicode="i" horiz-adv-x="230" d="M172 551q-24 0 -41 17t-17 41q0 23 17 40t41 17t41 -17t17 -40q0 -24 -17 -41t-41 -17zM67 -4q-23 0 -40 4l83 472q19 4 41 4q23 0 40 -4l-84 -472q-17 -4 -40 -4z" />
<glyph unicode="j" horiz-adv-x="243" d="M189 551q-24 0 -41 17t-17 41q0 23 17 40t41 17t41 -17t17 -40q0 -24 -17 -41t-41 -17zM-60 -197q-73 0 -113 42q12 38 47 58q31 -29 66 -29t60 23.5t34 72.5l88 500q20 4 41 4q23 0 40 -4l-88 -501q-29 -166 -175 -166z" />
<glyph unicode="k" horiz-adv-x="500" d="M469 353q0 -53 -40.5 -99t-112.5 -67l111 -185q-30 -8 -54 -8q-19 0 -40 3l-96 168q-16 27 -16 61q164 39 164 121q0 66 -109 66q-60 0 -101 -17l-70 -396q-17 -4 -41 -4q-22 0 -39 4l116 657q19 4 40 4q23 0 40 -4l-33 -188q53 16 108 16q85 0 129 -35t44 -97z" />
<glyph unicode="l" horiz-adv-x="290" d="M141 -9q-45 0 -73.5 22.5t-28.5 64.5q0 15 2 23l99 557q19 4 42 4q22 0 39 -4l-97 -543q-1 -4 -1 -12q0 -38 38 -38q23 0 51 22q34 -18 36 -54q-42 -42 -107 -42z" />
<glyph unicode="m" horiz-adv-x="832" d="M602 485q87 0 128 -42t41 -110q0 -19 -3 -40l-52 -293q-17 -4 -41 -4q-21 0 -40 4l47 265q3 22 3 40q0 105 -100 105q-63 0 -122 -36q4 -17 4 -41q0 -19 -3 -40l-52 -293q-17 -4 -42 -4q-20 0 -39 4l47 265q3 23 3 40q0 53 -25 79t-79 26q-63 0 -103 -14l-70 -396 q-17 -4 -41 -4q-21 0 -40 4l78 441q84 44 193 44q96 0 140 -51q82 51 168 51z" />
<glyph unicode="n" horiz-adv-x="547" d="M293 485q100 0 147 -42t47 -110q0 -12 -4 -40l-52 -293q-17 -4 -42 -4q-20 0 -39 4l47 265q4 20 4 40q0 105 -114 105q-71 0 -117 -18l-66 -392q-19 -4 -42 -4q-22 0 -39 4l77 441q85 44 193 44z" />
<glyph unicode="o" horiz-adv-x="534" d="M238 -13q-96 0 -149 58t-53 145q0 134 69.5 215t181.5 81q93 0 145.5 -56t52.5 -148q0 -132 -68.5 -213.5t-178.5 -81.5zM247 58q70 0 112.5 60t42.5 150q0 69 -33 107.5t-93 38.5q-72 0 -115 -60t-43 -148q0 -65 33 -106.5t96 -41.5z" />
<glyph unicode="p" horiz-adv-x="537" d="M282 485q94 0 151 -54.5t57 -148.5q0 -134 -79.5 -214.5t-203.5 -80.5q-56 0 -104 17l-32 -190q-19 -4 -41 -4t-39 4l110 627q79 44 181 44zM218 59q87 0 137.5 59t50.5 149q0 67 -33 106.5t-104 39.5q-57 0 -99 -17l-54 -318q41 -19 102 -19z" />
<glyph unicode="q" horiz-adv-x="538" d="M321 485q118 0 176 -44l-112 -627q-20 -4 -41 -4q-23 0 -39 4l36 201q-50 -28 -110 -28q-88 0 -143 53.5t-55 146.5q0 130 84.5 214t203.5 84zM237 63q70 0 119 38l53 295q-40 14 -93 14q-89 0 -144 -60.5t-55 -158.5q0 -58 31.5 -93t88.5 -35z" />
<glyph unicode="r" horiz-adv-x="362" d="M280 485q59 0 104 -16q-5 -40 -33 -70q-33 10 -78 10q-59 0 -101 -17l-67 -392q-19 -4 -42 -4t-40 4l77 441q77 44 180 44z" />
<glyph unicode="s" horiz-adv-x="438" d="M177 -14q-67 0 -114 19t-66 40q14 41 51 59q17 -14 29 -21.5t43 -16.5t70 -9q53 0 78 21.5t25 55.5q0 29 -23.5 46t-57.5 26t-68 20.5t-57.5 39.5t-23.5 73q0 64 51.5 105t144.5 41q106 0 152 -44q-12 -36 -45 -61q-48 34 -120 34q-50 0 -75.5 -17.5t-25.5 -45.5 q0 -25 24 -41t57.5 -25.5t67.5 -22t58 -39.5t24 -67q0 -77 -54.5 -123.5t-144.5 -46.5z" />
<glyph unicode="t" horiz-adv-x="385" d="M200 402l-42 -241q-4 -19 -4 -36q0 -67 71 -67q42 0 79 32q33 -21 33 -57q-59 -46 -130 -46q-135 0 -135 117q0 21 4 41l45 257h-77v14q0 25 12 51h77l22 127q19 4 41 4t38 -4l-22 -127h171q1 -3 1 -14q0 -22 -12 -51h-172z" />
<glyph unicode="u" horiz-adv-x="538" d="M463 474q23 0 39 -4l-78 -443q-102 -41 -204 -41q-87 0 -130.5 36.5t-43.5 103.5q0 18 5 45l53 299q19 4 41 4q23 0 40 -4l-47 -266q-6 -31 -6 -56q0 -44 24.5 -65.5t84.5 -21.5t111 19l69 390q20 4 42 4z" />
<glyph unicode="v" horiz-adv-x="487" d="M443 471q17 -37 17 -85q0 -99 -70 -202t-183 -184q-19 -4 -44 -4q-22 0 -37 4q-58 202 -69 467q24 7 54 7q17 0 31 -3q6 -216 43 -379q1 -5 2 -13t2 -13q2 3 12 13q176 161 176 303q0 45 -19 90q16 3 34 3q27 0 51 -4z" />
<glyph unicode="w" horiz-adv-x="732" d="M688 470q15 -35 15 -85q0 -99 -60 -202.5t-158 -182.5q-17 -4 -41 -4q-22 0 -37 4q-29 98 -46 208q-50 -110 -153 -208q-17 -4 -41 -4q-22 0 -37 4q-66 219 -73 467q24 7 54 7q17 0 31 -3q3 -211 44 -376q2 -12 4 -30q8 9 12 12q41 52 65 86.5t49.5 94.5t25.5 114 q-4 46 -6 95q23 7 52 7q18 0 31 -3q6 -224 44 -376q2 -12 4 -30q7 9 12 12q61 64 104 147t43 161q0 42 -21 86q20 3 40 3q23 0 43 -4z" />
<glyph unicode="x" horiz-adv-x="457" d="M464 467l-197 -234l124 -231q-16 -8 -45 -8q-26 0 -42 4l-92 182l-150 -182q-16 -5 -46.5 -4t-44.5 8l206 241l-114 224q24 7 55 7q14 0 31 -3l86 -176l137 176q54 8 92 -4z" />
<glyph unicode="y" horiz-adv-x="533" d="M455 475q23 0 40 -4l-81 -459q-17 -94 -79 -151t-155 -57q-137 0 -192 74q18 37 61 55q40 -57 126 -57q67 0 107.5 37.5t51.5 98.5l5 27q-68 -28 -133 -28q-89 0 -127.5 51t-23.5 134l48 275q19 4 41 4q21 0 40 -4l-43 -242q-13 -72 6.5 -107t89.5 -35q67 0 115 31h1 l62 353q19 4 40 4z" />
<glyph unicode="z" horiz-adv-x="448" d="M366 83q11 -7 19 -26.5t6 -36.5q-68 -30 -159 -30q-86 0 -163 37l-31 -34q-44 0 -44 32q0 8 3.5 17t12 20t13 16t16.5 17.5t13 13.5l253 277l20 16h-261q0 38 12 68h341q0 -2 0.5 -8t0.5 -9q0 -46 -49 -99l-246 -268q57 -26 118 -26q52 0 125 23z" />
<glyph unicode="{" horiz-adv-x="324" d="M325 688h36q0 -37 -13 -72h-33q-59 0 -71 -69l-32 -184q-13 -73 -63 -110q36 -37 24 -110l-33 -184q-13 -69 47 -69h33q1 -34 -13 -72h-35q-70 0 -96.5 39.5t-15.5 101.5l32 184q12 71 -46 71h-34l-1 21q0 24 15 57h34q58 0 71 71l33 184q11 62 51 101.5t110 39.5z" />
<glyph unicode="|" horiz-adv-x="242" d="M7 -178l152 863q33 9 70 0l-152 -863q-41 -11 -70 0z" />
<glyph unicode="}" horiz-adv-x="324" d="M305 292q1 -5 1 -20q0 -26 -15 -58h-33q-59 0 -71 -71l-33 -184q-11 -62 -52 -101.5t-110 -39.5h-35q-1 36 12 72h34q58 0 71 69l32 184q11 71 62 110q-36 38 -23 110l33 184q12 69 -47 69h-34q0 37 13 72h36q69 0 96 -39t16 -102l-32 -184q-13 -71 45 -71h34z" />
<glyph unicode="~" horiz-adv-x="536" d="M102 166q-36 6 -51 38q59 81 139 81q25 0 76 -18t77 -18q40 0 76 48q39 -5 51 -41q-26 -40 -63.5 -62.5t-76.5 -22.5q-35 0 -84.5 18t-68.5 18q-41 0 -75 -41z" />
<glyph unicode="&#xa1;" horiz-adv-x="235" d="M146 379q-22 0 -37 15t-15 36q0 22 15 37t37 15t37 -15t15 -37q0 -21 -15 -36t-37 -15zM40 -174q-25 0 -45 4q49 260 110 492q10 3 23 3q10 0 21 -3q-25 -260 -65 -492q-21 -4 -44 -4z" />
<glyph unicode="&#xa2;" horiz-adv-x="482" d="M418 430q-36 32 -81 41l-58 -329q10 0 20 2l17.5 3.5t16 5t13.5 5.5t12.5 7t10 6.5t9.5 6.5t8 5q31 -20 34 -57q-63 -55 -154 -58l-18 -102q-13 -4 -32 -4q-18 0 -30 4l19 107q-74 14 -115 64.5t-41 129.5q0 115 67.5 193t171.5 86l18 105q22 4 32 4q11 0 31 -4l-19 -107 q84 -11 123 -56q-17 -38 -55 -58zM133 280q0 -47 21.5 -81.5t63.5 -48.5l57 323q-69 -9 -105.5 -65.5t-36.5 -127.5z" />
<glyph unicode="&#xa3;" horiz-adv-x="527" d="M335 589q-61 0 -95 -40.5t-34 -99.5q0 -81 -1 -113h170q3 -34 -12 -70h-160q-4 -57 -13 -92t-30 -82q-7 -16 -7 -19h302q1 -4 1 -16q0 -27 -13 -57h-409q1 33 25 74q50 96 59 192h-69q-1 33 13 70h60q1 29 1 99q0 103 62.5 164.5t157.5 61.5q107 0 167 -67 q-15 -42 -57 -61q-44 56 -118 56z" />
<glyph unicode="&#xa4;" horiz-adv-x="610" d="M308 74q-86 0 -142 39l-50 -50q-32 14 -48 49l51 51q-33 52 -33 128q0 89 41 153l-40 40q13 32 48 49l38 -38q58 49 143 49t142 -42l52 52q35 -17 48 -49l-53 -53q33 -53 33 -131q0 -82 -43 -148l39 -39q-16 -34 -48 -48l-37 36q-59 -48 -141 -48zM311 152q68 0 109 49.5 t41 116.5q0 73 -40.5 111t-105.5 38q-69 0 -109.5 -48.5t-40.5 -121.5q0 -71 39.5 -108t106.5 -37z" />
<glyph unicode="&#xa5;" horiz-adv-x="519" d="M553 633l-228 -311h104v-11q0 -25 -11 -52h-125l-11 -59h125v-11q0 -25 -11 -52h-125l-24 -137q-19 -4 -42 -4q-21 0 -41 4l24 137h-127v11q0 25 12 52h126l11 59h-127v11q0 24 11 52h108l-111 311q26 7 46 7q27 0 40 -3l83 -266l8 -23l14 23l193 266q13 3 39 3 q18 0 39 -7z" />
<glyph unicode="&#xa6;" horiz-adv-x="240" d="M96 332l62 353q39 11 70 0l-62 -353q-37 -12 -70 0zM6 -178l62 353q38 11 70 0l-62 -353q-41 -11 -70 0z" />
<glyph unicode="&#xa7;" horiz-adv-x="543" d="M221 121l-92 113q-69 83 -66 174q3 78 42.5 136.5t97 86.5t120.5 28q123 0 197 -71q-17 -47 -58 -62q-32 30 -63.5 43t-80.5 13q-69 0 -119.5 -42t-53.5 -121q-3 -64 49 -126l96 -119q-22 -38 -69 -53zM222 -108q-122 0 -197 72q17 47 58 62q31 -31 63 -43.5t81 -12.5 q70 0 120 42.5t53 122.5q3 62 -49 124l-96 119q22 38 69 53l92 -114q68 -80 65 -171q-4 -117 -81.5 -185.5t-177.5 -68.5z" />
<glyph unicode="&#xa8;" horiz-adv-x="328" d="M176 548q-22 0 -37 15.5t-15 37.5t15 37.5t37 15.5t37.5 -15.5t15.5 -37.5t-15.5 -37.5t-37.5 -15.5zM363 548q-22 0 -37.5 15.5t-15.5 37.5t15.5 37.5t37.5 15.5t37 -15.5t15 -37.5t-15 -37.5t-37 -15.5z" />
<glyph unicode="&#xa9;" horiz-adv-x="734" d="M336 -28q-123 0 -201.5 81.5t-78.5 212.5q0 166 95 272.5t253 106.5q126 0 206.5 -84t80.5 -209q0 -163 -96.5 -271.5t-258.5 -108.5zM345 28q133 0 210.5 91t77.5 224q0 105 -66.5 174.5t-172.5 69.5q-130 0 -204 -88t-74 -225q0 -110 63.5 -178t165.5 -68zM356 113 q-70 0 -114.5 44.5t-44.5 122.5q0 98 59.5 159.5t146.5 61.5q72 0 117 -45q-14 -35 -48 -53q-28 32 -82 32q-60 0 -92 -42t-32 -100q0 -49 26.5 -81.5t73.5 -32.5q46 0 88 31q30 -17 31 -51q-56 -46 -129 -46z" />
<glyph unicode="&#xaa;" horiz-adv-x="365" d="M252 665q122 0 99 -130l-29 -163q-74 -30 -140 -30q-51 0 -77.5 23t-26.5 60q0 53 40.5 85t101.5 32q38 0 67 -12l3 19q5 28 -10.5 41t-45.5 14q-42 1 -92 -31q-27 16 -25 47q62 45 135 45zM201 398q36 0 64 11l11 63q-24 15 -60 15q-69 0 -69 -51q0 -38 54 -38z" />
<glyph unicode="&#xab;" horiz-adv-x="422" d="M142 95l-107 159l163 162q25 -5 32 -29l-101 -132l54 -133q-13 -21 -41 -27zM294 95l-107 159l163 162q26 -6 32 -29l-100 -132l54 -133q-13 -21 -42 -27z" />
<glyph unicode="&#xad;" horiz-adv-x="386" d="M62 215q-2 10 -2 17q0 26 13 50h243q1 -3 1 -13q0 -25 -12 -54h-243z" />
<glyph unicode="&#xae;" horiz-adv-x="733" d="M423 751q125 0 205.5 -84t80.5 -209q0 -164 -96.5 -272t-258.5 -108q-122 0 -200.5 81.5t-78.5 211.5q0 167 94.5 273.5t253.5 106.5zM364 134q132 0 209.5 91t77.5 223q0 105 -66.5 175t-172.5 70q-129 0 -203.5 -88.5t-74.5 -224.5q0 -110 64 -178t166 -68zM415 611 q131 0 131 -101q0 -102 -98 -131l61 -163q-17 -5 -33 -5q-24 0 -32 1l-59 158h-3q-32 0 -65 3l-28 -159q-9 -3 -26 -3q-21 0 -33 3l68 383q53 14 117 14zM392 425q92 0 92 76q0 55 -78 55q-17 0 -57 -4l-22 -124q22 -3 65 -3z" />
<glyph unicode="&#xaf;" horiz-adv-x="301" d="M127 562q-1 5 -1 17q0 26 13 50h246l1 -13q0 -23 -13 -54h-246z" />
<glyph unicode="&#xb0;" horiz-adv-x="323" d="M210 447q-48 0 -82 34t-34 83q0 48 34 82t82 34t82.5 -34t34.5 -82q0 -49 -34.5 -83t-82.5 -34zM211 499q26 0 45.5 19.5t19.5 45.5q0 27 -19 46t-46 19t-46 -19t-19 -46q0 -26 19.5 -45.5t45.5 -19.5z" />
<glyph unicode="&#xb1;" horiz-adv-x="526" d="M476 345q2 -35 -12 -70h-166l-25 -143q-37 -8 -70 0l25 143h-165q-2 36 13 70h165l24 138q36 7 70 0l-24 -138h165zM25 57h400q2 -35 -12 -70h-400q-2 35 12 70z" />
<glyph unicode="&#xb4;" horiz-adv-x="211" d="M146 519q-22 16 -30 41l138 128q43 -20 56 -72z" />
<glyph unicode="&#xb6;" horiz-adv-x="578" d="M548 621v-1l-142 -805q-19 -5 -42 -5t-39 5l73 417q-67 -9 -128 -9q-105 0 -160 50.5t-55 130.5q0 110 76 179.5t216 69.5q125 0 201 -32zM283 296q79 0 128 9l46 260q-62 15 -123 15q-95 0 -143.5 -43.5t-48.5 -123.5q0 -54 36 -85.5t105 -31.5zM225 143q19 4 41 4 q21 0 38 -4l-58 -327q-22 -5 -39 -5q-19 0 -39 5z" />
<glyph unicode="&#xb7;" horiz-adv-x="229" d="M123 279q-23 0 -38.5 15.5t-15.5 38.5t15.5 38.5t38.5 15.5q22 0 38 -16t16 -38t-16 -38t-38 -16z" />
<glyph unicode="&#xb8;" horiz-adv-x="232" d="M112 11h54l-25 -49q55 -13 55 -56q0 -95 -124 -95q-44 0 -64 16q7 28 29 48q21 -13 42 -13q45 0 45 33q0 27 -58 29z" />
<glyph unicode="&#xba;" horiz-adv-x="398" d="M218 342q-62 0 -98.5 35.5t-36.5 98.5q0 84 52 136.5t126 52.5q62 0 97.5 -35.5t35.5 -99.5q0 -83 -51.5 -135.5t-124.5 -52.5zM228 405q43 0 69.5 31.5t26.5 84.5q0 81 -74 81q-43 0 -70 -32t-27 -85q0 -39 20 -59.5t55 -20.5z" />
<glyph unicode="&#xbb;" horiz-adv-x="437" d="M65 95q-27 6 -32 27l101 133l-55 132q15 24 42 29l107 -162zM233 95q-27 6 -32 27l101 133l-55 132q15 24 42 29l107 -162z" />
<glyph unicode="&#xbc;" horiz-adv-x="738" d="M579 655q38 9 73 0l-569 -702q-39 -11 -74 0zM108 531q-23 17 -25 54q72 36 97.5 46t51.5 10q18 0 27 -3l-66 -374q-18 -3 -36 -3q-19 0 -36 3l53 298zM633 129h48q0 -4 -0.5 -9t-1.5 -11.5t-1 -9.5q-2 -9 -8 -33h-48l-12 -67q-22 -2 -34 -2q-10 0 -32 2l12 67h-168 q-15 48 20 98l160 230q35 -1 58 -32l-136 -191q-18 -25 -18 -42h95l19 110q11 1 33 1q23 0 33 -1z" />
<glyph unicode="&#xbd;" horiz-adv-x="722" d="M588 655q38 9 74 0l-570 -702q-40 -9 -73 0zM108 531q-23 17 -25 54q72 36 97.5 46t51.5 10q18 0 27 -3l-66 -374q-18 -3 -36 -3q-19 0 -36 3l53 298zM661 287q0 -51 -37 -97.5t-117 -117.5l-17 -11l22 1h136q7 -25 -11 -62h-252v7q0 29 29 55q115 107 147 144t32 68 q0 19 -14 31.5t-37 12.5q-34 0 -72 -30q-31 9 -36 40q53 53 116 53q49 0 80 -24.5t31 -69.5z" />
<glyph unicode="&#xbe;" horiz-adv-x="787" d="M635 655q38 9 73 0l-569 -702q-38 -10 -74 0zM327 407q0 -70 -42.5 -108.5t-115.5 -38.5q-79 0 -118 41q13 33 41 50q34 -34 85 -34q82 0 82 77q0 62 -84 62h-24l-1 2v5q0 15 15 30l78 87h-147q0 34 11 62h241q0 -29 -24 -53l-79 -85q34 -7 58 -32t24 -65zM682 129h48 q0 -4 -0.5 -9t-1.5 -11.5t-1 -9.5q-2 -9 -8 -33h-48l-12 -67q-22 -2 -34 -2q-10 0 -32 2l12 67h-168q-15 48 20 98l160 230q35 -1 58 -32l-136 -191q-18 -25 -18 -42h95l19 110q11 1 33 1q23 0 33 -1z" />
<glyph unicode="&#xbf;" horiz-adv-x="396" d="M235 382q-22 0 -37 15.5t-15 36.5q0 22 15 37t37 15q21 0 36 -15t15 -37q0 -21 -15 -36.5t-36 -15.5zM156 -169q-78 0 -123 41.5t-45 114.5q0 48 20.5 86t50.5 63.5t60 50.5t52.5 59t25.5 76q12 4 38 4q15 0 27 -4q0 -51 -20 -91.5t-48.5 -66.5t-56.5 -49t-48 -51.5 t-20 -62.5q0 -45 26 -69.5t72 -24.5q55 0 101 33q35 -21 36 -55q-26 -23 -66.5 -38.5t-81.5 -15.5z" />
<glyph unicode="&#xc0;" horiz-adv-x="571" d="M438 707q-7 -25 -24 -37l-162 79q11 51 53 74zM392 642l118 -635q-21 -11 -50 -11q-22 0 -37 4l-30 179h-250l-93 -179q-17 -4 -35 -4q-28 0 -46 11l338 635q18 6 44 6q25 0 41 -6zM179 249h202l-41 248l-7 52l-26 -52z" />
<glyph unicode="&#xc1;" horiz-adv-x="571" d="M284 674q-16 13 -19 35l169 111q33 -22 36 -74zM392 642l118 -635q-21 -11 -50 -11q-22 0 -37 4l-30 179h-250l-93 -179q-17 -4 -35 -4q-28 0 -46 11l338 635q18 6 44 6q25 0 41 -6zM179 249h202l-41 248l-7 52l-26 -52z" />
<glyph unicode="&#xc2;" horiz-adv-x="571" d="M249 680q-21 16 -25 41l116 84q30 7 57 0l90 -83q-9 -24 -34 -42l-90 62zM392 642l118 -635q-21 -11 -50 -11q-22 0 -37 4l-30 179h-250l-93 -179q-17 -4 -35 -4q-28 0 -46 11l338 635q18 6 44 6q25 0 41 -6zM179 249h202l-41 248l-7 52l-26 -52z" />
<glyph unicode="&#xc3;" horiz-adv-x="571" d="M253 686q-39 0 -57 21q18 43 48 66.5t65 23.5q28 0 67 -19t52 -19q37 0 53 42q40 0 56 -21q-14 -42 -44 -66t-66 -24q-26 0 -63.5 18.5t-55.5 18.5q-39 0 -55 -41zM351 648q25 0 41 -6l118 -635q-21 -11 -50 -11q-22 0 -37 4l-30 179h-250l-93 -179q-17 -4 -35 -4 q-28 0 -46 11l338 635q18 6 44 6zM179 249h202l-41 248l-7 52l-26 -52z" />
<glyph unicode="&#xc4;" horiz-adv-x="571" d="M271 696q-22 0 -37 15t-15 37q0 21 15 36t37 15q21 0 36 -15t15 -36q0 -22 -15 -37t-36 -15zM453 696q-21 0 -36 15t-15 37q0 21 15 36t36 15q22 0 37 -15t15 -36q0 -22 -15 -37t-37 -15zM392 642l118 -635q-21 -11 -50 -11q-22 0 -37 4l-30 179h-250l-93 -179 q-17 -4 -35 -4q-28 0 -46 11l338 635q18 6 44 6q25 0 41 -6zM179 249h202l-41 248l-7 52l-26 -52z" />
<glyph unicode="&#xc5;" horiz-adv-x="571" d="M359 657q-39 0 -64 23.5t-25 60.5q0 48 29.5 77t70.5 29q38 0 63 -23.5t25 -58.5q0 -50 -27 -79t-72 -29zM367 797q-20 0 -32 -15t-12 -35q0 -40 39 -40q20 0 31.5 15.5t11.5 33.5t-10 29.5t-28 11.5zM392 642l118 -635q-21 -11 -50 -11q-22 0 -37 4l-30 179h-250 l-93 -179q-17 -4 -35 -4q-28 0 -46 11l338 635q18 6 44 6q25 0 41 -6zM179 249h202l-41 248l-7 52l-26 -52z" />
<glyph unicode="&#xc6;" horiz-adv-x="783" d="M776 566h-255l-42 -236h227q1 -39 -13 -75h-227l-32 -179h268q1 -40 -14 -76h-348l45 255h-164l-184 -255q-17 -4 -37 -4q-23 0 -47 11l459 635h377q0 -47 -13 -76zM275 330h123l31 173l13 63l-43 -65z" />
<glyph unicode="&#xc7;" horiz-adv-x="585" d="M414 660q123 0 187 -59q-15 -44 -56 -63q-54 46 -144 46q-109 0 -186 -84.5t-77 -235.5q0 -92 54.5 -148t145.5 -56q52 0 85.5 13t68.5 39q38 -14 40 -55q-77 -67 -189 -73l-11 -22q55 -13 55 -56q0 -95 -124 -95q-44 0 -64 16q7 28 29 48q21 -13 42 -13q45 0 45 33 q0 27 -58 29l33 62q-112 10 -175 83t-63 184q0 95 30 173.5t81 128.5t115.5 77.5t135.5 27.5z" />
<glyph unicode="&#xc8;" horiz-adv-x="524" d="M436 707q-7 -25 -24 -37l-162 79q11 51 53 74zM518 567h-299l-35 -199h266q4 -37 -13 -74h-266l-39 -220h309q6 -35 -13 -74h-389l113 642h380q6 -37 -14 -75z" />
<glyph unicode="&#xc9;" horiz-adv-x="524" d="M282 674q-16 13 -19 35l169 111q33 -22 36 -74zM518 567h-299l-35 -199h266q4 -37 -13 -74h-266l-39 -220h309q6 -35 -13 -74h-389l113 642h380q6 -37 -14 -75z" />
<glyph unicode="&#xca;" horiz-adv-x="524" d="M247 680q-21 16 -25 41l116 84q30 7 57 0l90 -83q-9 -24 -34 -42l-90 62zM518 567h-299l-35 -199h266q4 -37 -13 -74h-266l-39 -220h309q6 -35 -13 -74h-389l113 642h380q6 -37 -14 -75z" />
<glyph unicode="&#xcb;" horiz-adv-x="524" d="M269 696q-22 0 -37 15t-15 37q0 21 15 36t37 15q21 0 36 -15t15 -36q0 -22 -15 -37t-36 -15zM451 696q-21 0 -36 15t-15 37q0 21 15 36t36 15q22 0 37 -15t15 -36q0 -22 -15 -37t-37 -15zM518 567h-299l-35 -199h266q4 -37 -13 -74h-266l-39 -220h309q6 -35 -13 -74h-389 l113 642h380q6 -37 -14 -75z" />
<glyph unicode="&#xcc;" horiz-adv-x="254" d="M257 670l-162 79q11 51 53 74l133 -116q-7 -25 -24 -37zM79 -5q-17 0 -40 5l113 642q18 6 42 6q23 0 39 -6l-114 -642q-23 -5 -40 -5z" />
<glyph unicode="&#xcd;" horiz-adv-x="254" d="M127 674q-16 13 -19 35l169 111q33 -22 36 -74zM79 -5q-17 0 -40 5l113 642q18 6 42 6q23 0 39 -6l-114 -642q-23 -5 -40 -5z" />
<glyph unicode="&#xce;" horiz-adv-x="254" d="M240 805l78 -97q-8 -21 -32 -32l-79 60l-96 -60q-23 8 -27 31l107 98q25 5 49 0zM79 -5q-17 0 -40 5l113 642q18 6 42 6q23 0 39 -6l-114 -642q-23 -5 -40 -5z" />
<glyph unicode="&#xcf;" horiz-adv-x="254" d="M129 696q-22 0 -37 15t-15 37q0 21 15 36t37 15q21 0 36 -15t15 -36q0 -22 -15 -37t-36 -15zM281 696q-21 0 -36 15t-15 37q0 21 15 36t36 15q22 0 37 -15t15 -36q0 -22 -15 -37t-37 -15zM79 -5q-17 0 -40 5l113 642q18 6 42 6q23 0 39 -6l-114 -642q-23 -5 -40 -5z" />
<glyph unicode="&#xd0;" horiz-adv-x="649" d="M315 651q145 0 221.5 -72t76.5 -195q0 -175 -102.5 -284t-295.5 -109q-100 0 -176 12l50 283h-75q-3 37 9 57h76l52 295q83 13 164 13zM231 64q157 0 226.5 84t69.5 225q0 94 -55.5 148.5t-167.5 54.5q-40 0 -83 -4l-41 -229h78q3 -32 -9 -57h-79l-38 -217q55 -5 99 -5z " />
<glyph unicode="&#xd1;" horiz-adv-x="656" d="M296 686q-40 0 -57 21q18 43 48 66.5t65 23.5q28 0 67 -19t52 -19q37 0 53 42q40 0 56 -21q-14 -42 -44 -66t-66 -24q-26 0 -63.5 18.5t-55.5 18.5q-39 0 -55 -41zM596 647q17 0 39 -5l-113 -636q-30 -9 -73 -9l-233 482l-11 31l-5 -36l-84 -474q-19 -5 -39 -5 q-22 0 -38 5l111 634q29 18 75 11l234 -480l11 -30l7 45l80 462q27 5 39 5z" />
<glyph unicode="&#xd2;" horiz-adv-x="689" d="M453 670l-162 79q11 51 53 74l133 -116q-7 -25 -24 -37zM307 -15q-114 0 -184 74t-70 195q0 180 94.5 293t248.5 113q117 0 187 -74.5t70 -195.5q0 -183 -94.5 -294t-251.5 -111zM320 60q118 0 182.5 90t64.5 233q0 93 -49 147.5t-135 54.5q-116 0 -180 -90.5t-64 -233.5 q0 -92 49 -146.5t132 -54.5z" />
<glyph unicode="&#xd3;" horiz-adv-x="689" d="M323 674q-16 13 -19 35l169 111q33 -22 36 -74zM307 -15q-114 0 -184 74t-70 195q0 180 94.5 293t248.5 113q117 0 187 -74.5t70 -195.5q0 -183 -94.5 -294t-251.5 -111zM320 60q118 0 182.5 90t64.5 233q0 93 -49 147.5t-135 54.5q-116 0 -180 -90.5t-64 -233.5 q0 -92 49 -146.5t132 -54.5z" />
<glyph unicode="&#xd4;" horiz-adv-x="689" d="M436 805l90 -83q-9 -24 -34 -42l-90 62l-114 -62q-21 16 -25 41l116 84q30 7 57 0zM307 -15q-114 0 -184 74t-70 195q0 180 94.5 293t248.5 113q117 0 187 -74.5t70 -195.5q0 -183 -94.5 -294t-251.5 -111zM320 60q118 0 182.5 90t64.5 233q0 93 -49 147.5t-135 54.5 q-116 0 -180 -90.5t-64 -233.5q0 -92 49 -146.5t132 -54.5z" />
<glyph unicode="&#xd5;" horiz-adv-x="689" d="M292 686q-40 0 -57 21q18 43 48 66.5t65 23.5q28 0 67 -19t52 -19q37 0 53 42q40 0 56 -21q-14 -42 -44 -66t-66 -24q-26 0 -63.5 18.5t-55.5 18.5q-39 0 -55 -41zM307 -15q-114 0 -184 74t-70 195q0 180 94.5 293t248.5 113q117 0 187 -74.5t70 -195.5 q0 -183 -94.5 -294t-251.5 -111zM320 60q118 0 182.5 90t64.5 233q0 93 -49 147.5t-135 54.5q-116 0 -180 -90.5t-64 -233.5q0 -92 49 -146.5t132 -54.5z" />
<glyph unicode="&#xd6;" horiz-adv-x="689" d="M310 696q-22 0 -37 15t-15 37q0 21 15 36t37 15q21 0 36 -15t15 -36q0 -22 -15 -37t-36 -15zM492 696q-21 0 -36 15t-15 37q0 21 15 36t36 15q22 0 37 -15t15 -36q0 -22 -15 -37t-37 -15zM307 -15q-114 0 -184 74t-70 195q0 180 94.5 293t248.5 113q117 0 187 -74.5 t70 -195.5q0 -183 -94.5 -294t-251.5 -111zM320 60q118 0 182.5 90t64.5 233q0 93 -49 147.5t-135 54.5q-116 0 -180 -90.5t-64 -233.5q0 -92 49 -146.5t132 -54.5z" />
<glyph unicode="&#xd7;" horiz-adv-x="454" d="M418 379l-148 -131l102 -132q-24 -30 -58 -50l-101 131l-146 -130q-27 20 -40 50l147 130l-101 131q24 30 58 50l100 -130l147 131q26 -19 40 -50z" />
<glyph unicode="&#xd8;" horiz-adv-x="689" d="M581 587q72 -74 72 -197q0 -183 -94.5 -294t-251.5 -111q-67 0 -119 26l-60 -87q-40 5 -54 39l59 86q-80 74 -80 205q0 180 94.5 293t248.5 113q76 0 135 -34l64 93q38 -3 54 -33zM139 261q0 -87 44 -140l301 438q-41 26 -101 26q-116 0 -180 -90.5t-64 -233.5zM320 60 q118 0 182.5 90t64.5 233q0 80 -36 131l-297 -435q40 -19 86 -19z" />
<glyph unicode="&#xd9;" horiz-adv-x="646" d="M449 670l-162 79q11 51 53 74l133 -116q-7 -25 -24 -37zM280 -16q-102 0 -156 50.5t-54 141.5q0 41 8 84l67 382q27 5 42 5q18 0 41 -5l-67 -382q-7 -37 -7 -70q0 -56 33.5 -92t108.5 -36q91 0 131 48t56 141l69 391q27 5 43 5q19 0 37 -5l-71 -403q-23 -128 -88 -191.5 t-193 -63.5z" />
<glyph unicode="&#xda;" horiz-adv-x="646" d="M319 674q-16 13 -19 35l169 111q33 -22 36 -74zM280 -16q-102 0 -156 50.5t-54 141.5q0 41 8 84l67 382q27 5 42 5q18 0 41 -5l-67 -382q-7 -37 -7 -70q0 -56 33.5 -92t108.5 -36q91 0 131 48t56 141l69 391q27 5 43 5q19 0 37 -5l-71 -403q-23 -128 -88 -191.5 t-193 -63.5z" />
<glyph unicode="&#xdb;" horiz-adv-x="646" d="M432 805l90 -83q-9 -24 -34 -42l-90 62l-114 -62q-21 16 -25 41l116 84q30 7 57 0zM280 -16q-102 0 -156 50.5t-54 141.5q0 41 8 84l67 382q27 5 42 5q18 0 41 -5l-67 -382q-7 -37 -7 -70q0 -56 33.5 -92t108.5 -36q91 0 131 48t56 141l69 391q27 5 43 5q19 0 37 -5 l-71 -403q-23 -128 -88 -191.5t-193 -63.5z" />
<glyph unicode="&#xdc;" horiz-adv-x="646" d="M306 696q-22 0 -37 15t-15 37q0 21 15 36t37 15q21 0 36 -15t15 -36q0 -22 -15 -37t-36 -15zM488 696q-21 0 -36 15t-15 37q0 21 15 36t36 15q22 0 37 -15t15 -36q0 -22 -15 -37t-37 -15zM280 -16q-102 0 -156 50.5t-54 141.5q0 41 8 84l67 382q27 5 42 5q18 0 41 -5 l-67 -382q-7 -37 -7 -70q0 -56 33.5 -92t108.5 -36q91 0 131 48t56 141l69 391q27 5 43 5q19 0 37 -5l-71 -403q-23 -128 -88 -191.5t-193 -63.5z" />
<glyph unicode="&#xdd;" d="M265 674q-16 13 -19 35l169 111q33 -22 36 -74zM601 640l-290 -394l-43 -246q-23 -5 -43 -5q-15 0 -38 5l44 249l-155 391q29 8 53 8q23 0 36 -3l108 -293l9 -31l22 31l212 293q14 3 41 3q23 0 44 -8z" />
<glyph unicode="&#xde;" horiz-adv-x="524" d="M298 529q102 0 153.5 -46.5t51.5 -129.5q0 -100 -74.5 -171t-197.5 -71q-39 0 -89 4l-20 -115q-25 -5 -42 -5q-18 0 -41 5l113 642q27 5 43 5q17 0 40 -5l-21 -120q44 7 84 7zM243 182q89 0 131 45t42 113q0 116 -128 116q-36 0 -87 -7l-46 -261q35 -6 88 -6z" />
<glyph unicode="&#xdf;" horiz-adv-x="541" d="M320 -14q-53 0 -93 16.5t-55 34.5q3 17 16.5 33t31.5 24q43 -38 104 -38q38 0 58 17.5t20 44.5q0 26 -16 45.5t-38 33t-44.5 28t-38.5 38t-16 54.5q0 43 18.5 71.5t44.5 42.5t52.5 26.5t45 34t18.5 53.5q0 75 -91 75q-123 0 -148 -137l-85 -483q-17 -4 -40 -4 q-22 0 -39 4l85 480q17 101 81 156.5t156 55.5q71 0 118 -37.5t47 -101.5q0 -46 -18.5 -78.5t-45 -48.5t-52.5 -28t-44.5 -28t-18.5 -39q0 -22 23.5 -42t52 -35t52 -47.5t23.5 -76.5q0 -66 -46.5 -105t-117.5 -39z" />
<glyph unicode="&#xe0;" horiz-adv-x="530" d="M407 556q-11 -24 -31 -37l-146 100q16 50 63 67zM320 485q109 0 169 -44l-78 -447q-36 -6 -73 0l7 64q-67 -72 -154 -72q-71 0 -115.5 47.5t-44.5 133.5q0 136 83 227t206 91zM364 185l37 211q-35 14 -92 14q-85 0 -139 -65t-54 -163q0 -57 24.5 -90t67.5 -33 q49 0 91 35.5t65 90.5z" />
<glyph unicode="&#xe1;" horiz-adv-x="530" d="M269 519q-22 16 -30 41l138 128q43 -20 56 -72zM320 485q109 0 169 -44l-78 -447q-36 -6 -73 0l7 64q-67 -72 -154 -72q-71 0 -115.5 47.5t-44.5 133.5q0 136 83 227t206 91zM364 185l37 211q-35 14 -92 14q-85 0 -139 -65t-54 -163q0 -57 24.5 -90t67.5 -33 q49 0 91 35.5t65 90.5z" />
<glyph unicode="&#xe2;" horiz-adv-x="530" d="M228 525q-27 10 -33 39l120 118q25 6 47 0l87 -124q-13 -25 -43 -34l-76 84zM320 485q109 0 169 -44l-78 -447q-36 -6 -73 0l7 64q-67 -72 -154 -72q-71 0 -115.5 47.5t-44.5 133.5q0 136 83 227t206 91zM364 185l37 211q-35 14 -92 14q-85 0 -139 -65t-54 -163 q0 -57 24.5 -90t67.5 -33q49 0 91 35.5t65 90.5z" />
<glyph unicode="&#xe3;" horiz-adv-x="530" d="M225 548q-39 0 -57 21q12 42 40.5 65.5t58.5 23.5q31 0 71.5 -19t52.5 -19q29 0 45 43q40 0 57 -21q-10 -41 -38.5 -65.5t-59.5 -24.5q-30 0 -66 18.5t-52 18.5q-36 0 -52 -41zM31 167q0 136 83 227t206 91q109 0 169 -44l-78 -447q-36 -6 -73 0l7 64q-67 -72 -154 -72 q-71 0 -115.5 47.5t-44.5 133.5zM401 396q-35 14 -92 14q-85 0 -139 -65t-54 -163q0 -57 24.5 -90t67.5 -33q49 0 91 35.5t65 90.5z" />
<glyph unicode="&#xe4;" horiz-adv-x="530" d="M236 548q-22 0 -37 15.5t-15 37.5t15 37.5t37 15.5t37.5 -15.5t15.5 -37.5t-15.5 -37.5t-37.5 -15.5zM423 548q-22 0 -37.5 15.5t-15.5 37.5t15.5 37.5t37.5 15.5t37 -15.5t15 -37.5t-15 -37.5t-37 -15.5zM320 485q109 0 169 -44l-78 -447q-36 -6 -73 0l7 64 q-67 -72 -154 -72q-71 0 -115.5 47.5t-44.5 133.5q0 136 83 227t206 91zM364 185l37 211q-35 14 -92 14q-85 0 -139 -65t-54 -163q0 -57 24.5 -90t67.5 -33q49 0 91 35.5t65 90.5z" />
<glyph unicode="&#xe5;" horiz-adv-x="530" d="M324 505q-41 0 -65 24t-24 64q0 46 29 75t71 29q41 0 64.5 -24t23.5 -65q0 -46 -28.5 -74.5t-70.5 -28.5zM334 644q-20 0 -32 -13t-12 -33q0 -18 9.5 -29t25.5 -11q45 0 45 45q0 41 -36 41zM320 485q109 0 169 -44l-78 -447q-36 -6 -73 0l7 64q-67 -72 -154 -72 q-71 0 -115.5 47.5t-44.5 133.5q0 136 83 227t206 91zM364 185l37 211q-35 14 -92 14q-85 0 -139 -65t-54 -163q0 -57 24.5 -90t67.5 -33q49 0 91 35.5t65 90.5z" />
<glyph unicode="&#xe6;" horiz-adv-x="795" d="M177 -14q-68 0 -107 43t-39 132q0 138 80 231t195 93q90 0 149 -57q67 56 155 56q72 0 113 -37.5t41 -94.5q0 -158 -209 -158q-67 0 -114 19q-1 -28 2 -44q16 -108 119 -108q57 0 104 44q40 -15 46 -55q-60 -64 -158 -64q-72 0 -120 35t-63 89q-34 -57 -85 -90.5 t-109 -33.5zM569 260q113 0 113 79q0 32 -22 52.5t-63 20.5q-56 0 -96 -36.5t-53 -97.5q46 -18 121 -18zM192 59q55 0 104 55.5t66 136.5q12 67 40 114q-40 45 -107 45q-80 0 -129.5 -66.5t-49.5 -167.5q0 -117 76 -117z" />
<glyph unicode="&#xe7;" horiz-adv-x="460" d="M286 412q-44 0 -77.5 -20t-52 -51.5t-27.5 -65.5t-9 -67q0 -65 33 -106.5t100 -41.5q55 0 104 43q35 -19 41 -54q-60 -58 -149 -63l-12 -24q55 -13 55 -56q0 -95 -124 -95q-44 0 -64 16q7 28 29 48q21 -13 42 -13q45 0 45 33q0 27 -58 29l34 65q-72 12 -116 65.5 t-44 134.5q0 130 70.5 213t187.5 83q99 0 148 -53q-16 -38 -50 -57q-41 37 -106 37z" />
<glyph unicode="&#xe8;" horiz-adv-x="488" d="M377 556q-11 -24 -31 -37l-146 100q16 50 63 67zM371 113q40 -15 46 -55q-70 -72 -176 -72q-92 0 -148.5 50.5t-56.5 155.5q0 132 71.5 212t176.5 80q79 0 123.5 -37.5t44.5 -100.5q0 -72 -60 -112t-161 -40q-62 0 -113 17v-10q0 -140 132 -140q31 0 58 10.5t36.5 18 t26.5 23.5zM279 412q-57 0 -97 -35.5t-55 -97.5q48 -18 118 -18q125 0 125 84q0 30 -25 48.5t-66 18.5z" />
<glyph unicode="&#xe9;" horiz-adv-x="488" d="M239 519q-22 16 -30 41l138 128q43 -20 56 -72zM371 113q40 -15 46 -55q-70 -72 -176 -72q-92 0 -148.5 50.5t-56.5 155.5q0 132 71.5 212t176.5 80q79 0 123.5 -37.5t44.5 -100.5q0 -72 -60 -112t-161 -40q-62 0 -113 17v-10q0 -140 132 -140q31 0 58 10.5t36.5 18 t26.5 23.5zM279 412q-57 0 -97 -35.5t-55 -97.5q48 -18 118 -18q125 0 125 84q0 30 -25 48.5t-66 18.5z" />
<glyph unicode="&#xea;" horiz-adv-x="488" d="M198 525q-27 10 -33 39l120 118q25 6 47 0l87 -124q-13 -25 -43 -34l-76 84zM371 113q40 -15 46 -55q-70 -72 -176 -72q-92 0 -148.5 50.5t-56.5 155.5q0 132 71.5 212t176.5 80q79 0 123.5 -37.5t44.5 -100.5q0 -72 -60 -112t-161 -40q-62 0 -113 17v-10 q0 -140 132 -140q31 0 58 10.5t36.5 18t26.5 23.5zM279 412q-57 0 -97 -35.5t-55 -97.5q48 -18 118 -18q125 0 125 84q0 30 -25 48.5t-66 18.5z" />
<glyph unicode="&#xeb;" horiz-adv-x="488" d="M206 548q-22 0 -37 15.5t-15 37.5t15 37.5t37 15.5t37.5 -15.5t15.5 -37.5t-15.5 -37.5t-37.5 -15.5zM393 548q-22 0 -37.5 15.5t-15.5 37.5t15.5 37.5t37.5 15.5t37 -15.5t15 -37.5t-15 -37.5t-37 -15.5zM371 113q40 -15 46 -55q-70 -72 -176 -72q-92 0 -148.5 50.5 t-56.5 155.5q0 132 71.5 212t176.5 80q79 0 123.5 -37.5t44.5 -100.5q0 -72 -60 -112t-161 -40q-62 0 -113 17v-10q0 -140 132 -140q31 0 58 10.5t36.5 18t26.5 23.5zM279 412q-57 0 -97 -35.5t-55 -97.5q48 -18 118 -18q125 0 125 84q0 30 -25 48.5t-66 18.5z" />
<glyph unicode="&#xec;" horiz-adv-x="230" d="M218 519l-146 100q16 50 63 67l114 -130q-11 -24 -31 -37zM67 -4q-23 0 -40 4l83 472q19 4 41 4q23 0 40 -4l-84 -472q-17 -4 -40 -4z" />
<glyph unicode="&#xed;" horiz-adv-x="230" d="M111 519q-22 16 -30 41l138 128q43 -20 56 -72zM67 -4q-23 0 -40 4l83 472q19 4 41 4q23 0 40 -4l-84 -472q-17 -4 -40 -4z" />
<glyph unicode="&#xee;" horiz-adv-x="230" d="M204 683l82 -123q-12 -23 -39 -32l-73 71l-94 -71q-24 9 -29 32l109 123q22 5 44 0zM67 -4q-23 0 -40 4l83 472q19 4 41 4q23 0 40 -4l-84 -472q-17 -4 -40 -4z" />
<glyph unicode="&#xef;" horiz-adv-x="230" d="M96 548q-22 0 -37 15.5t-15 37.5t15 37.5t37 15.5t37.5 -15.5t15.5 -37.5t-15.5 -37.5t-37.5 -15.5zM243 548q-22 0 -37.5 15.5t-15.5 37.5t15.5 37.5t37.5 15.5t37 -15.5t15 -37.5t-15 -37.5t-37 -15.5zM67 -4q-23 0 -40 4l83 472q19 4 41 4q23 0 40 -4l-84 -472 q-17 -4 -40 -4z" />
<glyph unicode="&#xf0;" horiz-adv-x="524" d="M405 492q65 -109 65 -244q0 -112 -61.5 -187t-172.5 -75q-94 0 -148 57t-54 147q0 113 69 181t170 68q47 0 86 -21q-12 23 -29 47q-18 25 -46 50l-77 -56q-13 6 -23.5 21t-12.5 30l62 45q-29 19 -54 30q5 48 43 76q47 -24 83 -53l72 53q12 -6 23 -21t14 -30l-62 -46 q29 -32 53 -72zM246 57q71 0 108 51.5t37 128.5q0 59 -33.5 95t-90.5 36q-66 0 -108 -44t-42 -128q0 -63 34.5 -101t94.5 -38z" />
<glyph unicode="&#xf1;" horiz-adv-x="547" d="M215 548q-39 0 -57 21q12 42 40.5 65.5t58.5 23.5q31 0 71.5 -19t52.5 -19q29 0 45 43q40 0 57 -21q-10 -41 -38.5 -65.5t-59.5 -24.5q-30 0 -66 18.5t-52 18.5q-36 0 -52 -41zM293 485q100 0 147 -42t47 -110q0 -12 -4 -40l-52 -293q-17 -4 -42 -4q-20 0 -39 4l47 265 q4 20 4 40q0 105 -114 105q-71 0 -117 -18l-66 -392q-19 -4 -42 -4q-22 0 -39 4l77 441q85 44 193 44z" />
<glyph unicode="&#xf2;" horiz-adv-x="534" d="M357 519l-146 100q16 50 63 67l114 -130q-11 -24 -31 -37zM238 -13q-96 0 -149 58t-53 145q0 134 69.5 215t181.5 81q93 0 145.5 -56t52.5 -148q0 -132 -68.5 -213.5t-178.5 -81.5zM247 58q70 0 112.5 60t42.5 150q0 69 -33 107.5t-93 38.5q-72 0 -115 -60t-43 -148 q0 -65 33 -106.5t96 -41.5z" />
<glyph unicode="&#xf3;" horiz-adv-x="534" d="M250 519q-22 16 -30 41l138 128q43 -20 56 -72zM238 -13q-96 0 -149 58t-53 145q0 134 69.5 215t181.5 81q93 0 145.5 -56t52.5 -148q0 -132 -68.5 -213.5t-178.5 -81.5zM247 58q70 0 112.5 60t42.5 150q0 69 -33 107.5t-93 38.5q-72 0 -115 -60t-43 -148 q0 -65 33 -106.5t96 -41.5z" />
<glyph unicode="&#xf4;" horiz-adv-x="534" d="M343 682l87 -124q-13 -25 -43 -34l-76 84l-102 -83q-27 10 -33 39l120 118q25 6 47 0zM238 -13q-96 0 -149 58t-53 145q0 134 69.5 215t181.5 81q93 0 145.5 -56t52.5 -148q0 -132 -68.5 -213.5t-178.5 -81.5zM247 58q70 0 112.5 60t42.5 150q0 69 -33 107.5t-93 38.5 q-72 0 -115 -60t-43 -148q0 -65 33 -106.5t96 -41.5z" />
<glyph unicode="&#xf5;" horiz-adv-x="534" d="M206 548q-40 0 -57 21q12 42 40.5 65.5t58.5 23.5q31 0 71.5 -19t52.5 -19q29 0 45 43q40 0 57 -21q-10 -41 -38.5 -65.5t-59.5 -24.5q-30 0 -66 18.5t-52 18.5q-36 0 -52 -41zM238 -13q-96 0 -149 58t-53 145q0 134 69.5 215t181.5 81q93 0 145.5 -56t52.5 -148 q0 -132 -68.5 -213.5t-178.5 -81.5zM247 58q70 0 112.5 60t42.5 150q0 69 -33 107.5t-93 38.5q-72 0 -115 -60t-43 -148q0 -65 33 -106.5t96 -41.5z" />
<glyph unicode="&#xf6;" horiz-adv-x="534" d="M217 548q-22 0 -37 15.5t-15 37.5t15 37.5t37 15.5t37.5 -15.5t15.5 -37.5t-15.5 -37.5t-37.5 -15.5zM404 548q-22 0 -37.5 15.5t-15.5 37.5t15.5 37.5t37.5 15.5t37 -15.5t15 -37.5t-15 -37.5t-37 -15.5zM238 -13q-96 0 -149 58t-53 145q0 134 69.5 215t181.5 81 q93 0 145.5 -56t52.5 -148q0 -132 -68.5 -213.5t-178.5 -81.5zM247 58q70 0 112.5 60t42.5 150q0 69 -33 107.5t-93 38.5q-72 0 -115 -60t-43 -148q0 -65 33 -106.5t96 -41.5z" />
<glyph unicode="&#xf7;" horiz-adv-x="505" d="M275 333q-26 0 -44.5 18.5t-18.5 44.5t18.5 45t44.5 19t45 -19t19 -45t-19 -44.5t-45 -18.5zM40 202v11q0 27 13 59h399l1 -11q0 -27 -13 -59h-400zM220 17q-26 0 -45 18.5t-19 44.5t19 44.5t45 18.5t44.5 -18.5t18.5 -44.5t-18.5 -44.5t-44.5 -18.5z" />
<glyph unicode="&#xf8;" horiz-adv-x="534" d="M428 435q57 -55 57 -153q0 -132 -68.5 -213.5t-178.5 -81.5q-55 0 -97 20l-54 -80q-33 5 -44 34l52 78q-59 56 -59 151q0 134 69.5 215t181.5 81q54 0 96 -20l50 74q33 -5 45 -30zM118 206q0 -58 25 -96l196 290q-28 14 -63 14q-72 0 -115 -60t-43 -148zM247 58 q70 0 112.5 60t42.5 150q0 57 -23 94l-195 -290q28 -14 63 -14z" />
<glyph unicode="&#xf9;" horiz-adv-x="538" d="M394 556q-11 -24 -31 -37l-146 100q16 50 63 67zM463 474q23 0 39 -4l-78 -443q-102 -41 -204 -41q-87 0 -130.5 36.5t-43.5 103.5q0 18 5 45l53 299q19 4 41 4q23 0 40 -4l-47 -266q-6 -31 -6 -56q0 -44 24.5 -65.5t84.5 -21.5t111 19l69 390q20 4 42 4z" />
<glyph unicode="&#xfa;" horiz-adv-x="538" d="M256 519q-22 16 -30 41l138 128q43 -20 56 -72zM463 474q23 0 39 -4l-78 -443q-102 -41 -204 -41q-87 0 -130.5 36.5t-43.5 103.5q0 18 5 45l53 299q19 4 41 4q23 0 40 -4l-47 -266q-6 -31 -6 -56q0 -44 24.5 -65.5t84.5 -21.5t111 19l69 390q20 4 42 4z" />
<glyph unicode="&#xfb;" horiz-adv-x="538" d="M215 525q-27 10 -33 39l120 118q25 6 47 0l87 -124q-13 -25 -43 -34l-76 84zM463 474q23 0 39 -4l-78 -443q-102 -41 -204 -41q-87 0 -130.5 36.5t-43.5 103.5q0 18 5 45l53 299q19 4 41 4q23 0 40 -4l-47 -266q-6 -31 -6 -56q0 -44 24.5 -65.5t84.5 -21.5t111 19l69 390 q20 4 42 4z" />
<glyph unicode="&#xfc;" horiz-adv-x="538" d="M223 548q-22 0 -37 15.5t-15 37.5t15 37.5t37 15.5t37.5 -15.5t15.5 -37.5t-15.5 -37.5t-37.5 -15.5zM410 548q-22 0 -37.5 15.5t-15.5 37.5t15.5 37.5t37.5 15.5t37 -15.5t15 -37.5t-15 -37.5t-37 -15.5zM463 474q23 0 39 -4l-78 -443q-102 -41 -204 -41 q-87 0 -130.5 36.5t-43.5 103.5q0 18 5 45l53 299q19 4 41 4q23 0 40 -4l-47 -266q-6 -31 -6 -56q0 -44 24.5 -65.5t84.5 -21.5t111 19l69 390q20 4 42 4z" />
<glyph unicode="&#xfd;" horiz-adv-x="533" d="M257 519q-22 16 -30 41l138 128q43 -20 56 -72zM455 475q23 0 40 -4l-81 -459q-17 -94 -79 -151t-155 -57q-137 0 -192 74q18 37 61 55q40 -57 126 -57q67 0 107.5 37.5t51.5 98.5l5 27q-68 -28 -133 -28q-89 0 -127.5 51t-23.5 134l48 275q19 4 41 4q21 0 40 -4 l-43 -242q-13 -72 6.5 -107t89.5 -35q67 0 115 31h1l62 353q19 4 40 4z" />
<glyph unicode="&#xfe;" horiz-adv-x="538" d="M275 485q98 0 157 -53.5t59 -152.5q0 -128 -79 -210t-205 -82q-59 0 -104 14l-32 -187q-19 -4 -44 -4q-18 0 -35 4l149 843q19 4 36 4q23 0 40 -4l-32 -184q48 12 90 12zM219 61q86 0 137 57t51 150q0 65 -37.5 102.5t-102.5 37.5q-51 0 -96 -15l-53 -310q41 -22 101 -22 z" />
<glyph unicode="&#xff;" horiz-adv-x="533" d="M224 548q-22 0 -37 15.5t-15 37.5t15 37.5t37 15.5t37.5 -15.5t15.5 -37.5t-15.5 -37.5t-37.5 -15.5zM411 548q-22 0 -37.5 15.5t-15.5 37.5t15.5 37.5t37.5 15.5t37 -15.5t15 -37.5t-15 -37.5t-37 -15.5zM455 475q23 0 40 -4l-81 -459q-17 -94 -79 -151t-155 -57 q-137 0 -192 74q18 37 61 55q40 -57 126 -57q67 0 107.5 37.5t51.5 98.5l5 27q-68 -28 -133 -28q-89 0 -127.5 51t-23.5 134l48 275q19 4 41 4q21 0 40 -4l-43 -242q-13 -72 6.5 -107t89.5 -35q67 0 115 31h1l62 353q19 4 40 4z" />
<glyph unicode="&#x13f;" horiz-adv-x="464" d="M132 73h277q6 -39 -13 -73h-357l113 642q23 5 40 5q19 0 41 -5zM360 293q-22 0 -38 15.5t-16 38.5t16 38.5t38 15.5t38 -15.5t16 -38.5t-16 -38.5t-38 -15.5z" />
<glyph unicode="&#x140;" horiz-adv-x="287" d="M141 -9q-45 0 -73.5 22.5t-28.5 64.5q0 15 2 23l99 557q19 4 42 4q22 0 39 -4l-97 -543q-1 -4 -1 -12q0 -38 38 -38q23 0 51 22q34 -18 36 -54q-42 -42 -107 -42zM255 282q-23 0 -38.5 16t-15.5 38t15.5 38t38.5 16t38.5 -16t15.5 -38t-15.5 -38t-38.5 -16z" />
<glyph unicode="&#x152;" horiz-adv-x="859" d="M853 565h-273l-35 -196h240v-16q0 -29 -13 -61h-240l-38 -215h282l1 -17q0 -25 -14 -60h-360q-47 -9 -95 -9q-119 0 -188.5 73t-69.5 195q0 163 110 275.5t264 112.5q55 0 90 -5h352q1 -4 1 -16q0 -24 -14 -61zM139 271q0 -91 48 -147t135 -56q48 0 89 10l85 481 q-34 10 -86 10q-115 0 -193 -86.5t-78 -211.5z" />
<glyph unicode="&#x153;" horiz-adv-x="844" d="M730 115q40 -15 46 -55q-67 -74 -178 -74q-130 0 -174 102q-66 -101 -179 -101q-102 0 -155 60t-53 158q0 123 70 202t175 79q128 0 172 -109q67 107 188 107q75 0 118 -36.5t43 -93.5q0 -160 -216 -160q-61 0 -106 16v-10q0 -139 126 -139q31 0 58.5 11t38 19.5 t26.5 23.5zM251 60q65 0 106.5 55.5t41.5 143.5q0 71 -32 112.5t-93 41.5q-70 0 -112.5 -54.5t-42.5 -145.5q0 -71 32.5 -112t99.5 -41zM629 412q-52 0 -89 -35t-51 -99q46 -17 112 -17q120 0 120 83q0 28 -24.5 48t-67.5 20z" />
<glyph unicode="&#x178;" d="M252 696q-22 0 -37 15t-15 37q0 21 15 36t37 15q21 0 36 -15t15 -36q0 -22 -15 -37t-36 -15zM434 696q-21 0 -36 15t-15 37q0 21 15 36t36 15q22 0 37 -15t15 -36q0 -22 -15 -37t-37 -15zM601 640l-290 -394l-43 -246q-23 -5 -43 -5q-15 0 -38 5l44 249l-155 391 q29 8 53 8q23 0 36 -3l108 -293l9 -31l22 31l212 293q14 3 41 3q23 0 44 -8z" />
<glyph unicode="&#x2c6;" horiz-adv-x="281" d="M283 682l87 -124q-13 -25 -43 -34l-76 84l-102 -83q-27 10 -33 39l120 118q25 6 47 0z" />
<glyph unicode="&#x2dc;" horiz-adv-x="336" d="M169 548q-39 0 -57 21q12 42 40.5 65.5t58.5 23.5q31 0 71.5 -19t52.5 -19q29 0 45 43q40 0 57 -21q-10 -41 -38.5 -65.5t-59.5 -24.5q-30 0 -66 18.5t-52 18.5q-36 0 -52 -41z" />
<glyph unicode="&#x2000;" horiz-adv-x="423" />
<glyph unicode="&#x2001;" horiz-adv-x="847" />
<glyph unicode="&#x2002;" horiz-adv-x="423" />
<glyph unicode="&#x2003;" horiz-adv-x="847" />
<glyph unicode="&#x2004;" horiz-adv-x="282" />
<glyph unicode="&#x2005;" horiz-adv-x="211" />
<glyph unicode="&#x2006;" horiz-adv-x="141" />
<glyph unicode="&#x2007;" horiz-adv-x="141" />
<glyph unicode="&#x2008;" horiz-adv-x="105" />
<glyph unicode="&#x2009;" horiz-adv-x="169" />
<glyph unicode="&#x200a;" horiz-adv-x="47" />
<glyph unicode="&#x2010;" horiz-adv-x="386" d="M62 215q-2 10 -2 17q0 26 13 50h243q1 -3 1 -13q0 -25 -12 -54h-243z" />
<glyph unicode="&#x2011;" horiz-adv-x="386" d="M62 215q-2 10 -2 17q0 26 13 50h243q1 -3 1 -13q0 -25 -12 -54h-243z" />
<glyph unicode="&#x2012;" horiz-adv-x="386" d="M62 215q-2 10 -2 17q0 26 13 50h243q1 -3 1 -13q0 -25 -12 -54h-243z" />
<glyph unicode="&#x2013;" horiz-adv-x="556" d="M61 215q-1 5 -1 17q0 26 13 50h414v-13q0 -25 -12 -54h-414z" />
<glyph unicode="&#x2014;" horiz-adv-x="1028" d="M61 215q-1 5 -1 17q0 24 12 50h887l1 -13q0 -23 -13 -54h-886z" />
<glyph unicode="&#x2018;" horiz-adv-x="210" d="M131 463q-25 0 -38 6q-1 4 -1 21q0 60 35.5 110t77.5 78q8 -1 16.5 -8t7.5 -16q-28 -26 -41 -71t-13 -77q0 -24 3 -36q-21 -7 -47 -7z" />
<glyph unicode="&#x2019;" horiz-adv-x="205" d="M110 463q-9 1 -17 8t-8 16q28 26 41.5 71t13.5 77q0 20 -4 36q21 7 47 7q25 0 38 -6q2 -8 2 -21q0 -60 -35.5 -109.5t-77.5 -78.5z" />
<glyph unicode="&#x201a;" horiz-adv-x="216" d="M9 -116q-9 1 -17.5 8t-8.5 16q30 26 43 70t13 75q0 27 -4 39q22 7 49 7q24 0 37 -6q2 -8 2 -21q0 -61 -36 -110.5t-78 -77.5z" />
<glyph unicode="&#x201c;" horiz-adv-x="348" d="M131 463q-25 0 -37 6q-2 8 -2 21q0 60 35.5 109.5t76.5 78.5q9 -1 17.5 -8t8.5 -16q-22 -19 -35.5 -54t-16.5 -57t-3 -37q0 -24 3 -36q-20 -7 -47 -7zM269 463q-25 0 -38 6q-2 8 -2 21q0 60 36 109.5t78 78.5q9 -1 17 -8t8 -16q-28 -26 -41.5 -70.5t-13.5 -77.5 q0 -25 4 -36q-21 -7 -48 -7z" />
<glyph unicode="&#x201d;" horiz-adv-x="345" d="M110 458q-8 1 -16 8t-8 16q28 26 41 71t13 77q0 24 -3 36q21 7 47 7q25 0 38 -6q1 -4 1 -21q0 -60 -35.5 -110t-77.5 -78zM249 458q-9 1 -17.5 8t-8.5 16q23 20 37 55.5t16.5 57t2.5 35.5q0 25 -4 36q21 7 48 7q25 0 36 -6q2 -8 2 -21q0 -60 -35 -108.5t-77 -79.5z" />
<glyph unicode="&#x201e;" horiz-adv-x="354" d="M9 -116q-9 1 -17 8t-8 16q28 26 41.5 71t13.5 79q0 23 -4 34q22 7 48 7t38 -6q2 -8 2 -21q0 -61 -36 -110.5t-78 -77.5zM148 -116q-9 1 -17.5 8t-8.5 16q22 19 35.5 53.5t16.5 57.5t3 39q0 22 -3 34q20 7 48 7q25 0 37 -6q2 -8 2 -21q0 -60 -35.5 -110t-77.5 -78z" />
<glyph unicode="&#x2022;" horiz-adv-x="367" d="M181 153q-45 0 -76.5 32t-31.5 77q0 44 31.5 76t76.5 32t76.5 -32t31.5 -76q0 -45 -31.5 -77t-76.5 -32z" />
<glyph unicode="&#x2026;" horiz-adv-x="547" d="M73 -10q-21 0 -36 15t-15 37q0 21 15 36t36 15q22 0 37 -15t15 -36q0 -22 -15 -37t-37 -15zM246 -10q-21 0 -36 15t-15 37q0 21 15 36t36 15q22 0 37 -15t15 -36q0 -22 -15 -37t-37 -15zM409 -10q-21 0 -36 15t-15 37q0 21 15 36t36 15q22 0 36.5 -15t14.5 -36 q0 -22 -14.5 -37t-36.5 -15z" />
<glyph unicode="&#x202f;" horiz-adv-x="169" />
<glyph unicode="&#x2039;" horiz-adv-x="270" d="M142 95l-107 159l163 162q25 -5 32 -29l-101 -132l55 -133q-15 -22 -42 -27z" />
<glyph unicode="&#x203a;" horiz-adv-x="269" d="M65 95q-27 6 -32 27l101 133l-55 132q15 24 42 29l107 -162z" />
<glyph unicode="&#x205f;" horiz-adv-x="211" />
<glyph unicode="&#x20ac;" horiz-adv-x="609" d="M440 661q119 0 175 -81q-17 -28 -50 -43q-54 57 -133 57q-80 0 -134.5 -43t-79.5 -125h214v-12q0 -24 -12 -51h-216q-4 -33 -6 -72h192q2 -16 -1 -31q-2 -9 -10 -32h-179q10 -83 54.5 -128.5t114.5 -45.5q73 0 135 40q28 -19 31 -51q-69 -57 -178 -57q-106 0 -168.5 65 t-71.5 177h-89q-1 2 -1 11q0 25 12 52h78q2 41 7 72h-55v11q0 25 11 52h58q35 113 115 174t187 61z" />
<glyph unicode="&#x2122;" horiz-adv-x="725" d="M669 666q23 0 50 -3l-62 -354q-21 -3 -38 -3q-14 0 -29 3l29 161l17 68l-99 -177q-16 -6 -39 -6q-24 0 -38 6l-37 183l-8 -74l-29 -161q-12 -3 -31 -3q-16 0 -34 3l62 353q22 5 48 5q20 0 30 -2l50 -211l3 -28l12 28l118 211q8 1 25 1zM351 602h-94l-52 -294 q-16 -3 -33 -3q-16 0 -34 3l52 294h-97v7q0 13 1.5 22.5t2.5 14t3.5 10.5t3.5 8h257q0 -19 -2 -31q-4 -17 -8 -31z" />
<glyph unicode="&#x25fc;" horiz-adv-x="475" d="M0 475h475v-475h-475v475z" />
<glyph horiz-adv-x="579" d="M395 642q81 -267 119 -635q-22 -11 -51 -11q-22 0 -37 4q-5 84 -17 179h-276q-39 -83 -78 -179q-17 -4 -37 -4q-27 0 -45 11q172 387 338 635q18 6 44 6q24 0 40 -6zM167 249h232q-22 143 -54 264l-9 39l-24 -41q-79 -129 -145 -262z" />
<glyph horiz-adv-x="579" d="M291 674q-16 13 -19 35l169 111q33 -22 36 -74zM395 642q81 -267 119 -635q-22 -11 -51 -11q-22 0 -37 4q-5 84 -17 179h-276q-39 -83 -78 -179q-17 -4 -37 -4q-27 0 -45 11q172 387 338 635q18 6 44 6q24 0 40 -6zM167 249h232q-22 143 -54 264l-9 39l-24 -41 q-79 -129 -145 -262z" />
<glyph horiz-adv-x="579" d="M256 680q-21 16 -25 41l116 84q30 7 57 0l90 -83q-9 -24 -34 -42l-90 62zM395 642q81 -267 119 -635q-22 -11 -51 -11q-22 0 -37 4q-5 84 -17 179h-276q-39 -83 -78 -179q-17 -4 -37 -4q-27 0 -45 11q172 387 338 635q18 6 44 6q24 0 40 -6zM167 249h232q-22 143 -54 264 l-9 39l-24 -41q-79 -129 -145 -262z" />
<glyph horiz-adv-x="579" d="M278 696q-22 0 -37 15t-15 37q0 21 15 36t37 15q21 0 36 -15t15 -36q0 -22 -15 -37t-36 -15zM460 696q-21 0 -36 15t-15 37q0 21 15 36t36 15q22 0 37 -15t15 -36q0 -22 -15 -37t-37 -15zM395 642q81 -267 119 -635q-22 -11 -51 -11q-22 0 -37 4q-5 84 -17 179h-276 q-39 -83 -78 -179q-17 -4 -37 -4q-27 0 -45 11q172 387 338 635q18 6 44 6q24 0 40 -6zM167 249h232q-22 143 -54 264l-9 39l-24 -41q-79 -129 -145 -262z" />
<glyph horiz-adv-x="579" d="M445 707q-7 -25 -24 -37l-162 79q11 51 53 74zM395 642q81 -267 119 -635q-22 -11 -51 -11q-22 0 -37 4q-5 84 -17 179h-276q-39 -83 -78 -179q-17 -4 -37 -4q-27 0 -45 11q172 387 338 635q18 6 44 6q24 0 40 -6zM167 249h232q-22 143 -54 264l-9 39l-24 -41 q-79 -129 -145 -262z" />
<glyph horiz-adv-x="579" d="M366 657q-39 0 -64 23.5t-25 60.5q0 48 29.5 77t70.5 29q38 0 63 -23.5t25 -58.5q0 -50 -27 -79t-72 -29zM374 797q-20 0 -32 -15t-12 -35q0 -40 39 -40q20 0 31.5 15.5t11.5 33.5t-10 29.5t-28 11.5zM395 642q81 -267 119 -635q-22 -11 -51 -11q-22 0 -37 4 q-5 84 -17 179h-276q-39 -83 -78 -179q-17 -4 -37 -4q-27 0 -45 11q172 387 338 635q18 6 44 6q24 0 40 -6zM167 249h232q-22 143 -54 264l-9 39l-24 -41q-79 -129 -145 -262z" />
<glyph horiz-adv-x="579" d="M260 686q-40 0 -57 21q18 43 48 66.5t65 23.5q28 0 67 -19t52 -19q37 0 53 42q40 0 56 -21q-14 -42 -44 -66t-66 -24q-26 0 -63.5 18.5t-55.5 18.5q-39 0 -55 -41zM355 648q24 0 40 -6q81 -267 119 -635q-22 -11 -51 -11q-22 0 -37 4q-5 84 -17 179h-276 q-39 -83 -78 -179q-17 -4 -37 -4q-27 0 -45 11q172 387 338 635q18 6 44 6zM167 249h232q-22 143 -54 264l-9 39l-24 -41q-79 -129 -145 -262z" />
<glyph horiz-adv-x="465" d="M331 657q81 0 141 -39q-11 -40 -45 -67q-48 32 -105 32q-64 0 -99.5 -33t-35.5 -90q0 -89 123 -89h51q1 -4 1 -16q0 -26 -13 -56h-69q-81 0 -124 -36.5t-43 -104.5q0 -46 31 -72.5t91 -26.5q84 0 147 44q26 -18 24 -61q-82 -55 -185 -55q-92 0 -142.5 39t-50.5 114 q0 69 36.5 120.5t101.5 77.5q-58 35 -58 111q0 89 63.5 148.5t159.5 59.5z" />
<glyph horiz-adv-x="465" d="M265 674q-16 13 -19 35l169 111q33 -22 36 -74zM331 657q81 0 141 -39q-11 -40 -45 -67q-48 32 -105 32q-64 0 -99.5 -33t-35.5 -90q0 -89 123 -89h51q1 -4 1 -16q0 -26 -13 -56h-69q-81 0 -124 -36.5t-43 -104.5q0 -46 31 -72.5t91 -26.5q84 0 147 44q26 -18 24 -61 q-82 -55 -185 -55q-92 0 -142.5 39t-50.5 114q0 69 36.5 120.5t101.5 77.5q-58 35 -58 111q0 89 63.5 148.5t159.5 59.5z" />
<glyph horiz-adv-x="465" d="M230 680q-21 16 -25 41l116 84q30 7 57 0l90 -83q-9 -24 -34 -42l-90 62zM331 657q81 0 141 -39q-11 -40 -45 -67q-48 32 -105 32q-64 0 -99.5 -33t-35.5 -90q0 -89 123 -89h51q1 -4 1 -16q0 -26 -13 -56h-69q-81 0 -124 -36.5t-43 -104.5q0 -46 31 -72.5t91 -26.5 q84 0 147 44q26 -18 24 -61q-82 -55 -185 -55q-92 0 -142.5 39t-50.5 114q0 69 36.5 120.5t101.5 77.5q-58 35 -58 111q0 89 63.5 148.5t159.5 59.5z" />
<glyph horiz-adv-x="465" d="M252 696q-22 0 -37 15t-15 37q0 21 15 36t37 15q21 0 36 -15t15 -36q0 -22 -15 -37t-36 -15zM434 696q-21 0 -36 15t-15 37q0 21 15 36t36 15q22 0 37 -15t15 -36q0 -22 -15 -37t-37 -15zM108 449q0 89 63.5 148.5t159.5 59.5q81 0 141 -39q-11 -40 -45 -67 q-48 32 -105 32q-64 0 -99.5 -33t-35.5 -90q0 -89 123 -89h51q1 -4 1 -16q0 -26 -13 -56h-69q-81 0 -124 -36.5t-43 -104.5q0 -46 31 -72.5t91 -26.5q84 0 147 44q26 -18 24 -61q-82 -55 -185 -55q-92 0 -142.5 39t-50.5 114q0 69 36.5 120.5t101.5 77.5q-58 35 -58 111z " />
<glyph horiz-adv-x="465" d="M419 707q-7 -25 -24 -37l-162 79q11 51 53 74zM331 657q81 0 141 -39q-11 -40 -45 -67q-48 32 -105 32q-64 0 -99.5 -33t-35.5 -90q0 -89 123 -89h51q1 -4 1 -16q0 -26 -13 -56h-69q-81 0 -124 -36.5t-43 -104.5q0 -46 31 -72.5t91 -26.5q84 0 147 44q26 -18 24 -61 q-82 -55 -185 -55q-92 0 -142.5 39t-50.5 114q0 69 36.5 120.5t101.5 77.5q-58 35 -58 111q0 89 63.5 148.5t159.5 59.5z" />
<glyph horiz-adv-x="689" d="M653 390q0 -117 -40.5 -207t-114.5 -142l51 -91q-24 -31 -65 -38l-52 95q-60 -22 -125 -22q-114 0 -184 74t-70 195q0 180 94.5 293t248.5 113q117 0 187 -74.5t70 -195.5zM320 60q41 0 77 12l-45 81q25 24 63 37l46 -83q106 85 106 276q0 93 -49 147.5t-135 54.5 q-116 0 -180 -90.5t-64 -233.5q0 -92 49 -146.5t132 -54.5z" />
<glyph horiz-adv-x="548" d="M434 138q-5 -32 5.5 -53t42.5 -37q-2 -18 -16 -37.5t-28 -26.5q-59 17 -80 63q-68 -61 -153 -61q-79 0 -126 50.5t-47 145.5q0 126 82.5 214.5t203.5 88.5q110 0 169 -44zM228 59q72 0 123 65l49 270q-35 16 -86 16q-91 0 -144 -60.5t-53 -155.5q0 -135 111 -135z" />
<glyph horiz-adv-x="483" d="M376 94q0 -27 38 -41q-2 -45 -37 -66q-75 6 -80 67h-2q-56 -68 -143 -68q-66 0 -103.5 34.5t-37.5 91.5q0 75 59.5 120.5t167.5 46.5l90 1l4 22q3 15 3 27q0 81 -102 81q-61 0 -117 -46q-35 17 -40 52q29 28 75 48.5t98 20.5q74 0 120.5 -34t46.5 -106q0 -23 -4 -44 l-16 -88l-18 -102q-2 -14 -2 -17zM169 55q51 0 91.5 37.5t55.5 120.5l-89 -1q-131 -1 -131 -89q0 -31 19.5 -49.5t53.5 -18.5z" />
<glyph horiz-adv-x="485" d="M261 485q89 0 136 -49.5t30 -146.5l-46 -262q-94 -41 -201 -41q-86 0 -128 36.5t-42 97.5q0 78 62 123.5t153 45.5q67 0 119 -21l4 21q10 56 -17 88.5t-87 32.5q-70 0 -127 -45q-34 16 -34 56q27 25 76.5 44.5t101.5 19.5zM95 132q0 -35 25 -54.5t74 -19.5q59 0 117 18 l21 119q-46 23 -119 23q-54 0 -86 -21t-32 -65z" />
<glyph horiz-adv-x="548" d="M264 519q-22 16 -30 41l138 128q43 -20 56 -72zM434 138q-5 -32 5.5 -53t42.5 -37q-2 -18 -16 -37.5t-28 -26.5q-59 17 -80 63q-68 -61 -153 -61q-79 0 -126 50.5t-47 145.5q0 126 82.5 214.5t203.5 88.5q110 0 169 -44zM228 59q72 0 123 65l49 270q-35 16 -86 16 q-91 0 -144 -60.5t-53 -155.5q0 -135 111 -135z" />
<glyph horiz-adv-x="483" d="M208 519q-22 16 -30 41l138 128q43 -20 56 -72zM376 94q0 -27 38 -41q-2 -45 -37 -66q-75 6 -80 67h-2q-56 -68 -143 -68q-66 0 -103.5 34.5t-37.5 91.5q0 75 59.5 120.5t167.5 46.5l90 1l4 22q3 15 3 27q0 81 -102 81q-61 0 -117 -46q-35 17 -40 52q29 28 75 48.5 t98 20.5q74 0 120.5 -34t46.5 -106q0 -23 -4 -44l-16 -88l-18 -102q-2 -14 -2 -17zM169 55q51 0 91.5 37.5t55.5 120.5l-89 -1q-131 -1 -131 -89q0 -31 19.5 -49.5t53.5 -18.5z" />
<glyph horiz-adv-x="485" d="M225 519q-22 16 -30 41l138 128q43 -20 56 -72zM261 485q89 0 136 -49.5t30 -146.5l-46 -262q-94 -41 -201 -41q-86 0 -128 36.5t-42 97.5q0 78 62 123.5t153 45.5q67 0 119 -21l4 21q10 56 -17 88.5t-87 32.5q-70 0 -127 -45q-34 16 -34 56q27 25 76.5 44.5t101.5 19.5z M95 132q0 -35 25 -54.5t74 -19.5q59 0 117 18l21 119q-46 23 -119 23q-54 0 -86 -21t-32 -65z" />
<glyph horiz-adv-x="548" d="M223 525q-27 10 -33 39l120 118q25 6 47 0l87 -124q-13 -25 -43 -34l-76 84zM434 138q-5 -32 5.5 -53t42.5 -37q-2 -18 -16 -37.5t-28 -26.5q-59 17 -80 63q-68 -61 -153 -61q-79 0 -126 50.5t-47 145.5q0 126 82.5 214.5t203.5 88.5q110 0 169 -44zM228 59q72 0 123 65 l49 270q-35 16 -86 16q-91 0 -144 -60.5t-53 -155.5q0 -135 111 -135z" />
<glyph horiz-adv-x="483" d="M167 525q-27 10 -33 39l120 118q25 6 47 0l87 -124q-13 -25 -43 -34l-76 84zM376 94q0 -27 38 -41q-2 -45 -37 -66q-75 6 -80 67h-2q-56 -68 -143 -68q-66 0 -103.5 34.5t-37.5 91.5q0 75 59.5 120.5t167.5 46.5l90 1l4 22q3 15 3 27q0 81 -102 81q-61 0 -117 -46 q-35 17 -40 52q29 28 75 48.5t98 20.5q74 0 120.5 -34t46.5 -106q0 -23 -4 -44l-16 -88l-18 -102q-2 -14 -2 -17zM169 55q51 0 91.5 37.5t55.5 120.5l-89 -1q-131 -1 -131 -89q0 -31 19.5 -49.5t53.5 -18.5z" />
<glyph horiz-adv-x="485" d="M184 525q-27 10 -33 39l120 118q25 6 47 0l87 -124q-13 -25 -43 -34l-76 84zM261 485q89 0 136 -49.5t30 -146.5l-46 -262q-94 -41 -201 -41q-86 0 -128 36.5t-42 97.5q0 78 62 123.5t153 45.5q67 0 119 -21l4 21q10 56 -17 88.5t-87 32.5q-70 0 -127 -45q-34 16 -34 56 q27 25 76.5 44.5t101.5 19.5zM95 132q0 -35 25 -54.5t74 -19.5q59 0 117 18l21 119q-46 23 -119 23q-54 0 -86 -21t-32 -65z" />
<glyph horiz-adv-x="548" d="M231 548q-22 0 -37 15.5t-15 37.5t15 37.5t37 15.5t37.5 -15.5t15.5 -37.5t-15.5 -37.5t-37.5 -15.5zM418 548q-22 0 -37.5 15.5t-15.5 37.5t15.5 37.5t37.5 15.5t37 -15.5t15 -37.5t-15 -37.5t-37 -15.5zM434 138q-5 -32 5.5 -53t42.5 -37q-2 -18 -16 -37.5t-28 -26.5 q-59 17 -80 63q-68 -61 -153 -61q-79 0 -126 50.5t-47 145.5q0 126 82.5 214.5t203.5 88.5q110 0 169 -44zM228 59q72 0 123 65l49 270q-35 16 -86 16q-91 0 -144 -60.5t-53 -155.5q0 -135 111 -135z" />
<glyph horiz-adv-x="483" d="M175 548q-22 0 -37 15.5t-15 37.5t15 37.5t37 15.5t37.5 -15.5t15.5 -37.5t-15.5 -37.5t-37.5 -15.5zM362 548q-22 0 -37.5 15.5t-15.5 37.5t15.5 37.5t37.5 15.5t37 -15.5t15 -37.5t-15 -37.5t-37 -15.5zM376 94q0 -27 38 -41q-2 -45 -37 -66q-75 6 -80 67h-2 q-56 -68 -143 -68q-66 0 -103.5 34.5t-37.5 91.5q0 75 59.5 120.5t167.5 46.5l90 1l4 22q3 15 3 27q0 81 -102 81q-61 0 -117 -46q-35 17 -40 52q29 28 75 48.5t98 20.5q74 0 120.5 -34t46.5 -106q0 -23 -4 -44l-16 -88l-18 -102q-2 -14 -2 -17zM169 55q51 0 91.5 37.5 t55.5 120.5l-89 -1q-131 -1 -131 -89q0 -31 19.5 -49.5t53.5 -18.5z" />
<glyph horiz-adv-x="485" d="M192 548q-22 0 -37 15.5t-15 37.5t15 37.5t37 15.5t37.5 -15.5t15.5 -37.5t-15.5 -37.5t-37.5 -15.5zM379 548q-22 0 -37.5 15.5t-15.5 37.5t15.5 37.5t37.5 15.5t37 -15.5t15 -37.5t-15 -37.5t-37 -15.5zM261 485q89 0 136 -49.5t30 -146.5l-46 -262q-94 -41 -201 -41 q-86 0 -128 36.5t-42 97.5q0 78 62 123.5t153 45.5q67 0 119 -21l4 21q10 56 -17 88.5t-87 32.5q-70 0 -127 -45q-34 16 -34 56q27 25 76.5 44.5t101.5 19.5zM95 132q0 -35 25 -54.5t74 -19.5q59 0 117 18l21 119q-46 23 -119 23q-54 0 -86 -21t-32 -65z" />
<glyph horiz-adv-x="548" d="M402 556q-11 -24 -31 -37l-146 100q16 50 63 67zM434 138q-5 -32 5.5 -53t42.5 -37q-2 -18 -16 -37.5t-28 -26.5q-59 17 -80 63q-68 -61 -153 -61q-79 0 -126 50.5t-47 145.5q0 126 82.5 214.5t203.5 88.5q110 0 169 -44zM228 59q72 0 123 65l49 270q-35 16 -86 16 q-91 0 -144 -60.5t-53 -155.5q0 -135 111 -135z" />
<glyph horiz-adv-x="483" d="M346 556q-11 -24 -31 -37l-146 100q16 50 63 67zM376 94q0 -27 38 -41q-2 -45 -37 -66q-75 6 -80 67h-2q-56 -68 -143 -68q-66 0 -103.5 34.5t-37.5 91.5q0 75 59.5 120.5t167.5 46.5l90 1l4 22q3 15 3 27q0 81 -102 81q-61 0 -117 -46q-35 17 -40 52q29 28 75 48.5 t98 20.5q74 0 120.5 -34t46.5 -106q0 -23 -4 -44l-16 -88l-18 -102q-2 -14 -2 -17zM169 55q51 0 91.5 37.5t55.5 120.5l-89 -1q-131 -1 -131 -89q0 -31 19.5 -49.5t53.5 -18.5z" />
<glyph horiz-adv-x="485" d="M363 556q-11 -24 -31 -37l-146 100q16 50 63 67zM261 485q89 0 136 -49.5t30 -146.5l-46 -262q-94 -41 -201 -41q-86 0 -128 36.5t-42 97.5q0 78 62 123.5t153 45.5q67 0 119 -21l4 21q10 56 -17 88.5t-87 32.5q-70 0 -127 -45q-34 16 -34 56q27 25 76.5 44.5t101.5 19.5 zM95 132q0 -35 25 -54.5t74 -19.5q59 0 117 18l21 119q-46 23 -119 23q-54 0 -86 -21t-32 -65z" />
<glyph horiz-adv-x="548" d="M319 505q-41 0 -65 24t-24 64q0 46 29 75t71 29q41 0 64.5 -24t23.5 -65q0 -46 -29 -74.5t-70 -28.5zM329 644q-20 0 -32 -13t-12 -33q0 -18 9.5 -29t25.5 -11q45 0 45 45q0 41 -36 41zM434 138q-5 -32 5.5 -53t42.5 -37q-2 -18 -16 -37.5t-28 -26.5q-59 17 -80 63 q-68 -61 -153 -61q-79 0 -126 50.5t-47 145.5q0 126 82.5 214.5t203.5 88.5q110 0 169 -44zM228 59q72 0 123 65l49 270q-35 16 -86 16q-91 0 -144 -60.5t-53 -155.5q0 -135 111 -135z" />
<glyph horiz-adv-x="483" d="M264 505q-41 0 -65 24t-24 64q0 46 29 75t71 29q41 0 64.5 -24t23.5 -65q0 -46 -28.5 -74.5t-70.5 -28.5zM274 644q-20 0 -32 -13t-12 -33q0 -18 9.5 -29t25.5 -11q45 0 45 45q0 41 -36 41zM376 94q0 -27 38 -41q-2 -45 -37 -66q-75 6 -80 67h-2q-56 -68 -143 -68 q-66 0 -103.5 34.5t-37.5 91.5q0 75 59.5 120.5t167.5 46.5l90 1l4 22q3 15 3 27q0 81 -102 81q-61 0 -117 -46q-35 17 -40 52q29 28 75 48.5t98 20.5q74 0 120.5 -34t46.5 -106q0 -23 -4 -44l-16 -88l-18 -102q-2 -14 -2 -17zM169 55q51 0 91.5 37.5t55.5 120.5l-89 -1 q-131 -1 -131 -89q0 -31 19.5 -49.5t53.5 -18.5z" />
<glyph horiz-adv-x="485" d="M280 505q-41 0 -65 24t-24 64q0 46 29 75t71 29q41 0 64.5 -24t23.5 -65q0 -46 -28.5 -74.5t-70.5 -28.5zM290 644q-20 0 -32 -13t-12 -33q0 -18 9.5 -29t25.5 -11q45 0 45 45q0 41 -36 41zM261 485q89 0 136 -49.5t30 -146.5l-46 -262q-94 -41 -201 -41q-86 0 -128 36.5 t-42 97.5q0 78 62 123.5t153 45.5q67 0 119 -21l4 21q10 56 -17 88.5t-87 32.5q-70 0 -127 -45q-34 16 -34 56q27 25 76.5 44.5t101.5 19.5zM95 132q0 -35 25 -54.5t74 -19.5q59 0 117 18l21 119q-46 23 -119 23q-54 0 -86 -21t-32 -65z" />
<glyph horiz-adv-x="548" d="M220 548q-40 0 -57 21q12 42 40.5 65.5t58.5 23.5q31 0 71.5 -19t52.5 -19q29 0 45 43q39 0 57 -21q-10 -41 -38.5 -65.5t-59.5 -24.5q-30 0 -66 18.5t-52 18.5q-36 0 -52 -41zM487 441l-53 -303q-5 -32 5.5 -53t42.5 -37q-2 -18 -16 -37.5t-28 -26.5q-59 17 -80 63 q-68 -61 -153 -61q-79 0 -126 50.5t-47 145.5q0 126 82.5 214.5t203.5 88.5q110 0 169 -44zM228 59q72 0 123 65l49 270q-35 16 -86 16q-91 0 -144 -60.5t-53 -155.5q0 -135 111 -135z" />
<glyph horiz-adv-x="483" d="M164 548q-40 0 -57 21q12 42 40.5 65.5t58.5 23.5q31 0 71.5 -19t52.5 -19q29 0 45 43q39 0 57 -21q-10 -41 -38.5 -65.5t-59.5 -24.5q-30 0 -66 18.5t-52 18.5q-36 0 -52 -41zM396 213l-18 -102q-2 -14 -2 -17q0 -27 38 -41q-2 -45 -37 -66q-75 6 -80 67h-2 q-56 -68 -143 -68q-66 0 -103.5 34.5t-37.5 91.5q0 75 59.5 120.5t167.5 46.5l90 1l4 22q3 15 3 27q0 81 -102 81q-61 0 -117 -46q-35 17 -40 52q29 28 75 48.5t98 20.5q74 0 120.5 -34t46.5 -106q0 -23 -4 -44zM169 55q51 0 91.5 37.5t55.5 120.5l-89 -1q-131 -1 -131 -89 q0 -31 19.5 -49.5t53.5 -18.5z" />
<glyph horiz-adv-x="485" d="M181 548q-39 0 -57 21q12 42 40.5 65.5t58.5 23.5q31 0 71.5 -19t52.5 -19q29 0 45 43q40 0 57 -21q-10 -41 -38.5 -65.5t-59.5 -24.5q-30 0 -66 18.5t-52 18.5q-36 0 -52 -41zM261 485q89 0 136 -49.5t30 -146.5l-46 -262q-94 -41 -201 -41q-86 0 -128 36.5t-42 97.5 q0 78 62 123.5t153 45.5q67 0 119 -21l4 21q10 56 -17 88.5t-87 32.5q-70 0 -127 -45q-34 16 -34 56q27 25 76.5 44.5t101.5 19.5zM95 132q0 -35 25 -54.5t74 -19.5q59 0 117 18l21 119q-46 23 -119 23q-54 0 -86 -21t-32 -65z" />
<glyph horiz-adv-x="532" d="M325 485q74 0 118 -47.5t44 -134.5q0 -142 -80 -229.5t-208 -87.5q-107 0 -171 41l112 631q19 4 40 4q23 0 40 -4l-42 -241q59 68 147 68zM209 61q89 0 141.5 63t52.5 164q0 58 -25 91t-69 33q-48 0 -89 -32t-64 -87l-38 -216q37 -16 91 -16z" />
<glyph horiz-adv-x="532" d="M488 436l-78 -440q-17 -4 -42 -4q-21 0 -38 4l11 60q-63 -70 -150 -70q-72 0 -116 47.5t-44 129.5q0 143 81 232.5t204 89.5q56 0 97 -12l33 184q19 4 41 4q23 0 40 -4zM206 59q49 0 89.5 32t64.5 83l39 220q-40 16 -94 16q-87 0 -138 -63.5t-51 -168.5q0 -54 24 -86.5 t66 -32.5z" />
<glyph horiz-adv-x="508" d="M464 284q0 -30 -7 -72h-336q1 -74 39 -113t105 -39q62 0 121 49q16 -8 27.5 -24.5t12.5 -33.5q-25 -20 -44 -31.5t-55 -22.5t-77 -11q-98 0 -155 58t-57 161q0 127 70 203.5t167 76.5q99 0 144 -57t45 -144zM379 279q2 16 2 22q0 50 -29 81t-82 31q-55 0 -92.5 -37.5 t-50.5 -96.5h252z" />
<glyph horiz-adv-x="490" d="M375 106q16 -7 27.5 -25t12.5 -37q-74 -58 -172 -58q-95 0 -151 55t-56 153q0 134 74.5 212.5t176.5 78.5q79 0 122 -38t43 -95q0 -64 -43 -105t-136 -41h-156v-2q0 -60 34.5 -102t105.5 -42q29 0 53.5 8.5t35 15.5t29.5 22zM274 413q-51 0 -93 -35.5t-57 -104.5h165 q39 0 59.5 20t20.5 50q0 32 -25 51t-70 19z" />
<glyph horiz-adv-x="508" d="M236 519q-22 16 -30 41l138 128q43 -20 56 -72zM464 284q0 -30 -7 -72h-336q1 -74 39 -113t105 -39q62 0 121 49q16 -8 27.5 -24.5t12.5 -33.5q-25 -20 -44 -31.5t-55 -22.5t-77 -11q-98 0 -155 58t-57 161q0 127 70 203.5t167 76.5q99 0 144 -57t45 -144zM379 279 q2 16 2 22q0 50 -29 81t-82 31q-55 0 -92.5 -37.5t-50.5 -96.5h252z" />
<glyph horiz-adv-x="490" d="M240 519q-22 16 -30 41l138 128q43 -20 56 -72zM375 106q16 -7 27.5 -25t12.5 -37q-74 -58 -172 -58q-95 0 -151 55t-56 153q0 134 74.5 212.5t176.5 78.5q79 0 122 -38t43 -95q0 -64 -43 -105t-136 -41h-156v-2q0 -60 34.5 -102t105.5 -42q29 0 53.5 8.5t35 15.5 t29.5 22zM274 413q-51 0 -93 -35.5t-57 -104.5h165q39 0 59.5 20t20.5 50q0 32 -25 51t-70 19z" />
<glyph horiz-adv-x="508" d="M195 525q-27 10 -33 39l120 118q25 6 47 0l87 -124q-13 -25 -43 -34l-76 84zM464 284q0 -30 -7 -72h-336q1 -74 39 -113t105 -39q62 0 121 49q16 -8 27.5 -24.5t12.5 -33.5q-25 -20 -44 -31.5t-55 -22.5t-77 -11q-98 0 -155 58t-57 161q0 127 70 203.5t167 76.5 q99 0 144 -57t45 -144zM379 279q2 16 2 22q0 50 -29 81t-82 31q-55 0 -92.5 -37.5t-50.5 -96.5h252z" />
<glyph horiz-adv-x="490" d="M199 525q-27 10 -33 39l120 118q25 6 47 0l87 -124q-13 -25 -43 -34l-76 84zM375 106q16 -7 27.5 -25t12.5 -37q-74 -58 -172 -58q-95 0 -151 55t-56 153q0 134 74.5 212.5t176.5 78.5q79 0 122 -38t43 -95q0 -64 -43 -105t-136 -41h-156v-2q0 -60 34.5 -102t105.5 -42 q29 0 53.5 8.5t35 15.5t29.5 22zM274 413q-51 0 -93 -35.5t-57 -104.5h165q39 0 59.5 20t20.5 50q0 32 -25 51t-70 19z" />
<glyph horiz-adv-x="508" d="M203 548q-22 0 -37 15.5t-15 37.5t15 37.5t37 15.5t37.5 -15.5t15.5 -37.5t-15.5 -37.5t-37.5 -15.5zM390 548q-22 0 -37.5 15.5t-15.5 37.5t15.5 37.5t37.5 15.5t37 -15.5t15 -37.5t-15 -37.5t-37 -15.5zM464 284q0 -30 -7 -72h-336q1 -74 39 -113t105 -39q62 0 121 49 q16 -8 27.5 -24.5t12.5 -33.5q-25 -20 -44 -31.5t-55 -22.5t-77 -11q-98 0 -155 58t-57 161q0 127 70 203.5t167 76.5q99 0 144 -57t45 -144zM379 279q2 16 2 22q0 50 -29 81t-82 31q-55 0 -92.5 -37.5t-50.5 -96.5h252z" />
<glyph horiz-adv-x="490" d="M207 548q-22 0 -37 15.5t-15 37.5t15 37.5t37 15.5t37.5 -15.5t15.5 -37.5t-15.5 -37.5t-37.5 -15.5zM394 548q-22 0 -37.5 15.5t-15.5 37.5t15.5 37.5t37.5 15.5t37 -15.5t15 -37.5t-15 -37.5t-37 -15.5zM375 106q16 -7 27.5 -25t12.5 -37q-74 -58 -172 -58 q-95 0 -151 55t-56 153q0 134 74.5 212.5t176.5 78.5q79 0 122 -38t43 -95q0 -64 -43 -105t-136 -41h-156v-2q0 -60 34.5 -102t105.5 -42q29 0 53.5 8.5t35 15.5t29.5 22zM274 413q-51 0 -93 -35.5t-57 -104.5h165q39 0 59.5 20t20.5 50q0 32 -25 51t-70 19z" />
<glyph horiz-adv-x="508" d="M374 556q-11 -24 -31 -37l-146 100q16 50 63 67zM464 284q0 -30 -7 -72h-336q1 -74 39 -113t105 -39q62 0 121 49q16 -8 27.5 -24.5t12.5 -33.5q-25 -20 -44 -31.5t-55 -22.5t-77 -11q-98 0 -155 58t-57 161q0 127 70 203.5t167 76.5q99 0 144 -57t45 -144zM379 279 q2 16 2 22q0 50 -29 81t-82 31q-55 0 -92.5 -37.5t-50.5 -96.5h252z" />
<glyph horiz-adv-x="490" d="M378 556q-11 -24 -31 -37l-146 100q16 50 63 67zM375 106q16 -7 27.5 -25t12.5 -37q-74 -58 -172 -58q-95 0 -151 55t-56 153q0 134 74.5 212.5t176.5 78.5q79 0 122 -38t43 -95q0 -64 -43 -105t-136 -41h-156v-2q0 -60 34.5 -102t105.5 -42q29 0 53.5 8.5t35 15.5 t29.5 22zM274 413q-51 0 -93 -35.5t-57 -104.5h165q39 0 59.5 20t20.5 50q0 32 -25 51t-70 19z" />
<glyph horiz-adv-x="304" d="M310 664q63 0 107 -35q-8 -39 -42 -60q-36 24 -78 24q-75 0 -88 -85l-7 -41h115q3 -38 -12 -65h-113l-71 -440q-12 -84 -52.5 -124.5t-118.5 -40.5q-65 0 -113 36q8 38 38 60q35 -25 78 -25q36 0 58.5 19t29.5 66l72 450h-63q-4 36 11 65h63l5 31q29 165 181 165z" />
<glyph horiz-adv-x="530" d="M316 485q106 0 173 -44l-76 -429q-16 -90 -86 -149t-166 -59q-69 0 -105.5 30.5t-36.5 83.5q0 89 107 133q-89 49 -89 164q0 118 80 194t199 76zM311 411q-85 0 -138 -51.5t-53 -135.5q0 -60 34.5 -93.5t93.5 -33.5q54 0 106 34l47 266q-31 14 -90 14zM174 -124 q61 0 104.5 38.5t54.5 97.5l6 36q-33 -16 -69 -20q-93 -16 -130.5 -38.5t-37.5 -57.5q0 -27 20 -41.5t52 -14.5z" />
<glyph horiz-adv-x="467" d="M478 498q-32 -75 -87 -90q17 -47 17 -96q0 -82 -51.5 -133.5t-141.5 -51.5q-30 0 -54 6q-18 -20 -16 -40q1 -19 38.5 -31t82 -19.5t81 -33.5t36.5 -70q0 -62 -52 -100.5t-157 -38.5q-75 0 -123 19t-67 41q15 40 47 58q51 -47 148 -47q123 0 123 56q0 21 -24.5 33.5 t-60 19.5t-70.5 15.5t-59.5 28t-24.5 50.5q0 45 35 86q-53 41 -53 117q0 88 59.5 146t161.5 58h64q33 0 49 10.5t35 42.5q43 -3 64 -36zM220 199q54 0 81.5 32.5t27.5 85.5q0 44 -19 85h-53q-58 0 -92.5 -32.5t-34.5 -80.5q0 -42 24 -66t66 -24z" />
<glyph horiz-adv-x="505" d="M519 491q-36 -64 -120 -73q43 -45 43 -112q0 -126 -73 -185q46 -43 46 -116q0 -81 -60.5 -141t-174.5 -60q-73 0 -125 27.5t-77 75.5q27 36 68 51q43 -79 144 -79q77 0 110 36t33 81q0 61 -45 88q-30 -5 -58 -5q-85 0 -138.5 48t-53.5 125q0 111 69 171t165 60h72 q39 0 64 9.5t54 45.5q41 -10 57 -47zM121 261q0 -50 30 -78.5t84 -28.5q68 0 98.5 42.5t30.5 98.5q0 52 -28.5 81.5t-83.5 29.5q-53 0 -92 -36t-39 -109z" />
<glyph horiz-adv-x="489" d="M485 498q-32 -75 -87 -90q17 -47 17 -96q0 -82 -51.5 -133.5t-141.5 -51.5h-41q-32 0 -49 -13.5t-17 -35.5q0 -42 46 -42h247q1 -6 1 -22q0 -28 -15 -59h-248q-60 0 -90.5 27t-30.5 75q0 71 73 109q-46 41 -46 113q0 91 63 146.5t168 55.5h54q33 0 49 10.5t35 42.5 q43 -3 64 -36zM227 199q52 0 80.5 33t28.5 85q0 44 -19 85h-53q-58 0 -92.5 -31t-34.5 -84q0 -88 90 -88z" />
<glyph horiz-adv-x="507" d="M477 365q0 -58 -39.5 -106t-115.5 -72l112 -185q-30 -8 -61 -8q-19 0 -40 3l-96 168q-16 29 -16 61q94 21 133 50t39 77q0 29 -19 44t-51 15q-62 0 -109 -39.5t-60 -95.5l-49 -277q-17 -4 -41 -4q-22 0 -39 4l116 657q19 4 40 4q23 0 40 -4l-42 -240q67 67 157 67 q67 0 104 -32.5t37 -86.5z" />
<glyph horiz-adv-x="470" d="M467 467q-91 -132 -209 -220l161 -245q-33 -7 -64 -7q-17 0 -37 3l-130 202q-24 -15 -53 -30l-30 -170q-17 -4 -41 -4q-22 0 -39 4l116 657q19 4 40 4q23 0 40 -4l-71 -400q132 80 232 214q15 3 41 3t44 -7z" />
<glyph horiz-adv-x="231" d="M66 -4q-20 0 -39 4l116 657q19 4 41 4q23 0 40 -4l-116 -657q-17 -4 -42 -4z" />
<glyph horiz-adv-x="534" d="M327 485q74 0 118 -47.5t44 -134.5q0 -142 -80 -229.5t-208 -87.5q-51 0 -96 10l-32 -183q-19 -4 -41 -4q-23 0 -40 4l116 657q19 4 42 4q22 0 39 -4l-9 -49q59 64 147 64zM211 61q89 0 141.5 63t52.5 164q0 58 -25.5 91t-72.5 33q-45 0 -84.5 -29.5t-63.5 -79.5 l-40 -226q37 -16 92 -16z" />
<glyph horiz-adv-x="532" d="M320 484q106 0 171 -43l-112 -629q-19 -4 -40 -4q-23 0 -40 4l43 241q-59 -68 -147 -68q-75 0 -119 47t-44 135q0 142 80 229.5t208 87.5zM364 179l38 214q-37 16 -92 16q-89 0 -141.5 -63t-52.5 -164q0 -58 25 -91t69 -33q49 0 89.5 32.5t64.5 88.5z" />
<glyph horiz-adv-x="514" d="M158 -14q-116 0 -116 109q0 24 4 45l59 330q19 4 41 4q23 0 40 -4l-55 -310q-4 -20 -4 -41q0 -58 53 -58q28 0 65 24.5t72 65t59 102t24 126.5q0 55 -19 91q19 5 47 5q26 0 41 -5q13 -24 13 -92q0 -93 -45.5 -184t-121.5 -149.5t-157 -58.5z" />
<glyph horiz-adv-x="473" d="M423 474q29 0 48 -7q-64 -278 -258 -467q-16 -4 -38 -4t-37 4q-66 196 -85 467q24 7 54 7q17 0 31 -3q13 -214 54 -379q1 -2 1.5 -5t0.5 -5q4 6 7 9q68 78 110.5 161.5t73.5 218.5q23 3 38 3z" />
<glyph horiz-adv-x="697" d="M647 474q27 0 46 -7q-56 -269 -223 -467q-17 -4 -39 -4t-37 4q-30 119 -35 309q-45 -161 -168 -309q-17 -4 -39 -4q-21 0 -34 4q-64 218 -56 467q23 7 49 7q16 0 31 -3q-7 -219 27 -385l1 -10q1 2 3 5t3 5q116 163 159 372q16 3 41 3q24 0 42 -3q2 -193 28 -372 q0 -2 0.5 -6.5t0.5 -6.5l9 12q113 140 162 386q17 3 29 3z" />
<glyph horiz-adv-x="525" d="M447 475q23 0 40 -4l-81 -459q-17 -95 -80.5 -153t-171.5 -58q-69 0 -109 31t-40 83q0 94 133 134q-115 27 -92 157l47 265q19 4 41 4t39 -4l-41 -232q-13 -72 7 -107t92 -35q66 0 115 31l61 343q19 4 40 4zM166 -127q64 0 106.5 37t53.5 102l7 38q-37 -16 -79 -24 q-94 -22 -129 -44t-35 -56q0 -53 76 -53z" />
<glyph horiz-adv-x="501" d="M455 469q10 -45 10 -87q0 -82 -27 -157t-69.5 -132.5t-108 -113.5t-130 -97t-148.5 -86q-27 17 -33 61q159 94 231 149q-122 170 -122 380q0 49 6 81q20 7 48 7q17 0 35 -3q-7 -45 -7 -93q0 -176 101 -322q73 67 108 142.5t35 177.5q0 49 -12 94q11 4 40 4q21 0 43 -5z " />
<glyph horiz-adv-x="525" d="M243 519q-22 16 -30 41l138 128q43 -20 56 -72zM447 475q23 0 40 -4l-81 -459q-17 -95 -80.5 -153t-171.5 -58q-69 0 -109 31t-40 83q0 94 133 134q-115 27 -92 157l47 265q19 4 41 4t39 -4l-41 -232q-13 -72 7 -107t92 -35q66 0 115 31l61 343q19 4 40 4zM166 -127 q64 0 106.5 37t53.5 102l7 38q-37 -16 -79 -24q-94 -22 -129 -44t-35 -56q0 -53 76 -53z" />
<glyph horiz-adv-x="501" d="M201 519q-22 16 -30 41l138 128q43 -20 56 -72zM455 469q10 -45 10 -87q0 -82 -27 -157t-69.5 -132.5t-108 -113.5t-130 -97t-148.5 -86q-27 17 -33 61q159 94 231 149q-122 170 -122 380q0 49 6 81q20 7 48 7q17 0 35 -3q-7 -45 -7 -93q0 -176 101 -322q73 67 108 142.5 t35 177.5q0 49 -12 94q11 4 40 4q21 0 43 -5z" />
<glyph horiz-adv-x="525" d="M210 548q-22 0 -37 15.5t-15 37.5t15 37.5t37 15.5t37.5 -15.5t15.5 -37.5t-15.5 -37.5t-37.5 -15.5zM397 548q-22 0 -37.5 15.5t-15.5 37.5t15.5 37.5t37.5 15.5t37 -15.5t15 -37.5t-15 -37.5t-37 -15.5zM447 475q23 0 40 -4l-81 -459q-17 -95 -80.5 -153t-171.5 -58 q-69 0 -109 31t-40 83q0 94 133 134q-115 27 -92 157l47 265q19 4 41 4t39 -4l-41 -232q-13 -72 7 -107t92 -35q66 0 115 31l61 343q19 4 40 4zM166 -127q64 0 106.5 37t53.5 102l7 38q-37 -16 -79 -24q-94 -22 -129 -44t-35 -56q0 -53 76 -53z" />
<glyph horiz-adv-x="501" d="M168 548q-22 0 -37 15.5t-15 37.5t15 37.5t37 15.5t37.5 -15.5t15.5 -37.5t-15.5 -37.5t-37.5 -15.5zM355 548q-22 0 -37.5 15.5t-15.5 37.5t15.5 37.5t37.5 15.5t37 -15.5t15 -37.5t-15 -37.5t-37 -15.5zM455 469q10 -45 10 -87q0 -82 -27 -157t-69.5 -132.5 t-108 -113.5t-130 -97t-148.5 -86q-27 17 -33 61q159 94 231 149q-122 170 -122 380q0 49 6 81q20 7 48 7q17 0 35 -3q-7 -45 -7 -93q0 -176 101 -322q73 67 108 142.5t35 177.5q0 49 -12 94q11 4 40 4q21 0 43 -5z" />
<glyph horiz-adv-x="509" d="M206 468l263 -1l-83 -467q-17 -4 -40 -4q-22 0 -41 4l71 402l-182 1l-78 -441q-27 -165 -169 -165q-67 0 -117 35q8 37 42 61q35 -25 78 -25q72 0 87 85l80 450h-63q0 20 2 32q3 15 9 33h63l2 10q15 92 72 139t129 47q100 0 151 -56q-3 -19 -19.5 -35.5t-36.5 -19.5 q-23 21 -46 30.5t-61 9.5q-91 0 -112 -117z" />
<glyph horiz-adv-x="569" d="M492 87q32 -17 36 -54q-44 -42 -107 -42q-51 0 -80.5 28.5t-19.5 81.5l84 477q-34 15 -80 15q-42 0 -76 -26t-42 -80l-3 -20h98v-14q0 -22 -12 -51h-97l-75 -440q-26 -165 -181 -165q-63 0 -107 35q8 37 42 61q35 -25 78 -25q21 0 31.5 1.5t23.5 9t20.5 26t12.5 48.5 l77 450h-63q0 20 2 32q3 15 9 33h63l2 10q15 91 78 138.5t135 47.5q87 0 153 -39l-90 -510q-4 -25 6.5 -37.5t30.5 -12.5q23 0 51 22z" />
<glyph horiz-adv-x="594" d="M271 -16q-111 0 -167.5 64t-56.5 173q0 136 77 231t205 95q106 0 160.5 -64t54.5 -173q0 -137 -74.5 -231.5t-198.5 -94.5zM284 59q59 0 99.5 37.5t57 91t16.5 117.5q0 167 -141 167q-62 0 -104.5 -37t-60 -91t-17.5 -119q0 -166 150 -166z" />
<glyph horiz-adv-x="310" d="M248 543q16 0 25 -4l-96 -539q-17 -4 -41 -4q-20 0 -39 4l78 435l-97 -46q-30 24 -27 65q25 12 64 32q81 41 100 49t33 8z" />
<glyph horiz-adv-x="473" d="M161 77h235l1 -17q0 -28 -15 -60h-374v11q0 52 52 89q182 130 232 178.5t50 110.5q0 38 -24.5 60.5t-70.5 22.5q-72 0 -132 -55q-32 11 -41 49q31 34 81.5 58t104.5 24q75 0 121 -37.5t46 -107.5q0 -27 -7 -51.5t-15 -43.5t-29.5 -43.5t-36 -39t-51 -42.5t-57 -42.5 t-69.5 -49.5l-27 -16z" />
<glyph horiz-adv-x="461" d="M302 258q83 -43 83 -128q0 -91 -58.5 -149.5t-157.5 -58.5q-123 0 -178 64q14 35 46 53q31 -27 58.5 -38.5t75.5 -11.5q57 0 94.5 33t37.5 94q0 106 -137 106q-4 34 11 63q77 0 110.5 33t33.5 81q0 34 -22 55.5t-60 21.5q-70 0 -123 -51q-37 11 -42 46q66 76 170 76 q69 0 114 -34.5t45 -97.5q0 -103 -101 -157z" />
<glyph horiz-adv-x="513" d="M447 115q0 -38 -14 -69h-75l-22 -125q-20 -3 -40 -3t-39 3l22 125h-282q-3 10 -3 24q0 34 28 65l347 398q17 3 38 3q22 0 37 -3l-74 -418h77zM96 115h195l49 277l5 21l-16 -21z" />
<glyph horiz-adv-x="483" d="M175 -79q-120 0 -177 62q18 43 52 62q14 -20 49 -36.5t89 -16.5q62 0 99.5 34.5t37.5 92.5q0 70 -57 97t-204 27l51 290h334v-10q0 -35 -12 -67h-257l-24 -137q121 -4 187.5 -44.5t66.5 -131.5q0 -103 -62.5 -162.5t-172.5 -59.5z" />
<glyph horiz-adv-x="499" d="M480 589q-263 -86 -335 -253q60 47 135 47q78 0 122.5 -45t44.5 -130q0 -94 -65 -158t-159 -64q-86 0 -136 51t-50 147q0 85 35 162t94.5 136t134.5 103t160 69q23 -20 19 -65zM256 311q-70 0 -134 -57q-4 -24 -4 -57q0 -67 30 -103.5t83 -36.5q58 0 98 38t40 100 q0 63 -32.5 89.5t-80.5 26.5z" />
<glyph horiz-adv-x="459" d="M471 532l1 -10q0 -48 -35 -100l-356 -525q-43 8 -61 39l354 516h-307v9q0 32 14 71h390z" />
<glyph horiz-adv-x="491" d="M329 333q93 -68 93 -152q0 -96 -63 -147.5t-153 -51.5q-49 0 -87 12t-65 44.5t-27 83.5q0 67 46 119.5t109 88.5q-83 66 -83 146q0 82 58.5 135t147.5 53q70 0 115.5 -38t45.5 -103q0 -67 -41 -114.5t-96 -75.5zM295 591q-51 0 -82.5 -26.5t-31.5 -74.5q0 -63 91 -120 l1 -1q61 31 88 60t27 75q0 40 -24.5 63.5t-68.5 23.5zM216 52q53 0 88 27.5t35 84.5q0 41 -26 69.5t-75 57.5h-1q-52 -25 -89.5 -65t-37.5 -86q0 -45 30 -66.5t76 -21.5z" />
<glyph horiz-adv-x="498" d="M268 547q85 0 133.5 -56t48.5 -143q0 -98 -23 -173t-60 -121t-91.5 -75.5t-110 -41.5t-123.5 -15q-11 33 6 72q61 4 105.5 13.5t87.5 32t71.5 64t42.5 102.5q-63 -44 -136 -44t-120.5 44.5t-47.5 120.5q0 95 59.5 157.5t157.5 62.5zM236 231q60 0 130 44q2 38 2 60 q0 65 -29 103t-80 38q-60 0 -95 -37t-35 -100q0 -53 30.5 -80.5t76.5 -27.5z" />
<glyph d="M241 -16q-187 0 -187 242q0 119 29.5 214t92.5 154.5t152 59.5q184 0 184 -240q0 -119 -28.5 -214t-91 -155.5t-151.5 -60.5zM253 56q40 0 71.5 30t48.5 72.5t27.5 96.5t13.5 93t3 71q0 163 -102 163q-51 0 -86.5 -42.5t-51.5 -107.5t-22 -116.5t-6 -95.5 q0 -164 104 -164z" />
<glyph d="M435 69q4 -33 -12 -69h-343q-3 33 11 69h135l81 463l-149 -67q-25 29 -22 71l219 106q12 4 27 4q17 0 26 -4l-102 -573h129z" />
<glyph d="M205 80h253q4 -49 -14 -80h-400v11q0 42 48 87q76 74 111 108.5t78 79t58.5 65.5t32 48.5t20.5 46.5t4 44q0 39 -27 62.5t-74 23.5q-10 0 -20 -1.5t-18.5 -3t-17.5 -5.5t-15 -6t-15 -8t-13 -8.5t-12 -9t-10.5 -8.5t-11 -9.5t-9.5 -8.5q-40 10 -51 50q34 40 87.5 68 t115.5 28q72 0 122.5 -40t50.5 -113q0 -48 -16.5 -92.5t-52.5 -90t-73.5 -84.5t-97.5 -96q-23 -22 -35 -33l-29 -26z" />
<glyph d="M201 -14q-64 0 -107 18.5t-62 43.5q18 40 56 61q51 -51 119 -51q79 0 125.5 42.5t46.5 116.5q0 125 -164 125h-22v9q0 25 32 56l154 154h-254q-1 4 -1 16q0 29 15 65h373q-3 -52 -42 -89l-154 -150q57 -6 102.5 -51t45.5 -117q0 -118 -75 -183.5t-188 -65.5z" />
<glyph d="M423 246h67q0 -18 -3 -34q-3 -18 -11 -38h-65l-31 -174q-20 -3 -40 -3t-39 3l31 174h-281q-19 66 37 146l239 344q35 -8 69 -30l-225 -329q-25 -36 -29 -59h202l26 147q21 3 40 3q21 0 39 -3z" />
<glyph d="M219 -14q-116 0 -183 62q19 42 56 61q63 -52 134 -52q79 0 120 44.5t41 114.5q0 122 -118 122q-30 0 -78 -12.5t-71 -12.5q-13 0 -23 4l58 325h354v-12q0 -30 -13 -68h-276l-29 -163q40 18 90 18q94 0 142.5 -47t48.5 -135q0 -113 -64 -181t-189 -68z" />
<glyph d="M500 599q-261 -64 -332 -240q64 42 137 42q83 0 131.5 -47t48.5 -131q0 -107 -62.5 -172.5t-163.5 -65.5q-95 0 -148.5 54.5t-53.5 157.5q0 84 24.5 156t65.5 123.5t96.5 91.5t114.5 63.5t123 36.5q23 -26 19 -69zM288 325q-74 0 -141 -47q-5 -33 -5 -65q0 -74 32 -115.5 t90 -41.5q63 0 101.5 40t38.5 113q0 61 -33 88.5t-83 27.5z" />
<glyph d="M549 642q1 -3 1 -15q0 -43 -36 -98l-354 -545q-45 8 -64 39l351 539h-338q0 20 3 40q2 9 11 40h426z" />
<glyph d="M375 336q87 -62 87 -145q0 -53 -20.5 -94.5t-54 -65t-71.5 -35t-79 -11.5q-81 0 -134.5 37.5t-53.5 114.5q0 118 147 212q-68 54 -68 129q0 79 59 131t144 52q76 0 120.5 -38.5t44.5 -101.5q0 -108 -121 -185zM318 589q-48 0 -78.5 -27.5t-30.5 -68.5q0 -37 24.5 -62.5 t71.5 -51.5q10 -6 16 -9q50 33 72.5 62t22.5 74q0 38 -27 60.5t-71 22.5zM249 57q56 0 94 29t38 88q0 44 -30 73.5t-83 56.5l-10 5l-10 5q-117 -71 -117 -162q0 -48 33.5 -71.5t84.5 -23.5z" />
<glyph d="M303 661q92 0 145 -59.5t53 -170.5q0 -217 -111 -331.5t-307 -114.5q-9 27 6 70q115 2 196.5 56t114.5 162q-52 -36 -128 -36q-88 0 -139 52.5t-51 141.5q0 100 63 165t158 65zM288 308q72 0 128 42q4 29 4 70q0 84 -34 127t-90 43q-58 0 -96.5 -39.5t-38.5 -108.5 q0 -63 38 -98.5t89 -35.5z" />
<glyph horiz-adv-x="615" d="M534 274q0 -85 -48 -153l54 -54q-18 -35 -49 -48l-53 52q-64 -51 -151 -51q-73 0 -128 41l-42 -42q-31 13 -49 48l44 44q-34 54 -34 123q0 87 45 152l-55 55q15 34 49 49l53 -53q66 53 150 53q75 0 130 -41l41 41q34 -15 49 -49l-42 -42q36 -53 36 -125zM157 244 q0 -64 38 -106t99 -42q72 0 115.5 49.5t43.5 120.5q0 66 -39 108t-101 42q-70 0 -113 -48t-43 -124z" />
<glyph horiz-adv-x="460" d="M391 409q-43 38 -98 45l-27 -151q31 -8 51 -16.5t42 -24t33 -40.5t11 -60q0 -75 -52 -120t-140 -52l-19 -106q-5 -2 -29 -2q-25 0 -31 2l19 106q-55 5 -94 27t-57 45q17 38 58 59q36 -47 106 -58l30 171q-31 8 -50.5 15t-41.5 21t-32.5 36t-10.5 53q0 69 50 114t137 53 l18 103q5 2 30 2t30 -2l-18 -102q87 -7 135 -57q-11 -40 -50 -61zM142 381q0 -25 17 -39t50 -24l24 136q-44 -4 -67.5 -24t-23.5 -49zM320 149q0 49 -69 70l-27 -156q45 6 70.5 28.5t25.5 57.5z" />
<glyph horiz-adv-x="486" d="M298 478q-45 0 -75 -31t-30 -91q0 -24 -2 -62h154q1 -34 -12 -68h-149q-9 -55 -26.5 -101t-17.5 -55h273q4 -37 -12 -70h-359q0 51 27 113t36 113h-67q-1 34 12 68h62q2 34 2 55q0 92 54.5 145.5t135.5 53.5q103 0 156 -71q-17 -36 -56 -52q-41 53 -106 53z" />
<glyph horiz-adv-x="507" d="M527 524l-204 -251h82v-11q0 -26 -11 -52h-116l-10 -59h116v-11q0 -22 -11 -52h-117l-15 -88q-17 -4 -41 -4q-22 0 -41 4l15 88h-117v11q0 24 11 52h118l10 59h-118v11q0 24 11 52h89l-111 251q26 7 47 7q34 0 51 -3l82 -217l7 -22l14 22l174 217q15 3 46 3q18 0 39 -7z " />
<glyph horiz-adv-x="816" d="M828 393q9 -36 -7 -71q-84 -1 -170 -11v-16q0 -142 -93 -226.5t-234 -84.5q-133 0 -206 69.5t-73 185.5q0 107 62.5 177t166.5 70q141 0 182 -139q34 7 104 19q-15 68 -65 143q38 25 82 20q49 -73 65 -152q86 11 186 16zM266 413q-64 0 -99.5 -41t-39.5 -116 q119 42 245 72q-27 85 -106 85zM568 287v13q-200 -29 -436 -111q15 -62 65 -97t133 -35q106 0 172 62t66 168z" />
<glyph horiz-adv-x="236" d="M162 674q-16 13 -19 35l169 111q33 -22 36 -74z" />
<glyph horiz-adv-x="303" d="M300 805l90 -83q-9 -24 -34 -42l-90 62l-114 -62q-21 16 -25 41l116 84q30 7 57 0z" />
<glyph horiz-adv-x="333" d="M196 696q-22 0 -37 15t-15 37q0 21 15 36t37 15q21 0 36 -15t15 -36q0 -22 -15 -37t-36 -15zM378 696q-21 0 -36 15t-15 37q0 21 15 36t36 15q22 0 37 -15t15 -36q0 -22 -15 -37t-37 -15z" />
<glyph horiz-adv-x="241" d="M311 670l-162 79q11 51 53 74l133 -116q-7 -25 -24 -37z" />
<glyph horiz-adv-x="324" d="M153 713q0 35 11 67h256q0 -39 -12 -67h-255z" />
<glyph horiz-adv-x="360" d="M189 686q-39 0 -57 21q18 43 48 66.5t65 23.5q28 0 67 -19t52 -19q37 0 53 42q40 0 56 -21q-14 -42 -44 -66t-66 -24q-26 0 -63.5 18.5t-55.5 18.5q-39 0 -55 -41z" />
<glyph horiz-adv-x="230" d="M172 551q-24 0 -41 17t-17 41q0 23 17 40t41 17t41 -17t17 -40q0 -24 -17 -41t-41 -17zM67 -4q-23 0 -40 4l83 472q19 4 41 4q23 0 40 -4l-84 -472q-17 -4 -40 -4z" />
<glyph horiz-adv-x="540" d="M384 548q97 0 149 -50q-17 -36 -48 -54q-47 37 -113 37q-120 0 -172 -118h164q2 -29 -11 -63h-172q-5 -25 -7 -59h150q2 -32 -11 -63h-138q18 -124 139 -124q64 0 119 40q26 -23 27 -55q-61 -53 -158 -53q-93 0 -147 49.5t-62 142.5h-74q-2 34 11 63h63q4 40 8 59h-42 q-2 32 11 63h51q34 85 103.5 135t159.5 50z" />
</font>
</defs>
</svg>
