<?xml version="1.0" standalone="no"?>
<!DOCTYPE svg PUBLIC "-//W3C//DTD SVG 1.1//EN" "http://www.w3.org/Graphics/SVG/1.1/DTD/svg11.dtd" >
<svg xmlns="http://www.w3.org/2000/svg">
<metadata></metadata>
<defs>
<font id="brandinglightitalic" horiz-adv-x="530" >
<font-face units-per-em="1000" ascent="770" descent="-230" />
<missing-glyph horiz-adv-x="253" />
<glyph unicode="&#xfb01;" horiz-adv-x="503" d="M333 625q-139 0 -165 -144l-2 -14h286l-82 -467q-9 -3 -19 -3t-19 3l78 436l-249 1l-72 -437q-7 -3 -19 -3q-10 0 -18 3l73 437h-69v13q1 7 5 17h69l2 9q17 98 73 141t134 43q89 0 132 -51q-6 -21 -27 -26q-45 42 -111 42z" />
<glyph unicode="&#xfb02;" horiz-adv-x="560" d="M500 55q16 -9 18 -26q-42 -36 -94 -36q-46 0 -70 26.5t-15 76.5l88 510q-43 19 -92 19q-60 0 -105.5 -35.5t-58.5 -113.5l-2 -9h138q1 -2 1 -8q0 -11 -6 -23l-138 1l-77 -437q-9 -3 -19 -3q-11 0 -17 3l77 437h-69v13q1 7 5 17h69l1 5q17 96 75.5 142t132.5 46 q75 0 125 -31l-91 -530q-6 -35 8.5 -53.5t45.5 -18.5q36 0 70 28z" />
<glyph horiz-adv-x="0" />
<glyph horiz-adv-x="333" />
<glyph unicode=" "  horiz-adv-x="253" />
<glyph unicode="&#x09;" horiz-adv-x="253" />
<glyph unicode="&#xa0;" horiz-adv-x="253" />
<glyph unicode="!" horiz-adv-x="225" d="M90 148q-3 0 -11 2q31 220 78 495q8 2 21 2t19 -2q-49 -280 -97 -495q-6 -2 -10 -2zM69 -9q-14 0 -24 10t-10 24q0 13 10 23t24 10q13 0 23 -10t10 -23q0 -14 -9.5 -24t-23.5 -10z" />
<glyph unicode="&#x22;" horiz-adv-x="282" d="M119 461q-7 0 -10 2l23 192q13 5 22 5q11 0 21 -5l-45 -192q-4 -2 -11 -2zM226 460q-6 0 -10 3l23 192q9 4 22 4t21 -4l-46 -193q-6 -2 -10 -2z" />
<glyph unicode="#" horiz-adv-x="622" d="M600 380h-117l-79 -196h104q-1 -18 -13 -32h-104l-81 -199q-20 -6 -35 0l80 199h-192l-81 -199q-20 -6 -35 0l80 199h-115q0 17 12 32h116l79 196h-103q2 18 13 32h103l82 203q20 4 36 0l-82 -203h192l82 203q20 4 36 0l-82 -203h117q-2 -18 -13 -32zM368 184l79 196 h-192l-79 -196h192z" />
<glyph unicode="$" horiz-adv-x="462" d="M311 605q81 -5 134 -48q-8 -20 -23 -29q-52 38 -117 42l-39 -222q31 -8 51 -16t41.5 -23t32 -41t10.5 -62q0 -76 -50 -120.5t-140 -47.5l-15 -87q-10 -2 -16 -2q-7 0 -15 2l15 87q-108 5 -160 61q7 19 26 29q47 -51 140 -56l44 246q-36 9 -54 15t-42.5 20t-35.5 37.5 t-11 58.5q0 70 54 112t139 45l15 84q8 2 16 2q7 0 15 -2zM127 452q0 -24 8 -40.5t25.5 -27.5t33 -16.5t42.5 -12.5l38 216q-67 -3 -107 -34t-40 -85zM363 201q0 49 -27 73t-77 37l-42 -239q73 3 109.5 37.5t36.5 91.5z" />
<glyph unicode="%" horiz-adv-x="713" d="M62 -47l546 689q23 6 40 0l-546 -689q-26 -5 -40 0zM191 349q-58 0 -88 33.5t-30 87.5q0 75 42 120t106 45q57 0 87.5 -33.5t30.5 -86.5q0 -76 -41 -121t-107 -45zM196 380q50 0 80 35.5t30 96.5q0 42 -22 67.5t-68 25.5q-48 0 -79.5 -36.5t-31.5 -96.5q0 -41 23.5 -66.5 t67.5 -25.5zM506 -7q-58 0 -88 33.5t-30 87.5q0 75 42 120t106 45q57 0 87.5 -33.5t30.5 -87.5q0 -75 -41.5 -120t-106.5 -45zM511 24q50 0 80 35.5t30 95.5q0 93 -90 93q-48 0 -79.5 -36t-31.5 -96q0 -41 23.5 -66.5t67.5 -25.5z" />
<glyph unicode="&#x26;" horiz-adv-x="581" d="M565 350q0 -12 -7 -26h-106l-52 -298q-80 -37 -173 -37q-90 0 -139.5 40t-49.5 112q0 78 47 129.5t119 70.5q-85 29 -85 125q0 82 58.5 132.5t144.5 50.5q92 0 137 -50q-9 -16 -26 -27q-42 44 -116 44q-69 0 -115 -41.5t-46 -104.5q0 -111 141 -112h267zM367 48l49 276 h-130q-98 -1 -154 -51.5t-56 -126.5q0 -58 41 -91t116 -33q78 0 134 26z" />
<glyph unicode="'" horiz-adv-x="175" d="M119 461q-7 0 -10 2l23 192q12 5 22 5q11 0 21 -5l-45 -192q-4 -2 -11 -2z" />
<glyph unicode="(" horiz-adv-x="241" d="M89 -174q-48 126 -48 267q0 316 199 591q18 -2 25 -16q-86 -125 -135 -276t-49 -295q0 -140 39 -259q-9 -14 -31 -12z" />
<glyph unicode=")" horiz-adv-x="240" d="M-6 -175q-18 2 -25 16q86 125 135.5 276t49.5 295q0 141 -40 259q11 14 31 12q48 -128 48 -267q0 -316 -199 -591z" />
<glyph unicode="*" horiz-adv-x="333" d="M232 545q0 -3 -2 -9l73 -37q-4 -22 -23 -33l-59 58q-8 -4 -12 -4l-13 -83q-24 -1 -38 13l37 74q-8 6 -10 13l-81 -14q-9 21 0 40l81 -13q2 10 9 14l-38 73q17 16 38 13l14 -81q6 0 14 -4l57 58q20 -12 24 -32l-72 -38q1 -3 1 -8z" />
<glyph unicode="+" horiz-adv-x="465" d="M414 260q1 -4 -1 -16t-5 -17h-167l-31 -176q-7 -3 -17.5 -2.5t-15.5 3.5l31 175h-166q-4 18 6 33h166l31 176q5 2 16.5 2t15.5 -2l-31 -176h168z" />
<glyph unicode="," horiz-adv-x="191" d="M-4 -131q-13 2 -15 14q29 32 46.5 81t17.5 98q0 22 -4 33q27 8 46 -3q1 -2 1 -17q0 -61 -29.5 -118t-62.5 -88z" />
<glyph unicode="-" horiz-adv-x="370" d="M69 235v10q0 12 6 22h218v-7q0 -13 -6 -25h-218z" />
<glyph unicode="." horiz-adv-x="203" d="M68 -9q-15 0 -25.5 10.5t-10.5 25.5q0 14 10.5 25t25.5 11t25.5 -11t10.5 -25q0 -15 -10.5 -25.5t-25.5 -10.5z" />
<glyph unicode="/" horiz-adv-x="477" d="M-33 -182q-8 0 -18 2l532 848q9 3 19 3q9 0 18 -3l-532 -848q-14 -2 -19 -2z" />
<glyph unicode="0" horiz-adv-x="578" d="M256 -11q-97 0 -144 64.5t-47 178.5q0 184 74 306.5t202 122.5q95 0 141.5 -63.5t46.5 -176.5q0 -123 -28 -218t-91 -154.5t-154 -59.5zM261 25q64 0 111 34.5t71 94t35 124.5t11 140q0 207 -154 207q-60 0 -106 -35t-72 -93t-39 -124.5t-13 -138.5q0 -209 156 -209z" />
<glyph unicode="1" horiz-adv-x="317" d="M270 649q11 0 14 -2l-114 -647q-9 -3 -20 -3q-10 0 -17 3l106 600l-158 -79q-14 13 -13 32q184 92 190 94t12 2z" />
<glyph unicode="2" horiz-adv-x="507" d="M85 36h353q2 -19 -7 -36h-406q-2 6 -2 14q0 23 26 45q225 182 296 263t71 162q0 67 -38.5 102t-104.5 35q-91 0 -164 -79q-19 4 -23 22q80 93 192 93q79 0 128.5 -42.5t49.5 -126.5q0 -35 -7.5 -65t-30 -64.5t-45.5 -62t-73 -72.5t-92.5 -80t-123.5 -100l-12 -9z" />
<glyph unicode="3" horiz-adv-x="498" d="M106 642h367q0 -26 -23 -48l-207 -200q83 -2 137.5 -48t54.5 -129q0 -108 -67 -167.5t-170 -59.5q-126 0 -181 64q6 19 23 28q63 -58 163 -58q86 0 140 50t54 137q0 76 -51.5 115t-141.5 39h-16v6q0 12 16 29l209 205h-314q-2 21 7 37z" />
<glyph unicode="4" horiz-adv-x="490" d="M374 222h80q0 -9 -1 -13q0 -11 -6 -21h-79l-32 -188q-12 -2 -18 -2q-7 0 -17 2l32 188h-310q-11 37 19 79l281 396q18 -1 30 -18l-276 -387q-15 -21 -14 -36h276l27 160q14 2 19 2q7 0 17 -2z" />
<glyph unicode="5" horiz-adv-x="494" d="M190 -14q-111 0 -171 55q8 20 25 29q48 -50 149 -50q89 0 144 53.5t55 144.5q0 149 -155 149q-41 0 -83.5 -14t-50.5 -14q-9 0 -15 3l53 300h330q0 -24 -6 -37h-293l-41 -227q53 25 111 25q188 0 188 -179q0 -110 -68 -174t-172 -64z" />
<glyph unicode="6" horiz-adv-x="516" d="M484 619q-126 -19 -236.5 -102t-145.5 -217q77 79 177 79q77 0 126.5 -43.5t49.5 -127.5q0 -101 -62 -162t-154 -61q-90 0 -139.5 55t-49.5 152q0 78 25 147.5t67.5 121.5t98 93t115.5 65.5t122 33.5q10 -10 6 -34zM272 343q-100 0 -178 -85q-5 -35 -5 -64q0 -83 40 -129 t115 -46t123.5 50t48.5 131q0 71 -41.5 107t-102.5 36z" />
<glyph unicode="7" horiz-adv-x="461" d="M498 641q4 -21 -20 -57l-384 -596q-22 3 -31 18l386 598h-370q-1 20 7 37h412z" />
<glyph unicode="8" horiz-adv-x="519" d="M344 332q97 -51 97 -144q0 -68 -34.5 -114.5t-83 -65.5t-106.5 -19q-181 0 -181 147q0 73 51 130t118 85q-87 44 -87 128q0 76 57 127.5t146 51.5q77 0 121 -38.5t44 -100.5q0 -64 -42.5 -111.5t-99.5 -75.5zM156 486q0 -49 31.5 -77t97.5 -52q5 -2 13 -5.5t13 -4.5 q137 66 137 165q0 50 -35 80.5t-98 30.5q-71 0 -115 -39t-44 -98zM222 23q76 0 129 39t53 120q0 54 -35 86t-98 55l-31 12q-64 -22 -115 -75t-51 -119q0 -118 148 -118z" />
<glyph unicode="9" horiz-adv-x="519" d="M285 658q92 0 142 -61.5t50 -170.5q0 -119 -32 -206t-89.5 -137t-128.5 -73.5t-157 -23.5q-2 6 -2 12q0 10 6 22q141 1 235.5 70t120.5 219q-79 -61 -170 -61q-83 0 -134.5 46t-51.5 137q0 103 60 165t151 62zM268 282q86 0 167 65q4 31 4 74q0 95 -41.5 149t-117.5 54 q-71 0 -120 -49.5t-49 -137.5q0 -79 44 -117t113 -38z" />
<glyph unicode=":" horiz-adv-x="221" d="M131 358q-14 0 -25 10.5t-11 25.5t11 26t25 11q16 0 26.5 -11t10.5 -26t-10.5 -25.5t-26.5 -10.5zM71 11q-15 0 -26 10.5t-11 26.5q0 15 11 26t26 11q16 0 26.5 -11t10.5 -26q0 -16 -10.5 -26.5t-26.5 -10.5z" />
<glyph unicode=";" horiz-adv-x="245" d="M132 328q-15 0 -26 11t-11 26t11.5 26t25.5 11q16 0 26.5 -11t10.5 -26q0 -16 -10.5 -26.5t-26.5 -10.5zM35 -131q-5 0 -9 4t-4 9q28 32 45 81t17 99q0 22 -3 32q25 9 47 -2v-17q0 -60 -30 -117t-63 -89z" />
<glyph unicode="&#x3c;" horiz-adv-x="531" d="M497 410l-413 -172l-16 -4l15 -5l348 -171q-4 -19 -19 -32l-380 185v5v6v5q0 10 7 29l451 186q9 -12 7 -32z" />
<glyph unicode="=" horiz-adv-x="492" d="M82 298v7q0 12 6 27h337v-7q0 -12 -6 -27h-337zM53 133v7q0 12 6 26h337v-6q0 -12 -6 -27h-337z" />
<glyph unicode="&#x3e;" horiz-adv-x="531" d="M101 442l385 -186v-9q0 -17 -9 -36l-445 -185q-10 12 -8 32l409 171l16 5l-15 4l-351 172q5 21 18 32z" />
<glyph unicode="?" horiz-adv-x="390" d="M143 157q-8 0 -12 2q4 46 21 82t40.5 56.5t49.5 42t48 39t36.5 46t14.5 64.5q0 53 -32.5 83t-89.5 30q-62 0 -113 -36q-17 8 -17 24q60 48 133 48t115.5 -38.5t42.5 -106.5q0 -48 -20.5 -84t-51 -60t-61.5 -47.5t-55.5 -59.5t-29.5 -83q-6 -2 -19 -2zM132 -9 q-13 0 -23 10t-10 24q0 13 10 23t23 10q14 0 24 -9.5t10 -23.5t-10 -24t-24 -10z" />
<glyph unicode="@" horiz-adv-x="788" d="M454 631q139 0 216 -79t77 -216q0 -110 -51 -186t-126 -76q-40 0 -60.5 22t-21.5 60q-54 -66 -135 -66q-54 0 -88 35.5t-34 100.5q0 101 62.5 163t150.5 62q65 0 118 -43l-38 -217q-15 -85 55 -85q54 0 92.5 64.5t38.5 159.5q0 125 -68.5 195.5t-193.5 70.5 q-154 0 -257.5 -114.5t-103.5 -275.5q0 -117 67 -192t188 -75q75 0 144 30q12 -11 9 -31q-73 -34 -159 -34q-135 0 -211 84t-76 214q0 177 117.5 303t287.5 126zM359 123q84 0 132 79l35 188q-42 29 -89 29q-70 0 -120 -52t-50 -135q0 -50 25.5 -79.5t66.5 -29.5z" />
<glyph unicode="A" horiz-adv-x="556" d="M359 642l132 -639q-11 -6 -26 -6q-7 0 -13 2l-41 205h-288l-111 -205q-4 -1 -14 -1q-14 0 -24 5l348 639q6 2 19 2q12 0 18 -2zM141 238h263l-65 323l-6 37l-18 -38z" />
<glyph unicode="B" horiz-adv-x="552" d="M364 332q119 -25 119 -138q0 -95 -68.5 -150.5t-195.5 -55.5q-98 0 -170 12l112 635q68 13 156 13q92 0 139.5 -35.5t47.5 -101.5q0 -136 -140 -179zM466 503q0 112 -154 112q-70 0 -118 -8l-46 -261h118q94 0 147 45t53 112zM222 22q108 0 165 46t57 119q0 125 -163 125 h-139l-50 -281q68 -9 130 -9z" />
<glyph unicode="C" horiz-adv-x="581" d="M310 -12q-118 0 -183.5 72.5t-65.5 194.5q0 175 97.5 288t247.5 113q118 0 185 -67q-9 -19 -26 -28q-62 60 -165 60q-133 0 -216 -102t-83 -260q0 -109 56.5 -172t158.5 -63q110 0 181 61q17 -5 19 -25q-83 -72 -206 -72z" />
<glyph unicode="D" horiz-adv-x="650" d="M312 651q142 0 218 -72t76 -201q0 -76 -25 -145t-72.5 -123.5t-124 -86.5t-172.5 -32t-162 10l112 637q80 13 150 13zM219 26q85 0 152.5 28.5t109 77t63.5 110t22 131.5q0 116 -66.5 179t-193.5 63q-62 0 -111 -7l-102 -574q55 -8 126 -8z" />
<glyph unicode="E" horiz-adv-x="513" d="M514 607h-321l-45 -255h291q2 -17 -6 -35h-291l-50 -282h334q3 -18 -7 -35h-370l114 642h357q3 -18 -6 -35z" />
<glyph unicode="F" horiz-adv-x="486" d="M515 607h-321l-49 -277h287q1 -17 -6 -34h-287l-52 -296q-11 -3 -20 -3t-18 3l114 642h359q2 -18 -7 -35z" />
<glyph unicode="G" horiz-adv-x="621" d="M415 656q118 0 184 -74q-7 -18 -26 -29q-62 67 -166 67q-138 0 -222 -100.5t-84 -262.5q0 -108 54.5 -170.5t163.5 -62.5q94 0 164 35l38 212h-161q-3 15 6 35h198l-48 -268q-95 -50 -204 -50q-123 0 -186.5 71.5t-63.5 194.5q0 178 98.5 290t254.5 112z" />
<glyph unicode="H" horiz-adv-x="657" d="M606 645q10 0 18 -3l-113 -642q-9 -3 -18 -3q-11 0 -20 3l56 314h-387l-55 -314q-9 -3 -20 -3q-9 0 -18 3l114 642q7 3 18 3t19 -3l-52 -294h387l52 294q9 3 19 3z" />
<glyph unicode="I" horiz-adv-x="233" d="M68 -3q-10 0 -18 3l113 642q9 3 19 3t18 -3l-113 -642q-9 -3 -19 -3z" />
<glyph unicode="J" horiz-adv-x="355" d="M72 -16q-64 0 -100 40q8 20 23 29q36 -34 82 -34q45 0 80.5 30.5t47.5 97.5l87 495q7 3 19 3q11 0 18 -3l-87 -493q-30 -165 -170 -165z" />
<glyph unicode="K" horiz-adv-x="541" d="M575 642q-149 -194 -323 -308q85 -159 231 -332q-12 -4 -34 -4q-9 0 -13 1q-138 173 -216 314q-42 -26 -86 -49l-47 -264q-9 -3 -20 -3q-9 0 -17 3l113 642q9 3 19 3t18 -3l-59 -337q120 66 208.5 142t184.5 196q6 1 19 1q15 0 22 -2z" />
<glyph unicode="L" horiz-adv-x="453" d="M399 33q4 -17 -6 -34h-344l114 643q9 3 19 3q9 0 18 -3l-108 -609h307z" />
<glyph unicode="M" horiz-adv-x="751" d="M695 644q13 0 24 -4l-113 -640q-9 -3 -19 -3q-9 0 -18 3l93 522l9 42l-12 -23l-299 -479q-12 -2 -17 -2q-4 0 -16 2l-137 486l-5 22l-6 -43l-93 -527q-9 -3 -19 -3q-9 0 -18 3l113 640q12 5 27 5q7 0 10 -1l146 -512l6 -27l16 27l317 511q3 1 11 1z" />
<glyph unicode="N" horiz-adv-x="652" d="M601 646q11 0 18 -3l-113 -640q-17 -5 -35 -5l-275 562l-9 22l-3 -26l-98 -556q-9 -3 -19 -3q-9 0 -17 3l112 639q18 9 36 5l276 -567l7 -17l3 23l99 560q9 3 18 3z" />
<glyph unicode="O" horiz-adv-x="679" d="M309 -11q-117 0 -182 72.5t-65 193.5q0 177 90 289t231 112q118 0 184 -73.5t66 -193.5q0 -182 -88.5 -291t-235.5 -109zM316 24q129 0 203 100t74 264q0 106 -56.5 169.5t-159.5 63.5q-124 0 -199.5 -102.5t-75.5 -260.5q0 -109 55.5 -171.5t158.5 -62.5z" />
<glyph unicode="P" horiz-adv-x="533" d="M320 653q101 0 153.5 -45.5t52.5 -129.5q0 -106 -69 -172t-205 -66q-71 0 -121 10l-44 -250q-9 -3 -20 -3t-18 3l111 630h1q71 23 159 23zM257 274q117 0 173 55t56 143q0 69 -43.5 107.5t-128.5 38.5q-65 0 -121 -13l-56 -320q44 -11 120 -11z" />
<glyph unicode="Q" horiz-adv-x="679" d="M407 4q110 -34 165 -155q-13 -12 -35 -15q-32 73 -85.5 114t-149.5 41q-114 2 -177 74t-63 192q0 177 90 289t231 112q118 0 184 -73.5t66 -193.5q0 -149 -60.5 -250.5t-165.5 -134.5zM102 258q0 -109 55.5 -171.5t158.5 -62.5q129 0 203 100t74 264q0 106 -56.5 169.5 t-159.5 63.5q-124 0 -199.5 -102.5t-75.5 -260.5z" />
<glyph unicode="R" horiz-adv-x="543" d="M510 496q0 -93 -55 -151t-146 -72q74 -154 170 -271q-13 -3 -29 -3h-13q-94 116 -167 270h-18q-78 0 -118 5l-48 -274q-8 -3 -19 -3t-18 3l111 632q76 21 160 21q96 0 143 -43t47 -114zM141 310q37 -7 118 -7q104 0 159 53t55 136q0 55 -40 90.5t-120 35.5 q-64 0 -120 -13z" />
<glyph unicode="S" horiz-adv-x="501" d="M205 -14q-134 0 -197 76q7 19 27 28q55 -68 175 -68q86 0 135 41t49 108q0 50 -30 81.5t-73 48t-86.5 33.5t-73.5 52t-30 90q0 82 58.5 130t154.5 48q120 0 177 -64q-9 -21 -27 -29q-58 58 -154 58q-77 0 -124 -38t-47 -103q0 -39 21.5 -65.5t54.5 -39.5t70.5 -29 t70.5 -32.5t54.5 -51t21.5 -83.5q0 -85 -61.5 -138t-165.5 -53z" />
<glyph unicode="T" horiz-adv-x="506" d="M553 642q2 -17 -6 -34h-218l-106 -608q-11 -3 -20 -3t-18 3l107 608h-216q-3 14 6 34h471z" />
<glyph unicode="U" horiz-adv-x="642" d="M278 -12q-98 0 -148 50.5t-50 140.5q0 29 7 73l68 390q10 3 20 3q11 0 18 -3l-68 -390q-7 -40 -7 -67q0 -74 41 -117t127 -43q104 0 155 58.5t70 166.5l69 392q9 3 19 3q11 0 18 -3l-70 -396q-21 -122 -84 -190t-185 -68z" />
<glyph unicode="V" horiz-adv-x="569" d="M568 645q12 1 21 -4q-49 -187 -129.5 -345.5t-214.5 -296.5q-9 -3 -21 -3t-21 3q-94 268 -115 642q12 4 22 4q13 0 17 -2q19 -361 105 -612q223 243 319 612q10 2 17 2z" />
<glyph unicode="W" horiz-adv-x="874" d="M879 645q14 0 20 -3q-95 -358 -318 -643q-12 -3 -22 -3q-11 0 -20 3q-52 239 -56 471q0 10 -0.5 31t-0.5 31l-18 -61q-84 -261 -249 -472q-12 -3 -22 -3q-11 0 -23 3q-63 249 -72 643q10 4 24 4q9 0 15 -2q3 -343 63 -615q201 282 277 597q10 2 19 2q10 0 16 -2 q-3 -290 55 -595q213 288 295 613q5 1 17 1z" />
<glyph unicode="X" horiz-adv-x="536" d="M574 642l-272 -320l163 -320q-12 -3 -29 -3h-12l-151 299l-258 -299h-19q-16 0 -26 3l284 328l-152 312q12 4 29 4h12l141 -292l246 292h11q24 0 33 -4z" />
<glyph unicode="Y" d="M576 642l-292 -376l-47 -266q-9 -3 -19 -3t-18 3l47 268l-166 374q16 4 26 4t13 -1l146 -329l5 -14l9 14l255 329q5 1 17 1q10 0 24 -4z" />
<glyph unicode="Z" horiz-adv-x="524" d="M528 591l-474 -539l-18 -18h415q2 -16 -6 -34h-452q-2 4 -2 13q0 18 15 35l473 538l20 22h-401q-3 19 6 34h440l1 -10q0 -20 -17 -41z" />
<glyph unicode="[" horiz-adv-x="261" d="M292 653h-92l-141 -800h92q3 -16 -6 -34h-129l153 868h129q3 -18 -6 -34z" />
<glyph unicode="\" horiz-adv-x="454" d="M335 -182q-8 0 -18 2l-231 809q12 2 19 2t17 -2l231 -809q-12 -2 -18 -2z" />
<glyph unicode="]" horiz-adv-x="259" d="M108 687h129l-153 -868h-129q-1 18 6 34h92l141 800h-92q-3 16 6 34z" />
<glyph unicode="^" horiz-adv-x="490" d="M98 350q-17 3 -24 16l233 310q19 4 37 0l126 -314q-12 -9 -30 -12l-119 294z" />
<glyph unicode="_" horiz-adv-x="409" d="M-56 -65q-1 2 -1 9q0 12 6 22h403l1 -7q0 -15 -7 -24h-402z" />
<glyph unicode="`" horiz-adv-x="209" d="M267 531l-129 116q10 23 29 30l116 -127q-4 -12 -16 -19z" />
<glyph unicode="a" horiz-adv-x="522" d="M322 481q94 0 149 -40l-78 -443q-17 -3 -35 0l13 89v2q-75 -99 -178 -99q-66 0 -110 45t-44 133q0 141 84.5 227t198.5 86zM201 25q48 0 97 32.5t85 94.5l47 267q-37 27 -114 27q-95 0 -166 -75t-71 -198q0 -70 33 -109t89 -39z" />
<glyph unicode="b" horiz-adv-x="528" d="M274 481q91 0 145 -51.5t54 -142.5q0 -134 -78 -215.5t-196 -81.5q-99 0 -161 38l112 629q8 3 19 3t18 -3l-35 -199q56 23 122 23zM205 25q100 0 164.5 71t64.5 184q0 77 -44 122t-124 45q-68 0 -121 -25l-66 -371q46 -26 126 -26z" />
<glyph unicode="c" horiz-adv-x="461" d="M232 -10q-86 0 -137 53t-51 146q0 134 71 213t179 79q93 0 141 -50q-8 -18 -24 -27q-51 43 -122 43q-96 0 -151 -73.5t-55 -179.5q0 -76 40 -122.5t116 -46.5q73 0 132 49q16 -10 19 -26q-67 -58 -158 -58z" />
<glyph unicode="d" horiz-adv-x="526" d="M494 661q10 0 18 -3l-111 -631q-66 -37 -157 -37q-94 0 -148.5 51.5t-54.5 144.5q0 131 80 213t202 82q69 0 117 -20l35 197q9 3 19 3zM367 47l67 377q-47 22 -114 22q-106 0 -173 -71t-67 -183q0 -78 44.5 -122.5t122.5 -44.5q69 0 120 22z" />
<glyph unicode="e" horiz-adv-x="478" d="M206 203q-68 0 -124 20q-1 -10 -1 -32q0 -80 41.5 -123.5t113.5 -43.5q78 0 140 57q17 -7 20 -26q-69 -65 -165 -65q-85 0 -136.5 50t-51.5 146q0 134 73.5 214.5t177.5 80.5q67 0 106 -34t39 -86q0 -71 -59 -114.5t-174 -43.5zM291 447q-74 0 -130.5 -51.5t-73.5 -139.5 q54 -19 123 -19q95 0 142.5 33t47.5 87q0 38 -28.5 64t-80.5 26z" />
<glyph unicode="f" horiz-adv-x="292" d="M304 660q58 0 91 -26q-5 -20 -20 -29q-35 20 -77 20q-47 0 -81 -29t-45 -92l-6 -37h141q5 -16 -5 -31l-141 1l-72 -437q-7 -3 -19 -3q-9 0 -18 3l73 437h-71q-2 18 5 30h71l5 32q14 84 59.5 122.5t109.5 38.5z" />
<glyph unicode="g" horiz-adv-x="524" d="M317 481q100 0 155 -40l-76 -436q-17 -91 -74.5 -143.5t-144.5 -52.5q-119 0 -183 75q8 18 29 26q51 -67 156 -67q68 0 117 44.5t62 117.5l7 42q-67 -42 -136 -42q-85 0 -135.5 48.5t-50.5 135.5q0 136 81 214t193 78zM238 39q67 0 134 46l59 334q-41 27 -119 27 q-96 0 -163 -67.5t-67 -184.5q0 -73 41.5 -114t114.5 -41z" />
<glyph unicode="h" horiz-adv-x="536" d="M300 481q100 0 138.5 -51t22.5 -136l-52 -294q-7 -3 -19 -3q-10 0 -18 3l51 286q13 73 -17 116.5t-113 43.5q-85 0 -146 -27l-74 -419q-7 -3 -19 -3q-10 0 -18 3l116 657q9 3 19 3q11 0 18 -3l-36 -203q66 27 147 27z" />
<glyph unicode="i" horiz-adv-x="209" d="M162 575q-14 0 -24 10.5t-10 24.5t10 24t24 10t24 -10t10 -24t-10 -24.5t-24 -10.5zM56 -3q-10 0 -18 3l82 469q9 3 20 3q10 0 18 -3l-83 -469q-9 -3 -19 -3z" />
<glyph unicode="j" horiz-adv-x="223" d="M175 573q-14 0 -24 10t-10 24t10 24.5t24 10.5t24 -10.5t10 -24.5t-10 -24t-24 -10zM-70 -195q-58 0 -97 36q7 21 23 29q35 -30 75 -30q41 0 73.5 30t42.5 94l86 502q9 3 19 3t18 -3l-86 -502q-14 -83 -55.5 -121t-98.5 -38z" />
<glyph unicode="k" horiz-adv-x="486" d="M450 359q0 -67 -47.5 -108t-122.5 -61l120 -189q-16 -4 -26 -4q-13 0 -19 1l-112 178q-9 18 -8 35q87 22 131.5 55.5t44.5 87.5q0 44 -33.5 68.5t-96.5 24.5q-78 0 -134 -28l-74 -419q-7 -3 -19 -3q-10 0 -18 3l116 657q9 3 19 3q11 0 18 -3l-35 -201q55 25 134 25 q76 0 119 -33t43 -89z" />
<glyph unicode="l" horiz-adv-x="273" d="M137 -7q-40 0 -64 20t-24 59q0 10 3 24l99 563q8 2 18 2q8 0 18 -2l-98 -560q-2 -14 -2 -19q0 -53 55 -53q36 0 70 28q18 -10 18 -26q-42 -36 -93 -36z" />
<glyph unicode="m" horiz-adv-x="811" d="M588 481q78 0 115.5 -36.5t37.5 -99.5q0 -30 -4 -51l-55 -294q-7 -3 -19 -3q-11 0 -18 3l52 280q5 28 5 52q0 114 -121 114q-82 0 -149 -50q8 -27 8 -55q0 -26 -4 -47l-52 -294q-9 -3 -20 -3q-9 0 -18 3l50 280q5 28 5 48q0 118 -127 118q-77 0 -129 -25l-75 -421 q-8 -3 -19 -3t-18 3l78 441q73 40 171 40t136 -56q82 56 170 56z" />
<glyph unicode="n" horiz-adv-x="533" d="M297 481q86 0 126 -37t40 -102q0 -21 -5 -48l-52 -294q-7 -3 -19 -3q-11 0 -18 3l51 286q4 20 4 45q0 115 -135 115q-85 0 -146 -27l-73 -419q-8 -3 -19 -3t-18 3l77 441q80 40 187 40z" />
<glyph unicode="o" d="M232 -10q-89 0 -139 54.5t-50 145.5q0 124 68 208t178 84q88 0 135.5 -54.5t47.5 -146.5q0 -124 -66 -207.5t-174 -83.5zM237 24q90 0 143.5 74t53.5 176q0 79 -37.5 126t-112.5 47q-95 0 -148.5 -74.5t-53.5 -175.5q0 -78 40 -125.5t115 -47.5z" />
<glyph unicode="p" horiz-adv-x="527" d="M272 481q95 0 147.5 -50t52.5 -139q0 -142 -76.5 -222t-191.5 -80q-78 0 -131 24l-35 -201q-9 -3 -19 -3q-11 0 -18 3l110 628q76 40 161 40zM210 25q97 0 160 69.5t63 190.5q0 75 -42.5 118.5t-126.5 43.5q-64 0 -120 -27l-64 -369q49 -26 130 -26z" />
<glyph unicode="q" horiz-adv-x="527" d="M316 481q103 0 161 -40l-112 -628q-9 -3 -19 -3t-18 3l39 219q-60 -42 -138 -42q-85 0 -136 51.5t-51 142.5q0 131 79.5 214t194.5 83zM233 26q85 0 142 49l61 346q-47 25 -124 25q-99 0 -165 -72t-66 -186q0 -75 40.5 -118.5t111.5 -43.5z" />
<glyph unicode="r" horiz-adv-x="348" d="M283 481q54 0 87 -11q-3 -19 -15 -34q-32 10 -80 10q-77 0 -131 -27l-73 -419q-9 -3 -20 -3t-18 3l77 441q74 40 173 40z" />
<glyph unicode="s" horiz-adv-x="424" d="M173 -9q-109 0 -165 56q8 20 24 28q54 -50 147 -50q62 0 98 29t36 77q0 38 -25 59.5t-60.5 31.5t-71 21t-60.5 37.5t-25 71.5q0 56 47 92.5t126 36.5q100 0 148 -46q-7 -18 -22 -28q-52 40 -132 40q-58 0 -93.5 -26t-35.5 -66q0 -35 25 -55t60.5 -30t71 -21.5t60.5 -39 t25 -72.5q0 -67 -49.5 -106.5t-128.5 -39.5z" />
<glyph unicode="t" horiz-adv-x="363" d="M184 436l-50 -287q-6 -26 -6 -52q0 -73 80 -73q43 0 94 32q15 -10 15 -28q-59 -38 -117 -38q-49 0 -79.5 24t-30.5 73q0 22 5 49l53 300h-104v8q0 13 6 23h103l23 128q8 3 19 3t17 -3l-22 -128h178l1 -8q0 -12 -7 -23h-178z" />
<glyph unicode="u" horiz-adv-x="527" d="M462 468q10 0 18 -3l-78 -437q-88 -40 -187 -40q-80 0 -119.5 36t-39.5 100q0 19 5 47l51 294q10 3 20 3t18 -3l-50 -283q-4 -24 -4 -49q0 -109 127 -109q77 0 147 28l72 413q9 3 20 3z" />
<glyph unicode="v" horiz-adv-x="473" d="M423 469q17 -37 17 -88q0 -87 -81 -201t-184 -181q-9 -3 -20 -3q-13 0 -20 3q-25 80 -46 217t-24 248q12 3 25 3q9 0 15 -2q1 -101 19 -230t35 -190q4 -12 5 -18l4 4l4 4l3 3q93 70 159.5 170t66.5 172q0 50 -18 89q4 2 17 2q11 0 23 -2z" />
<glyph unicode="w" horiz-adv-x="727" d="M676 470q16 -35 16 -88q0 -90 -70.5 -205t-153.5 -178q-9 -3 -20 -3q-12 0 -20 3q-36 105 -61 288q-24 -82 -76 -161t-109 -127q-9 -3 -20 -3q-13 0 -19 3q-29 81 -53 217.5t-26 247.5q12 3 24 3q9 0 15 -2q1 -102 21.5 -230t41.5 -189q1 -5 5 -20q4 5 11 12 q68 69 120.5 169t53.5 183q-2 23 -4 74q12 3 24 3q9 0 15 -2q0 -105 19.5 -230t40.5 -189q4 -11 5 -20q2 2 4 4.5t4.5 4.5t3.5 3q73 68 130 167t57 177q0 50 -19 88q6 2 20 2q8 0 20 -2z" />
<glyph unicode="x" horiz-adv-x="442" d="M439 467l-201 -231l134 -234q-8 -4 -19 -4q-11 -2 -20 0l-122 214l-193 -215q-31 -2 -41 4l217 241l-124 223q7 2 22 4h18l111 -204l177 206q26 2 41 -4z" />
<glyph unicode="y" horiz-adv-x="527" d="M459 468q11 0 17 -3l-81 -460q-16 -93 -72 -144.5t-146 -51.5q-118 0 -168 65q8 20 29 26q44 -57 140 -57q75 0 121 42.5t59 119.5l9 50q-75 -40 -157 -40q-89 0 -124.5 49t-20.5 134l47 267q9 3 19 3q11 0 18 -3l-45 -257q-13 -74 12.5 -115.5t108.5 -41.5q78 0 149 43 l65 371q9 3 20 3z" />
<glyph unicode="z" horiz-adv-x="457" d="M420 457q0 -18 -21 -41l-318 -349q66 -44 152 -44q77 0 152 32q13 -11 11 -29q-73 -35 -166 -35q-101 0 -175 48l-42 -46q-21 0 -21 15q0 10 28 42l339 372l14 12h-306q-2 15 5 32h347q1 -2 1 -9z" />
<glyph unicode="{" horiz-adv-x="285" d="M323 687q1 -18 -6 -34h-33q-61 0 -77 -92l-34 -195q-14 -85 -66 -110q43 -25 27 -110l-36 -201q-8 -45 3 -65.5t43 -20.5h33q2 -17 -6 -34h-34q-49 0 -66.5 33t-8.5 87l35 201q16 92 -43 92h-26q-1 3 -1 10q0 13 7 26h27q59 0 75 92l34 195q10 56 40 91t79 35h34z" />
<glyph unicode="|" horiz-adv-x="226" d="M17 -172l150 849q17 6 34 0l-150 -849q-18 -7 -34 0z" />
<glyph unicode="}" horiz-adv-x="285" d="M251 274q1 -3 1 -11q0 -12 -7 -25h-27q-59 0 -75 -92l-36 -201q-9 -53 -38.5 -86.5t-78.5 -33.5h-34q-2 17 6 34h33q32 0 49.5 20.5t25.5 65.5l36 201q14 83 66 110q-43 25 -27 110l34 195q8 47 -2 69.5t-42 22.5h-33q-1 16 6 34h34q49 0 66.5 -35t7.5 -91l-34 -195 q-16 -92 42 -92h27z" />
<glyph unicode="~" horiz-adv-x="512" d="M87 176q-20 3 -27 16q42 64 115 64q30 0 78.5 -21t71.5 -21q54 0 82 45q19 0 27 -15q-41 -66 -115 -66q-30 0 -77.5 21t-72.5 21q-54 0 -82 -44z" />
<glyph unicode="&#xa1;" horiz-adv-x="211" d="M134 415q-14 0 -23.5 9.5t-9.5 23.5t10 24t23 10q14 0 24 -10t10 -24t-10 -23.5t-24 -9.5zM28 -175q-11 0 -20 3q54 294 97 495q4 1 11 1t10 -1q-37 -267 -78 -495q-10 -3 -20 -3z" />
<glyph unicode="&#xa2;" horiz-adv-x="476" d="M330 543q84 -2 135 -53q-9 -18 -27 -27q-44 43 -114 45l-69 -400h4q70 0 134 47q15 -9 17 -28q-75 -54 -157 -54h-4l-18 -102q-10 -2 -16 -2q-5 0 -15 2l18 104q-72 9 -115 57.5t-43 131.5q0 123 69.5 196.5t168.5 81.5l19 108q5 1 16 1t15 -1zM99 270q0 -67 33 -108.5 t92 -50.5l68 396q-86 -8 -139.5 -73.5t-53.5 -163.5z" />
<glyph unicode="&#xa3;" horiz-adv-x="518" d="M339 657q102 0 152 -59q-6 -19 -26 -28q-48 53 -131 53q-75 0 -120 -52t-45 -131q0 -66 -3 -116h185q2 -15 -6 -34h-181q-5 -59 -16 -106t-19.5 -67t-29.5 -65q-6 -12 -6 -17h350v-9q0 -10 -6 -26h-397q2 28 19 59q31 52 46.5 101t21.5 130h-73q-2 17 6 34h69q2 62 2 108 q0 106 59 165.5t149 59.5z" />
<glyph unicode="&#xa4;" horiz-adv-x="598" d="M290 79q-93 0 -149 54l-61 -55q-15 9 -21 24l61 55q-35 49 -35 123q0 109 66 181l-41 46q8 17 24 24l40 -46q61 52 150 52q91 0 146 -57l62 56q14 -7 22 -23l-63 -56q35 -51 35 -123q0 -113 -69 -185l40 -44q-9 -17 -25 -24l-39 44q-59 -46 -143 -46zM294 115 q92 0 144 62t52 154q0 79 -47.5 124.5t-121.5 45.5q-91 0 -145.5 -62.5t-54.5 -154.5q0 -80 47.5 -124.5t125.5 -44.5z" />
<glyph unicode="&#xa5;" horiz-adv-x="520" d="M552 636l-254 -329h124v-7q0 -12 -6 -24h-137l-15 -84h138v-7q0 -11 -6 -25h-138l-28 -160q-9 -3 -20 -3q-10 0 -18 3l28 160h-139v7q0 13 5 25h140l15 84h-140v7q0 11 6 24h125l-140 329q12 3 27 3q11 0 14 -1l129 -311l4 -12l8 12l240 311q4 1 16 1q13 0 22 -3z" />
<glyph unicode="&#xa6;" horiz-adv-x="225" d="M106 331l61 346q19 8 34 0l-61 -346q-18 -7 -34 0zM17 -172l61 346q20 7 34 0l-61 -346q-18 -7 -34 0z" />
<glyph unicode="&#xa7;" horiz-adv-x="514" d="M237 135l-108 131q-53 63 -52 140q1 108 75.5 179.5t175.5 71.5q62 0 100 -17.5t73 -50.5q-7 -21 -27 -29q-20 20 -35.5 31t-45.5 20.5t-69 9.5q-86 0 -147.5 -59.5t-62.5 -151.5q0 -59 45 -116l109 -134q-10 -18 -31 -25zM188 -105q-44 0 -79.5 11.5t-53 23.5t-41.5 33 q7 21 27 29q21 -20 36.5 -31t45.5 -20.5t69 -9.5q86 0 147 59.5t62 152.5q0 59 -45 114l-109 134q9 19 31 26l109 -131q51 -63 51 -140q-1 -108 -75 -179.5t-175 -71.5z" />
<glyph unicode="&#xa8;" horiz-adv-x="315" d="M168 570q-13 0 -23 10t-10 23t10 22.5t23 9.5t22.5 -9.5t9.5 -22.5q0 -14 -9.5 -23.5t-22.5 -9.5zM361 570q-13 0 -23 10t-10 23t10 22.5t23 9.5t22.5 -9.5t9.5 -22.5q0 -14 -9.5 -23.5t-22.5 -9.5z" />
<glyph unicode="&#xa9;" horiz-adv-x="731" d="M334 -21q-123 0 -197.5 79t-74.5 201q0 167 97 273t253 106q121 0 195 -80t74 -200q0 -170 -96 -274.5t-251 -104.5zM339 9q139 0 225 95.5t86 248.5q0 110 -66.5 182.5t-176.5 72.5q-142 0 -228 -96.5t-86 -248.5q0 -111 67 -182.5t179 -71.5zM351 117q-68 0 -109 42.5 t-41 118.5q0 98 59 158.5t142 60.5q71 0 115 -42q-7 -17 -24 -27q-34 36 -97 36q-73 0 -116.5 -53t-43.5 -127q0 -61 31.5 -97.5t89.5 -36.5q63 0 112 44q14 -8 16 -26q-59 -51 -134 -51z" />
<glyph unicode="&#xaa;" horiz-adv-x="363" d="M245 665q53 0 80.5 -28t16.5 -88l-32 -181q-58 -27 -124 -27q-50 0 -76.5 22.5t-26.5 60.5q0 54 39.5 84.5t98.5 30.5q46 0 84 -21l6 32q8 43 -13 63.5t-61 20.5q-50 1 -94 -31q-14 6 -14 22q50 40 116 40zM117 430q0 -28 19.5 -44t56.5 -16q47 0 89 16l18 101 q-37 24 -82 24q-48 0 -74.5 -22.5t-26.5 -58.5z" />
<glyph unicode="&#xab;" horiz-adv-x="384" d="M139 113l-96 143l146 146q12 -4 15 -16l-113 -129l69 -129q-7 -11 -21 -15zM268 113l-95 143l146 146q11 -4 14 -16l-113 -129l69 -129q-7 -11 -21 -15z" />
<glyph unicode="&#xad;" horiz-adv-x="370" d="M69 235v10q0 12 6 22h218v-7q0 -13 -6 -25h-218z" />
<glyph unicode="&#xae;" horiz-adv-x="730" d="M430 740q121 0 195 -79.5t74 -199.5q0 -170 -96 -275t-251 -105q-123 0 -197.5 79t-74.5 201q0 167 97 273t253 106zM357 111q139 0 225 96t86 249q0 110 -66.5 182t-176.5 72q-142 0 -228 -96t-86 -248q0 -111 67 -183t179 -72zM412 610q62 0 94 -26.5t32 -73.5 t-26.5 -80t-73.5 -46l60 -162q-12 -3 -21 -3h-14l-60 159q-7 -1 -23 -1q-44 0 -78 7l-29 -161q-6 -3 -14 -3q-9 0 -17 3l65 366h1l1 7q49 14 103 14zM385 407q63 1 91.5 28t28.5 69q0 35 -24 55.5t-74 20.5q-41 0 -72 -7l-28 -158q29 -10 78 -8z" />
<glyph unicode="&#xaf;" horiz-adv-x="297" d="M131 573q-1 2 -1 8q0 9 6 24h240l1 -8q0 -13 -7 -24h-239z" />
<glyph unicode="&#xb0;" horiz-adv-x="329" d="M214 453q-46 0 -79 32.5t-33 79.5q0 46 33 78.5t79 32.5t79 -32.5t33 -78.5t-33 -79t-79 -33zM214 481q34 0 58.5 24.5t24.5 59.5t-24.5 59t-58.5 24q-35 0 -59.5 -24.5t-24.5 -58.5q0 -35 25 -59.5t59 -24.5z" />
<glyph unicode="&#xb1;" horiz-adv-x="506" d="M443 314q2 -6 0 -17t-5 -16h-167l-29 -166q-17 -6 -33 -1l29 167h-167q-3 15 6 33h167l29 165q6 2 17.5 2t15.5 -2l-29 -165h166zM29 39h366q2 -5 0 -16.5t-6 -16.5h-366q-3 17 6 33z" />
<glyph unicode="&#xb4;" horiz-adv-x="203" d="M132 530q-10 7 -14 21l156 127q20 -10 24 -33z" />
<glyph unicode="&#xb6;" horiz-adv-x="533" d="M495 624l-2 -7h1l-140 -791q-9 -3 -19 -3q-9 0 -18 3l74 420q-58 -12 -125 -12q-102 0 -155 47t-53 128q0 108 72.5 174t203.5 66q92 0 161 -25zM272 269q69 0 126 13l55 316q-55 16 -125 16q-112 0 -171 -55.5t-59 -146.5q0 -67 43.5 -105t130.5 -38zM233 144q12 2 19 2 t17 -2l-56 -318q-7 -3 -18 -3t-18 3z" />
<glyph unicode="&#xb7;" horiz-adv-x="213" d="M114 296q-14 0 -24 10t-10 24t10 24t24 10t24.5 -10t10.5 -24t-10.5 -24t-24.5 -10z" />
<glyph unicode="&#xb8;" horiz-adv-x="205" d="M84 3h29l-20 -48q35 -7 52 -20.5t17 -40.5q0 -43 -34.5 -63t-79.5 -20q-41 0 -54 9q3 16 13 26q18 -7 44 -7q32 0 54 12.5t22 37.5q0 22 -16 30t-58 15z" />
<glyph unicode="&#xba;" horiz-adv-x="403" d="M223 342q-61 0 -96 37.5t-35 100.5q0 83 48 134t120 51q60 0 95 -37.5t35 -101.5q0 -82 -47 -133t-120 -51zM228 373q59 0 94 42t35 107q0 52 -26.5 82t-75.5 30q-59 0 -94 -42t-35 -107q0 -52 26.5 -82t75.5 -30z" />
<glyph unicode="&#xbb;" horiz-adv-x="388" d="M59 113q-12 4 -15 15l113 127l-67 131q6 11 20 16l95 -146zM193 113q-13 4 -16 15l114 127l-68 131q8 12 21 16l94 -146z" />
<glyph unicode="&#xbc;" horiz-adv-x="702" d="M602 659q19 4 38 0l-578 -707q-21 -5 -38 0zM186 603l-89 -45q-12 12 -12 28q80 41 97 48.5t33 7.5q6 0 12 -2l-66 -377q-5 -1 -17 -1q-13 0 -18 1zM593 119h49q0 -7 -1 -10q0 -6 -4 -22h-50l-15 -87q-12 -2 -17 -2q-6 0 -16 2l15 87h-176q-9 30 11 58l169 242 q18 0 30 -15l-158 -223q-13 -17 -13 -30h143l20 114q6 1 17 1q10 0 16 -1z" />
<glyph unicode="&#xbd;" horiz-adv-x="708" d="M605 659q20 5 38 0l-578 -707q-20 -5 -38 0zM186 603l-89 -45q-12 12 -12 28q80 41 97 48.5t33 7.5q6 0 12 -2l-66 -377q-5 -1 -17 -1q-13 0 -18 1zM447 32h186q2 -14 -6 -32h-245q-1 1 -1 6q0 15 17 29q144 129 178 168.5t34 80.5q0 28 -20.5 46t-51.5 18q-51 0 -90 -37 q-16 3 -18 19q46 50 113 50q43 0 72 -24.5t29 -68.5q0 -50 -39 -96t-144 -137q-13 -11 -20 -17l-10 -6z" />
<glyph unicode="&#xbe;" horiz-adv-x="736" d="M663 659q20 5 38 0l-578 -707q-21 -5 -38 0zM315 406q0 -67 -43.5 -103.5t-104.5 -36.5q-75 0 -112 42q6 16 22 24q13 -12 21.5 -18t27.5 -11.5t46 -5.5q45 0 77 27.5t32 74.5q0 81 -102 81h-20q-1 1 -1 5q0 10 11 21l107 104h-179q0 18 6 32h230q0 -17 -14 -31 l-112 -104q108 -5 108 -101zM645 233l-20 -114h50q-1 -2 -1.5 -5.5t-0.5 -5.5q0 -9 -4 -21h-50l-15 -87q-12 -2 -17 -2q-6 0 -16 2l15 87h-176q-8 29 12 58l169 242q17 0 30 -15l-158 -223q-14 -19 -13 -30h142l20 114q6 1 17 1q10 0 16 -1z" />
<glyph unicode="&#xbf;" horiz-adv-x="384" d="M229 410q-14 0 -24 10t-10 24q0 13 10 23t24 10t23.5 -9.5t9.5 -23.5t-9.5 -24t-23.5 -10zM152 -169q-74 0 -117 38t-42 106q0 40 15.5 72t37.5 52t49 42.5l51 42.5t42 53t23 73q6 2 19 2q8 0 12 -2q-4 -54 -27.5 -94.5t-54 -64.5t-60 -46.5t-49.5 -53.5t-20 -72 q0 -52 32.5 -82t90.5 -30q62 0 113 36q17 -9 17 -24q-60 -48 -132 -48z" />
<glyph unicode="&#xc0;" horiz-adv-x="556" d="M430 705q-4 -13 -13 -21l-151 90q6 22 24 34zM359 642l132 -639q-11 -6 -26 -6q-7 0 -13 2l-41 205h-288l-111 -205q-4 -1 -14 -1q-14 0 -24 5l348 639q6 2 19 2q12 0 18 -2zM141 238h263l-65 323l-6 37l-18 -38z" />
<glyph unicode="&#xc1;" horiz-adv-x="556" d="M268 684q-9 7 -10 20l174 101q14 -9 17 -33zM359 642l132 -639q-11 -6 -26 -6q-7 0 -13 2l-41 205h-288l-111 -205q-4 -1 -14 -1q-14 0 -24 5l348 639q6 2 19 2q12 0 18 -2zM141 238h263l-65 323l-6 37l-18 -38z" />
<glyph unicode="&#xc2;" horiz-adv-x="556" d="M233 677q-11 6 -12 19l126 106q17 3 30 0l90 -106q-4 -10 -18 -19l-91 93zM359 642l132 -639q-11 -6 -26 -6q-7 0 -13 2l-41 205h-288l-111 -205q-4 -1 -14 -1q-14 0 -24 5l348 639q6 2 19 2q12 0 18 -2zM141 238h263l-65 323l-6 37l-18 -38z" />
<glyph unicode="&#xc3;" horiz-adv-x="556" d="M223 703q-19 2 -26 12q22 36 44 52t55 16q28 0 69 -22t61 -22q38 0 56 45q19 0 27 -10q-28 -68 -85 -68q-29 0 -69 22t-61 22q-39 0 -71 -47zM341 644q12 0 18 -2l132 -639q-11 -6 -26 -6q-7 0 -13 2l-41 205h-288l-111 -205q-4 -1 -14 -1q-14 0 -24 5l348 639q6 2 19 2z M141 238h263l-65 323l-6 37l-18 -38z" />
<glyph unicode="&#xc4;" horiz-adv-x="556" d="M257 719q-13 0 -22.5 9.5t-9.5 22.5t9.5 22.5t22.5 9.5t23 -9.5t10 -22.5t-9.5 -22.5t-23.5 -9.5zM449 719q-13 0 -22.5 9.5t-9.5 22.5t9.5 22.5t22.5 9.5t23 -9.5t10 -22.5t-9.5 -22.5t-23.5 -9.5zM359 642l132 -639q-11 -6 -26 -6q-7 0 -13 2l-41 205h-288l-111 -205 q-4 -1 -14 -1q-14 0 -24 5l348 639q6 2 19 2q12 0 18 -2zM141 238h263l-65 323l-6 37l-18 -38z" />
<glyph unicode="&#xc5;" horiz-adv-x="556" d="M344 654q-36 0 -56.5 21.5t-20.5 54.5q0 44 28 72.5t66 28.5q36 0 56.5 -21t20.5 -54q0 -47 -27 -74.5t-67 -27.5zM358 803q-26 0 -44 -20t-18 -49q0 -23 13 -37.5t39 -14.5q28 0 44.5 19t16.5 51q0 23 -12.5 37t-38.5 14zM359 642l132 -639q-11 -6 -26 -6q-7 0 -13 2 l-41 205h-288l-111 -205q-4 -1 -14 -1q-14 0 -24 5l348 639q6 2 19 2q12 0 18 -2zM141 238h263l-65 323l-6 37l-18 -38z" />
<glyph unicode="&#xc6;" horiz-adv-x="754" d="M754 607h-273l-52 -298h244q2 -18 -6 -35h-245l-42 -239h287q3 -17 -6 -35h-324l48 274h-185l-205 -275q-8 -2 -13 -2q-13 0 -26 5l476 640h329q1 -18 -7 -35zM391 309l48 271l4 22l-16 -23l-201 -270h165z" />
<glyph unicode="&#xc7;" horiz-adv-x="581" d="M406 656q118 0 185 -67q-9 -19 -26 -28q-62 60 -165 60q-133 0 -216 -102t-83 -260q0 -109 56.5 -172t158.5 -63q110 0 181 61q17 -5 19 -25q-81 -69 -198 -72l-14 -33q35 -7 52 -20.5t17 -40.5q0 -43 -34.5 -63t-79.5 -20q-41 0 -54 9q3 16 13 26q18 -7 44 -7 q32 0 54 12.5t22 37.5q0 22 -16 30t-58 15l25 55q-109 7 -168.5 78.5t-59.5 187.5q0 175 97.5 288t247.5 113z" />
<glyph unicode="&#xc8;" horiz-adv-x="513" d="M437 705q-4 -13 -13 -21l-151 90q6 22 24 34zM514 607h-321l-45 -255h291q2 -17 -6 -35h-291l-50 -282h334q3 -18 -7 -35h-370l114 642h357q3 -18 -6 -35z" />
<glyph unicode="&#xc9;" horiz-adv-x="513" d="M274 684q-9 7 -10 20l174 101q14 -9 17 -33zM514 607h-321l-45 -255h291q2 -17 -6 -35h-291l-50 -282h334q3 -18 -7 -35h-370l114 642h357q3 -18 -6 -35z" />
<glyph unicode="&#xca;" horiz-adv-x="513" d="M239 677q-11 6 -12 19l126 106q17 3 30 0l90 -106q-4 -10 -18 -19l-91 93zM514 607h-321l-45 -255h291q2 -17 -6 -35h-291l-50 -282h334q3 -18 -7 -35h-370l114 642h357q3 -18 -6 -35z" />
<glyph unicode="&#xcb;" horiz-adv-x="513" d="M264 719q-13 0 -22.5 9.5t-9.5 22.5t9.5 22.5t22.5 9.5t23 -9.5t10 -22.5t-9.5 -22.5t-23.5 -9.5zM456 719q-13 0 -22.5 9.5t-9.5 22.5t9.5 22.5t22.5 9.5t23 -9.5t10 -22.5t-9.5 -22.5t-23.5 -9.5zM514 607h-321l-45 -255h291q2 -17 -6 -35h-291l-50 -282h334 q3 -18 -7 -35h-370l114 642h357q3 -18 -6 -35z" />
<glyph unicode="&#xcc;" horiz-adv-x="233" d="M263 684l-151 90q6 22 24 34l140 -103q-4 -13 -13 -21zM68 -3q-10 0 -18 3l113 642q9 3 19 3t18 -3l-113 -642q-9 -3 -19 -3z" />
<glyph unicode="&#xcd;" horiz-adv-x="233" d="M114 684q-9 7 -10 20l174 101q14 -9 17 -33zM68 -3q-10 0 -18 3l113 642q9 3 19 3t18 -3l-113 -642q-9 -3 -19 -3z" />
<glyph unicode="&#xce;" horiz-adv-x="233" d="M223 802l73 -110q-6 -11 -18 -16l-73 92l-105 -93q-12 4 -15 16l113 111q12 1 25 0zM68 -3q-10 0 -18 3l113 642q9 3 19 3t18 -3l-113 -642q-9 -3 -19 -3z" />
<glyph unicode="&#xcf;" horiz-adv-x="233" d="M122 719q-13 0 -22.5 9.5t-9.5 22.5t9.5 22.5t22.5 9.5t22.5 -9.5t9.5 -22.5t-9 -22.5t-23 -9.5zM277 719q-13 0 -22.5 9.5t-9.5 22.5t9.5 22.5t22.5 9.5t22.5 -9.5t9.5 -22.5t-9.5 -22.5t-22.5 -9.5zM68 -3q-10 0 -18 3l113 642q9 3 19 3t18 -3l-113 -642q-9 -3 -19 -3z " />
<glyph unicode="&#xd0;" horiz-adv-x="650" d="M312 651q142 0 218 -72t76 -201q0 -76 -25 -145t-72.5 -123.5t-124 -86.5t-172.5 -32t-162 10l54 305h-86q-2 18 5 27h85l54 305q80 13 150 13zM219 26q85 0 152.5 28.5t109 77t63.5 110t22 131.5q0 116 -66.5 179t-193.5 63q-62 0 -111 -7l-49 -275h93q2 -15 -5 -27h-93 l-48 -272q55 -8 126 -8z" />
<glyph unicode="&#xd1;" horiz-adv-x="652" d="M279 703q-19 2 -26 12q22 36 44 52t55 16q28 0 69 -22t61 -22q38 0 56 45q19 0 27 -10q-28 -68 -85 -68q-29 0 -69 22t-61 22q-39 0 -71 -47zM601 646q11 0 18 -3l-113 -640q-17 -5 -35 -5l-275 562l-9 22l-3 -26l-98 -556q-9 -3 -19 -3q-9 0 -17 3l112 639q18 9 36 5 l276 -567l7 -17l3 23l99 560q9 3 18 3z" />
<glyph unicode="&#xd2;" horiz-adv-x="679" d="M461 684l-151 90q6 22 24 34l140 -103q-4 -13 -13 -21zM309 -11q-117 0 -182 72.5t-65 193.5q0 177 90 289t231 112q118 0 184 -73.5t66 -193.5q0 -182 -88.5 -291t-235.5 -109zM316 24q129 0 203 100t74 264q0 106 -56.5 169.5t-159.5 63.5q-124 0 -199.5 -102.5 t-75.5 -260.5q0 -109 55.5 -171.5t158.5 -62.5z" />
<glyph unicode="&#xd3;" horiz-adv-x="679" d="M312 684q-9 7 -10 20l174 101q14 -9 17 -33zM309 -11q-117 0 -182 72.5t-65 193.5q0 177 90 289t231 112q118 0 184 -73.5t66 -193.5q0 -182 -88.5 -291t-235.5 -109zM316 24q129 0 203 100t74 264q0 106 -56.5 169.5t-159.5 63.5q-124 0 -199.5 -102.5t-75.5 -260.5 q0 -109 55.5 -171.5t158.5 -62.5z" />
<glyph unicode="&#xd4;" horiz-adv-x="679" d="M421 802l90 -106q-4 -10 -18 -19l-91 93l-125 -93q-11 6 -12 19l126 106q17 3 30 0zM309 -11q-117 0 -182 72.5t-65 193.5q0 177 90 289t231 112q118 0 184 -73.5t66 -193.5q0 -182 -88.5 -291t-235.5 -109zM316 24q129 0 203 100t74 264q0 106 -56.5 169.5t-159.5 63.5 q-124 0 -199.5 -102.5t-75.5 -260.5q0 -109 55.5 -171.5t158.5 -62.5z" />
<glyph unicode="&#xd5;" horiz-adv-x="679" d="M267 703q-19 2 -26 12q22 36 44 52t55 16q28 0 69 -22t61 -22q38 0 56 45q19 0 27 -10q-28 -68 -85 -68q-29 0 -69 22t-61 22q-39 0 -71 -47zM309 -11q-117 0 -182 72.5t-65 193.5q0 177 90 289t231 112q118 0 184 -73.5t66 -193.5q0 -182 -88.5 -291t-235.5 -109z M316 24q129 0 203 100t74 264q0 106 -56.5 169.5t-159.5 63.5q-124 0 -199.5 -102.5t-75.5 -260.5q0 -109 55.5 -171.5t158.5 -62.5z" />
<glyph unicode="&#xd6;" horiz-adv-x="679" d="M301 719q-13 0 -22.5 9.5t-9.5 22.5t9.5 22.5t22.5 9.5t23 -9.5t10 -22.5t-9.5 -22.5t-23.5 -9.5zM493 719q-13 0 -22.5 9.5t-9.5 22.5t9.5 22.5t22.5 9.5t23 -9.5t10 -22.5t-9.5 -22.5t-23.5 -9.5zM309 -11q-117 0 -182 72.5t-65 193.5q0 177 90 289t231 112 q118 0 184 -73.5t66 -193.5q0 -182 -88.5 -291t-235.5 -109zM316 24q129 0 203 100t74 264q0 106 -56.5 169.5t-159.5 63.5q-124 0 -199.5 -102.5t-75.5 -260.5q0 -109 55.5 -171.5t158.5 -62.5z" />
<glyph unicode="&#xd7;" horiz-adv-x="427" d="M373 365l-143 -127l98 -126q-10 -14 -27 -23l-98 126l-142 -126q-10 6 -19 24l143 126l-98 126q11 16 27 23l97 -125l143 126q13 -9 19 -24z" />
<glyph unicode="&#xd8;" horiz-adv-x="679" d="M558 592q75 -73 75 -203q0 -182 -88.5 -291t-235.5 -109q-78 0 -137 35l-50 -73q-19 3 -25 19l50 73q-85 70 -85 212q0 177 90 289t231 112q90 0 151 -45l55 81q19 -2 25 -17zM102 258q0 -121 67 -183l344 505q-55 41 -136 41q-124 0 -199.5 -102.5t-75.5 -260.5zM316 24 q129 0 203 100t74 264q0 108 -58 171l-342 -503q50 -32 123 -32z" />
<glyph unicode="&#xd9;" horiz-adv-x="642" d="M464 684l-151 90q6 22 24 34l140 -103q-4 -13 -13 -21zM278 -12q-98 0 -148 50.5t-50 140.5q0 29 7 73l68 390q10 3 20 3q11 0 18 -3l-68 -390q-7 -40 -7 -67q0 -74 41 -117t127 -43q104 0 155 58.5t70 166.5l69 392q9 3 19 3q11 0 18 -3l-70 -396q-21 -122 -84 -190 t-185 -68z" />
<glyph unicode="&#xda;" horiz-adv-x="642" d="M315 684q-9 7 -10 20l174 101q14 -9 17 -33zM278 -12q-98 0 -148 50.5t-50 140.5q0 29 7 73l68 390q10 3 20 3q11 0 18 -3l-68 -390q-7 -40 -7 -67q0 -74 41 -117t127 -43q104 0 155 58.5t70 166.5l69 392q9 3 19 3q11 0 18 -3l-70 -396q-21 -122 -84 -190t-185 -68z" />
<glyph unicode="&#xdb;" horiz-adv-x="642" d="M424 802l90 -106q-4 -10 -18 -19l-91 93l-125 -93q-11 6 -12 19l126 106q16 3 30 0zM278 -12q-98 0 -148 50.5t-50 140.5q0 29 7 73l68 390q10 3 20 3q11 0 18 -3l-68 -390q-7 -40 -7 -67q0 -74 41 -117t127 -43q104 0 155 58.5t70 166.5l69 392q9 3 19 3q11 0 18 -3 l-70 -396q-21 -122 -84 -190t-185 -68z" />
<glyph unicode="&#xdc;" horiz-adv-x="642" d="M304 719q-13 0 -22.5 9.5t-9.5 22.5t9.5 22.5t22.5 9.5t23 -9.5t10 -22.5t-9.5 -22.5t-23.5 -9.5zM496 719q-13 0 -22.5 9.5t-9.5 22.5t9.5 22.5t22.5 9.5t23 -9.5t10 -22.5t-9.5 -22.5t-23.5 -9.5zM278 -12q-98 0 -148 50.5t-50 140.5q0 29 7 73l68 390q10 3 20 3 q11 0 18 -3l-68 -390q-7 -40 -7 -67q0 -74 41 -117t127 -43q104 0 155 58.5t70 166.5l69 392q9 3 19 3q11 0 18 -3l-70 -396q-21 -122 -84 -190t-185 -68z" />
<glyph unicode="&#xdd;" d="M254 684q-9 7 -10 20l174 101q14 -9 17 -33zM576 642l-292 -376l-47 -266q-9 -3 -19 -3t-18 3l47 268l-166 374q16 4 26 4t13 -1l146 -329l5 -14l9 14l255 329q5 1 17 1q10 0 24 -4z" />
<glyph unicode="&#xde;" horiz-adv-x="515" d="M290 528q97 0 147 -45t50 -124q0 -100 -69 -164.5t-188 -64.5q-71 0 -118 8l-24 -138q-9 -3 -20 -3q-10 0 -18 3l113 643q9 3 20 3t18 -3l-23 -129q53 14 112 14zM235 165q105 0 158.5 52t53.5 135q0 66 -40.5 103.5t-122.5 37.5q-62 0 -112 -14l-53 -304q44 -10 116 -10 z" />
<glyph unicode="&#xdf;" d="M312 -9q-89 0 -133 51q5 19 24 28q44 -46 112 -46q53 0 83.5 25.5t30.5 62.5q0 31 -18 54.5t-44.5 39t-52.5 30.5t-44 38t-18 53q0 39 21 64.5t51.5 39.5l61 28t51.5 39.5t21 63.5q0 40 -29.5 65.5t-87.5 25.5q-75 0 -122 -43.5t-59 -118.5l-87 -491q-7 -3 -19 -3 q-10 0 -18 3l87 491q16 92 76 144.5t147 52.5q68 0 109.5 -34t41.5 -88q0 -46 -21 -77t-51.5 -46.5t-61 -28.5t-51.5 -33t-21 -50q0 -24 18 -42.5t44 -33t52 -31t44 -44t18 -64.5q0 -55 -43 -90t-112 -35z" />
<glyph unicode="&#xe0;" horiz-adv-x="522" d="M399 550q-4 -12 -16 -19l-129 116q10 23 29 30zM322 481q94 0 149 -40l-78 -443q-17 -3 -35 0l13 89v2q-75 -99 -178 -99q-66 0 -110 45t-44 133q0 141 84.5 227t198.5 86zM201 25q48 0 97 32.5t85 94.5l47 267q-37 27 -114 27q-95 0 -166 -75t-71 -198q0 -70 33 -109 t89 -39z" />
<glyph unicode="&#xe1;" horiz-adv-x="522" d="M255 530q-10 7 -14 21l156 127q19 -10 24 -33zM322 481q94 0 149 -40l-78 -443q-17 -3 -35 0l13 89v2q-75 -99 -178 -99q-66 0 -110 45t-44 133q0 141 84.5 227t198.5 86zM201 25q48 0 97 32.5t85 94.5l47 267q-37 27 -114 27q-95 0 -166 -75t-71 -198q0 -70 33 -109 t89 -39z" />
<glyph unicode="&#xe2;" horiz-adv-x="522" d="M213 532q-13 6 -16 20l131 126q14 5 26 0l89 -128q-7 -12 -21 -17l-84 111zM322 481q94 0 149 -40l-78 -443q-17 -3 -35 0l13 89v2q-75 -99 -178 -99q-66 0 -110 45t-44 133q0 141 84.5 227t198.5 86zM201 25q48 0 97 32.5t85 94.5l47 267q-37 27 -114 27q-95 0 -166 -75 t-71 -198q0 -70 33 -109t89 -39z" />
<glyph unicode="&#xe3;" horiz-adv-x="522" d="M206 564q-18 2 -26 13q38 66 96 66q28 0 67 -21.5t57 -21.5q35 0 53 44q20 0 28 -10q-12 -32 -34 -49.5t-48 -17.5q-28 0 -65.5 21.5t-57.5 21.5q-37 0 -70 -46zM39 168q0 141 84.5 227t198.5 86q94 0 149 -40l-78 -443q-17 -3 -35 0l13 89v2q-75 -99 -178 -99 q-66 0 -110 45t-44 133zM201 25q48 0 97 32.5t85 94.5l47 267q-37 27 -114 27q-95 0 -166 -75t-71 -198q0 -70 33 -109t89 -39z" />
<glyph unicode="&#xe4;" horiz-adv-x="522" d="M233 570q-13 0 -23 10t-10 23t10 22.5t23 9.5t22.5 -9.5t9.5 -22.5q0 -14 -9.5 -23.5t-22.5 -9.5zM426 570q-13 0 -23 10t-10 23t10 22.5t23 9.5t22.5 -9.5t9.5 -22.5q0 -14 -9.5 -23.5t-22.5 -9.5zM322 481q94 0 149 -40l-78 -443q-17 -3 -35 0l13 89v2 q-75 -99 -178 -99q-66 0 -110 45t-44 133q0 141 84.5 227t198.5 86zM201 25q48 0 97 32.5t85 94.5l47 267q-37 27 -114 27q-95 0 -166 -75t-71 -198q0 -70 33 -109t89 -39z" />
<glyph unicode="&#xe5;" horiz-adv-x="522" d="M320 512q-36 0 -56.5 21.5t-20.5 55.5q0 44 28 72.5t66 28.5q37 0 57 -21.5t20 -56.5q0 -45 -27 -72.5t-67 -27.5zM334 661q-25 0 -43.5 -19.5t-18.5 -48.5q0 -23 13 -37.5t38 -14.5q29 0 45.5 18t16.5 50q0 52 -51 52zM322 481q94 0 149 -40l-78 -443q-17 -3 -35 0 l13 89v2q-75 -99 -178 -99q-66 0 -110 45t-44 133q0 141 84.5 227t198.5 86zM201 25q48 0 97 32.5t85 94.5l47 267q-37 27 -114 27q-95 0 -166 -75t-71 -198q0 -70 33 -109t89 -39z" />
<glyph unicode="&#xe6;" horiz-adv-x="789" d="M167 -10q-56 0 -92.5 39.5t-36.5 122.5q0 136 76 232.5t187 96.5q94 0 153 -74q72 74 162 74q63 0 99.5 -32t36.5 -89q0 -78 -59 -117.5t-163 -39.5q-58 0 -120 14q0 -3 -1.5 -18.5t-1.5 -24.5q3 -76 39.5 -113t99.5 -37q70 0 137 53q16 -7 21 -27q-78 -60 -163 -60 q-76 0 -119.5 41.5t-47.5 117.5q-33 -73 -88.5 -116t-118.5 -43zM529 236q87 0 135.5 31t48.5 89q0 40 -27.5 65.5t-75.5 25.5q-26 0 -52.5 -9.5t-54.5 -30.5t-52 -61.5t-37 -96.5q58 -13 115 -13zM175 25q63 0 123 63.5t77 146.5q18 84 55 141q-47 70 -134 70 q-95 0 -157 -85.5t-62 -203.5q0 -65 27 -98.5t71 -33.5z" />
<glyph unicode="&#xe7;" horiz-adv-x="461" d="M294 481q93 0 141 -50q-8 -18 -24 -27q-51 43 -122 43q-96 0 -151 -73.5t-55 -179.5q0 -76 40 -122.5t116 -46.5q73 0 132 49q16 -10 19 -26q-66 -57 -151 -58l-15 -35q35 -7 52 -20.5t17 -40.5q0 -43 -34.5 -63t-79.5 -20q-41 0 -54 9q3 16 13 26q17 -7 44 -7 q32 0 54 12.5t22 37.5q0 22 -16 30t-58 15l26 57q-77 7 -121.5 59t-44.5 139q0 134 71 213t179 79z" />
<glyph unicode="&#xe8;" horiz-adv-x="478" d="M369 550q-4 -12 -16 -19l-129 116q10 23 29 30zM206 203q-68 0 -124 20q-1 -10 -1 -32q0 -80 41.5 -123.5t113.5 -43.5q78 0 140 57q17 -7 20 -26q-69 -65 -165 -65q-85 0 -136.5 50t-51.5 146q0 134 73.5 214.5t177.5 80.5q67 0 106 -34t39 -86q0 -71 -59 -114.5 t-174 -43.5zM291 447q-74 0 -130.5 -51.5t-73.5 -139.5q54 -19 123 -19q95 0 142.5 33t47.5 87q0 38 -28.5 64t-80.5 26z" />
<glyph unicode="&#xe9;" horiz-adv-x="478" d="M225 530q-10 7 -14 21l156 127q19 -10 24 -33zM206 203q-68 0 -124 20q-1 -10 -1 -32q0 -80 41.5 -123.5t113.5 -43.5q78 0 140 57q17 -7 20 -26q-69 -65 -165 -65q-85 0 -136.5 50t-51.5 146q0 134 73.5 214.5t177.5 80.5q67 0 106 -34t39 -86q0 -71 -59 -114.5 t-174 -43.5zM291 447q-74 0 -130.5 -51.5t-73.5 -139.5q54 -19 123 -19q95 0 142.5 33t47.5 87q0 38 -28.5 64t-80.5 26z" />
<glyph unicode="&#xea;" horiz-adv-x="478" d="M183 532q-13 6 -16 20l131 126q14 5 26 0l89 -128q-7 -12 -21 -17l-84 111zM206 203q-68 0 -124 20q-1 -10 -1 -32q0 -80 41.5 -123.5t113.5 -43.5q78 0 140 57q17 -7 20 -26q-69 -65 -165 -65q-85 0 -136.5 50t-51.5 146q0 134 73.5 214.5t177.5 80.5q67 0 106 -34 t39 -86q0 -71 -59 -114.5t-174 -43.5zM291 447q-74 0 -130.5 -51.5t-73.5 -139.5q54 -19 123 -19q95 0 142.5 33t47.5 87q0 38 -28.5 64t-80.5 26z" />
<glyph unicode="&#xeb;" horiz-adv-x="478" d="M203 570q-13 0 -23 10t-10 23t10 22.5t23 9.5t22.5 -9.5t9.5 -22.5q0 -14 -9.5 -23.5t-22.5 -9.5zM396 570q-13 0 -23 10t-10 23t10 22.5t23 9.5t22.5 -9.5t9.5 -22.5q0 -14 -9.5 -23.5t-22.5 -9.5zM206 203q-68 0 -124 20q-1 -10 -1 -32q0 -80 41.5 -123.5t113.5 -43.5 q78 0 140 57q17 -7 20 -26q-69 -65 -165 -65q-85 0 -136.5 50t-51.5 146q0 134 73.5 214.5t177.5 80.5q67 0 106 -34t39 -86q0 -71 -59 -114.5t-174 -43.5zM291 447q-74 0 -130.5 -51.5t-73.5 -139.5q54 -19 123 -19q95 0 142.5 33t47.5 87q0 38 -28.5 64t-80.5 26z" />
<glyph unicode="&#xec;" horiz-adv-x="209" d="M215 531l-129 116q10 23 29 30l116 -127q-4 -12 -16 -19zM56 -3q-10 0 -18 3l82 469q9 3 20 3q10 0 18 -3l-83 -469q-9 -3 -19 -3z" />
<glyph unicode="&#xed;" horiz-adv-x="209" d="M87 530q-10 7 -14 21l156 127q19 -10 24 -33zM56 -3q-10 0 -18 3l82 469q9 3 20 3q10 0 18 -3l-83 -469q-9 -3 -19 -3z" />
<glyph unicode="&#xee;" horiz-adv-x="209" d="M179 678l81 -129q-6 -11 -20 -15l-77 107l-114 -108q-12 5 -15 16l120 129q12 3 25 0zM56 -3q-10 0 -18 3l82 469q9 3 20 3q10 0 18 -3l-83 -469q-9 -3 -19 -3z" />
<glyph unicode="&#xef;" horiz-adv-x="209" d="M81 570q-13 0 -23 10t-10 23t10 22.5t23 9.5t22.5 -9.5t9.5 -22.5q0 -14 -9.5 -23.5t-22.5 -9.5zM234 570q-14 0 -23.5 10t-9.5 23t10 22.5t23 9.5t22.5 -9.5t9.5 -22.5q0 -14 -9.5 -23.5t-22.5 -9.5zM56 -3q-10 0 -18 3l82 469q9 3 20 3q10 0 18 -3l-83 -469 q-9 -3 -19 -3z" />
<glyph unicode="&#xf0;" horiz-adv-x="518" d="M398 502q57 -99 57 -260q0 -109 -63 -180.5t-167 -71.5q-87 0 -135.5 50.5t-48.5 134.5q0 116 67.5 187t163.5 71q89 0 141 -69q-12 70 -47 126q-22 37 -54 64l-96 -65q-14 6 -16 24l89 60q-37 27 -87 45q2 21 17 34q61 -25 101 -58l85 58q15 -9 16 -24l-79 -54 q31 -28 56 -72zM230 24q88 0 138.5 62.5t50.5 157.5q0 68 -40.5 111t-110.5 43q-82 0 -135.5 -59.5t-53.5 -156.5q0 -72 39.5 -115t111.5 -43z" />
<glyph unicode="&#xf1;" horiz-adv-x="533" d="M191 564q-18 2 -26 13q38 66 96 66q27 0 66 -21.5t58 -21.5q35 0 53 44q20 0 28 -10q-12 -32 -34 -49.5t-48 -17.5q-28 0 -65.5 21.5t-57.5 21.5q-37 0 -70 -46zM297 481q86 0 126 -37t40 -102q0 -21 -5 -48l-52 -294q-7 -3 -19 -3q-11 0 -18 3l51 286q4 20 4 45 q0 115 -135 115q-85 0 -146 -27l-73 -419q-8 -3 -19 -3t-18 3l77 441q80 40 187 40z" />
<glyph unicode="&#xf2;" d="M358 531l-129 116q10 23 29 30l116 -127q-4 -12 -16 -19zM232 -10q-89 0 -139 54.5t-50 145.5q0 124 68 208t178 84q88 0 135.5 -54.5t47.5 -146.5q0 -124 -66 -207.5t-174 -83.5zM237 24q90 0 143.5 74t53.5 176q0 79 -37.5 126t-112.5 47q-95 0 -148.5 -74.5 t-53.5 -175.5q0 -78 40 -125.5t115 -47.5z" />
<glyph unicode="&#xf3;" d="M229 530q-10 7 -14 21l156 127q19 -10 24 -33zM232 -10q-89 0 -139 54.5t-50 145.5q0 124 68 208t178 84q88 0 135.5 -54.5t47.5 -146.5q0 -124 -66 -207.5t-174 -83.5zM237 24q90 0 143.5 74t53.5 176q0 79 -37.5 126t-112.5 47q-95 0 -148.5 -74.5t-53.5 -175.5 q0 -78 40 -125.5t115 -47.5z" />
<glyph unicode="&#xf4;" d="M329 678l89 -128q-7 -12 -21 -17l-84 111l-125 -112q-13 6 -16 20l131 126q14 5 26 0zM232 -10q-89 0 -139 54.5t-50 145.5q0 124 68 208t178 84q88 0 135.5 -54.5t47.5 -146.5q0 -124 -66 -207.5t-174 -83.5zM237 24q90 0 143.5 74t53.5 176q0 79 -37.5 126t-112.5 47 q-95 0 -148.5 -74.5t-53.5 -175.5q0 -78 40 -125.5t115 -47.5z" />
<glyph unicode="&#xf5;" d="M180 564q-18 2 -26 13q38 66 96 66q28 0 67 -21.5t57 -21.5q35 0 53 44q20 0 28 -10q-12 -32 -34 -49.5t-48 -17.5q-28 0 -65.5 21.5t-57.5 21.5q-37 0 -70 -46zM232 -10q-89 0 -139 54.5t-50 145.5q0 124 68 208t178 84q88 0 135.5 -54.5t47.5 -146.5q0 -124 -66 -207.5 t-174 -83.5zM237 24q90 0 143.5 74t53.5 176q0 79 -37.5 126t-112.5 47q-95 0 -148.5 -74.5t-53.5 -175.5q0 -78 40 -125.5t115 -47.5z" />
<glyph unicode="&#xf6;" d="M207 570q-13 0 -23 10t-10 23t10 22.5t23 9.5t22.5 -9.5t9.5 -22.5q0 -14 -9.5 -23.5t-22.5 -9.5zM400 570q-13 0 -23 10t-10 23t10 22.5t23 9.5t22.5 -9.5t9.5 -22.5q0 -14 -9.5 -23.5t-22.5 -9.5zM232 -10q-89 0 -139 54.5t-50 145.5q0 124 68 208t178 84 q88 0 135.5 -54.5t47.5 -146.5q0 -124 -66 -207.5t-174 -83.5zM237 24q90 0 143.5 74t53.5 176q0 79 -37.5 126t-112.5 47q-95 0 -148.5 -74.5t-53.5 -175.5q0 -78 40 -125.5t115 -47.5z" />
<glyph unicode="&#xf7;" horiz-adv-x="509" d="M275 350q-15 0 -26 11t-11 26t11 26t26 11t26 -11t11 -26t-11 -26t-26 -11zM62 219q-1 1 -1 4t1 5q0 15 6 24h366v-10q0 -11 -6 -23h-366zM222 48q-15 0 -26 10.5t-11 26.5q0 15 11 26t26 11t25.5 -11t10.5 -26q0 -16 -10.5 -26.5t-25.5 -10.5z" />
<glyph unicode="&#xf8;" d="M410 442q62 -54 62 -161q0 -124 -66 -207.5t-174 -83.5q-56 0 -101 24l-55 -85q-18 2 -24 16l56 85q-65 56 -65 160q0 124 68 208t178 84q57 0 98 -24l53 82q17 -2 24 -15zM82 197q0 -86 47 -133l237 362q-33 21 -82 21q-95 0 -148.5 -74.5t-53.5 -175.5zM237 24 q90 0 143.5 74t53.5 176q0 89 -46 135l-236 -363q36 -22 85 -22z" />
<glyph unicode="&#xf9;" horiz-adv-x="527" d="M384 550q-4 -12 -16 -19l-129 116q10 23 29 30zM462 468q10 0 18 -3l-78 -437q-88 -40 -187 -40q-80 0 -119.5 36t-39.5 100q0 19 5 47l51 294q10 3 20 3t18 -3l-50 -283q-4 -24 -4 -49q0 -109 127 -109q77 0 147 28l72 413q9 3 20 3z" />
<glyph unicode="&#xfa;" horiz-adv-x="527" d="M240 530q-10 7 -14 21l156 127q20 -10 24 -33zM462 468q10 0 18 -3l-78 -437q-88 -40 -187 -40q-80 0 -119.5 36t-39.5 100q0 19 5 47l51 294q10 3 20 3t18 -3l-50 -283q-4 -24 -4 -49q0 -109 127 -109q77 0 147 28l72 413q9 3 20 3z" />
<glyph unicode="&#xfb;" horiz-adv-x="527" d="M198 532q-13 6 -16 20l131 126q14 5 26 0l89 -128q-7 -12 -21 -17l-84 111zM462 468q10 0 18 -3l-78 -437q-88 -40 -187 -40q-80 0 -119.5 36t-39.5 100q0 19 5 47l51 294q10 3 20 3t18 -3l-50 -283q-4 -24 -4 -49q0 -109 127 -109q77 0 147 28l72 413q9 3 20 3z" />
<glyph unicode="&#xfc;" horiz-adv-x="527" d="M218 570q-13 0 -23 10t-10 23t10 22.5t23 9.5t22.5 -9.5t9.5 -22.5q0 -14 -9.5 -23.5t-22.5 -9.5zM411 570q-13 0 -23 10t-10 23t10 22.5t23 9.5t22.5 -9.5t9.5 -22.5q0 -14 -9.5 -23.5t-22.5 -9.5zM462 468q10 0 18 -3l-78 -437q-88 -40 -187 -40q-80 0 -119.5 36 t-39.5 100q0 19 5 47l51 294q10 3 20 3t18 -3l-50 -283q-4 -24 -4 -49q0 -109 127 -109q77 0 147 28l72 413q9 3 20 3z" />
<glyph unicode="&#xfd;" horiz-adv-x="527" d="M241 530q-10 7 -14 21l156 127q19 -10 24 -33zM459 468q11 0 17 -3l-81 -460q-16 -93 -72 -144.5t-146 -51.5q-118 0 -168 65q8 20 29 26q44 -57 140 -57q75 0 121 42.5t59 119.5l9 50q-75 -40 -157 -40q-89 0 -124.5 49t-20.5 134l47 267q9 3 19 3q11 0 18 -3l-45 -257 q-13 -74 12.5 -115.5t108.5 -41.5q78 0 149 43l65 371q9 3 20 3z" />
<glyph unicode="&#xfe;" horiz-adv-x="529" d="M272 481q96 0 149.5 -49t53.5 -139q0 -141 -76.5 -222t-192.5 -81q-77 0 -131 23l-35 -200q-9 -3 -20 -3q-10 0 -17 3l149 845q9 3 18 3q10 0 18 -3l-35 -199q62 22 119 22zM212 25q97 0 160.5 69.5t63.5 192.5q0 75 -44 116.5t-127 41.5q-64 0 -119 -25l-64 -366 q50 -29 130 -29z" />
<glyph unicode="&#xff;" horiz-adv-x="527" d="M219 570q-13 0 -23 10t-10 23t10 22.5t23 9.5t22.5 -9.5t9.5 -22.5q0 -14 -9.5 -23.5t-22.5 -9.5zM412 570q-13 0 -23 10t-10 23t10 22.5t23 9.5t22.5 -9.5t9.5 -22.5q0 -14 -9.5 -23.5t-22.5 -9.5zM459 468q11 0 17 -3l-81 -460q-16 -93 -72 -144.5t-146 -51.5 q-118 0 -168 65q8 20 29 26q44 -57 140 -57q75 0 121 42.5t59 119.5l9 50q-75 -40 -157 -40q-89 0 -124.5 49t-20.5 134l47 267q9 3 19 3q11 0 18 -3l-45 -257q-13 -74 12.5 -115.5t108.5 -41.5q78 0 149 43l65 371q9 3 20 3z" />
<glyph unicode="&#x13f;" horiz-adv-x="455" d="M399 33q4 -17 -6 -34h-344l114 643q9 3 19 3q9 0 18 -3l-108 -609h307zM353 300q-14 0 -24 10t-10 24t10.5 24t23.5 10q14 0 24 -10t10 -24t-10 -24t-24 -10z" />
<glyph unicode="&#x140;" horiz-adv-x="258" d="M137 -7q-40 0 -64 20t-24 59q0 10 3 24l99 563q8 2 18 2q8 0 18 -2l-98 -560q-2 -14 -2 -19q0 -53 55 -53q36 0 70 28q18 -10 18 -26q-42 -36 -93 -36zM235 297q-14 0 -24 10t-10 24t10 24t24 10t24 -10t10 -24t-10 -24t-24 -10z" />
<glyph unicode="&#x152;" horiz-adv-x="826" d="M498 642h335v-9q0 -13 -7 -26h-299l-44 -255h269v-9q0 -14 -7 -27h-269l-49 -281h311q1 -2 1 -9q0 -13 -7 -26h-345q-43 -8 -88 -8q-112 0 -175 71.5t-63 187.5q0 167 94.5 282.5t243.5 115.5q57 0 99 -7zM101 256q0 -103 53.5 -165t151.5 -62q49 0 83 7l100 568 q-42 9 -97 9q-130 0 -210.5 -105.5t-80.5 -251.5z" />
<glyph unicode="&#x153;" horiz-adv-x="851" d="M583 204q-65 0 -122 19q-1 -11 -1 -32q0 -79 40 -123t110 -44q78 0 140 57q16 -5 21 -25q-70 -66 -166 -66q-68 0 -114 35t-60 102q-28 -64 -78 -100.5t-117 -36.5q-96 0 -143.5 55.5t-47.5 153.5q0 124 65 203.5t169 79.5q72 0 117 -40t58 -108q30 70 86 108.5t122 38.5 q70 0 109 -34.5t39 -86.5q0 -72 -56 -114t-171 -42zM240 25q85 0 134 69t49 180q0 78 -38 125.5t-111 47.5q-89 0 -139.5 -69t-50.5 -174q0 -179 156 -179zM656 447q-68 0 -121.5 -51.5t-68.5 -139.5q53 -19 121 -19q94 0 139 33t45 84q0 39 -30 66t-85 27z" />
<glyph unicode="&#x178;" d="M243 719q-13 0 -22.5 9.5t-9.5 22.5t9.5 22.5t22.5 9.5t23 -9.5t10 -22.5t-9.5 -22.5t-23.5 -9.5zM435 719q-13 0 -22.5 9.5t-9.5 22.5t9.5 22.5t22.5 9.5t23 -9.5t10 -22.5t-9.5 -22.5t-23.5 -9.5zM576 642l-292 -376l-47 -266q-9 -3 -19 -3t-18 3l47 268l-166 374 q16 4 26 4t13 -1l146 -329l5 -14l9 14l255 329q5 1 17 1q10 0 24 -4z" />
<glyph unicode="&#x2c6;" horiz-adv-x="283" d="M273 678l89 -128q-7 -12 -21 -17l-84 111l-125 -112q-13 6 -16 20l131 126q14 5 26 0z" />
<glyph unicode="&#x2dc;" horiz-adv-x="350" d="M154 564q-18 2 -26 13q38 66 96 66q27 0 66.5 -21.5t57.5 -21.5q35 0 53 44q20 0 28 -10q-12 -32 -34 -49.5t-48 -17.5q-28 0 -65.5 21.5t-57.5 21.5q-37 0 -70 -46z" />
<glyph unicode="&#x2000;" horiz-adv-x="415" />
<glyph unicode="&#x2001;" horiz-adv-x="831" />
<glyph unicode="&#x2002;" horiz-adv-x="415" />
<glyph unicode="&#x2003;" horiz-adv-x="831" />
<glyph unicode="&#x2004;" horiz-adv-x="277" />
<glyph unicode="&#x2005;" horiz-adv-x="207" />
<glyph unicode="&#x2006;" horiz-adv-x="138" />
<glyph unicode="&#x2007;" horiz-adv-x="138" />
<glyph unicode="&#x2008;" horiz-adv-x="103" />
<glyph unicode="&#x2009;" horiz-adv-x="166" />
<glyph unicode="&#x200a;" horiz-adv-x="46" />
<glyph unicode="&#x2010;" horiz-adv-x="370" d="M69 235v10q0 12 6 22h218v-7q0 -13 -6 -25h-218z" />
<glyph unicode="&#x2011;" horiz-adv-x="370" d="M69 235v10q0 12 6 22h218v-7q0 -13 -6 -25h-218z" />
<glyph unicode="&#x2012;" horiz-adv-x="370" d="M69 235v10q0 12 6 22h218v-7q0 -13 -6 -25h-218z" />
<glyph unicode="&#x2013;" horiz-adv-x="554" d="M68 233v10q0 13 6 23h403l1 -8q0 -11 -7 -25h-403z" />
<glyph unicode="&#x2014;" horiz-adv-x="1024" d="M69 234q-1 2 -1 10q0 10 7 22h872q1 -2 1 -7q0 -15 -7 -25h-872z" />
<glyph unicode="&#x2018;" horiz-adv-x="185" d="M125 481q-13 0 -18 3q-1 3 -1 23q0 51 25 94t56 69q12 -2 12 -12q-27 -26 -40.5 -66.5t-13.5 -72.5q0 -25 2 -34q-9 -4 -22 -4z" />
<glyph unicode="&#x2019;" horiz-adv-x="185" d="M108 481q-10 2 -12 12q27 27 41 67t14 72q0 20 -3 34q9 4 22 4t18 -3q2 -6 2 -23q0 -51 -25.5 -94.5t-56.5 -68.5z" />
<glyph unicode="&#x201a;" horiz-adv-x="188" d="M1 -100q-12 2 -12 12q28 26 41.5 66.5t13.5 71.5q0 21 -3 36q11 3 22 3q13 0 18 -2q2 -8 2 -23q0 -51 -25.5 -94.5t-56.5 -69.5z" />
<glyph unicode="&#x201c;" horiz-adv-x="292" d="M125 481q-13 0 -18 3q0 1 -0.5 9t-0.5 14q0 50 25 93.5t56 69.5q12 -2 12 -12q-28 -27 -41 -67.5t-13 -71.5q0 -25 2 -34q-8 -4 -22 -4zM232 481q-13 0 -18 3q-1 3 -1 23q0 51 25.5 94t56.5 69q11 -2 11 -12q-27 -26 -40.5 -66.5t-13.5 -72.5q0 -16 2 -34q-8 -4 -22 -4z " />
<glyph unicode="&#x201d;" horiz-adv-x="293" d="M108 480q-11 2 -11 12q27 26 40.5 66t13.5 72q0 17 -2 35q12 4 21 4q11 0 18 -3q2 -6 2 -23q0 -51 -25.5 -95t-56.5 -68zM215 480q-11 2 -11 12q28 27 41 67.5t13 70.5q0 17 -2 35q12 4 22 4t17 -3q2 -6 2 -23q0 -51 -25.5 -95t-56.5 -68z" />
<glyph unicode="&#x201e;" horiz-adv-x="295" d="M1 -100q-11 2 -11 12q27 27 40.5 67.5t13.5 72.5q0 20 -3 34q11 3 22 3q13 0 18 -2q2 -8 2 -23q0 -51 -25.5 -94.5t-56.5 -69.5zM108 -100q-11 2 -11 12q28 27 41 68t13 72q0 16 -2 34q9 3 21 3q13 0 18 -2q2 -8 2 -23q0 -51 -25.5 -94.5t-56.5 -69.5z" />
<glyph unicode="&#x2022;" horiz-adv-x="350" d="M172 173q-35 0 -60.5 25.5t-25.5 60.5q0 36 25.5 61t60.5 25q36 0 61 -25t25 -61q0 -35 -25 -60.5t-61 -25.5z" />
<glyph unicode="&#x2026;" horiz-adv-x="510" d="M65 -8q-14 0 -23.5 9.5t-9.5 23.5q0 13 10 23t23 10q14 0 23.5 -9.5t9.5 -23.5t-9.5 -23.5t-23.5 -9.5zM221 -8q-14 0 -24 9.5t-10 23.5q0 13 10 23t24 10q13 0 23 -10t10 -23q0 -14 -9.5 -23.5t-23.5 -9.5zM377 -8q-14 0 -24 9.5t-10 23.5q0 13 10 23t24 10q13 0 23 -10 t10 -23q0 -14 -9.5 -23.5t-23.5 -9.5z" />
<glyph unicode="&#x202f;" horiz-adv-x="166" />
<glyph unicode="&#x2039;" horiz-adv-x="255" d="M139 113l-95 143l146 146q11 -4 14 -16l-113 -131l69 -127q-7 -11 -21 -15z" />
<glyph unicode="&#x203a;" horiz-adv-x="254" d="M59 113q-12 4 -15 15l113 127l-67 131q6 11 20 16l95 -146z" />
<glyph unicode="&#x205f;" horiz-adv-x="207" />
<glyph unicode="&#x20ac;" horiz-adv-x="620" d="M449 657q106 0 170 -69q-9 -17 -25 -24q-64 59 -150 59q-94 0 -163 -56t-101 -156h223v-7q0 -12 -6 -24h-226q-13 -57 -14 -116h204q0 -9 -1 -13q0 -7 -5 -19h-198q5 -99 54 -154.5t142 -55.5q99 0 171 60q15 -8 16 -25q-83 -68 -193 -68q-109 0 -166.5 65t-62.5 178h-86 v7q0 11 6 25h80q1 60 14 116h-58v7q0 11 6 24h61q35 115 117.5 180.5t190.5 65.5z" />
<glyph unicode="&#x2122;" horiz-adv-x="704" d="M663 658q9 0 25 -2l-61 -348q-10 -2 -18 -2q-7 0 -15 2l44 248l8 34l-3 -6l-143 -242q-7 -3 -18 -3q-8 0 -16 3l-67 243l-1 5l-4 -34l-44 -248q-8 -2 -16 -2q-7 0 -17 2l61 348q10 3 26 3h10l71 -252l5 -26l15 26l149 251h9zM344 626h-104l-57 -318q-5 -2 -16 -2t-17 2 l56 318h-111l-1 7q0 10 6 24h250q0 -9 -1 -13q0 -9 -5 -18z" />
<glyph unicode="&#x25fc;" horiz-adv-x="470" d="M0 470h470v-470h-470v470z" />
<glyph horiz-adv-x="554" d="M363 642q76 -265 118 -639q-11 -6 -27 -6q-5 0 -13 2q-12 118 -25 205h-302q-47 -91 -99 -205q-4 -1 -13 -1q-15 0 -25 5q177 378 349 639q6 2 19 2q12 0 18 -2zM131 238h281q-29 186 -68 328l-8 29l-17 -30q-90 -138 -188 -327z" />
<glyph horiz-adv-x="554" d="M270 684q-9 7 -10 20l174 101q14 -9 17 -33zM363 642q76 -265 118 -639q-11 -6 -27 -6q-5 0 -13 2q-12 118 -25 205h-302q-47 -91 -99 -205q-4 -1 -13 -1q-15 0 -25 5q177 378 349 639q6 2 19 2q12 0 18 -2zM131 238h281q-29 186 -68 328l-8 29l-17 -30 q-90 -138 -188 -327z" />
<glyph horiz-adv-x="554" d="M235 677q-11 6 -12 19l126 106q17 3 30 0l90 -106q-4 -10 -18 -19l-91 93zM363 642q76 -265 118 -639q-11 -6 -27 -6q-5 0 -13 2q-12 118 -25 205h-302q-47 -91 -99 -205q-4 -1 -13 -1q-15 0 -25 5q177 378 349 639q6 2 19 2q12 0 18 -2zM131 238h281q-29 186 -68 328 l-8 29l-17 -30q-90 -138 -188 -327z" />
<glyph horiz-adv-x="554" d="M260 719q-13 0 -22.5 9.5t-9.5 22.5t9.5 22.5t22.5 9.5t23 -9.5t10 -22.5t-9.5 -22.5t-23.5 -9.5zM452 719q-13 0 -22.5 9.5t-9.5 22.5t9.5 22.5t22.5 9.5t23 -9.5t10 -22.5t-9.5 -22.5t-23.5 -9.5zM345 644q12 0 18 -2q76 -265 118 -639q-11 -6 -27 -6q-5 0 -13 2 q-12 118 -25 205h-302q-47 -91 -99 -205q-4 -1 -13 -1q-15 0 -25 5q177 378 349 639q6 2 19 2zM131 238h281q-29 186 -68 328l-8 29l-17 -30q-90 -138 -188 -327z" />
<glyph horiz-adv-x="554" d="M433 705q-4 -13 -13 -21l-151 90q6 22 24 34zM363 642q76 -265 118 -639q-11 -6 -27 -6q-5 0 -13 2q-12 118 -25 205h-302q-47 -91 -99 -205q-4 -1 -13 -1q-15 0 -25 5q177 378 349 639q6 2 19 2q12 0 18 -2zM131 238h281q-29 186 -68 328l-8 29l-17 -30 q-90 -138 -188 -327z" />
<glyph horiz-adv-x="554" d="M347 654q-36 0 -56.5 21.5t-20.5 54.5q0 44 28 72.5t66 28.5q36 0 56.5 -21t20.5 -54q0 -47 -27 -74.5t-67 -27.5zM361 803q-26 0 -44 -20t-18 -49q0 -23 13 -37.5t39 -14.5q28 0 44.5 19t16.5 51q0 23 -12.5 37t-38.5 14zM363 642q76 -265 118 -639q-11 -6 -27 -6 q-5 0 -13 2q-12 118 -25 205h-302q-47 -91 -99 -205q-4 -1 -13 -1q-15 0 -25 5q177 378 349 639q6 2 19 2q12 0 18 -2zM131 238h281q-29 186 -68 328l-8 29l-17 -30q-90 -138 -188 -327z" />
<glyph horiz-adv-x="554" d="M485 784q19 0 27 -10q-28 -68 -85 -68q-29 0 -69 22t-61 22q-39 0 -71 -47q-19 2 -26 12q22 36 44 52t55 16q28 0 69 -22t61 -22q38 0 56 45zM345 644q12 0 18 -2q76 -265 118 -639q-11 -6 -27 -6q-5 0 -13 2q-12 118 -25 205h-302q-47 -91 -99 -205q-4 -1 -13 -1 q-15 0 -25 5q177 378 349 639q6 2 19 2zM131 238h281q-29 186 -68 328l-8 29l-17 -30q-90 -138 -188 -327z" />
<glyph horiz-adv-x="469" d="M330 651q88 0 138 -41q-6 -17 -22 -30q-48 37 -121 37q-76 0 -124 -41t-48 -109q0 -45 35 -77t108 -32h67q1 -2 1 -8q0 -14 -7 -26h-72q-97 0 -153.5 -52t-56.5 -125q0 -59 38 -90t110 -31q95 0 167 50q13 -9 13 -29q-79 -55 -186 -55q-86 0 -133.5 38t-47.5 110 q0 78 48 130t120 72q-41 15 -64.5 46.5t-23.5 75.5q0 84 61.5 135.5t152.5 51.5z" />
<glyph horiz-adv-x="469" d="M254 684q-9 7 -10 20l174 101q14 -9 17 -33zM330 651q88 0 138 -41q-6 -17 -22 -30q-48 37 -121 37q-76 0 -124 -41t-48 -109q0 -45 35 -77t108 -32h67q1 -2 1 -8q0 -14 -7 -26h-72q-97 0 -153.5 -52t-56.5 -125q0 -59 38 -90t110 -31q95 0 167 50q13 -9 13 -29 q-79 -55 -186 -55q-86 0 -133.5 38t-47.5 110q0 78 48 130t120 72q-41 15 -64.5 46.5t-23.5 75.5q0 84 61.5 135.5t152.5 51.5z" />
<glyph horiz-adv-x="469" d="M219 677q-11 6 -12 19l126 106q17 3 30 0l90 -106q-4 -10 -18 -19l-91 93zM330 651q88 0 138 -41q-6 -17 -22 -30q-48 37 -121 37q-76 0 -124 -41t-48 -109q0 -45 35 -77t108 -32h67q1 -2 1 -8q0 -14 -7 -26h-72q-97 0 -153.5 -52t-56.5 -125q0 -59 38 -90t110 -31 q95 0 167 50q13 -9 13 -29q-79 -55 -186 -55q-86 0 -133.5 38t-47.5 110q0 78 48 130t120 72q-41 15 -64.5 46.5t-23.5 75.5q0 84 61.5 135.5t152.5 51.5z" />
<glyph horiz-adv-x="469" d="M244 719q-13 0 -22.5 9.5t-9.5 22.5t9.5 22.5t22.5 9.5t23 -9.5t10 -22.5t-9.5 -22.5t-23.5 -9.5zM436 719q-13 0 -22.5 9.5t-9.5 22.5t9.5 22.5t22.5 9.5t23 -9.5t10 -22.5t-9.5 -22.5t-23.5 -9.5zM116 464q0 84 61.5 135.5t152.5 51.5q88 0 138 -41q-6 -17 -22 -30 q-48 37 -121 37q-76 0 -124 -41t-48 -109q0 -45 35 -77t108 -32h67q1 -2 1 -8q0 -14 -7 -26h-72q-97 0 -153.5 -52t-56.5 -125q0 -59 38 -90t110 -31q95 0 167 50q13 -9 13 -29q-79 -55 -186 -55q-86 0 -133.5 38t-47.5 110q0 78 48 130t120 72q-41 15 -64.5 46.5 t-23.5 75.5z" />
<glyph horiz-adv-x="469" d="M417 705q-4 -13 -13 -21l-151 90q6 22 24 34zM330 651q88 0 138 -41q-6 -17 -22 -30q-48 37 -121 37q-76 0 -124 -41t-48 -109q0 -45 35 -77t108 -32h67q1 -2 1 -8q0 -14 -7 -26h-72q-97 0 -153.5 -52t-56.5 -125q0 -59 38 -90t110 -31q95 0 167 50q13 -9 13 -29 q-79 -55 -186 -55q-86 0 -133.5 38t-47.5 110q0 78 48 130t120 72q-41 15 -64.5 46.5t-23.5 75.5q0 84 61.5 135.5t152.5 51.5z" />
<glyph horiz-adv-x="679" d="M633 389q0 -125 -43 -217.5t-121 -140.5l57 -94q-9 -16 -29 -19l-59 98q-57 -27 -129 -27q-117 0 -182 72.5t-65 193.5q0 177 90 289t231 112q118 0 184 -73.5t66 -193.5zM316 24q58 0 105 21l-56 93q11 12 28 18l58 -95q68 43 105 128t37 199q0 106 -56.5 169.5 t-159.5 63.5q-124 0 -199.5 -102.5t-75.5 -260.5q0 -109 55.5 -171.5t158.5 -62.5z" />
<glyph horiz-adv-x="537" d="M412 111q-11 -65 42 -88q-2 -20 -18 -30q-61 18 -64 81q-72 -84 -175 -84q-68 0 -112.5 46t-44.5 136q0 139 84 224t197 85q90 0 149 -40zM206 25q48 0 94.5 27t77.5 77l51 290q-42 27 -111 27q-97 0 -168 -73t-71 -195q0 -74 34 -113.5t93 -39.5z" />
<glyph horiz-adv-x="479" d="M358 74q0 -19 9 -29.5t32 -18.5q-2 -22 -16 -32q-31 6 -45.5 21t-15.5 45q0 6 6 38q-60 -108 -178 -108q-62 0 -98.5 31.5t-36.5 88.5q0 71 57.5 112.5t155.5 42.5h126l5 32q4 21 4 43q0 106 -115 106q-71 0 -141 -49q-13 8 -17 25q73 59 165 59q66 0 106 -32t40 -100 q0 -24 -4 -47l-13 -70l-23 -129q-3 -17 -3 -29zM158 23q67 0 119.5 49t69.5 160l-125 -1q-85 0 -126 -33.5t-41 -84.5q0 -42 26.5 -66t76.5 -24z" />
<glyph horiz-adv-x="474" d="M260 481q79 0 120.5 -43t26.5 -131l-49 -279q-76 -38 -177 -38q-81 0 -122 35.5t-41 97.5q0 74 58.5 117.5t143.5 43.5q84 0 142 -27l8 47q12 71 -20.5 106.5t-97.5 35.5q-74 0 -142 -49q-17 9 -17 26q72 58 167 58zM58 126q0 -47 33 -74.5t96 -27.5q80 0 138 27l30 170 q-56 29 -141 29q-73 0 -114.5 -34.5t-41.5 -89.5z" />
<glyph horiz-adv-x="537" d="M260 530q-10 7 -14 21l156 127q20 -10 24 -33zM412 111q-11 -65 42 -88q-2 -20 -18 -30q-61 18 -64 81q-72 -84 -175 -84q-68 0 -112.5 46t-44.5 136q0 139 84 224t197 85q90 0 149 -40zM206 25q48 0 94.5 27t77.5 77l51 290q-42 27 -111 27q-97 0 -168 -73t-71 -195 q0 -74 34 -113.5t93 -39.5z" />
<glyph horiz-adv-x="479" d="M190 530q-10 7 -14 21l156 127q20 -10 24 -33zM358 74q0 -19 9 -29.5t32 -18.5q-2 -22 -16 -32q-31 6 -45.5 21t-15.5 45q0 6 6 38q-60 -108 -178 -108q-62 0 -98.5 31.5t-36.5 88.5q0 71 57.5 112.5t155.5 42.5h126l5 32q4 21 4 43q0 106 -115 106q-71 0 -141 -49 q-13 8 -17 25q73 59 165 59q66 0 106 -32t40 -100q0 -24 -4 -47l-13 -70l-23 -129q-3 -17 -3 -29zM158 23q67 0 119.5 49t69.5 160l-125 -1q-85 0 -126 -33.5t-41 -84.5q0 -42 26.5 -66t76.5 -24z" />
<glyph horiz-adv-x="474" d="M205 530q-10 7 -14 21l156 127q19 -10 24 -33zM260 481q79 0 120.5 -43t26.5 -131l-49 -279q-76 -38 -177 -38q-81 0 -122 35.5t-41 97.5q0 74 58.5 117.5t143.5 43.5q84 0 142 -27l8 47q12 71 -20.5 106.5t-97.5 35.5q-74 0 -142 -49q-17 9 -17 26q72 58 167 58zM58 126 q0 -47 33 -74.5t96 -27.5q80 0 138 27l30 170q-56 29 -141 29q-73 0 -114.5 -34.5t-41.5 -89.5z" />
<glyph horiz-adv-x="537" d="M218 532q-13 6 -16 20l131 126q14 5 26 0l89 -128q-7 -12 -21 -17l-84 111zM412 111q-11 -65 42 -88q-2 -20 -18 -30q-61 18 -64 81q-72 -84 -175 -84q-68 0 -112.5 46t-44.5 136q0 139 84 224t197 85q90 0 149 -40zM206 25q48 0 94.5 27t77.5 77l51 290q-42 27 -111 27 q-97 0 -168 -73t-71 -195q0 -74 34 -113.5t93 -39.5z" />
<glyph horiz-adv-x="479" d="M149 532q-13 6 -16 20l131 126q14 5 26 0l89 -128q-7 -12 -21 -17l-84 111zM358 74q0 -19 9 -29.5t32 -18.5q-2 -22 -16 -32q-31 6 -45.5 21t-15.5 45q0 6 6 38q-60 -108 -178 -108q-62 0 -98.5 31.5t-36.5 88.5q0 71 57.5 112.5t155.5 42.5h126l5 32q4 21 4 43 q0 106 -115 106q-71 0 -141 -49q-13 8 -17 25q73 59 165 59q66 0 106 -32t40 -100q0 -24 -4 -47l-13 -70l-23 -129q-3 -17 -3 -29zM158 23q67 0 119.5 49t69.5 160l-125 -1q-85 0 -126 -33.5t-41 -84.5q0 -42 26.5 -66t76.5 -24z" />
<glyph horiz-adv-x="474" d="M164 532q-13 6 -16 20l131 126q14 5 26 0l89 -128q-7 -12 -21 -17l-84 111zM260 481q79 0 120.5 -43t26.5 -131l-49 -279q-76 -38 -177 -38q-81 0 -122 35.5t-41 97.5q0 74 58.5 117.5t143.5 43.5q84 0 142 -27l8 47q12 71 -20.5 106.5t-97.5 35.5q-74 0 -142 -49 q-17 9 -17 26q72 58 167 58zM58 126q0 -47 33 -74.5t96 -27.5q80 0 138 27l30 170q-56 29 -141 29q-73 0 -114.5 -34.5t-41.5 -89.5z" />
<glyph horiz-adv-x="537" d="M238 570q-13 0 -23 10t-10 23t10 22.5t23 9.5t22.5 -9.5t9.5 -22.5q0 -14 -9.5 -23.5t-22.5 -9.5zM431 570q-13 0 -23 10t-10 23t10 22.5t23 9.5t22.5 -9.5t9.5 -22.5q0 -14 -9.5 -23.5t-22.5 -9.5zM412 111q-11 -65 42 -88q-2 -20 -18 -30q-61 18 -64 81 q-72 -84 -175 -84q-68 0 -112.5 46t-44.5 136q0 139 84 224t197 85q90 0 149 -40zM206 25q48 0 94.5 27t77.5 77l51 290q-42 27 -111 27q-97 0 -168 -73t-71 -195q0 -74 34 -113.5t93 -39.5z" />
<glyph horiz-adv-x="479" d="M168 570q-13 0 -23 10t-10 23t10 22.5t23 9.5t22.5 -9.5t9.5 -22.5q0 -14 -9.5 -23.5t-22.5 -9.5zM361 570q-13 0 -23 10t-10 23t10 22.5t23 9.5t22.5 -9.5t9.5 -22.5q0 -14 -9.5 -23.5t-22.5 -9.5zM358 74q0 -19 9 -29.5t32 -18.5q-2 -22 -16 -32q-31 6 -45.5 21 t-15.5 45q0 6 6 38q-60 -108 -178 -108q-62 0 -98.5 31.5t-36.5 88.5q0 71 57.5 112.5t155.5 42.5h126l5 32q4 21 4 43q0 106 -115 106q-71 0 -141 -49q-13 8 -17 25q73 59 165 59q66 0 106 -32t40 -100q0 -24 -4 -47l-13 -70l-23 -129q-3 -17 -3 -29zM158 23q67 0 119.5 49 t69.5 160l-125 -1q-85 0 -126 -33.5t-41 -84.5q0 -42 26.5 -66t76.5 -24z" />
<glyph horiz-adv-x="474" d="M183 570q-13 0 -23 10t-10 23t10 22.5t23 9.5t22.5 -9.5t9.5 -22.5q0 -14 -9.5 -23.5t-22.5 -9.5zM376 570q-13 0 -23 10t-10 23t10 22.5t23 9.5t22.5 -9.5t9.5 -22.5q0 -14 -9.5 -23.5t-22.5 -9.5zM260 481q79 0 120.5 -43t26.5 -131l-49 -279q-76 -38 -177 -38 q-81 0 -122 35.5t-41 97.5q0 74 58.5 117.5t143.5 43.5q84 0 142 -27l8 47q12 71 -20.5 106.5t-97.5 35.5q-74 0 -142 -49q-17 9 -17 26q72 58 167 58zM58 126q0 -47 33 -74.5t96 -27.5q80 0 138 27l30 170q-56 29 -141 29q-73 0 -114.5 -34.5t-41.5 -89.5z" />
<glyph horiz-adv-x="537" d="M404 550q-4 -12 -16 -19l-129 116q10 23 29 30zM412 111q-11 -65 42 -88q-2 -20 -18 -30q-61 18 -64 81q-72 -84 -175 -84q-68 0 -112.5 46t-44.5 136q0 139 84 224t197 85q90 0 149 -40zM206 25q48 0 94.5 27t77.5 77l51 290q-42 27 -111 27q-97 0 -168 -73t-71 -195 q0 -74 34 -113.5t93 -39.5z" />
<glyph horiz-adv-x="479" d="M334 550q-4 -12 -16 -19l-129 116q10 23 29 30zM358 74q0 -19 9 -29.5t32 -18.5q-2 -22 -16 -32q-31 6 -45.5 21t-15.5 45q0 6 6 38q-60 -108 -178 -108q-62 0 -98.5 31.5t-36.5 88.5q0 71 57.5 112.5t155.5 42.5h126l5 32q4 21 4 43q0 106 -115 106q-71 0 -141 -49 q-13 8 -17 25q73 59 165 59q66 0 106 -32t40 -100q0 -24 -4 -47l-13 -70l-23 -129q-3 -17 -3 -29zM158 23q67 0 119.5 49t69.5 160l-125 -1q-85 0 -126 -33.5t-41 -84.5q0 -42 26.5 -66t76.5 -24z" />
<glyph horiz-adv-x="474" d="M349 550q-4 -12 -16 -19l-129 116q10 23 29 30zM260 481q79 0 120.5 -43t26.5 -131l-49 -279q-76 -38 -177 -38q-81 0 -122 35.5t-41 97.5q0 74 58.5 117.5t143.5 43.5q84 0 142 -27l8 47q12 71 -20.5 106.5t-97.5 35.5q-74 0 -142 -49q-17 9 -17 26q72 58 167 58z M58 126q0 -47 33 -74.5t96 -27.5q80 0 138 27l30 170q-56 29 -141 29q-73 0 -114.5 -34.5t-41.5 -89.5z" />
<glyph horiz-adv-x="537" d="M325 512q-36 0 -56.5 21.5t-20.5 55.5q0 44 28 72.5t66 28.5q37 0 57 -21.5t20 -56.5q0 -45 -27 -72.5t-67 -27.5zM339 661q-25 0 -43.5 -19.5t-18.5 -48.5q0 -23 13 -37.5t38 -14.5q29 0 45.5 18t16.5 50q0 52 -51 52zM412 111q-11 -65 42 -88q-2 -20 -18 -30 q-61 18 -64 81q-72 -84 -175 -84q-68 0 -112.5 46t-44.5 136q0 139 84 224t197 85q90 0 149 -40zM206 25q48 0 94.5 27t77.5 77l51 290q-42 27 -111 27q-97 0 -168 -73t-71 -195q0 -74 34 -113.5t93 -39.5z" />
<glyph horiz-adv-x="479" d="M256 512q-36 0 -56.5 21.5t-20.5 55.5q0 44 28 72.5t66 28.5q37 0 57 -21.5t20 -56.5q0 -45 -27 -72.5t-67 -27.5zM270 661q-25 0 -43.5 -19.5t-18.5 -48.5q0 -23 13 -37.5t38 -14.5q29 0 45.5 18t16.5 50q0 52 -51 52zM358 74q0 -19 9 -29.5t32 -18.5q-2 -22 -16 -32 q-31 6 -45.5 21t-15.5 45q0 6 6 38q-60 -108 -178 -108q-62 0 -98.5 31.5t-36.5 88.5q0 71 57.5 112.5t155.5 42.5h126l5 32q4 21 4 43q0 106 -115 106q-71 0 -141 -49q-13 8 -17 25q73 59 165 59q66 0 106 -32t40 -100q0 -24 -4 -47l-13 -70l-23 -129q-3 -17 -3 -29z M158 23q67 0 119.5 49t69.5 160l-125 -1q-85 0 -126 -33.5t-41 -84.5q0 -42 26.5 -66t76.5 -24z" />
<glyph horiz-adv-x="474" d="M271 512q-36 0 -56.5 21.5t-20.5 55.5q0 44 28 72.5t66 28.5q37 0 57 -21.5t20 -56.5q0 -45 -27 -72.5t-67 -27.5zM285 661q-25 0 -43.5 -19.5t-18.5 -48.5q0 -23 13 -37.5t38 -14.5q29 0 45.5 18t16.5 50q0 52 -51 52zM260 481q79 0 120.5 -43t26.5 -131l-49 -279 q-76 -38 -177 -38q-81 0 -122 35.5t-41 97.5q0 74 58.5 117.5t143.5 43.5q84 0 142 -27l8 47q12 71 -20.5 106.5t-97.5 35.5q-74 0 -142 -49q-17 9 -17 26q72 58 167 58zM58 126q0 -47 33 -74.5t96 -27.5q80 0 138 27l30 170q-56 29 -141 29q-73 0 -114.5 -34.5t-41.5 -89.5 z" />
<glyph horiz-adv-x="537" d="M211 564q-18 2 -26 13q38 66 96 66q27 0 66 -21.5t58 -21.5q35 0 53 44q20 0 28 -10q-12 -32 -34 -49.5t-48 -17.5q-28 0 -65.5 21.5t-57.5 21.5q-37 0 -70 -46zM470 441l-58 -330q-11 -65 42 -88q-2 -20 -18 -30q-61 18 -64 81q-72 -84 -175 -84q-68 0 -112.5 46 t-44.5 136q0 139 84 224t197 85q90 0 149 -40zM378 129l51 290q-42 27 -111 27q-97 0 -168 -73t-71 -195q0 -74 34 -113.5t93 -39.5q48 0 94.5 27t77.5 77z" />
<glyph horiz-adv-x="479" d="M141 564q-18 2 -26 13q38 66 96 66q28 0 66.5 -21.5t57.5 -21.5q35 0 53 44q20 0 28 -10q-12 -32 -34 -49.5t-48 -17.5q-28 0 -65.5 21.5t-57.5 21.5q-37 0 -70 -46zM384 232l-23 -129q-3 -17 -3 -29q0 -19 9 -29.5t32 -18.5q-2 -22 -16 -32q-31 6 -45.5 21t-15.5 45 q0 6 6 38q-60 -108 -178 -108q-62 0 -98.5 31.5t-36.5 88.5q0 71 57.5 112.5t155.5 42.5h126l5 32q4 21 4 43q0 106 -115 106q-71 0 -141 -49q-13 8 -17 25q73 59 165 59q66 0 106 -32t40 -100q0 -24 -4 -47zM158 23q67 0 119.5 49t69.5 160l-125 -1q-85 0 -126 -33.5 t-41 -84.5q0 -42 26.5 -66t76.5 -24z" />
<glyph horiz-adv-x="474" d="M156 564q-18 2 -26 13q38 66 96 66q28 0 67 -21.5t57 -21.5q35 0 53 44q20 0 28 -10q-12 -32 -34 -49.5t-48 -17.5q-28 0 -65.5 21.5t-57.5 21.5q-37 0 -70 -46zM260 481q79 0 120.5 -43t26.5 -131l-49 -279q-76 -38 -177 -38q-81 0 -122 35.5t-41 97.5q0 74 58.5 117.5 t143.5 43.5q84 0 142 -27l8 47q12 71 -20.5 106.5t-97.5 35.5q-74 0 -142 -49q-17 9 -17 26q72 58 167 58zM58 126q0 -47 33 -74.5t96 -27.5q80 0 138 27l30 170q-56 29 -141 29q-73 0 -114.5 -34.5t-41.5 -89.5z" />
<glyph horiz-adv-x="524" d="M312 481q72 0 115.5 -46.5t43.5 -132.5q0 -144 -83.5 -228t-203.5 -84q-88 0 -146 37l112 630q8 3 19 3t18 -3l-47 -262q72 86 172 86zM189 25q101 0 172 73.5t71 196.5q0 71 -34.5 111t-91.5 40q-105 0 -176 -108l-51 -288q45 -25 110 -25z" />
<glyph horiz-adv-x="525" d="M491 661q8 0 18 -2l-117 -660q-6 -2 -19 -2t-19 2l10 55l4 26q-72 -90 -175 -90q-67 0 -110.5 45t-43.5 132q0 143 84 229t197 86q70 0 116 -23l36 200q10 2 19 2zM201 25q52 0 100 31t79 89l49 274q-43 27 -114 27q-96 0 -166.5 -74.5t-70.5 -197.5q0 -71 33.5 -110 t89.5 -39z" />
<glyph horiz-adv-x="501" d="M450 241h-364q-3 -21 -3 -45q0 -81 42 -126.5t120 -45.5q79 0 141 56q18 -8 21 -27q-72 -63 -169 -63q-89 0 -141.5 53.5t-52.5 148.5q0 136 72.5 212.5t169.5 76.5q81 0 125 -47.5t44 -131.5q0 -36 -5 -61zM282 447q-70 0 -121.5 -47t-69.5 -127h323q3 21 3 34 q0 69 -37.5 104.5t-97.5 35.5z" />
<glyph horiz-adv-x="487" d="M284 225h-200q-2 -22 -2 -35q0 -76 44 -121t118 -45t134 54q18 -8 20 -29q-36 -29 -72 -44t-89 -15q-87 0 -140.5 51.5t-53.5 146.5q0 133 72.5 213t176.5 80q73 0 115 -35t42 -88q0 -64 -44.5 -98.5t-120.5 -34.5zM286 447q-72 0 -127 -51t-71 -139h202q52 0 85.5 25 t33.5 70q0 43 -31.5 69t-91.5 26z" />
<glyph horiz-adv-x="501" d="M223 530q-10 7 -14 21l156 127q19 -10 24 -33zM450 241h-364q-3 -21 -3 -45q0 -81 42 -126.5t120 -45.5q79 0 141 56q18 -8 21 -27q-72 -63 -169 -63q-89 0 -141.5 53.5t-52.5 148.5q0 136 72.5 212.5t169.5 76.5q81 0 125 -47.5t44 -131.5q0 -36 -5 -61zM282 447 q-70 0 -121.5 -47t-69.5 -127h323q3 21 3 34q0 69 -37.5 104.5t-97.5 35.5z" />
<glyph horiz-adv-x="487" d="M239 530q-10 7 -14 21l156 127q19 -10 24 -33zM284 225h-200q-2 -22 -2 -35q0 -76 44 -121t118 -45t134 54q18 -8 20 -29q-36 -29 -72 -44t-89 -15q-87 0 -140.5 51.5t-53.5 146.5q0 133 72.5 213t176.5 80q73 0 115 -35t42 -88q0 -64 -44.5 -98.5t-120.5 -34.5zM286 447 q-72 0 -127 -51t-71 -139h202q52 0 85.5 25t33.5 70q0 43 -31.5 69t-91.5 26z" />
<glyph horiz-adv-x="501" d="M181 532q-13 6 -16 20l131 126q14 5 26 0l89 -128q-7 -12 -21 -17l-84 111zM450 241h-364q-3 -21 -3 -45q0 -81 42 -126.5t120 -45.5q79 0 141 56q18 -8 21 -27q-72 -63 -169 -63q-89 0 -141.5 53.5t-52.5 148.5q0 136 72.5 212.5t169.5 76.5q81 0 125 -47.5t44 -131.5 q0 -36 -5 -61zM282 447q-70 0 -121.5 -47t-69.5 -127h323q3 21 3 34q0 69 -37.5 104.5t-97.5 35.5z" />
<glyph horiz-adv-x="487" d="M197 532q-13 6 -16 20l131 126q14 5 26 0l89 -128q-7 -12 -21 -17l-84 111zM284 225h-200q-2 -22 -2 -35q0 -76 44 -121t118 -45t134 54q18 -8 20 -29q-36 -29 -72 -44t-89 -15q-87 0 -140.5 51.5t-53.5 146.5q0 133 72.5 213t176.5 80q73 0 115 -35t42 -88 q0 -64 -44.5 -98.5t-120.5 -34.5zM286 447q-72 0 -127 -51t-71 -139h202q52 0 85.5 25t33.5 70q0 43 -31.5 69t-91.5 26z" />
<glyph horiz-adv-x="501" d="M201 570q-13 0 -23 10t-10 23t10 22.5t23 9.5t22.5 -9.5t9.5 -22.5q0 -14 -9.5 -23.5t-22.5 -9.5zM394 570q-13 0 -23 10t-10 23t10 22.5t23 9.5t22.5 -9.5t9.5 -22.5q0 -14 -9.5 -23.5t-22.5 -9.5zM450 241h-364q-3 -21 -3 -45q0 -81 42 -126.5t120 -45.5q79 0 141 56 q18 -8 21 -27q-72 -63 -169 -63q-89 0 -141.5 53.5t-52.5 148.5q0 136 72.5 212.5t169.5 76.5q81 0 125 -47.5t44 -131.5q0 -36 -5 -61zM282 447q-70 0 -121.5 -47t-69.5 -127h323q3 21 3 34q0 69 -37.5 104.5t-97.5 35.5z" />
<glyph horiz-adv-x="487" d="M217 570q-13 0 -23 10t-10 23t10 22.5t23 9.5t22.5 -9.5t9.5 -22.5q0 -14 -9.5 -23.5t-22.5 -9.5zM410 570q-13 0 -23 10t-10 23t10 22.5t23 9.5t22.5 -9.5t9.5 -22.5q0 -14 -9.5 -23.5t-22.5 -9.5zM284 225h-200q-2 -22 -2 -35q0 -76 44 -121t118 -45t134 54 q18 -8 20 -29q-36 -29 -72 -44t-89 -15q-87 0 -140.5 51.5t-53.5 146.5q0 133 72.5 213t176.5 80q73 0 115 -35t42 -88q0 -64 -44.5 -98.5t-120.5 -34.5zM286 447q-72 0 -127 -51t-71 -139h202q52 0 85.5 25t33.5 70q0 43 -31.5 69t-91.5 26z" />
<glyph horiz-adv-x="501" d="M367 550q-4 -12 -16 -19l-129 116q10 23 29 30zM450 241h-364q-3 -21 -3 -45q0 -81 42 -126.5t120 -45.5q79 0 141 56q18 -8 21 -27q-72 -63 -169 -63q-89 0 -141.5 53.5t-52.5 148.5q0 136 72.5 212.5t169.5 76.5q81 0 125 -47.5t44 -131.5q0 -36 -5 -61zM282 447 q-70 0 -121.5 -47t-69.5 -127h323q3 21 3 34q0 69 -37.5 104.5t-97.5 35.5z" />
<glyph horiz-adv-x="487" d="M383 550q-4 -12 -16 -19l-129 116q10 23 29 30zM284 225h-200q-2 -22 -2 -35q0 -76 44 -121t118 -45t134 54q18 -8 20 -29q-36 -29 -72 -44t-89 -15q-87 0 -140.5 51.5t-53.5 146.5q0 133 72.5 213t176.5 80q73 0 115 -35t42 -88q0 -64 -44.5 -98.5t-120.5 -34.5z M286 447q-72 0 -127 -51t-71 -139h202q52 0 85.5 25t33.5 70q0 43 -31.5 69t-91.5 26z" />
<glyph horiz-adv-x="308" d="M316 660q59 0 92 -26q-3 -18 -19 -29q-37 20 -79 20q-104 0 -124 -121l-6 -37h143q3 -16 -6 -31l-142 1l-75 -475q-12 -82 -55 -121.5t-109 -39.5q-61 0 -94 26q3 19 18 29q37 -20 79 -20q104 0 124 121l76 480h-91q-3 15 5 30h91l5 32q13 81 57.5 121t109.5 40z" />
<glyph horiz-adv-x="521" d="M316 481q96 0 153 -40l-77 -438q-15 -89 -81 -142t-154 -53q-67 0 -102.5 27.5t-35.5 74.5q0 91 149 132q-57 16 -90.5 59.5t-33.5 107.5q0 125 79 198.5t193 73.5zM83 215q0 -69 43 -109t115 -40q64 0 133 43l54 311q-42 26 -115 26q-96 0 -163 -62t-67 -169zM161 -158 q75 0 128 43.5t66 117.5l12 67q-53 -30 -107 -36q-113 -20 -158 -48.5t-45 -71.5q0 -34 27.5 -53t76.5 -19z" />
<glyph horiz-adv-x="443" d="M452 517q-36 -69 -98 -77q40 -46 40 -114q0 -79 -51 -130t-137 -51q-32 0 -56 7q-31 -27 -31 -57q0 -20 24.5 -31.5t59 -19t69.5 -17.5t59 -34t24 -61q0 -59 -52.5 -93.5t-145.5 -34.5q-126 0 -183 53q8 20 24 29q53 -47 163 -47q75 0 116 24.5t41 65.5q0 29 -24.5 47 t-59 26l-69 16t-59 25.5t-24.5 46.5q0 38 37 75q-67 37 -67 127q0 81 57 132t145 51h74q64 0 93 61q21 -3 31 -19zM210 180q67 0 107 41t40 108q0 66 -45 110h-63q-69 0 -114 -40.5t-45 -105.5q0 -54 32 -83.5t88 -29.5z" />
<glyph horiz-adv-x="489" d="M496 506q-30 -39 -61 -50t-94 -12q76 -36 76 -140q0 -52 -22.5 -97.5t-63.5 -72.5q59 -45 59 -129q0 -83 -61 -140t-159 -57q-135 0 -186 82q12 17 32 24q42 -70 157 -70q80 0 128.5 47.5t48.5 110.5q0 75 -58 113q-30 -12 -68 -12q-84 0 -131 44t-47 119 q0 93 61.5 151.5t148.5 58.5h92q44 0 70.5 10.5t50.5 41.5q20 -6 27 -22zM380 301q0 58 -32 98.5t-100 40.5t-116 -47.5t-48 -124.5q0 -61 37 -95.5t100 -34.5q71 0 115 48t44 115z" />
<glyph horiz-adv-x="476" d="M488 508q-26 -36 -52 -51.5t-65 -17.5q34 -44 34 -110q0 -84 -50 -136t-138 -52h-46q-44 0 -69.5 -21t-25.5 -51q0 -27 19 -43t56 -16h221q1 -2 1 -10q0 -15 -7 -26h-221q-109 0 -109 89q0 34 22 61.5t66 39.5q-61 38 -61 123q0 86 57.5 137t149.5 51h78q42 0 66 11 t45 41q21 -3 29 -19zM221 176q68 0 107.5 42t39.5 113q0 65 -38 108h-68q-71 0 -115.5 -40.5t-44.5 -109.5q0 -53 31 -83t88 -30z" />
<glyph horiz-adv-x="488" d="M452 368q0 -132 -171 -178l121 -189q-14 -4 -28 -4q-13 0 -19 1l-112 178q-9 18 -8 35q90 21 134 54.5t44 95.5q0 38 -27 61.5t-72 23.5q-64 0 -120 -47.5t-73 -124.5l-48 -274q-7 -3 -19 -3q-10 0 -18 3l116 657q9 3 19 3q11 0 18 -3l-49 -278q70 102 181 102 q60 0 95.5 -31.5t35.5 -81.5z" />
<glyph horiz-adv-x="451" d="M439 466q-86 -133 -228 -223l187 -242q-10 -3 -29 -3q-11 0 -17 1l-173 225q-37 -21 -73 -35l-33 -189q-7 -3 -19 -3q-10 0 -18 3l116 657q9 3 19 3q11 0 18 -3l-76 -428q76 34 157.5 101.5t128.5 136.5q7 1 20 1q12 0 20 -2z" />
<glyph horiz-adv-x="210" d="M57 -3q-10 0 -19 3l117 658q7 3 19 3q10 0 18 -3l-116 -658q-9 -3 -19 -3z" />
<glyph horiz-adv-x="526" d="M319 481q66 0 110 -45.5t44 -134.5q0 -142 -83.5 -226.5t-198.5 -84.5q-70 0 -116 20l-35 -198q-12 -2 -19 -2q-10 0 -18 2l38 217l78 440q12 2 19 2t19 -2l-14 -77q69 89 176 89zM196 25q97 0 167.5 73.5t70.5 195.5q0 73 -33.5 112.5t-90.5 39.5q-110 0 -177 -114 l-50 -280q41 -27 113 -27z" />
<glyph horiz-adv-x="524" d="M327 479q87 0 146 -38l-111 -630q-12 -2 -19 -2q-8 0 -18 2l47 264q-73 -88 -173 -88q-72 0 -115.5 47t-43.5 133q0 144 83.5 228t203.5 84zM206 22q104 0 175 109l51 288q-44 24 -110 24q-101 0 -172 -73t-71 -196q0 -71 35 -111.5t92 -40.5z" />
<glyph horiz-adv-x="504" d="M131 -12q-38 0 -60.5 22t-22.5 61q0 8 2 26l63 368q10 3 20 3q11 0 18 -3l-61 -356q-2 -18 -2 -25q0 -60 54 -60q32 0 80 28t94.5 74t79.5 115t33 141q-2 51 -19 87q8 2 21 2q8 0 20 -2q15 -32 15 -88q0 -74 -34 -148t-84 -126.5t-109 -85.5t-108 -33z" />
<glyph horiz-adv-x="463" d="M438 467q11 0 20 -3q-19 -114 -102 -249t-170 -216q-9 -3 -19 -3q-13 0 -20 3q-30 81 -54 214.5t-28 250.5q12 3 24 3q9 0 15 -2q2 -107 23.5 -232.5t42.5 -187.5l3 -13l10 10q68 65 143 191t93 232q8 2 19 2z" />
<glyph horiz-adv-x="695" d="M664 467q8 0 20 -3q-28 -126 -94 -259.5t-138 -205.5q-8 -3 -20 -3t-19 3q-44 174 -49 382q-28 -105 -82.5 -208t-112.5 -174q-7 -3 -19 -3t-18 3q-27 82 -46.5 215t-20.5 250q9 3 21 3q9 0 15 -2q3 -107 19.5 -234.5t33.5 -187.5l3 -13q1 2 4 6.5t5 6.5 q49 68 105.5 186.5t81.5 227.5q10 2 21 2t19 -2q0 -153 43 -414q2 -10 2 -17q6 9 14 17q48 52 109 180t87 242q4 2 16 2z" />
<glyph horiz-adv-x="515" d="M446 468q10 0 19 -3l-83 -467q-15 -86 -77 -138t-150 -52q-59 0 -93 26.5t-34 74.5q0 91 144 128q-145 15 -118 173l45 255q9 3 19 3t18 -3l-42 -240q-14 -77 12.5 -119.5t108.5 -42.5q84 0 149 42l64 360q8 3 18 3zM161 -158q70 0 121 43.5t63 112.5l12 67 q-58 -28 -115 -36q-100 -19 -137.5 -48.5t-37.5 -67.5q0 -35 26 -53t68 -18z" />
<glyph horiz-adv-x="488" d="M438 465q7 -32 7 -64q0 -184 -124.5 -340.5t-356.5 -260.5q-12 7 -15 30q153 72 253 157q-66 82 -102 198.5t-36 239.5q0 3 1 18.5t2 21.5q15 3 21 3q10 0 18 -2q-3 -24 -3 -51q0 -116 35 -224.5t92 -178.5q178 168 178 387q0 34 -10 65q6 3 22 3q10 0 18 -2z" />
<glyph horiz-adv-x="515" d="M222 530q-10 7 -14 21l156 127q20 -10 24 -33zM446 468q10 0 19 -3l-83 -467q-15 -86 -77 -138t-150 -52q-59 0 -93 26.5t-34 74.5q0 91 144 128q-145 15 -118 173l45 255q9 3 19 3t18 -3l-42 -240q-14 -77 12.5 -119.5t108.5 -42.5q84 0 149 42l64 360q8 3 18 3z M161 -158q70 0 121 43.5t63 112.5l12 67q-58 -28 -115 -36q-100 -19 -137.5 -48.5t-37.5 -67.5q0 -35 26 -53t68 -18z" />
<glyph horiz-adv-x="488" d="M189 530q-10 7 -14 21l156 127q19 -10 24 -33zM438 465q7 -32 7 -64q0 -184 -124.5 -340.5t-356.5 -260.5q-12 7 -15 30q153 72 253 157q-66 82 -102 198.5t-36 239.5q0 3 1 18.5t2 21.5q15 3 21 3q10 0 18 -2q-3 -24 -3 -51q0 -116 35 -224.5t92 -178.5q178 168 178 387 q0 34 -10 65q6 3 22 3q10 0 18 -2z" />
<glyph horiz-adv-x="515" d="M200 570q-13 0 -23 10t-10 23t10 22.5t23 9.5t22.5 -9.5t9.5 -22.5q0 -14 -9.5 -23.5t-22.5 -9.5zM393 570q-13 0 -23 10t-10 23t10 22.5t23 9.5t22.5 -9.5t9.5 -22.5q0 -14 -9.5 -23.5t-22.5 -9.5zM446 468q10 0 19 -3l-83 -467q-15 -86 -77 -138t-150 -52 q-59 0 -93 26.5t-34 74.5q0 91 144 128q-145 15 -118 173l45 255q9 3 19 3t18 -3l-42 -240q-14 -77 12.5 -119.5t108.5 -42.5q84 0 149 42l64 360q8 3 18 3zM161 -158q70 0 121 43.5t63 112.5l12 67q-58 -28 -115 -36q-100 -19 -137.5 -48.5t-37.5 -67.5q0 -35 26 -53 t68 -18z" />
<glyph horiz-adv-x="488" d="M167 570q-13 0 -23 10t-10 23t10 22.5t23 9.5t22.5 -9.5t9.5 -22.5q0 -14 -9.5 -23.5t-22.5 -9.5zM360 570q-13 0 -23 10t-10 23t10 22.5t23 9.5t22.5 -9.5t9.5 -22.5q0 -14 -9.5 -23.5t-22.5 -9.5zM438 465q7 -32 7 -64q0 -184 -124.5 -340.5t-356.5 -260.5 q-12 7 -15 30q153 72 253 157q-66 82 -102 198.5t-36 239.5q0 3 1 18.5t2 21.5q15 3 21 3q10 0 18 -2q-3 -24 -3 -51q0 -116 35 -224.5t92 -178.5q178 168 178 387q0 34 -10 65q6 3 22 3q10 0 18 -2z" />
<glyph horiz-adv-x="503" d="M332 625q-138 0 -164 -148l-2 -10h286l-82 -467q-9 -3 -19 -3t-19 3l78 436l-249 1l-78 -475q-13 -81 -56.5 -121t-106.5 -40t-96 26q5 20 20 29q35 -20 79 -20q103 0 123 121l80 480h-70v13q1 9 6 17h69l1 3q17 102 73 146t133 44q88 0 134 -51q-5 -19 -27 -26 q-45 42 -113 42z" />
<glyph horiz-adv-x="556" d="M496 55q17 -10 17 -26q-42 -36 -93 -36q-46 0 -70 26.5t-15 76.5l87 510q-43 19 -92 19q-59 0 -104.5 -36t-58.5 -113l-1 -9h138q1 -2 1 -8q0 -11 -6 -23l-138 1l-78 -475q-13 -81 -57.5 -121t-108.5 -40q-60 0 -93 26q5 20 20 29q35 -20 79 -20q50 0 81 26.5t42 94.5 l79 480h-69q-1 7 0 13q0 4 5 17h69l1 5q10 66 44 110t74.5 61t87.5 17q76 0 126 -31l-91 -530q-6 -35 8.5 -53.5t45.5 -18.5q36 0 70 28z" />
<glyph horiz-adv-x="582" d="M256 -11q-101 0 -151.5 58.5t-50.5 160.5q0 144 74 241.5t200 97.5q98 0 147.5 -58.5t49.5 -160.5q0 -147 -69.5 -243t-199.5 -96zM262 25q112 0 167.5 86t55.5 214q0 186 -164 186q-75 0 -128 -43.5t-76.5 -110t-23.5 -147.5q0 -185 169 -185z" />
<glyph horiz-adv-x="298" d="M236 540q11 0 14 -2l-95 -538q-7 -3 -19 -3q-10 0 -18 3l87 493l-137 -69q-14 12 -12 31q170 83 180 85z" />
<glyph horiz-adv-x="463" d="M74 36h309q1 -2 1 -9q0 -11 -7 -27h-368q-1 2 -1 11q0 28 29 48q205 143 271 208.5t66 136.5q0 51 -33 80t-92 29q-81 0 -146 -69q-15 4 -19 22q72 82 172 82q71 0 113.5 -36t42.5 -105q0 -27 -9 -53.5t-20 -47.5t-39 -49.5t-47 -46.5t-64.5 -51.5t-71 -51.5t-85.5 -60 l-19 -12z" />
<glyph horiz-adv-x="462" d="M268 256q110 -27 110 -130q0 -92 -60.5 -148t-159.5 -56q-110 0 -164 63q8 18 24 26q30 -31 61 -43.5t82 -12.5q79 0 129 45t50 119q0 119 -163 119q-4 17 6 33q86 0 131.5 43t45.5 99q0 47 -27 73.5t-79 26.5q-82 0 -148 -64q-18 6 -20 21q74 77 172 77q64 0 102 -32.5 t38 -93.5q0 -59 -37 -103t-93 -62z" />
<glyph horiz-adv-x="491" d="M343 102h75q2 -16 -6 -33h-75l-26 -148q-6 -2 -19 -2q-7 0 -17 2l26 148h-298q-2 6 -2 15q0 16 14 33l369 417q8 3 18 3t17 -3zM47 102h260l63 360l3 14l-11 -13z" />
<glyph horiz-adv-x="466" d="M165 -79q-117 0 -162 55q8 19 26 28q34 -49 142 -49q74 0 124.5 42.5t50.5 115.5q0 88 -63.5 120t-207.5 32l47 267h304v-8q0 -11 -6 -29h-268l-34 -194q131 -1 199 -41.5t68 -136.5q0 -93 -62 -147.5t-158 -54.5z" />
<glyph horiz-adv-x="493" d="M481 620q-124 -20 -240 -111.5t-149 -229.5q74 88 179 88q70 0 115.5 -40t45.5 -118q0 -99 -61.5 -161.5t-151.5 -62.5q-84 0 -129.5 51.5t-45.5 145.5q0 93 39.5 177t103 143t138 98.5t149.5 52.5q9 -9 7 -33zM262 332q-94 0 -177 -90q-4 -24 -4 -55q0 -81 37 -124.5 t106 -43.5q72 0 121.5 49.5t49.5 133.5q0 66 -38 98t-95 32z" />
<glyph horiz-adv-x="448" d="M85 531h374v-7q0 -23 -27 -63l-369 -541q-22 5 -30 18l382 555h-337v8q0 13 7 30z" />
<glyph horiz-adv-x="480" d="M283 337q58 -37 89.5 -74.5t31.5 -95.5q0 -87 -58.5 -133t-142.5 -46q-75 0 -122 33.5t-47 98.5q0 73 51 127.5t127 90.5q-102 69 -102 154q0 71 51.5 120t129.5 49q69 0 110.5 -36t41.5 -94q0 -121 -160 -194zM148 496q0 -45 28.5 -77.5t78.5 -63.5q80 36 116 74.5 t36 93.5q0 46 -32 74.5t-89 28.5q-60 0 -99 -37t-39 -93zM208 22q65 0 112 35.5t47 101.5q0 30 -8.5 53t-31 43.5t-36 30t-49.5 32.5q-1 0 -1 1q-169 -79 -169 -191q0 -51 38 -78.5t98 -27.5z" />
<glyph horiz-adv-x="488" d="M260 547q85 0 129.5 -55.5t44.5 -151.5q0 -198 -105.5 -303.5t-286.5 -114.5q-5 16 3 34q293 18 341 272q-74 -61 -168 -61q-70 0 -115 43t-45 125q0 92 57 152t145 60zM225 200q89 0 167 65q4 29 4 71q0 84 -35.5 130.5t-105.5 46.5q-71 0 -115.5 -50.5t-44.5 -123.5 q0 -69 36.5 -104t93.5 -35z" />
<glyph horiz-adv-x="535" d="M234 -11q-177 0 -177 234q0 121 28.5 218t90 157.5t146.5 60.5q86 0 129.5 -60.5t43.5 -173.5q0 -195 -67 -315.5t-194 -120.5zM241 24q46 0 83 24.5t60.5 64t39.5 93t22.5 108.5t6.5 113q0 197 -138 197q-57 0 -101 -38t-68 -100t-36 -129t-12 -136q0 -197 143 -197z " />
<glyph horiz-adv-x="535" d="M416 32q2 -15 -6 -32h-331q-3 17 5 32h156l100 563l-178 -87q-12 13 -10 33l204 101q5 2 15 2q8 0 14 -2l-108 -610h139z" />
<glyph horiz-adv-x="535" d="M109 37h339q3 -21 -7 -37h-396q-2 6 -2 11q0 21 29 48q216 203 267 259q76 84 86 148q2 15 2 32q0 55 -35.5 90t-98.5 35q-56 0 -93 -21t-74 -58q-19 5 -24 23q82 92 195 92q75 0 121.5 -42t46.5 -116q0 -86 -61.5 -161t-252.5 -252q-28 -26 -43 -40l-12 -12z" />
<glyph horiz-adv-x="535" d="M203 -10q-116 0 -167 58q7 18 26 29q57 -53 145 -53q86 0 144.5 50.5t58.5 143.5q0 71 -49.5 108.5t-144.5 37.5h-17q0 8 2 11q1 9 15 23l221 207h-312q-1 2 -1 9q0 12 7 28h363q0 -28 -26 -52l-211 -196q86 -2 139 -45.5t53 -123.5q0 -112 -72.5 -173.5t-173.5 -61.5z " />
<glyph horiz-adv-x="535" d="M389 223h79q0 -9 -1 -14q0 -9 -6 -20h-78l-33 -189q-12 -2 -19 -2q-6 0 -18 2l33 189h-291q-12 35 18 79l272 395q15 -1 32 -14l-268 -389q-15 -24 -14 -37h257l28 156q12 2 19 2q6 0 18 -2z" />
<glyph horiz-adv-x="535" d="M212 -14q-109 0 -169 55q9 18 28 29q18 -19 55 -34.5t90 -15.5q89 0 140.5 56t51.5 151q0 66 -37 103t-107 37q-38 0 -83 -15.5t-54 -15.5t-15 3l53 303h328v-8q0 -13 -7 -29h-290l-41 -230q59 28 115 28q84 0 130.5 -44t46.5 -123q0 -114 -63.5 -182t-171.5 -68z" />
<glyph horiz-adv-x="535" d="M490 619q-119 -24 -227 -107t-146 -207q32 34 78.5 55.5t95.5 21.5q74 0 122 -42.5t48 -126.5q0 -106 -61 -167t-153 -61q-89 0 -137.5 52t-48.5 147q0 96 38.5 180.5t101.5 141.5t135.5 94.5t147.5 52.5q8 -10 6 -34zM284 347q-101 0 -178 -88q-6 -33 -6 -69 q0 -83 38.5 -127t112.5 -44q73 0 122.5 49t49.5 139q0 71 -39.5 105.5t-99.5 34.5z" />
<glyph horiz-adv-x="535" d="M535 641l1 -3v-5q0 -19 -29 -62l-394 -584q-21 4 -30 18l405 599h-368v16q2 10 6 21h409z" />
<glyph horiz-adv-x="535" d="M350 323q90 -61 90 -144q0 -92 -60 -141t-144 -49q-83 0 -132.5 38t-49.5 115q0 70 47.5 127t108.5 89q-75 48 -75 127q0 75 57 125t136 50q73 0 114 -37.5t41 -101.5q0 -65 -39.5 -116t-93.5 -82zM173 490q0 -49 28.5 -76.5t91.5 -58.5q20 -10 30 -16q123 72 123 175 q0 52 -33 81.5t-91 29.5q-62 0 -105.5 -39t-43.5 -96zM242 23q68 0 114.5 38t46.5 110q0 91 -124 150q-23 11 -42 21q-55 -26 -100 -79.5t-45 -114.5q0 -64 41 -94.5t109 -30.5z" />
<glyph horiz-adv-x="535" d="M293 661q88 0 138 -61.5t50 -163.5q0 -219 -110.5 -334.5t-292.5 -115.5q-4 15 4 34q61 0 116 16.5t104 50.5t84 93.5t49 138.5q-73 -60 -171 -60q-76 0 -124.5 46t-48.5 135q0 102 59 161.5t143 59.5zM271 292q92 0 169 65q4 32 4 74q0 90 -42 143t-114 53 q-67 0 -113.5 -50t-46.5 -134q0 -74 42 -112.5t101 -38.5z" />
<glyph horiz-adv-x="587" d="M511 277q0 -111 -67 -180l45 -55q-7 -15 -24 -23l-46 54q-63 -48 -147 -48q-91 0 -145 56l-59 -53q-14 7 -22 23l60 54q-37 54 -37 125q0 107 69 179l-48 57q8 16 25 23l47 -56q65 51 147 51q90 0 145 -58l60 54q16 -8 22 -23l-61 -55q36 -51 36 -125zM106 235 q0 -76 45.5 -125t124.5 -49q87 0 143 56.5t56 155.5q0 77 -46 126t-125 49q-82 0 -140 -59t-58 -154z" />
<glyph horiz-adv-x="441" d="M290 532q78 -6 129 -47q-7 -20 -25 -30q-47 37 -110 42l-36 -206q61 -18 95 -46.5t34 -89.5q0 -67 -49 -107t-130 -43l-19 -105q-6 -2 -16 -2q-9 0 -15 2l19 106q-104 5 -161 62q9 20 28 29q51 -51 139 -56l38 219q-28 8 -41 12t-35 15t-33 22.5t-19.5 31t-8.5 44.5 q0 66 51 106t134 42l19 105q6 2 16 2q11 0 15 -2zM112 392q0 -39 27 -58t79 -34l35 198q-65 -2 -103 -30t-38 -76zM339 150q0 43 -25.5 65t-72.5 36l-37 -211q63 3 99 33t36 77z" />
<glyph horiz-adv-x="477" d="M302 543q89 0 143 -59q-8 -18 -27 -25q-45 50 -121 50q-69 0 -109 -44.5t-38 -126.5q0 -43 -2 -62h188q1 -16 -5 -33h-187q-7 -49 -30 -112t-23 -97h306q4 -18 -6 -34h-344q0 58 26.5 127t33.5 116h-65q-1 18 6 33h62q2 34 2 56q-1 100 51.5 155.5t138.5 55.5z" />
<glyph horiz-adv-x="503" d="M281 241h111q1 -2 1 -7q0 -12 -6 -24h-129l-13 -78h128v-7q0 -10 -5 -25h-129l-18 -100q-7 -3 -19 -3q-10 0 -19 3l18 100h-130v7q0 11 6 25h130l13 78h-129l-1 2v4q0 9 6 25h114l-132 286q12 3 27 3q13 0 17 -1l121 -271l4 -11l7 11l216 271q5 1 19 1q11 0 22 -3z" />
<glyph horiz-adv-x="817" d="M834 381q3 -18 -2 -33q-94 -4 -194 -17q1 -9 1 -29q0 -142 -90 -227.5t-225 -85.5q-126 0 -197.5 72.5t-71.5 180.5t62.5 174t153.5 66q68 0 117 -40t68 -107q79 15 142 23q-12 82 -58 160q17 12 38 10q45 -78 57 -165q97 12 199 18zM269 447q-78 0 -127 -56t-49 -149 v-10q155 59 325 95q-18 55 -56.5 87.5t-92.5 32.5zM602 300q0 18 -1 26q-264 -37 -505 -125q14 -77 72.5 -127t157.5 -50q125 0 200.5 75.5t75.5 200.5z" />
<glyph horiz-adv-x="237" d="M158 684q-9 9 -10 20l174 101q16 -10 17 -33z" />
<glyph horiz-adv-x="299" d="M288 802l90 -106q-4 -10 -18 -19l-91 93l-125 -93q-11 6 -12 19l126 106q16 3 30 0z" />
<glyph horiz-adv-x="329" d="M192 719q-13 0 -22.5 9.5t-9.5 22.5t9.5 22.5t22.5 9.5t22.5 -9.5t9.5 -22.5t-9 -22.5t-23 -9.5zM384 719q-13 0 -22.5 9.5t-9.5 22.5t9.5 22.5t22.5 9.5t22.5 -9.5t9.5 -22.5t-9 -22.5t-23 -9.5z" />
<glyph horiz-adv-x="239" d="M313 684l-151 90q6 22 24 34l139 -103q-3 -13 -12 -21z" />
<glyph horiz-adv-x="316" d="M157 725q-4 10 6 31h242q2 -16 -5 -31h-243z" />
<glyph horiz-adv-x="370" d="M176 703q-19 2 -26 12q22 36 44 52t55 16q28 0 69 -22t61 -22q38 0 56 45q19 0 27 -10q-28 -68 -85 -68q-29 0 -69 22t-61 22q-39 0 -71 -47z" />
<glyph horiz-adv-x="209" d="M162 575q-14 0 -24 10.5t-10 24.5t10 24t24 10t24 -10t10 -24t-10 -24.5t-24 -10.5zM56 -3q-10 0 -18 3l82 469q9 3 20 3q10 0 18 -3l-83 -469q-9 -3 -19 -3z" />
<glyph horiz-adv-x="541" d="M379 547q89 0 146 -48q-7 -18 -23 -27q-52 43 -129 43q-80 0 -137.5 -46.5t-83.5 -127.5h196q1 -15 -6 -32h-199q-8 -35 -10 -80h181q2 -16 -6 -31h-175q5 -82 47 -128.5t117 -46.5q85 0 143 46q13 -10 13 -27q-71 -52 -162 -52q-90 0 -140.5 56.5t-54.5 151.5h-71 q-1 14 6 31h65q1 40 11 80h-48q-1 15 6 32h50q31 94 100.5 150t163.5 56z" />
</font>
</defs>
</svg>
