<?xml version="1.0" standalone="no"?>
<!DOCTYPE svg PUBLIC "-//W3C//DTD SVG 1.1//EN" "http://www.w3.org/Graphics/SVG/1.1/DTD/svg11.dtd" >
<svg xmlns="http://www.w3.org/2000/svg">
<metadata></metadata>
<defs>
<font id="brandingblackitalic" horiz-adv-x="513" >
<font-face units-per-em="1000" ascent="770" descent="-230" />
<missing-glyph horiz-adv-x="182" />
<glyph unicode="&#xfb01;" horiz-adv-x="607" d="M601 476l-85 -476q-41 -7 -89 -7t-91 7l63 355l-127 1l-62 -356q-41 -7 -89 -7q-47 0 -92 7l63 356h-53v14q0 48 21 106h56q57 192 258 192q84 0 149 -26q-4 -34 -23 -72t-40 -57q-36 12 -82 12q-68 0 -83 -49h306z" />
<glyph unicode="&#xfb02;" horiz-adv-x="684" d="M601 157q50 -45 45 -132q-57 -41 -139 -41q-86 0 -114.5 46t-12.5 136l62 351q-24 3 -49 3q-43 0 -63.5 -13t-29.5 -44h71v-24q0 -58 -26 -123h-72l-56 -316q-39 -7 -89 -7q-48 0 -91 7l56 316h-56q-1 4 -1 23q0 26 3.5 48.5t5.5 31.5t9 27l8 17h58q55 205 306 205 q134 0 216 -37l-80 -452q-6 -32 14 -32q12 0 25 10z" />
<glyph horiz-adv-x="0" />
<glyph horiz-adv-x="333" />
<glyph unicode=" "  horiz-adv-x="182" />
<glyph unicode="&#x09;" horiz-adv-x="182" />
<glyph unicode="&#xa0;" horiz-adv-x="182" />
<glyph unicode="!" horiz-adv-x="268" d="M121 213q-27 0 -49 7q6 259 33 416q46 20 93 20q46 0 92 -19q-28 -153 -113 -415q-27 -9 -56 -9zM98 -35q-39 0 -67 28t-28 67q0 40 28 68t67 28q40 0 68 -28t28 -68q0 -39 -28 -67t-68 -28z" />
<glyph unicode="&#x22;" horiz-adv-x="354" d="M123 425q-11 0 -41 3l12 235q33 10 69 10q31 0 64 -10l-71 -234q-22 -4 -33 -4zM289 425q-11 0 -41 3l12 235q33 10 68 10q32 0 65 -10l-71 -234q-22 -4 -33 -4z" />
<glyph unicode="#" horiz-adv-x="624" d="M646 615l-62 -145h43q-9 -77 -59 -136h-43l-43 -102h45q-9 -77 -59 -136h-45l-61 -143q-78 -12 -135 0l62 143h-99l-62 -143q-78 -12 -135 0l62 143h-59q5 83 59 136h58l44 102h-61q5 83 59 136h61l62 145q69 9 135 0l-62 -145h99l62 145q68 9 134 0zM347 232l44 102h-99 l-44 -102h99z" />
<glyph unicode="$" horiz-adv-x="547" d="M223 445q0 -14 29.5 -25t71.5 -23.5t84 -30.5t71.5 -53t29.5 -84q0 -87 -56 -142t-157 -68l-13 -76q-37 -8 -75 -8t-72 8l14 80q-102 16 -156 61q8 41 31.5 75.5t56.5 52.5q66 -51 203 -51q64 0 64 35q0 16 -29.5 26.5t-71 20t-83.5 25.5t-71.5 52t-29.5 89q0 78 51 131 t137 71l14 81q37 8 75 8t72 -8l-14 -77q98 -14 147 -54q-8 -40 -29.5 -75t-54.5 -54q-82 42 -180 42q-59 0 -59 -29z" />
<glyph unicode="%" horiz-adv-x="753" d="M44 -47l556 699q56 10 108 0l-556 -699q-54 -7 -108 0zM212 336q-74 0 -112 38t-38 102q0 72 48 121.5t124 49.5q73 0 111 -37.5t38 -101.5q0 -72 -48 -122t-123 -50zM217 426q29 0 44.5 21.5t15.5 53.5q0 57 -48 57q-30 0 -45.5 -21.5t-15.5 -53.5q0 -57 49 -57z M532 -23q-73 0 -111 38t-38 102q0 72 48 121.5t124 49.5q72 0 110 -37.5t38 -101.5q0 -72 -48 -122t-123 -50zM538 67q28 0 43.5 22t15.5 53q0 57 -48 57q-29 0 -45 -21.5t-16 -53.5q0 -57 50 -57z" />
<glyph unicode="&#x26;" horiz-adv-x="608" d="M610 360q0 -49 -28 -94h-76l-38 -213q-85 -68 -235 -68q-55 0 -102 14t-83 53t-36 99q0 141 128 191q-50 39 -50 109q0 90 68.5 149t181.5 59q126 0 182 -56q-8 -39 -35 -75t-60 -56q-49 27 -96 27q-29 0 -48 -16t-19 -45q0 -38 55 -39h285q6 -14 6 -39zM327 152l20 114 h-54q-81 -1 -81 -73q0 -22 13.5 -35.5t36.5 -13.5q38 0 65 8z" />
<glyph unicode="'" horiz-adv-x="188" d="M123 425q-11 0 -41 3l12 235q33 10 69 10q31 0 64 -10l-71 -234q-22 -4 -33 -4z" />
<glyph unicode="(" horiz-adv-x="286" d="M68 -204q-56 145 -56 300q0 180 54 325.5t163 288.5q65 -7 97 -55q-164 -280 -164 -580q0 -119 31 -233q-16 -20 -57.5 -34t-67.5 -12z" />
<glyph unicode=")" horiz-adv-x="285" d="M49 -204q-72 4 -103 51q171 283 171 585q0 114 -32 232q17 20 58 34.5t67 11.5q55 -143 55 -299q0 -180 -53.5 -326t-162.5 -289z" />
<glyph unicode="*" horiz-adv-x="396" d="M324 550v-2l82 -34q-8 -70 -73 -102l-58 68l-7 -3l-8 -88q-67 -15 -119 38l47 78l-4 6l-90 -21q-35 60 0 125l92 -22l3 4l-49 80q47 52 120 39l7 -92q6 -2 7 -2l60 69q64 -27 74 -101l-84 -35v-5z" />
<glyph unicode="+" horiz-adv-x="472" d="M444 292q3 -56 -20 -110h-151l-28 -161q-56 -13 -108 0l28 161h-151q-5 53 19 110h152l28 161q57 13 108 0l-28 -161h151z" />
<glyph unicode="," horiz-adv-x="225" d="M23 -178q-21 1 -41.5 13.5t-27.5 28.5q21 34 30.5 51.5t18.5 52t9 76.5q0 34 -6 58q31 12 77.5 11t70.5 -15q3 -15 3 -36q0 -62 -41 -129.5t-93 -110.5z" />
<glyph unicode="-" horiz-adv-x="345" d="M39 193q-3 12 -3 32q0 43 22 90h239q2 -18 2 -39q0 -41 -21 -83h-239z" />
<glyph unicode="." horiz-adv-x="263" d="M105 -19q-43 0 -74 31t-31 75q0 43 31 74t74 31t74 -31t31 -74q0 -44 -31 -75t-74 -31z" />
<glyph unicode="/" horiz-adv-x="581" d="M9 -190q-32 0 -67 5l539 850q37 5 69 5q33 0 76 -5l-539 -850q-43 -5 -78 -5z" />
<glyph unicode="0" horiz-adv-x="645" d="M283 -16q-125 0 -186.5 72.5t-61.5 193.5q0 114 38.5 207.5t117 151.5t184.5 58q126 0 188 -75t62 -196q0 -84 -21.5 -157.5t-62.5 -131t-107.5 -90.5t-150.5 -33zM309 139q40 0 68 27.5t40.5 70t17.5 78t5 67.5q0 120 -81 120q-35 0 -61.5 -18.5t-41 -44.5t-23 -61.5 t-11 -62t-2.5 -53.5q0 -123 89 -123z" />
<glyph unicode="1" horiz-adv-x="431" d="M360 664q37 0 74 -7l-117 -657q-50 -8 -91 -8q-43 0 -89 8l81 460l-118 -45q-27 23 -40.5 64t-10.5 86q30 12 79.5 33t65.5 27t45.5 17t43.5 14t34.5 5.5t42.5 2.5z" />
<glyph unicode="2" horiz-adv-x="568" d="M312 160l203 1q9 -34 0 -80t-28 -81h-476q-2 14 -2 29q0 80 72 142q192 162 230 199.5t38 73.5q0 51 -60 51q-50 0 -127 -63q-82 24 -105 114q96 121 254 121q104 0 167 -50.5t63 -139.5q0 -76 -59 -147t-175 -153l-35 -21z" />
<glyph unicode="3" horiz-adv-x="553" d="M396 416q46 -12 81 -55.5t35 -114.5q0 -68 -25.5 -121t-68.5 -83.5t-93.5 -46t-106.5 -15.5q-84 0 -140.5 24.5t-84.5 55.5q26 89 90 138q64 -51 138 -51q47 0 74.5 23t27.5 61q0 39 -22.5 58t-73.5 19h-84q-1 3 -1 9q0 26 24 50l119 126h-207q-6 89 27 157h450 q0 -23 -2.5 -39t-13.5 -38.5t-32 -44.5z" />
<glyph unicode="4" horiz-adv-x="582" d="M480 254h76v-15q0 -68 -23 -145h-81l-17 -94q-43 -8 -80 -8q-42 0 -88 8l17 94h-278q-27 93 27 191l227 388q87 -3 154 -73l-186 -321q-7 -14 -7 -25h91l26 149q50 8 91 8q37 0 77 -8z" />
<glyph unicode="5" horiz-adv-x="546" d="M220 -19q-83 0 -138 20.5t-81 46.5q7 39 32 80t56 64q57 -48 140 -48q46 0 68.5 20t22.5 54q0 59 -77 59q-37 0 -87.5 -9t-64.5 -9q-34 0 -42 8l61 383h425q0 -84 -26 -156h-267l-13 -79q33 13 76 13q104 0 155 -46t51 -128q0 -126 -79 -199.5t-212 -73.5z" />
<glyph unicode="6" horiz-adv-x="565" d="M364 424q83 0 127.5 -45t44.5 -135q0 -119 -79 -191t-195 -72q-112 0 -174.5 63.5t-62.5 168.5q0 99 38.5 184.5t104.5 144t151 95.5t180 47q17 -20 22 -67.5t-3 -96.5q-205 -16 -276 -128q59 32 122 32zM279 131q34 0 58 22.5t24 63.5q0 70 -65 70q-44 0 -92 -28 q-1 -7 -1 -21q0 -107 76 -107z" />
<glyph unicode="7" horiz-adv-x="510" d="M553 651q4 -35 -7.5 -78.5t-32.5 -76.5l-336 -520q-90 10 -141 74l283 441h-259q-3 76 28 160h465z" />
<glyph unicode="8" horiz-adv-x="579" d="M464 337q67 -55 67 -126q0 -114 -83 -172t-204 -58q-105 0 -169.5 38t-64.5 114q0 114 123 202q-52 50 -52 121q0 91 69 151t193 60q104 0 165 -42.5t61 -111.5q0 -107 -105 -176zM333 536q-36 0 -55.5 -16t-19.5 -40q0 -36 65 -65q4 -1 23 -11q52 41 52 85q0 47 -65 47z M265 113q84 0 84 60q0 21 -17 35t-62 38q-2 1 -29 16q-48 -46 -48 -90q0 -59 72 -59z" />
<glyph unicode="9" horiz-adv-x="571" d="M306 667q125 0 186.5 -69.5t61.5 -187.5q0 -434 -493 -431q-10 24 -10 67q0 38 17 87q61 1 99 5t77.5 15.5t65 34.5t40.5 60q-46 -35 -123 -35q-81 0 -131 50.5t-50 143.5q0 119 75 189.5t185 70.5zM288 359q42 0 84 21v12q0 112 -70 113q-33 1 -55 -21t-22 -56 q0 -33 18 -51t45 -18z" />
<glyph unicode=":" horiz-adv-x="285" d="M162 281q-44 0 -75.5 31.5t-31.5 75.5q0 45 31.5 76.5t75.5 31.5t75.5 -31.5t31.5 -76.5q0 -44 -31.5 -75.5t-75.5 -31.5zM108 -25q-44 0 -75.5 31.5t-31.5 75.5t31.5 75.5t75.5 31.5t75.5 -31.5t31.5 -75.5t-31.5 -75.5t-75.5 -31.5z" />
<glyph unicode=";" horiz-adv-x="275" d="M154 281q-44 0 -75.5 31.5t-31.5 75.5q0 45 31.5 76.5t75.5 31.5t75.5 -31.5t31.5 -76.5q0 -44 -31.5 -75.5t-75.5 -31.5zM47 -178q-21 1 -41.5 13.5t-27.5 28.5q21 32 31 51t18.5 53t8.5 76q0 34 -6 58q31 12 77.5 11t70.5 -15q3 -15 3 -36q0 -62 -41 -129.5t-93 -110.5 z" />
<glyph unicode="&#x3c;" horiz-adv-x="548" d="M519 325l-330 -75l-53 -13l349 -112q-12 -81 -71 -139l-398 162q-1 6 -1 31q0 21 2 40.5t3.5 31t6 27t6 19.5t7.5 19l7 15l455 147q33 -62 17 -153z" />
<glyph unicode="=" horiz-adv-x="517" d="M54 276l-1 13q0 43 20 97h410v-13q0 -43 -19 -97h-410zM18 77v13q0 43 20 97h410v-13q0 -43 -19 -97h-411z" />
<glyph unicode="&#x3e;" horiz-adv-x="547" d="M118 478l402 -147v-29q0 -69 -33 -158l-455 -158q-40 58 -22 139l335 100l53 14l-48 11l-305 75q17 92 73 153z" />
<glyph unicode="?" horiz-adv-x="464" d="M205 185q-34 0 -61 4q0 52 14.5 89t36 56.5t42.5 35t35.5 35.5t14.5 47q0 25 -16 39t-44 14q-37 0 -78 -31q-70 37 -72 122q81 62 191 62q86 0 142.5 -44.5t56.5 -122.5q0 -55 -20.5 -95t-50.5 -63.5t-60.5 -42.5t-54.5 -44t-29 -56q-20 -5 -47 -5zM189 -35q-39 0 -67 28 t-28 67q0 40 28 68t67 28q40 0 68 -28t28 -68q0 -39 -28 -67t-68 -28z" />
<glyph unicode="@" horiz-adv-x="889" d="M489 665q170 0 271.5 -84.5t101.5 -238.5q0 -42 -6.5 -82.5t-23.5 -82t-43 -72.5t-67.5 -50.5t-94.5 -19.5q-51 0 -76 13.5t-53 47.5q-50 -35 -118 -35q-75 0 -118 45t-43 124q0 108 74.5 178.5t190.5 70.5q103 0 175 -39h1l-41 -232q-9 -49 35 -49q30 0 51 35.5 t21 118.5q0 102 -59 164t-196 62q-59 0 -113 -18.5t-98.5 -54.5t-70.5 -96t-26 -136q0 -123 60 -181.5t155 -58.5q56 0 108 18q13 -17 21.5 -51.5t2.5 -64.5q-58 -26 -144 -26q-149 0 -245.5 91t-96.5 245q0 108 38.5 196.5t104 145t148.5 87t174 30.5zM370 252 q0 -31 15 -49t39 -18t45 13l26 150q-22 5 -36 5q-41 0 -65 -26.5t-24 -74.5z" />
<glyph unicode="A" horiz-adv-x="616" d="M464 642l111 -635q-69 -12 -120 -12q-30 0 -60 5l-16 103h-208l-54 -103q-36 -4 -82 -4q-59 0 -92 11l341 635q37 6 93 6q52 0 87 -6zM245 245h113l-17 110l-9 62l-29 -62z" />
<glyph unicode="B" horiz-adv-x="570" d="M433 324q98 -35 98 -134q0 -92 -75 -151.5t-240 -59.5q-114 0 -211 21l111 631q102 21 208 21q233 0 233 -155q0 -128 -124 -173zM376 462q0 48 -64 48q-23 0 -38 -1l-20 -119h38q84 0 84 72zM247 121q101 0 101 80q0 52 -70 52h-48l-24 -131q14 -1 41 -1z" />
<glyph unicode="C" horiz-adv-x="561" d="M307 -16q-133 0 -206 75t-73 200q0 176 106.5 292t271.5 116q122 0 190 -63q-15 -42 -48.5 -81t-73.5 -60q-36 32 -90 32q-69 0 -113 -59t-44 -151q0 -62 29 -97t82 -35q59 0 106 37q74 -48 75 -146q-83 -60 -212 -60z" />
<glyph unicode="D" horiz-adv-x="652" d="M321 657q155 0 236 -72t81 -205q0 -182 -112.5 -287.5t-306.5 -105.5q-128 0 -213 13l82 462h-1l32 178q74 17 202 17zM259 156q86 0 131 58t45 137q0 137 -123 137q-26 0 -40 -1l-58 -330q15 -1 45 -1z" />
<glyph unicode="E" horiz-adv-x="522" d="M509 483h-238l-15 -81h213q5 -94 -26 -150h-213l-17 -93h248q5 -97 -28 -159h-427l113 642h419q8 -89 -29 -159z" />
<glyph unicode="F" horiz-adv-x="503" d="M503 480h-233l-20 -116h208q3 -51 -3 -81.5t-25 -77.5h-208l-36 -205q-50 -8 -92 -8t-88 8l113 642h413q2 -57 -3.5 -84t-25.5 -78z" />
<glyph unicode="G" horiz-adv-x="617" d="M411 296q87 16 174 0l-47 -267q-94 -46 -213 -46q-145 0 -221.5 73t-76.5 196q0 177 106.5 296t274.5 119q136 0 206 -54q-12 -44 -41.5 -86t-65.5 -63q-41 31 -115 31q-76 0 -121 -59.5t-45 -153.5q0 -130 118 -130q21 0 42 3z" />
<glyph unicode="H" horiz-adv-x="655" d="M573 647q48 0 91 -7l-113 -640q-39 -7 -89 -7q-47 0 -90 7l41 233h-186l-41 -233q-41 -7 -89 -7t-91 7l112 640q41 7 90 7q47 0 90 -7l-42 -242h186l42 242q41 7 89 7z" />
<glyph unicode="I" horiz-adv-x="289" d="M96 -7q-47 0 -90 7l112 640q41 7 89 7t91 -7l-113 -640q-39 -7 -89 -7z" />
<glyph unicode="J" horiz-adv-x="403" d="M95 -32q-97 0 -133 40q0 40 19.5 84.5t48.5 67.5q28 -23 72 -23t54 51l80 452q41 7 89 7t91 -7l-84 -478q-16 -92 -75.5 -143t-161.5 -51z" />
<glyph unicode="K" horiz-adv-x="628" d="M684 641q-130 -181 -292 -314q64 -122 232 -318q-54 -13 -125 -13q-67 0 -99 4q-89 103 -150 221q-9 -6 -29 -18l-35 -203q-41 -7 -89 -7t-91 7l113 640q39 7 89 7q47 0 90 -7l-39 -225q112 86 216 229q43 3 92 3q67 0 117 -6z" />
<glyph unicode="L" horiz-adv-x="477" d="M214 162h225q0 -99 -29 -162h-404l113 642q50 8 92 8t88 -8z" />
<glyph unicode="M" horiz-adv-x="775" d="M695 647q47 0 89 -7l-113 -640q-42 -7 -82 -7q-38 0 -81 7l46 266l21 97l-44 -96l-105 -214q-35 -5 -74 -5q-38 0 -74 5l-36 214l-12 95l-13 -96l-46 -266q-42 -7 -85 -7q-37 0 -80 7l113 640q40 7 87 7q54 0 103 -7l67 -370l4 -43l16 43l192 370q57 7 107 7z" />
<glyph unicode="N" horiz-adv-x="666" d="M584 647q48 0 91 -7l-112 -638q-86 -15 -177 -8l-129 320l-14 37l-5 -54l-52 -297q-56 -7 -92 -7q-28 0 -88 7l112 637q75 20 177 9l126 -333l14 -38l5 55l55 310q48 7 89 7z" />
<glyph unicode="O" horiz-adv-x="691" d="M314 -19q-131 0 -207.5 73.5t-76.5 206.5q0 183 102 293t262 110q131 0 207 -73t76 -206q0 -183 -101.5 -293.5t-261.5 -110.5zM334 151q69 0 107 58t38 154q0 131 -105 131q-69 0 -107.5 -57.5t-38.5 -154.5q0 -131 106 -131z" />
<glyph unicode="P" horiz-adv-x="582" d="M338 661q258 0 258 -189q0 -140 -93 -217t-240 -77h-46l-31 -178q-41 -7 -89 -7t-91 7l86 486h-2l29 154q107 21 219 21zM290 333q61 0 90 31.5t29 76.5q0 70 -88 70q-30 0 -45 -1l-31 -177h45z" />
<glyph unicode="Q" horiz-adv-x="691" d="M510 36q77 -46 115 -141q-50 -63 -158 -65q-52 151 -163 151q-126 3 -200 76.5t-74 203.5q0 183 102 293t262 110q131 0 207 -73t76 -206q0 -118 -44 -208t-123 -141zM228 282q0 -131 106 -131q69 0 107 58t38 154q0 131 -105 131q-69 0 -107.5 -57.5t-38.5 -154.5z" />
<glyph unicode="R" horiz-adv-x="600" d="M583 479q0 -88 -43.5 -150.5t-120.5 -93.5q78 -143 147 -228q-51 -14 -155 -14q-26 0 -37 1q-78 112 -122 214h-30l-37 -208q-41 -7 -89 -7t-91 7l85 486l26 146q107 21 221 21q246 0 246 -174zM273 502l-26 -148h57q45 0 68 22.5t23 62.5q0 64 -72 64q-33 0 -50 -1z" />
<glyph unicode="S" horiz-adv-x="553" d="M236 -16q-173 0 -254 77q10 47 37.5 86.5t64.5 58.5q28 -25 75.5 -41t100.5 -16q41 0 56.5 9.5t15.5 30.5q0 15 -19.5 26t-49 18t-63.5 21t-63.5 32t-49 55t-19.5 88q0 102 78 166t205 64q80 0 138 -20.5t84 -46.5q-10 -44 -36.5 -83t-64.5 -60q-59 42 -147 42 q-78 0 -78 -32q0 -14 19.5 -24t49.5 -17t64 -21t64 -33t49.5 -57t19.5 -89q0 -104 -76.5 -169t-200.5 -65z" />
<glyph unicode="T" horiz-adv-x="540" d="M585 642q0 -95 -28 -159h-161l-85 -483q-50 -8 -91 -8q-43 0 -89 8l85 483h-161q0 95 28 159h502z" />
<glyph unicode="U" horiz-adv-x="645" d="M281 -19q-116 0 -179.5 53t-63.5 155q0 35 7 70l67 381q41 7 89 7q47 0 90 -7l-66 -377q-3 -18 -3 -32q0 -41 21.5 -63t59.5 -22q44 0 74.5 30t40.5 87l66 377q41 7 86 7q48 0 91 -7l-66 -374q-23 -136 -104 -210.5t-210 -74.5z" />
<glyph unicode="V" horiz-adv-x="612" d="M524 648q110 0 142 -12q-86 -320 -321 -634q-36 -7 -93 -7q-55 0 -98 7q-85 312 -92 634q69 12 144 12q24 0 56 -2q-2 -249 28 -478q137 245 191 478q20 2 43 2z" />
<glyph unicode="W" horiz-adv-x="951" d="M862 648q110 0 142 -12q-140 -423 -286 -634q-40 -7 -96 -7q-55 0 -98 7q-28 127 -28 317v30q-1 -3 -1.5 -6t-1.5 -6t-1 -4q-40 -160 -158 -331q-36 -7 -97 -7q-56 0 -103 7q-72 280 -64 634q70 12 149 12q22 0 52 -2q-20 -258 4 -487q126 261 168 465q51 8 94 8t91 -8 q0 -269 22 -465q105 220 171 487q18 2 41 2z" />
<glyph unicode="X" horiz-adv-x="617" d="M676 639l-238 -319l141 -317q-73 -10 -129 -10q-42 0 -84 6l-76 189l-138 -189q-44 -6 -85 -6q-71 0 -121 10l252 321l-136 314q72 12 141 12q36 0 79 -5l68 -192l123 192q32 5 75 5q49 0 128 -11z" />
<glyph unicode="Y" horiz-adv-x="610" d="M682 639l-296 -408l-41 -231q-41 -7 -89 -7t-91 7l43 241l-156 397q69 12 135 12q37 0 80 -5l50 -179l16 -55l34 55l121 179q31 5 76 5q46 0 118 -11z" />
<glyph unicode="Z" horiz-adv-x="572" d="M545 506l-245 -306l-39 -39h265q0 -81 -28 -161h-514q-2 8 -2 22q0 50 52 114l252 314l28 32l-248 -1q-4 72 28 161h501q1 -4 1 -21q0 -51 -51 -115z" />
<glyph unicode="[" horiz-adv-x="316" d="M347 586h-94l-117 -666h93q3 -61 -21 -122h-233l161 910h232q4 -18 -3.5 -61t-17.5 -61z" />
<glyph unicode="\" horiz-adv-x="573" d="M406 -190q-34 0 -77 5l-243 850q45 5 78 5q32 0 67 -5l243 -850q-37 -5 -68 -5z" />
<glyph unicode="]" horiz-adv-x="316" d="M100 708h232l-160 -910h-233q-4 18 4 61t18 61h93l117 666h-93q-3 58 22 122z" />
<glyph unicode="^" horiz-adv-x="617" d="M169 274q-75 21 -124 80l259 343q81 11 162 0l145 -363q-78 -42 -160 -58l-96 243z" />
<glyph unicode="_" horiz-adv-x="423" d="M-62 -136q-4 11 -4 30q0 40 23 82h404q1 -7 1 -27q0 -41 -20 -85h-404z" />
<glyph unicode="`" horiz-adv-x="323" d="M343 513l-221 115q27 89 101 127l170 -178q-17 -42 -50 -64z" />
<glyph unicode="a" horiz-adv-x="554" d="M333 490q122 0 210 -48l-80 -447q-59 -12 -117 0l-12 45q-64 -58 -149 -58q-83 0 -129.5 52t-46.5 143q0 142 91.5 227.5t232.5 85.5zM193 204q0 -71 60 -71q37 0 59 30l30 170q-16 4 -39 4q-46 0 -78 -35t-32 -98z" />
<glyph unicode="b" horiz-adv-x="557" d="M312 490q100 0 160 -52t60 -150q0 -139 -90.5 -222.5t-243.5 -83.5q-125 0 -201 43l110 629q42 7 91 7q47 0 89 -7l-30 -169q28 5 55 5zM240 132q49 0 78.5 35.5t29.5 89.5q0 37 -19 59t-54 22q-25 0 -45 -5l-34 -196q21 -5 44 -5z" />
<glyph unicode="c" horiz-adv-x="453" d="M230 -18q-103 0 -161 53.5t-58 149.5q0 139 80 223.5t202 84.5q54 0 96 -16t63 -39q-10 -34 -36.5 -67t-58.5 -51q-26 24 -69 24q-40 0 -67 -36t-27 -97q0 -82 68 -82q39 0 73 33q69 -30 79 -113q-76 -67 -184 -67z" />
<glyph unicode="d" horiz-adv-x="557" d="M493 661q48 0 89 -7l-111 -629q-93 -43 -221 -43q-118 0 -179 54.5t-61 155.5q0 136 90.5 217t219.5 81q32 0 52 -4l30 168q43 7 91 7zM193 220q0 -39 22.5 -63.5t62.5 -24.5q16 0 32 3l35 199q-17 5 -39 5q-47 0 -80 -31.5t-33 -87.5z" />
<glyph unicode="e" horiz-adv-x="520" d="M406 160q61 -40 59 -112q-83 -66 -219 -66q-113 0 -173.5 54.5t-60.5 157.5q0 128 77.5 212t199.5 84q98 0 152 -42.5t54 -112.5q0 -44 -19 -76t-50 -48.5t-64.5 -24t-69.5 -7.5q-46 0 -98 11q1 -42 20.5 -59.5t65.5 -17.5q61 0 126 47zM278 361q-57 0 -75 -77 q25 -5 68 -8q51 0 51 45q0 17 -11 28.5t-33 11.5z" />
<glyph unicode="f" horiz-adv-x="373" d="M360 668q67 0 122 -25q-6 -36 -26 -74.5t-40 -56.5q-21 12 -55 12q-52 0 -61 -57l-1 -3h89q3 -75 -25 -147h-89l-56 -317q-41 -7 -90 -7q-48 0 -91 7l56 317h-56q-7 87 26 147h57q22 104 78 154t162 50z" />
<glyph unicode="g" horiz-adv-x="551" d="M322 493q137 0 217 -52l-71 -405q-22 -124 -101.5 -182.5t-192.5 -58.5q-158 0 -221 92q10 37 40.5 68t72.5 44q43 -65 121 -65q83 0 94 64l2 14q-28 -5 -60 -5q-93 0 -151.5 52.5t-58.5 143.5q0 138 91.5 214t217.5 76zM274 149q18 0 34 3l33 188q-18 6 -41 6 q-40 0 -72 -32t-32 -83q0 -82 78 -82z" />
<glyph unicode="h" horiz-adv-x="547" d="M337 493q98 0 145.5 -51.5t32.5 -134.5l-54 -307q-43 -7 -91 -7t-89 7l47 264q12 68 -43 68q-30 0 -54 -15l-2 1l-56 -318q-41 -7 -89 -7t-91 7l115 654q41 7 89 7q54 0 91 -7l-30 -173q36 12 79 12z" />
<glyph unicode="i" horiz-adv-x="263" d="M193 528q-43 0 -73 30.5t-30 73.5t30 73t73 30t73 -30t30 -73t-30 -73.5t-73 -30.5zM81 -7q-46 0 -89 7l85 476q41 7 91 7q46 0 88 -7l-84 -476q-41 -7 -91 -7z" />
<glyph unicode="j" horiz-adv-x="273" d="M197 528q-43 0 -73 30.5t-30 73.5t30 73t73 30t73 -30t30 -73t-30 -73.5t-73 -30.5zM-33 -200q-79 0 -123 37q0 35 20 71.5t48 54.5q15 -15 42 -15q38 0 48 56l83 472q41 7 89 7q47 0 92 -7l-82 -463q-19 -109 -67.5 -161t-149.5 -52z" />
<glyph unicode="k" horiz-adv-x="575" d="M548 349q0 -114 -101 -184l70 -157q-44 -14 -115 -14q-69 0 -93 3l-57 141q-11 28 -5 54q56 4 85.5 26.5t29.5 59.5q0 56 -78 56q-24 0 -54 -7l-58 -327q-41 -7 -89 -7q-47 0 -90 7l115 654q41 7 89 7t91 -7l-30 -170q45 8 88 8q95 0 148.5 -37t53.5 -106z" />
<glyph unicode="l" horiz-adv-x="314" d="M146 -16q-134 0 -134 108q0 34 7 74l86 488q46 7 94 7t86 -7l-84 -475q-2 -10 -2 -17q0 -15 16 -15q7 0 13 6q51 -46 46 -135q-51 -34 -128 -34z" />
<glyph unicode="m" horiz-adv-x="839" d="M616 494q98 0 145.5 -39.5t47.5 -110.5q0 -25 -4 -46l-52 -297q-43 -8 -92 -8q-50 0 -89 8l47 264q2 14 2 21q0 47 -51 47q-25 0 -52 -10q0 -13 -3 -26l-52 -297q-45 -7 -92 -7q-48 0 -89 7l47 264q2 16 2 21q0 47 -51 47q-29 0 -51 -8l-56 -324q-43 -7 -92 -7 q-47 0 -88 7l77 441q34 18 103 35t153 17q88 0 137 -33q74 34 153 34z" />
<glyph unicode="n" horiz-adv-x="547" d="M312 493q103 0 154 -41.5t51 -116.5q0 -21 -5 -49l-50 -286q-45 -7 -92 -7q-49 0 -88 7l46 263q2 14 2 24q0 45 -49 45q-26 0 -52 -7l-57 -325q-43 -7 -91 -7t-89 7l78 441q101 52 242 52z" />
<glyph unicode="o" horiz-adv-x="548" d="M244 -19q-108 0 -169.5 56t-61.5 158q0 135 75.5 217t199.5 82q110 0 171 -56.5t61 -158.5q0 -135 -74.5 -216.5t-201.5 -81.5zM256 130q42 0 63 39t21 97q0 79 -61 79q-40 0 -62 -38.5t-24 -94.5q0 -82 63 -82z" />
<glyph unicode="p" horiz-adv-x="558" d="M292 490q109 0 174 -53.5t65 -158.5q0 -136 -77 -216.5t-210 -80.5q-44 0 -75 7l-30 -171q-42 -7 -91 -7q-48 0 -89 7l111 624q100 49 222 49zM247 136q43 0 71.5 32t28.5 84q0 39 -21 60t-58 21q-17 0 -39 -5l-33 -188q17 -4 51 -4z" />
<glyph unicode="q" horiz-adv-x="557" d="M329 490q142 0 216 -49l-110 -624q-43 -7 -91 -7t-89 7l30 168q-24 -3 -53 -3q-98 0 -160 53t-62 152q0 74 27 133.5t72.5 95.5t101.5 55t118 19zM270 136q25 0 42 4l33 190q-20 6 -40 6q-47 0 -79 -30t-32 -84q0 -41 21 -63.5t55 -22.5z" />
<glyph unicode="r" horiz-adv-x="357" d="M261 495q89 0 124 -20q-8 -88 -63 -149q-17 7 -40 7q-32 0 -54 -13l-56 -320q-43 -7 -91 -7t-89 7l78 441q81 54 191 54z" />
<glyph unicode="s" horiz-adv-x="478" d="M176 -19q-69 0 -122.5 18.5t-78.5 43.5q24 82 83 118q67 -49 140 -49q50 0 50 23q0 13 -21.5 22.5t-52 18t-60.5 22t-51.5 43.5t-21.5 74q3 83 72.5 129t164.5 46q130 0 201 -47q-25 -87 -78 -122q-22 14 -62 25.5t-74 11.5q-41 0 -41 -23q0 -11 21.5 -18.5t52 -15.5 t61 -21t52 -44t21.5 -76q0 -81 -64.5 -130t-191.5 -49z" />
<glyph unicode="t" horiz-adv-x="447" d="M283 319l-22 -125q-3 -10 -3 -25q0 -33 37 -33q24 0 51 20q26 -16 44 -49.5t18 -68.5q-70 -54 -178 -54q-72 0 -115 32.5t-43 103.5q0 24 4 47l27 152h-84q0 33 8 76q6 36 18 72h84l22 124q46 7 93 7q49 0 87 -7l-22 -124h134l1 -24q0 -50 -27 -124h-134z" />
<glyph unicode="u" horiz-adv-x="544" d="M449 477q47 0 88 -7l-78 -445q-27 -14 -95.5 -28.5t-146.5 -14.5q-103 0 -151.5 40t-48.5 120q0 30 6 64l47 264q43 7 92 7q47 0 89 -7l-46 -259q-4 -22 -4 -31q0 -23 12.5 -33.5t42.5 -10.5q20 0 43 5l58 329q43 7 92 7z" />
<glyph unicode="v" horiz-adv-x="525" d="M518 470q5 -13 5 -47q0 -113 -64.5 -223t-165.5 -200q-48 -8 -107 -8q-48 0 -88 8q-61 213 -62 465q54 14 134 14q29 0 65 -4q-12 -163 -1 -303q1 -13 1 -39l15 29q42 71 62.5 131t20.5 136q0 23 -5 45q38 7 81 7q63 0 109 -11z" />
<glyph unicode="w" horiz-adv-x="818" d="M810 470q5 -8 5 -47q0 -111 -60 -222.5t-155 -200.5q-47 -8 -103 -8q-40 0 -72 8q-30 65 -48 124q-46 -66 -100 -124q-41 -8 -92 -8q-39 0 -71 8q-44 113 -60.5 219t-18.5 246q54 14 134 14q29 0 65 -4q-10 -175 5 -303q0 -3 1.5 -17.5t2.5 -22.5q1 2 13 23q25 44 49 117 t28 144q-1 16 -1 49q54 14 134 14q29 0 65 -4q-12 -192 0 -303q3 -33 3 -40q7 13 14 25q28 49 52.5 124t24.5 148q0 34 -4 46q23 4 70 4q65 0 119 -9z" />
<glyph unicode="x" horiz-adv-x="537" d="M568 464l-206 -237l131 -225q-16 -8 -118 -8q-53 0 -85 4l-56 112l-86 -112q-40 -5 -102 -4t-96 8l212 240l-129 222q39 16 145 16q34 0 56 -3l56 -115l86 115q46 5 108 1t84 -14z" />
<glyph unicode="y" horiz-adv-x="548" d="M450 477q47 0 89 -7l-81 -470q-18 -101 -92.5 -153t-191.5 -52q-79 0 -139.5 24.5t-88.5 57.5q25 78 93 112q57 -57 139 -57q86 0 99 81l4 22q-38 -10 -66 -10q-117 0 -161 53.5t-25 157.5l42 234q43 7 91 7t89 -7l-38 -216q-7 -40 3 -57.5t43 -17.5t49 12l50 279 q43 7 92 7z" />
<glyph unicode="z" horiz-adv-x="479" d="M295 123q46 0 97 28q49 -55 49 -135q-84 -33 -159 -33q-83 0 -149 34l-25 -28q-121 0 -121 66q0 28 20 49l174 191l39 36h-179q-14 68 25 143h392q1 -4 1 -18q0 -68 -37 -109l-189 -215q29 -9 62 -9z" />
<glyph unicode="{" horiz-adv-x="364" d="M417 708q1 -61 -21 -122h-33q-60 0 -66 -39l-32 -184q-13 -73 -83 -110q56 -37 44 -110l-33 -184q-4 -20 8.5 -29.5t43.5 -9.5h33q1 -61 -21 -122h-100q-70 0 -95.5 45t-12.5 116l29 164q10 61 -49 61h-33q-3 18 -3 43q0 26 9 57t20 48h54q38 0 48 51l29 164 q12 71 53.5 116t110.5 45h100z" />
<glyph unicode="|" horiz-adv-x="228" d="M-23 -186l159 900q61 17 110 0l-159 -900q-24 -10 -55.5 -9.5t-54.5 9.5z" />
<glyph unicode="}" horiz-adv-x="366" d="M362 332q4 -9 4 -39q0 -52 -30 -109h-33q-60 0 -70 -61l-29 -164q-13 -72 -54.5 -116.5t-110.5 -44.5h-100q-1 61 21 122h34q59 0 66 39l32 184q11 72 82 110q-56 37 -43 110l33 184q3 20 -9.5 29.5t-43.5 9.5h-33q-2 62 22 122h99q69 0 95 -45t14 -116l-29 -164 q-9 -51 29 -51h54z" />
<glyph unicode="~" horiz-adv-x="537" d="M135 142q-29 0 -63.5 10t-55.5 31q24 67 71.5 104.5t103.5 37.5q38 0 82 -18.5t59 -18.5q16 0 31.5 11.5t23.5 30.5q75 0 118 -41q-20 -62 -67.5 -98.5t-100.5 -36.5q-39 0 -84 18t-59 18q-33 0 -59 -48z" />
<glyph unicode="&#xa1;" horiz-adv-x="262" d="M150 327q-39 0 -67 27.5t-28 67.5t28 68t67 28q40 0 68 -28t28 -68t-28 -67.5t-68 -27.5zM57 -171q-50 0 -92 19q27 156 113 414q27 9 55 9q22 0 50 -7q-8 -270 -34 -416q-42 -19 -92 -19z" />
<glyph unicode="&#xa2;" horiz-adv-x="490" d="M358 233q71 -29 79 -109q-60 -51 -134 -62l-16 -91q-35 -8 -74 -8q-38 0 -73 8l18 101q-128 43 -128 184q0 113 58 190t153 100l18 101q38 8 76 8q39 0 71 -8l-18 -101q59 -14 87 -44q-10 -33 -37 -65t-58 -50q-25 23 -69 23q-42 0 -70 -35t-28 -94q0 -80 72 -80 q38 0 73 32z" />
<glyph unicode="&#xa3;" horiz-adv-x="568" d="M381 494q-39 0 -67 -25.5t-28 -71.5v-23h108q10 -60 -17 -118h-96q-5 -31 -17 -63l-9 -27h257q0 -44 -7 -83q-8 -43 -22 -83h-473q0 61 34 115q46 74 59 141h-68q-9 59 17 118h63q1 14 1 43q0 109 66 180t181 71q85 0 135.5 -28t85.5 -79q-37 -71 -121 -104 q-25 37 -82 37z" />
<glyph unicode="&#xa4;" horiz-adv-x="665" d="M321 57q-49 0 -89 15l-58 -60q-79 39 -116 109l52 55q-24 48 -24 111q0 75 35 139l-59 57q16 32 46.5 63t66.5 51l57 -57q60 34 125 34q51 0 93 -15l52 54q80 -41 116 -109l-48 -51q23 -48 23 -109q0 -75 -35 -140l58 -57q-33 -70 -112 -113l-58 56q-60 -33 -125 -33z M336 228q36 0 59 25t23 70q0 39 -20 59.5t-53 20.5q-35 0 -59.5 -24.5t-24.5 -68.5q0 -41 20 -61.5t55 -20.5z" />
<glyph unicode="&#xa5;" horiz-adv-x="675" d="M717 639l-253 -320h88v-9q0 -30 -13 -64h-119l-9 -52h119v-9q0 -30 -13 -64h-119l-21 -121q-39 -7 -89 -7q-47 0 -90 7l21 121h-118v10q0 27 13 63h118l9 52h-118v10q0 27 13 63h93l-148 319q69 12 136 12q36 0 79 -5l60 -159l16 -50l34 50l116 159q31 5 76 5 q48 0 119 -11z" />
<glyph unicode="&#xa6;" horiz-adv-x="227" d="M67 331l68 384q58 16 110 0l-67 -384q-24 -10 -56 -9.5t-55 9.5zM-24 -186l65 364q58 16 110 0l-64 -364q-24 -10 -56 -9.5t-55 9.5z" />
<glyph unicode="&#xa7;" horiz-adv-x="610" d="M195 103l-75 86q-72 74 -72 187q0 126 89 212t222 86q150 0 228 -91q-14 -47 -49.5 -82t-83.5 -49q-41 54 -108 54q-52 0 -89.5 -36t-37.5 -91q0 -52 36 -93l64 -76q-45 -77 -124 -107zM247 -143q-151 0 -228 91q14 47 49 82t83 49q41 -54 108 -54q52 0 90 36t38 91 q0 50 -36 93l-64 76q43 77 124 107l75 -86q72 -77 72 -187q0 -126 -89 -212t-222 -86z" />
<glyph unicode="&#xa8;" horiz-adv-x="439" d="M213 541q-35 0 -60 25t-25 60t25 60t60 25t60 -25t25 -60t-25 -60t-60 -25zM447 541q-35 0 -60 25t-25 60t25 60t60 25t60 -25t25 -60t-25 -60t-60 -25z" />
<glyph unicode="&#xa9;" horiz-adv-x="756" d="M358 -56q-148 0 -235.5 89t-87.5 232q0 178 107.5 293t268.5 115q148 0 234.5 -89.5t86.5 -232.5q0 -178 -107 -292.5t-267 -114.5zM374 38q109 0 184 82t75 217q0 109 -65.5 175.5t-172.5 66.5q-112 0 -187 -82t-75 -217q0 -109 66 -175.5t175 -66.5zM373 106 q-85 0 -137 47.5t-52 130.5q0 105 67 170t166 65q42 0 78.5 -14t51.5 -31q-20 -57 -78 -91q-20 24 -58 24q-42 0 -68 -29t-26 -81q0 -83 75 -83q29 0 71 27q43 -26 48 -93q-59 -42 -138 -42z" />
<glyph unicode="&#xaa;" horiz-adv-x="385" d="M263 675q154 0 129 -146l-28 -161h-3q-89 -31 -178 -31q-130 0 -130 87q0 58 44.5 88.5t116.5 28.5q27 0 48 -6l1 8q3 15 -6 25t-35 10q-48 0 -91 -27q-35 24 -34 76q22 16 66.5 32t99.5 16zM188 439q0 -24 28 -24q13 0 25 4l9 51q-10 3 -24 3q-38 0 -38 -34z" />
<glyph unicode="&#xab;" horiz-adv-x="470" d="M146 65l-128 187l178 187q52 -7 71 -40l-94 -145l43 -150q-26 -33 -70 -39zM335 65l-128 187l178 187q52 -7 71 -40l-94 -145l43 -150q-26 -33 -70 -39z" />
<glyph unicode="&#xad;" horiz-adv-x="345" d="M39 193q-3 12 -3 32q0 43 22 90h239q2 -18 2 -39q0 -41 -21 -83h-239z" />
<glyph unicode="&#xae;" horiz-adv-x="756" d="M429 776q148 0 234.5 -89.5t86.5 -232.5q0 -178 -107 -292.5t-267 -114.5q-148 0 -235.5 89t-87.5 232q0 178 107.5 293t268.5 115zM392 141q109 0 184 82t75 217q0 109 -65.5 175.5t-172.5 66.5q-112 0 -187 -82t-75 -217q0 -98 54 -163l51 291l17 96q70 14 152 14 q153 0 153 -118q0 -104 -95 -139l58 -148q-28 -5 -55 -5q-39 0 -52 1l-54 138q-7 0 -21.5 1t-21.5 1l-24 -138q-13 -3 -35 -3q-44 0 -67 2q67 -72 181 -72zM419 527q-17 0 -51 -2l-14 -78q21 -2 61 -2q53 0 53 46q0 36 -49 36z" />
<glyph unicode="&#xaf;" horiz-adv-x="382" d="M121 561q-3 12 -3 32q0 49 26 100h327v-26q0 -51 -24 -106h-326z" />
<glyph unicode="&#xb0;" horiz-adv-x="350" d="M222 397q-64 0 -109 45t-45 108q0 64 45 109t109 45t108.5 -45t44.5 -109q0 -63 -44.5 -108t-108.5 -45zM222 495q23 0 39.5 16t16.5 39t-16.5 39.5t-39.5 16.5t-39.5 -16.5t-16.5 -39.5t16.5 -39t39.5 -16z" />
<glyph unicode="&#xb1;" horiz-adv-x="496" d="M468 362q3 -55 -19 -110h-151l-23 -131q-57 -13 -108 0l23 131h-152q-3 57 20 110h151l23 131q57 13 108 0l-23 -131h151zM5 66h411q3 -54 -19 -110h-411q-3 56 19 110z" />
<glyph unicode="&#xb4;" horiz-adv-x="325" d="M157 513q-36 23 -45 63l186 183q72 -41 96 -129z" />
<glyph unicode="&#xb6;" horiz-adv-x="635" d="M388 661q138 0 239 -21l-146 -829q-41 -7 -83 -7t-76 7l65 368q-33 -1 -94 -1q-113 0 -179 54.5t-66 158.5q0 126 88 198t252 72zM320 333q61 0 94 1l31 173q-40 4 -93 4q-58 0 -88 -27t-30 -68q0 -83 86 -83zM140 124q42 8 83 8t79 -8l-56 -313q-31 -10 -79 -10 q-51 0 -82 10z" />
<glyph unicode="&#xb7;" horiz-adv-x="239" d="M129 251q-37 0 -63.5 26.5t-26.5 64.5t26.5 64t63.5 26t63.5 -26t26.5 -64t-26.5 -64.5t-63.5 -26.5z" />
<glyph unicode="&#xb8;" horiz-adv-x="255" d="M73 11h92l-24 -47q76 -13 76 -71q0 -65 -47 -95.5t-108 -30.5q-33 0 -64 9t-43 22q6 50 48 79q17 -14 42 -14q16 0 27 9t11 25q0 27 -55 29z" />
<glyph unicode="&#xba;" horiz-adv-x="399" d="M214 337q-71 0 -112.5 37.5t-41.5 103.5q0 91 59 144.5t146 53.5q71 0 112 -37t41 -104q0 -93 -58 -145.5t-146 -52.5zM232 439q23 0 37 25t14 62q0 47 -36 47q-25 0 -38.5 -24.5t-13.5 -61.5q0 -48 37 -48z" />
<glyph unicode="&#xbb;" horiz-adv-x="472" d="M79 65q-54 7 -73 40l94 145l-43 150q26 33 70 39l128 -186zM268 65q-54 7 -73 40l94 145l-43 150q26 33 70 39l128 -186z" />
<glyph unicode="&#xbc;" horiz-adv-x="799" d="M615 685q64 9 128 0l-580 -732q-72 -12 -128 0zM177 526l-81 -28q-29 42 -18 100q94 36 131 47t63 11q30 0 52 -5l-68 -389q-31 -4 -63 -4q-38 0 -63 4zM707 151h41q0 -23 -5 -53q-5 -28 -15 -54h-40l-8 -47q-33 -5 -58 -5q-30 0 -63 5l8 47h-176q-25 47 16 116l146 245 q63 -1 110 -37l-110 -198q-5 -8 -7 -19h40l12 71q29 4 65 4q32 0 57 -4z" />
<glyph unicode="&#xbd;" horiz-adv-x="801" d="M608 685q64 9 128 0l-580 -732q-72 -12 -128 0zM177 526l-81 -28q-29 42 -18 100q94 36 131.5 47t63.5 11q29 0 51 -5l-68 -389q-31 -4 -63 -4q-38 0 -63 4zM646 105h97q9 -47 -18 -105h-301q-1 4 -1 17q0 47 42 84q25 22 55.5 47t45.5 37.5t30 27t20.5 25t5.5 20.5 q0 24 -25 24q-26 0 -60 -39q-60 14 -83 64q64 87 169 87q62 0 100.5 -29t38.5 -81q0 -48 -32.5 -88.5t-93.5 -82.5l-25 -12z" />
<glyph unicode="&#xbe;" horiz-adv-x="832" d="M658 685q64 9 128 0l-580 -732q-72 -12 -128 0zM367 415q0 -84 -57 -127.5t-134 -43.5q-93 0 -137 51q21 59 68 86q34 -30 74 -30q23 0 38 12.5t15 34.5q0 40 -48 40h-42q-1 1 -1 7q0 19 16 32l56 68h-131q-2 63 19 105h294q-4 -46 -33 -74l-66 -71q27 -6 48 -28.5 t21 -61.5zM747 151h41q-2 -26 -6 -53q-4 -24 -14 -54h-40l-8 -47q-33 -5 -59 -5q-28 0 -63 5l8 47h-175q-25 47 16 116l146 245q64 -1 111 -29l-109 -206q-6 -12 -7 -19h37l13 71q29 4 65 4q32 0 56 -4z" />
<glyph unicode="&#xbf;" horiz-adv-x="460" d="M261 327q-39 0 -67 27.5t-28 67.5t28 68t67 28q40 0 68 -28t28 -68t-28 -67.5t-68 -27.5zM180 -174q-86 0 -142.5 44t-56.5 122q0 55 20 95.5t50 64t60.5 42.5t55 44t30.5 56q30 5 57 5q33 0 60 -4q0 -50 -16 -86t-38 -56t-44.5 -36t-38.5 -36t-16 -46q0 -56 61 -56 q39 0 77 31q70 -39 73 -122q-79 -62 -192 -62z" />
<glyph unicode="&#xc0;" horiz-adv-x="616" d="M534 747q-10 -46 -43 -77l-251 94q19 98 90 139zM464 642l111 -635q-69 -12 -120 -12q-30 0 -60 5l-16 103h-208l-54 -103q-36 -4 -82 -4q-59 0 -92 11l341 635q37 6 93 6q52 0 87 -6zM245 245h113l-17 110l-9 62l-29 -62z" />
<glyph unicode="&#xc1;" horiz-adv-x="616" d="M535 761l-257 -94q-32 32 -41 77l225 160q67 -53 73 -143zM464 642l111 -635q-69 -12 -120 -12q-30 0 -60 5l-16 103h-208l-54 -103q-36 -4 -82 -4q-59 0 -92 11l341 635q37 6 93 6q52 0 87 -6zM245 245h113l-17 110l-9 62l-29 -62z" />
<glyph unicode="&#xc2;" horiz-adv-x="616" d="M251 688q-45 28 -52 81l164 111q48 10 94 0l126 -111q-19 -55 -67 -81l-121 79zM377 648q52 0 87 -6l111 -635q-69 -12 -120 -12q-30 0 -60 5l-16 103h-208l-54 -103q-36 -4 -82 -4q-59 0 -92 11l341 635q37 6 93 6zM245 245h113l-17 110l-9 62l-29 -62z" />
<glyph unicode="&#xc3;" horiz-adv-x="616" d="M512 881q75 0 115 -34q-13 -71 -58 -108.5t-105 -37.5q-34 0 -77.5 18t-61.5 18q-39 0 -50 -44q-33 0 -63.5 11t-46.5 30q12 64 58.5 101.5t105.5 37.5q37 0 80 -18.5t56 -18.5q39 0 47 45zM377 648q52 0 87 -6l111 -635q-69 -12 -120 -12q-30 0 -60 5l-16 103h-208 l-54 -103q-36 -4 -82 -4q-59 0 -92 11l341 635q37 6 93 6zM245 245h113l-17 110l-9 62l-29 -62z" />
<glyph unicode="&#xc4;" horiz-adv-x="616" d="M271 708q-36 0 -61 25.5t-25 60.5q0 36 25 61t61 25q35 0 60.5 -25t25.5 -61q0 -35 -25.5 -60.5t-60.5 -25.5zM512 708q-36 0 -61 25.5t-25 60.5q0 36 25 61t61 25q35 0 60.5 -25t25.5 -61q0 -35 -25.5 -60.5t-60.5 -25.5zM377 648q52 0 87 -6l111 -635q-69 -12 -120 -12 q-30 0 -60 5l-16 103h-208l-54 -103q-36 -4 -82 -4q-59 0 -92 11l341 635q37 6 93 6zM245 245h113l-17 110l-9 62l-29 -62z" />
<glyph unicode="&#xc5;" horiz-adv-x="616" d="M389 668q-54 0 -88 28.5t-34 82.5q0 59 39.5 97.5t95.5 38.5q53 0 88 -28t35 -81q0 -61 -38 -99.5t-98 -38.5zM398 834q-20 0 -30.5 -13t-10.5 -33q0 -16 10 -26.5t27 -10.5q41 0 41 46q0 16 -10 26.5t-27 10.5zM464 642l111 -635q-69 -12 -120 -12q-30 0 -60 5l-16 103 h-208l-54 -103q-36 -4 -82 -4q-59 0 -92 11l341 635q37 6 93 6q52 0 87 -6zM245 245h113l-17 110l-9 62l-29 -62z" />
<glyph unicode="&#xc6;" horiz-adv-x="890" d="M878 483h-219l-20 -113h192q3 -41 -2 -67.5t-20 -64.5h-194l-14 -79h228q3 -56 -3 -88t-25 -71h-408l36 201h-166l-147 -201q-37 -4 -86 -4q-61 0 -94 11l457 636l513 -1q3 -55 -2.5 -82t-25.5 -77zM359 333h94l22 124l12 55l-37 -55z" />
<glyph unicode="&#xc7;" horiz-adv-x="561" d="M384 495q-69 0 -113 -59t-44 -151q0 -62 29 -97t82 -35q59 0 106 37q74 -48 75 -146q-67 -49 -168 -58l-11 -22q76 -13 76 -71q0 -65 -47 -95.5t-108 -30.5q-33 0 -63.5 9t-43.5 22q6 50 48 79q17 -14 42 -14q16 0 27 9t11 25q0 27 -55 29l32 61q-110 13 -170.5 86 t-60.5 186q0 176 106.5 292t271.5 116q122 0 190 -63q-15 -42 -48.5 -81t-73.5 -60q-36 32 -90 32z" />
<glyph unicode="&#xc8;" horiz-adv-x="522" d="M493 747q-10 -46 -43 -77l-251 94q19 98 90 139zM509 483h-238l-15 -81h213q5 -94 -26 -150h-213l-17 -93h248q5 -97 -28 -159h-427l113 642h419q8 -89 -29 -159z" />
<glyph unicode="&#xc9;" horiz-adv-x="522" d="M493 761l-257 -94q-32 32 -41 77l225 160q67 -53 73 -143zM509 483h-238l-15 -81h213q5 -94 -26 -150h-213l-17 -93h248q5 -97 -28 -159h-427l113 642h419q8 -89 -29 -159z" />
<glyph unicode="&#xca;" horiz-adv-x="522" d="M209 688q-45 28 -52 81l164 111q48 10 94 0l126 -111q-19 -55 -67 -81l-121 79zM119 642h419q8 -89 -29 -159h-238l-15 -81h213q5 -94 -26 -150h-213l-17 -93h248q5 -97 -28 -159h-427z" />
<glyph unicode="&#xcb;" horiz-adv-x="522" d="M230 708q-36 0 -61 25.5t-25 60.5q0 36 25 61t61 25q35 0 60.5 -25t25.5 -61q0 -35 -25.5 -60.5t-60.5 -25.5zM471 708q-36 0 -61 25.5t-25 60.5q0 36 25 61t61 25q35 0 60.5 -25t25.5 -61q0 -35 -25.5 -60.5t-60.5 -25.5zM119 642h419q8 -89 -29 -159h-238l-15 -81h213 q5 -94 -26 -150h-213l-17 -93h248q5 -97 -28 -159h-427z" />
<glyph unicode="&#xcc;" horiz-adv-x="289" d="M326 670l-251 94q19 98 90 139l204 -156q-10 -46 -43 -77zM96 -7q-47 0 -90 7l112 640q41 7 89 7t91 -7l-113 -640q-39 -7 -89 -7z" />
<glyph unicode="&#xcd;" horiz-adv-x="289" d="M113 667q-32 32 -41 77l225 160q67 -53 73 -143zM96 -7q-47 0 -90 7l112 640q41 7 89 7t91 -7l-113 -640q-39 -7 -89 -7z" />
<glyph unicode="&#xce;" horiz-adv-x="289" d="M288 881l119 -131q-17 -44 -66 -67l-112 85l-127 -85q-38 21 -49 66l154 132q41 7 81 0zM96 -7q-47 0 -90 7l112 640q41 7 89 7t91 -7l-113 -640q-39 -7 -89 -7z" />
<glyph unicode="&#xcf;" horiz-adv-x="289" d="M116 708q-36 0 -61 25.5t-25 60.5q0 36 25 61t61 25t61 -25t25 -61q0 -35 -25 -60.5t-61 -25.5zM337 708q-36 0 -61 25.5t-25 60.5q0 36 25 61t61 25t61 -25t25 -61q0 -35 -25 -60.5t-61 -25.5zM96 -7q-47 0 -90 7l112 640q41 7 89 7t91 -7l-113 -640q-39 -7 -89 -7z" />
<glyph unicode="&#xd0;" horiz-adv-x="652" d="M321 657q155 0 236 -72t81 -205q0 -182 -112.5 -287.5t-306.5 -105.5q-128 0 -213 13l47 265h-71q-9 46 13 105h76l17 92h-1l32 178q74 17 202 17zM259 156q86 0 131 58t45 137q0 137 -123 137q-26 0 -40 -1l-21 -117h82q6 -55 -13 -105h-87l-19 -108q15 -1 45 -1z" />
<glyph unicode="&#xd1;" horiz-adv-x="666" d="M303 693q-33 0 -63.5 11t-46.5 30q12 64 58.5 101.5t105.5 37.5q37 0 80 -18.5t56 -18.5q39 0 47 45q75 0 115 -34q-13 -71 -58 -108.5t-105 -37.5q-34 0 -77.5 18t-61.5 18q-39 0 -50 -44zM584 647q48 0 91 -7l-112 -638q-86 -15 -177 -8l-129 320l-14 37l-5 -54 l-52 -297q-56 -7 -92 -7q-28 0 -88 7l112 637q75 20 177 9l126 -333l14 -38l5 55l55 310q48 7 89 7z" />
<glyph unicode="&#xd2;" horiz-adv-x="691" d="M505 670l-251 94q19 98 90 139l204 -156q-10 -46 -43 -77zM314 -19q-131 0 -207.5 73.5t-76.5 206.5q0 183 102 293t262 110q131 0 207 -73t76 -206q0 -183 -101.5 -293.5t-261.5 -110.5zM334 151q69 0 107 58t38 154q0 131 -105 131q-69 0 -107.5 -57.5t-38.5 -154.5 q0 -131 106 -131z" />
<glyph unicode="&#xd3;" horiz-adv-x="691" d="M292 667q-32 32 -41 77l225 160q67 -53 73 -143zM314 -19q-131 0 -207.5 73.5t-76.5 206.5q0 183 102 293t262 110q131 0 207 -73t76 -206q0 -183 -101.5 -293.5t-261.5 -110.5zM334 151q69 0 107 58t38 154q0 131 -105 131q-69 0 -107.5 -57.5t-38.5 -154.5 q0 -131 106 -131z" />
<glyph unicode="&#xd4;" horiz-adv-x="691" d="M471 880l126 -111q-19 -55 -67 -81l-121 79l-144 -79q-45 28 -52 81l164 111q48 10 94 0zM314 -19q-131 0 -207.5 73.5t-76.5 206.5q0 183 102 293t262 110q131 0 207 -73t76 -206q0 -183 -101.5 -293.5t-261.5 -110.5zM334 151q69 0 107 58t38 154q0 131 -105 131 q-69 0 -107.5 -57.5t-38.5 -154.5q0 -131 106 -131z" />
<glyph unicode="&#xd5;" horiz-adv-x="691" d="M289 693q-33 0 -63.5 11t-46.5 30q12 64 58.5 101.5t105.5 37.5q37 0 80 -18.5t56 -18.5q39 0 47 45q75 0 115 -34q-13 -71 -58 -108.5t-105 -37.5q-34 0 -77.5 18t-61.5 18q-39 0 -50 -44zM314 -19q-131 0 -207.5 73.5t-76.5 206.5q0 183 102 293t262 110q131 0 207 -73 t76 -206q0 -183 -101.5 -293.5t-261.5 -110.5zM334 151q69 0 107 58t38 154q0 131 -105 131q-69 0 -107.5 -57.5t-38.5 -154.5q0 -131 106 -131z" />
<glyph unicode="&#xd6;" horiz-adv-x="691" d="M285 708q-36 0 -61 25.5t-25 60.5q0 36 25 61t61 25q35 0 60.5 -25t25.5 -61q0 -35 -25.5 -60.5t-60.5 -25.5zM526 708q-36 0 -61 25.5t-25 60.5q0 36 25 61t61 25q35 0 60.5 -25t25.5 -61q0 -35 -25.5 -60.5t-60.5 -25.5zM314 -19q-131 0 -207.5 73.5t-76.5 206.5 q0 183 102 293t262 110q131 0 207 -73t76 -206q0 -183 -101.5 -293.5t-261.5 -110.5zM334 151q69 0 107 58t38 154q0 131 -105 131q-69 0 -107.5 -57.5t-38.5 -154.5q0 -131 106 -131z" />
<glyph unicode="&#xd7;" horiz-adv-x="429" d="M410 351l-128 -114l88 -114q-37 -48 -90 -77l-87 112l-126 -112q-43 30 -62 77l128 114l-88 114q37 48 90 77l86 -112l126 112q42 -28 63 -77z" />
<glyph unicode="&#xd8;" horiz-adv-x="691" d="M683 650l-58 -87q52 -69 52 -178q0 -183 -101.5 -293.5t-261.5 -110.5q-39 0 -79 8l-63 -94q-96 16 -138 99l55 80q-59 73 -59 187q0 183 102 293t262 110q49 0 89 -10l62 93q92 -19 138 -97zM334 151q69 0 107 58t38 154q0 131 -105 131q-69 0 -107.5 -57.5 t-38.5 -154.5q0 -131 106 -131z" />
<glyph unicode="&#xd9;" horiz-adv-x="645" d="M508 670l-251 94q19 98 90 139l204 -156q-10 -46 -43 -77zM281 -19q-116 0 -179.5 53t-63.5 155q0 35 7 70l67 381q41 7 89 7q47 0 90 -7l-66 -377q-3 -18 -3 -32q0 -41 21.5 -63t59.5 -22q44 0 74.5 30t40.5 87l66 377q41 7 86 7q48 0 91 -7l-66 -374 q-23 -136 -104 -210.5t-210 -74.5z" />
<glyph unicode="&#xda;" horiz-adv-x="645" d="M295 667q-32 32 -41 77l225 160q67 -53 73 -143zM281 -19q-116 0 -179.5 53t-63.5 155q0 35 7 70l67 381q41 7 89 7q47 0 90 -7l-66 -377q-3 -18 -3 -32q0 -41 21.5 -63t59.5 -22q44 0 74.5 30t40.5 87l66 377q41 7 86 7q48 0 91 -7l-66 -374q-23 -136 -104 -210.5 t-210 -74.5z" />
<glyph unicode="&#xdb;" horiz-adv-x="645" d="M474 880l126 -111q-19 -55 -67 -81l-121 79l-144 -79q-45 28 -52 81l164 111q48 10 94 0zM281 -19q-116 0 -179.5 53t-63.5 155q0 35 7 70l67 381q41 7 89 7q47 0 90 -7l-66 -377q-3 -18 -3 -32q0 -41 21.5 -63t59.5 -22q44 0 74.5 30t40.5 87l66 377q41 7 86 7 q48 0 91 -7l-66 -374q-23 -136 -104 -210.5t-210 -74.5z" />
<glyph unicode="&#xdc;" horiz-adv-x="645" d="M288 708q-36 0 -61 25.5t-25 60.5q0 36 25 61t61 25q35 0 60.5 -25t25.5 -61q0 -35 -25.5 -60.5t-60.5 -25.5zM529 708q-36 0 -61 25.5t-25 60.5q0 36 25 61t61 25q35 0 60.5 -25t25.5 -61q0 -35 -25.5 -60.5t-60.5 -25.5zM281 -19q-116 0 -179.5 53t-63.5 155q0 35 7 70 l67 381q41 7 89 7q47 0 90 -7l-66 -377q-3 -18 -3 -32q0 -41 21.5 -63t59.5 -22q44 0 74.5 30t40.5 87l66 377q41 7 86 7q48 0 91 -7l-66 -374q-23 -136 -104 -210.5t-210 -74.5z" />
<glyph unicode="&#xdd;" horiz-adv-x="610" d="M528 761l-257 -94q-32 32 -41 77l225 160q67 -53 73 -143zM682 639l-296 -408l-41 -231q-41 -7 -89 -7t-91 7l43 241l-156 397q69 12 135 12q37 0 80 -5l50 -179l16 -55l34 55l121 179q31 5 76 5q46 0 118 -11z" />
<glyph unicode="&#xde;" horiz-adv-x="555" d="M308 550q244 0 244 -181q0 -134 -90 -208t-226 -74q-22 0 -35 1l-15 -88q-41 -7 -89 -7t-91 7l65 365h-2l21 111l29 164q41 7 89 7t91 -7l-16 -90h25zM264 242q53 0 77 28.5t24 67.5q0 29 -19 45.5t-55 16.5q-7 0 -35 -2l-27 -156h35z" />
<glyph unicode="&#xdf;" horiz-adv-x="635" d="M378 -19q-60 0 -105.5 18.5t-66.5 43.5q25 79 87 112q51 -39 95 -39q33 0 33 23q0 16 -22.5 33t-49.5 30.5t-49.5 41.5t-22.5 65q0 40 17 69t40.5 44.5t47.5 28t41 28t17 36.5q0 42 -63 42q-47 0 -79.5 -28.5t-40.5 -72.5l-82 -456q-41 -7 -90 -7q-47 0 -92 7l78 439 q47 265 313 265q108 0 174 -47.5t66 -126.5q0 -45 -17.5 -76.5t-42 -46.5t-49.5 -25.5t-42.5 -21t-17.5 -25.5q0 -10 15 -21.5t36.5 -25.5t42.5 -31.5t36 -46t15 -62.5q0 -71 -56 -119t-166 -48z" />
<glyph unicode="&#xe0;" horiz-adv-x="554" d="M477 577q-17 -42 -50 -64l-221 115q27 89 101 127zM333 490q122 0 210 -48l-80 -447q-59 -12 -117 0l-12 45q-64 -58 -149 -58q-83 0 -129.5 52t-46.5 143q0 142 91.5 227.5t232.5 85.5zM193 204q0 -71 60 -71q37 0 59 30l30 170q-16 4 -39 4q-46 0 -78 -35t-32 -98z" />
<glyph unicode="&#xe1;" horiz-adv-x="554" d="M265 513q-36 23 -45 63l186 183q72 -41 96 -129zM333 490q122 0 210 -48l-80 -447q-59 -12 -117 0l-12 45q-64 -58 -149 -58q-83 0 -129.5 52t-46.5 143q0 142 91.5 227.5t232.5 85.5zM193 204q0 -71 60 -71q37 0 59 30l30 170q-16 4 -39 4q-46 0 -78 -35t-32 -98z" />
<glyph unicode="&#xe2;" horiz-adv-x="554" d="M217 520q-45 20 -53 67l165 152q39 8 79 0l129 -148q-20 -49 -70 -71l-108 88zM333 490q122 0 210 -48l-80 -447q-59 -12 -117 0l-12 45q-64 -58 -149 -58q-83 0 -129.5 52t-46.5 143q0 142 91.5 227.5t232.5 85.5zM193 204q0 -71 60 -71q37 0 59 30l30 170q-16 4 -39 4 q-46 0 -78 -35t-32 -98z" />
<glyph unicode="&#xe3;" horiz-adv-x="554" d="M246 540q-29 0 -63 11t-48 32q20 66 58.5 102.5t90.5 36.5q42 1 79 -18t54 -19q32 0 49 43q74 0 114 -43q-44 -133 -151 -133q-40 -1 -76.5 17.5t-54.5 18.5q-34 0 -52 -48zM9 177q0 142 91.5 227.5t232.5 85.5q122 0 210 -48l-80 -447q-59 -12 -117 0l-12 45 q-64 -58 -149 -58q-83 0 -129.5 52t-46.5 143zM193 204q0 -71 60 -71q37 0 59 30l30 170q-16 4 -39 4q-46 0 -78 -35t-32 -98z" />
<glyph unicode="&#xe4;" horiz-adv-x="554" d="M240 541q-35 0 -60 25t-25 60t25 60t60 25t60 -25t25 -60t-25 -60t-60 -25zM474 541q-35 0 -60 25t-25 60t25 60t60 25t60 -25t25 -60t-25 -60t-60 -25zM9 177q0 142 91.5 227.5t232.5 85.5q122 0 210 -48l-80 -447q-59 -12 -117 0l-12 45q-64 -58 -149 -58 q-83 0 -129.5 52t-46.5 143zM193 204q0 -71 60 -71q37 0 59 30l30 170q-16 4 -39 4q-46 0 -78 -35t-32 -98z" />
<glyph unicode="&#xe5;" horiz-adv-x="554" d="M351 512q-54 0 -88 28.5t-34 82.5q0 59 39.5 97.5t95.5 38.5q53 0 88 -28.5t35 -81.5q0 -61 -38 -99t-98 -38zM360 677q-19 0 -30 -12.5t-11 -33.5q0 -16 10.5 -26.5t26.5 -10.5q41 0 41 46q0 17 -10 27t-27 10zM333 490q122 0 210 -48l-80 -447q-59 -12 -117 0l-12 45 q-64 -58 -149 -58q-83 0 -129.5 52t-46.5 143q0 142 91.5 227.5t232.5 85.5zM193 204q0 -71 60 -71q37 0 59 30l30 170q-16 4 -39 4q-46 0 -78 -35t-32 -98z" />
<glyph unicode="&#xe6;" horiz-adv-x="839" d="M185 -18q-82 0 -129 52.5t-47 142.5q0 140 92.5 226.5t226.5 86.5q100 0 169 -31q60 31 129 31q92 0 142 -40.5t50 -103.5q0 -48 -19.5 -83t-54.5 -53t-74 -26t-86 -8q-36 0 -68 5q0 -1 0.5 -4.5t1.5 -4.5q12 -47 97 -47q39 0 113 40q60 -45 48 -124q-90 -59 -216 -59 q-133 0 -191 86q-39 -51 -82.5 -68.5t-101.5 -17.5zM595 282q51 0 51 40q0 32 -40 32q-59 0 -80 -66q36 -6 69 -6zM243 133q76 0 96 95q7 54 30 101q-29 8 -62 8q-43 0 -78.5 -34t-35.5 -95q0 -35 13 -55t37 -20z" />
<glyph unicode="&#xe7;" horiz-adv-x="453" d="M414 49q-68 -59 -157 -66l-10 -19q76 -13 76 -71q0 -65 -47 -95.5t-108 -30.5q-33 0 -63.5 9t-43.5 22q6 50 48 79q17 -14 42 -14q16 0 27 9t11 25q0 27 -55 29l33 62q-74 15 -115 66t-41 131q0 139 80 223.5t202 84.5q54 0 96 -16t63 -39q-10 -34 -36.5 -67t-58.5 -51 q-26 24 -69 24q-40 0 -67 -36t-27 -97q0 -82 68 -82q39 0 73 33q69 -30 79 -113z" />
<glyph unicode="&#xe8;" horiz-adv-x="520" d="M429 577q-17 -42 -50 -64l-221 115q27 89 101 127zM406 160q61 -40 59 -112q-83 -66 -219 -66q-113 0 -173.5 54.5t-60.5 157.5q0 128 77.5 212t199.5 84q98 0 152 -42.5t54 -112.5q0 -44 -19 -76t-50 -48.5t-64.5 -24t-69.5 -7.5q-46 0 -98 11q1 -42 20.5 -59.5 t65.5 -17.5q61 0 126 47zM278 361q-57 0 -75 -77q25 -5 68 -8q51 0 51 45q0 17 -11 28.5t-33 11.5z" />
<glyph unicode="&#xe9;" horiz-adv-x="520" d="M217 513q-36 23 -45 63l186 183q72 -41 96 -129zM406 160q61 -40 59 -112q-83 -66 -219 -66q-113 0 -173.5 54.5t-60.5 157.5q0 128 77.5 212t199.5 84q98 0 152 -42.5t54 -112.5q0 -44 -19 -76t-50 -48.5t-64.5 -24t-69.5 -7.5q-46 0 -98 11q1 -42 20.5 -59.5 t65.5 -17.5q61 0 126 47zM278 361q-57 0 -75 -77q25 -5 68 -8q51 0 51 45q0 17 -11 28.5t-33 11.5z" />
<glyph unicode="&#xea;" horiz-adv-x="520" d="M169 520q-45 20 -53 67l165 152q39 8 79 0l129 -148q-20 -49 -70 -71l-108 88zM406 160q61 -40 59 -112q-83 -66 -219 -66q-113 0 -173.5 54.5t-60.5 157.5q0 128 77.5 212t199.5 84q98 0 152 -42.5t54 -112.5q0 -44 -19 -76t-50 -48.5t-64.5 -24t-69.5 -7.5 q-46 0 -98 11q1 -42 20.5 -59.5t65.5 -17.5q61 0 126 47zM278 361q-57 0 -75 -77q25 -5 68 -8q51 0 51 45q0 17 -11 28.5t-33 11.5z" />
<glyph unicode="&#xeb;" horiz-adv-x="520" d="M192 541q-35 0 -60 25t-25 60t25 60t60 25t60 -25t25 -60t-25 -60t-60 -25zM426 541q-35 0 -60 25t-25 60t25 60t60 25t60 -25t25 -60t-25 -60t-60 -25zM495 335q0 -44 -19 -76t-50 -48.5t-64.5 -24t-69.5 -7.5q-46 0 -98 11q1 -42 20.5 -59.5t65.5 -17.5q61 0 126 47 q61 -40 59 -112q-83 -66 -219 -66q-113 0 -173.5 54.5t-60.5 157.5q0 128 77.5 212t199.5 84q98 0 152 -42.5t54 -112.5zM203 284q25 -5 68 -8q51 0 51 45q0 17 -11 28.5t-33 11.5q-57 0 -75 -77z" />
<glyph unicode="&#xec;" horiz-adv-x="263" d="M264 513l-221 115q27 89 101 127l170 -178q-17 -42 -50 -64zM81 -7q-46 0 -89 7l85 476q41 7 91 7q46 0 88 -7l-84 -476q-41 -7 -91 -7z" />
<glyph unicode="&#xed;" horiz-adv-x="263" d="M102 513q-36 23 -45 63l186 183q72 -41 96 -129zM81 -7q-46 0 -89 7l85 476q41 7 91 7q46 0 88 -7l-84 -476q-41 -7 -91 -7z" />
<glyph unicode="&#xee;" horiz-adv-x="263" d="M247 739l115 -152q-19 -43 -71 -67l-96 84l-123 -84q-44 25 -55 66l157 153q35 8 73 0zM81 -7q-46 0 -89 7l85 476q41 7 91 7q46 0 88 -7l-84 -476q-41 -7 -91 -7z" />
<glyph unicode="&#xef;" horiz-adv-x="263" d="M81 541q-35 0 -60 25t-25 60t25 60t60 25t59.5 -25t24.5 -60t-24.5 -60t-59.5 -25zM295 541q-35 0 -60 25t-25 60t25 60t60 25t59.5 -25t24.5 -60t-24.5 -60t-59.5 -25zM81 -7q-46 0 -89 7l85 476q41 7 91 7q46 0 88 -7l-84 -476q-41 -7 -91 -7z" />
<glyph unicode="&#xf0;" horiz-adv-x="522" d="M445 496q46 -96 46 -220q0 -148 -69.5 -221t-190.5 -73q-106 0 -164.5 50t-58.5 152q0 110 74 179t180 69q20 0 43 -5q-11 19 -24 36q-16 19 -33 32l-55 -47q-17 8 -34 28.5t-23 40.5l28 24q-29 9 -61 15q5 101 55 146q82 -17 137 -49l61 53q43 -25 57 -69l-44 -38 q46 -42 76 -103zM247 129q33 0 51.5 29.5t18.5 74.5q0 67 -60 67q-33 0 -53.5 -28t-20.5 -68q0 -75 64 -75z" />
<glyph unicode="&#xf1;" horiz-adv-x="547" d="M212 540q-29 0 -63 11t-48 32q20 66 58.5 102.5t90.5 36.5q42 1 79 -18t54 -19q32 0 49 43q74 0 114 -43q-44 -133 -151 -133q-40 -1 -76.5 17.5t-54.5 18.5q-34 0 -52 -48zM312 493q103 0 154 -41.5t51 -116.5q0 -21 -5 -49l-50 -286q-45 -7 -92 -7q-49 0 -88 7l46 263 q2 14 2 24q0 45 -49 45q-26 0 -52 -7l-57 -325q-43 -7 -91 -7t-89 7l78 441q101 52 242 52z" />
<glyph unicode="&#xf2;" horiz-adv-x="548" d="M379 513l-221 115q27 89 101 127l170 -178q-17 -42 -50 -64zM244 -19q-108 0 -169.5 56t-61.5 158q0 135 75.5 217t199.5 82q110 0 171 -56.5t61 -158.5q0 -135 -74.5 -216.5t-201.5 -81.5zM256 130q42 0 63 39t21 97q0 79 -61 79q-40 0 -62 -38.5t-24 -94.5 q0 -82 63 -82z" />
<glyph unicode="&#xf3;" horiz-adv-x="548" d="M217 513q-36 23 -45 63l186 183q72 -41 96 -129zM244 -19q-108 0 -169.5 56t-61.5 158q0 135 75.5 217t199.5 82q110 0 171 -56.5t61 -158.5q0 -135 -74.5 -216.5t-201.5 -81.5zM256 130q42 0 63 39t21 97q0 79 -61 79q-40 0 -62 -38.5t-24 -94.5q0 -82 63 -82z" />
<glyph unicode="&#xf4;" horiz-adv-x="548" d="M360 739l129 -148q-20 -49 -70 -71l-108 88l-142 -88q-45 20 -53 67l165 152q39 8 79 0zM244 -19q-108 0 -169.5 56t-61.5 158q0 135 75.5 217t199.5 82q110 0 171 -56.5t61 -158.5q0 -135 -74.5 -216.5t-201.5 -81.5zM256 130q42 0 63 39t21 97q0 79 -61 79 q-40 0 -62 -38.5t-24 -94.5q0 -82 63 -82z" />
<glyph unicode="&#xf5;" horiz-adv-x="548" d="M198 540q-29 0 -63 11t-48 32q20 66 58.5 102.5t90.5 36.5q42 1 79 -18t54 -19q32 0 49 43q74 0 114 -43q-44 -133 -151 -133q-40 -1 -76.5 17.5t-54.5 18.5q-34 0 -52 -48zM244 -19q-108 0 -169.5 56t-61.5 158q0 135 75.5 217t199.5 82q110 0 171 -56.5t61 -158.5 q0 -135 -74.5 -216.5t-201.5 -81.5zM256 130q42 0 63 39t21 97q0 79 -61 79q-40 0 -62 -38.5t-24 -94.5q0 -82 63 -82z" />
<glyph unicode="&#xf6;" horiz-adv-x="548" d="M192 541q-35 0 -60 25t-25 60t25 60t60 25t60 -25t25 -60t-25 -60t-60 -25zM426 541q-35 0 -60 25t-25 60t25 60t60 25t60 -25t25 -60t-25 -60t-60 -25zM244 -19q-108 0 -169.5 56t-61.5 158q0 135 75.5 217t199.5 82q110 0 171 -56.5t61 -158.5q0 -135 -74.5 -216.5 t-201.5 -81.5zM256 130q42 0 63 39t21 97q0 79 -61 79q-40 0 -62 -38.5t-24 -94.5q0 -82 63 -82z" />
<glyph unicode="&#xf7;" horiz-adv-x="460" d="M251 311q-36 0 -62 25.5t-26 62.5q0 36 26 62t62 26q37 0 62.5 -26t25.5 -62q0 -37 -25.5 -62.5t-62.5 -25.5zM15 190v19q0 36 18 80h399v-18q0 -35 -18 -81h-399zM204 -5q-37 0 -62.5 25.5t-25.5 62.5q0 36 25.5 62t62.5 26q36 0 61.5 -26t25.5 -62q0 -37 -25.5 -62.5 t-61.5 -25.5z" />
<glyph unicode="&#xf8;" horiz-adv-x="548" d="M523 478l-43 -63q40 -54 40 -136q0 -135 -74.5 -216.5t-201.5 -81.5q-31 0 -54 4l-54 -79q-80 13 -115 82l41 61q-49 57 -49 146q0 135 75.5 217t199.5 82q39 0 70 -7l49 74q80 -14 116 -83zM256 130q42 0 63 39t21 97q0 79 -61 79q-40 0 -62 -38.5t-24 -94.5 q0 -82 63 -82z" />
<glyph unicode="&#xf9;" horiz-adv-x="544" d="M444 577q-17 -42 -50 -64l-221 115q27 89 101 127zM449 477q47 0 88 -7l-78 -445q-27 -14 -95.5 -28.5t-146.5 -14.5q-103 0 -151.5 40t-48.5 120q0 30 6 64l47 264q43 7 92 7q47 0 89 -7l-46 -259q-4 -22 -4 -31q0 -23 12.5 -33.5t42.5 -10.5q20 0 43 5l58 329 q43 7 92 7z" />
<glyph unicode="&#xfa;" horiz-adv-x="544" d="M232 513q-36 23 -45 63l186 183q72 -41 96 -129zM449 477q47 0 88 -7l-78 -445q-27 -14 -95.5 -28.5t-146.5 -14.5q-103 0 -151.5 40t-48.5 120q0 30 6 64l47 264q43 7 92 7q47 0 89 -7l-46 -259q-4 -22 -4 -31q0 -23 12.5 -33.5t42.5 -10.5q20 0 43 5l58 329q43 7 92 7z " />
<glyph unicode="&#xfb;" horiz-adv-x="544" d="M184 520q-45 20 -53 67l165 152q40 8 79 0l129 -148q-20 -49 -70 -71l-108 88zM449 477q47 0 88 -7l-78 -445q-27 -14 -95.5 -28.5t-146.5 -14.5q-103 0 -151.5 40t-48.5 120q0 30 6 64l47 264q43 7 92 7q47 0 89 -7l-46 -259q-4 -22 -4 -31q0 -23 12.5 -33.5t42.5 -10.5 q20 0 43 5l58 329q43 7 92 7z" />
<glyph unicode="&#xfc;" horiz-adv-x="544" d="M207 541q-35 0 -60 25t-25 60t25 60t60 25t60 -25t25 -60t-25 -60t-60 -25zM441 541q-35 0 -60 25t-25 60t25 60t60 25t60 -25t25 -60t-25 -60t-60 -25zM449 477q47 0 88 -7l-78 -445q-27 -14 -95.5 -28.5t-146.5 -14.5q-103 0 -151.5 40t-48.5 120q0 30 6 64l47 264 q43 7 92 7q47 0 89 -7l-46 -259q-4 -22 -4 -31q0 -23 12.5 -33.5t42.5 -10.5q20 0 43 5l58 329q43 7 92 7z" />
<glyph unicode="&#xfd;" horiz-adv-x="548" d="M224 513q-36 23 -45 63l186 183q72 -41 96 -129zM450 477q47 0 89 -7l-81 -470q-18 -101 -92.5 -153t-191.5 -52q-79 0 -139.5 24.5t-88.5 57.5q25 78 93 112q57 -57 139 -57q86 0 99 81l4 22q-38 -10 -66 -10q-117 0 -161 53.5t-25 157.5l42 234q43 7 91 7t89 -7 l-38 -216q-7 -40 3 -57.5t43 -17.5t49 12l50 279q43 7 92 7z" />
<glyph unicode="&#xfe;" horiz-adv-x="565" d="M299 490q109 0 174 -53.5t65 -158.5q0 -136 -77 -216.5t-210 -80.5q-49 0 -80 8l-30 -172q-43 -7 -92 -7q-48 0 -89 7l148 837q39 7 88 7t92 -7l-29 -165q13 1 40 1zM254 136q43 0 71.5 32t28.5 84q0 39 -21 60t-58 21q-23 0 -45 -6l-32 -186q19 -5 56 -5z" />
<glyph unicode="&#xff;" horiz-adv-x="548" d="M199 541q-35 0 -60 25t-25 60t25 60t60 25t60 -25t25 -60t-25 -60t-60 -25zM433 541q-35 0 -60 25t-25 60t25 60t60 25t60 -25t25 -60t-25 -60t-60 -25zM450 477q47 0 89 -7l-81 -470q-18 -101 -92.5 -153t-191.5 -52q-79 0 -139.5 24.5t-88.5 57.5q25 78 93 112 q57 -57 139 -57q86 0 99 81l4 22q-38 -10 -66 -10q-117 0 -161 53.5t-25 157.5l42 234q43 7 91 7t89 -7l-38 -216q-7 -40 3 -57.5t43 -17.5t49 12l50 279q43 7 92 7z" />
<glyph unicode="&#x13f;" horiz-adv-x="484" d="M299 642l-85 -480h225q0 -99 -29 -162h-404l113 642q50 8 92 8t88 -8zM392 432q38 0 64 -26t26 -64t-26.5 -64.5t-63.5 -26.5q-38 0 -64.5 26.5t-26.5 64.5q0 37 26.5 63.5t64.5 26.5z" />
<glyph unicode="&#x140;" horiz-adv-x="379" d="M146 -16q-134 0 -134 108q0 34 7 74l86 488q46 7 94 7t86 -7l-84 -475q-2 -10 -2 -17q0 -15 16 -15q7 0 13 6q51 -46 46 -135q-51 -34 -128 -34zM325 251q-37 0 -63.5 26.5t-26.5 64.5t26.5 64t63.5 26t63.5 -26t26.5 -64t-26.5 -64.5t-63.5 -26.5z" />
<glyph unicode="&#x152;" horiz-adv-x="830" d="M527 642h320v-25q0 -23 -1.5 -41.5t-5.5 -34t-6 -22t-8.5 -21t-6.5 -15.5h-213l-14 -79h186v-26q0 -19 -1.5 -35.5t-3 -27.5t-5.5 -23t-6 -17t-6.5 -15.5t-5.5 -12.5h-186l-16 -88h222q1 -4 1 -25q0 -23 -1.5 -41.5t-5.5 -33.5t-6.5 -22.5t-8.5 -20.5t-7 -16h-351 q-49 -9 -96 -9q-120 0 -193.5 73.5t-73.5 196.5q0 177 111.5 285.5t282.5 108.5q52 0 105 -13zM226 284q0 -57 28.5 -90t78.5 -33q19 0 37 3l56 319q-22 2 -34 2q-78 0 -122 -52.5t-44 -148.5z" />
<glyph unicode="&#x153;" horiz-adv-x="833" d="M723 163q30 -20 44 -52t8 -67q-71 -62 -180 -62q-127 0 -191 62q-67 -62 -165 -62q-104 0 -165 58t-61 164q0 130 77 209.5t200 79.5q101 0 154 -67q72 64 170 64q188 0 188 -162q0 -53 -35.5 -88.5t-88 -49.5t-118.5 -14q-22 0 -49 4q3 -32 22 -46.5t57 -14.5 q67 0 133 44zM590 354q-52 0 -70 -67q32 -5 60 -5q52 0 52 40q0 12 -11 22t-31 10zM330 252q7 93 -57 93q-34 0 -54.5 -33t-24.5 -89q-3 -44 11.5 -68.5t45.5 -24.5q71 0 79 122z" />
<glyph unicode="&#x178;" horiz-adv-x="610" d="M264 708q-36 0 -61 25.5t-25 60.5q0 36 25 61t61 25q35 0 60.5 -25t25.5 -61q0 -35 -25.5 -60.5t-60.5 -25.5zM505 708q-36 0 -61 25.5t-25 60.5q0 36 25 61t61 25q35 0 60.5 -25t25.5 -61q0 -35 -25.5 -60.5t-60.5 -25.5zM682 639l-296 -408l-41 -231q-41 -7 -89 -7 t-91 7l43 241l-156 397q69 12 135 12q37 0 80 -5l50 -179l16 -55l34 55l121 179q31 5 76 5q46 0 118 -11z" />
<glyph unicode="&#x2c6;" horiz-adv-x="430" d="M376 739l129 -148q-20 -49 -70 -71l-108 88l-142 -88q-45 20 -53 67l165 152q39 8 79 0z" />
<glyph unicode="&#x2dc;" horiz-adv-x="467" d="M234 540q-29 0 -63 11t-48 32q20 66 58.5 102.5t90.5 36.5q42 1 79 -18t54 -19q32 0 49 43q74 0 114 -43q-44 -133 -151 -133q-40 -1 -76.5 17.5t-54.5 18.5q-34 0 -52 -48z" />
<glyph unicode="&#x2000;" horiz-adv-x="457" />
<glyph unicode="&#x2001;" horiz-adv-x="915" />
<glyph unicode="&#x2002;" horiz-adv-x="457" />
<glyph unicode="&#x2003;" horiz-adv-x="915" />
<glyph unicode="&#x2004;" horiz-adv-x="305" />
<glyph unicode="&#x2005;" horiz-adv-x="228" />
<glyph unicode="&#x2006;" horiz-adv-x="152" />
<glyph unicode="&#x2007;" horiz-adv-x="152" />
<glyph unicode="&#x2008;" horiz-adv-x="114" />
<glyph unicode="&#x2009;" horiz-adv-x="183" />
<glyph unicode="&#x200a;" horiz-adv-x="50" />
<glyph unicode="&#x2010;" horiz-adv-x="345" d="M39 193q-3 12 -3 32q0 43 22 90h239q2 -18 2 -39q0 -41 -21 -83h-239z" />
<glyph unicode="&#x2011;" horiz-adv-x="345" d="M39 193q-3 12 -3 32q0 43 22 90h239q2 -18 2 -39q0 -41 -21 -83h-239z" />
<glyph unicode="&#x2012;" horiz-adv-x="345" d="M39 193q-3 12 -3 32q0 43 22 90h239q2 -18 2 -39q0 -41 -21 -83h-239z" />
<glyph unicode="&#x2013;" horiz-adv-x="529" d="M41 197q-4 11 -4 30q0 40 23 82h421l1 -27q0 -43 -21 -85h-420z" />
<glyph unicode="&#x2014;" horiz-adv-x="1004" d="M40 197q-3 12 -3 30q0 40 23 82h896q1 -7 1 -27q0 -43 -21 -85h-896z" />
<glyph unicode="&#x2018;" horiz-adv-x="213" d="M116 421q-29 0 -50 9q-2 14 -2 34q0 67 38.5 133.5t91.5 103.5q19 -1 36 -10.5t23 -25.5q-54 -89 -54 -165q0 -41 7 -61q-34 -18 -90 -18z" />
<glyph unicode="&#x2019;" horiz-adv-x="207" d="M116 421q-19 1 -36 10.5t-23 25.5q54 89 54 165q0 41 -7 61q34 18 90 18q32 0 50 -9q2 -14 2 -34q0 -67 -38.5 -133t-91.5 -104z" />
<glyph unicode="&#x201a;" horiz-adv-x="213" d="M19 -144q-19 1 -36.5 10.5t-22.5 25.5q54 91 54 166q0 36 -7 60q34 18 89 18q32 0 50 -9q2 -7 2 -34q0 -67 -38 -133.5t-91 -103.5z" />
<glyph unicode="&#x201c;" horiz-adv-x="395" d="M116 421q-29 0 -50 9q-2 14 -2 34q0 66 38.5 132.5t91.5 104.5q19 -1 36 -10.5t23 -25.5q-54 -91 -54 -165q0 -41 7 -61q-34 -18 -90 -18zM299 421q-29 0 -50 9q-2 7 -2 34q0 67 38.5 133.5t91.5 103.5q19 -1 36 -10.5t23 -25.5q-55 -90 -55 -165q0 -36 7 -61 q-32 -18 -89 -18z" />
<glyph unicode="&#x201d;" horiz-adv-x="390" d="M116 421q-19 1 -36 10.5t-23 25.5q55 90 55 165q0 36 -7 61q32 18 89 18q32 0 50 -9q2 -7 2 -34q0 -67 -38.5 -133t-91.5 -104zM299 421q-19 1 -36 10.5t-23 25.5q54 91 54 166q0 40 -7 60q34 18 90 18q32 0 50 -9q2 -14 2 -34q0 -66 -38.5 -132t-91.5 -105z" />
<glyph unicode="&#x201e;" horiz-adv-x="396" d="M19 -144q-19 1 -36 10.5t-23 25.5q54 90 54 165q0 37 -7 61q34 18 90 18q32 0 50 -9q2 -14 2 -34q0 -66 -38.5 -132.5t-91.5 -104.5zM201 -144q-19 1 -36 10.5t-23 25.5q55 90 55 165q0 37 -7 61q32 18 89 18q32 0 50 -9q2 -7 2 -34q0 -67 -38.5 -133.5t-91.5 -103.5z " />
<glyph unicode="&#x2022;" horiz-adv-x="353" d="M174 140q-52 0 -88.5 36.5t-36.5 88.5t36.5 88t88.5 36t88.5 -36t36.5 -88t-36.5 -88.5t-88.5 -36.5z" />
<glyph unicode="&#x2026;" horiz-adv-x="625" d="M85 -20q-36 0 -62 25.5t-26 62.5t26 63t62 26q37 0 63 -26t26 -63t-26 -62.5t-63 -25.5zM282 -20q-36 0 -62 25.5t-26 62.5t26 63t62 26q37 0 63 -26t26 -63t-26 -62.5t-63 -25.5zM479 -20q-36 0 -62 25.5t-26 62.5t26 63t62 26q37 0 63 -26t26 -63t-26 -62.5t-63 -25.5z " />
<glyph unicode="&#x202f;" horiz-adv-x="183" />
<glyph unicode="&#x2039;" horiz-adv-x="281" d="M146 65l-128 187l178 187q52 -7 71 -40l-94 -145l43 -150q-26 -33 -70 -39z" />
<glyph unicode="&#x203a;" horiz-adv-x="282" d="M73 65q-50 7 -67 40l94 145l-43 150q26 33 70 39l128 -186z" />
<glyph unicode="&#x205f;" horiz-adv-x="228" />
<glyph unicode="&#x20ac;" horiz-adv-x="628" d="M446 495q-72 0 -108 -73h122v-10q0 -27 -13 -63h-132q-4 -27 -6 -56h102v-10q0 -27 -13 -63h-82q19 -67 85 -67q48 0 85 35q73 -49 73 -145q-79 -59 -198 -59q-113 0 -176 60.5t-72 175.5h-95v10q0 26 13 63h81q1 20 7 56h-51v9q0 32 13 64h57q39 111 125 178t197 67 q117 0 186 -51q-14 -45 -46.5 -87t-72.5 -62q-28 28 -81 28z" />
<glyph unicode="&#x2122;" horiz-adv-x="790" d="M734 671q37 0 69 -4l-64 -361q-31 -3 -58 -3q-21 0 -53 3l19 105l17 56l-33 -56l-42 -76q-24 -3 -41 -3q-16 0 -39 3l-19 76l-14 51l-2 -51l-18 -105q-30 -3 -56 -3q-23 0 -56 3l64 361q36 4 68 4q30 0 57 -4l42 -164l2 -23l9 23l92 164q28 4 56 4zM366 559h-82l-44 -253 q-42 -4 -61 -4q-21 0 -59 4l44 253h-81v11q0 21 2.5 38.5t4.5 25.5t6.5 20t5.5 14h283v-11q0 -22 -2.5 -40t-4.5 -25.5t-6.5 -19t-5.5 -13.5z" />
<glyph unicode="&#x25fc;" horiz-adv-x="480" d="M0 480h480v-480h-480v480z" />
<glyph horiz-adv-x="609" d="M461 642q79 -297 102 -635q-70 -12 -121 -12q-30 0 -60 5q-1 35 -5 103h-210l-42 -103q-36 -4 -83 -4q-58 0 -91 11q135 330 331 635q37 6 93 6q51 0 86 -6zM234 252h131q-12 104 -20 156l-9 35l-20 -35q-44 -75 -82 -156z" />
<glyph horiz-adv-x="609" d="M529 761l-257 -94q-32 32 -41 77l225 160q67 -53 73 -143zM461 642q79 -297 102 -635q-70 -12 -121 -12q-30 0 -60 5q-1 35 -5 103h-210l-42 -103q-36 -4 -83 -4q-58 0 -91 11q135 330 331 635q37 6 93 6q51 0 86 -6zM234 252h131q-12 104 -20 156l-9 35l-20 -35 q-44 -75 -82 -156z" />
<glyph horiz-adv-x="609" d="M245 688q-45 28 -52 81l164 111q48 10 94 0l126 -111q-19 -55 -67 -81l-121 79zM375 648q51 0 86 -6q79 -297 102 -635q-70 -12 -121 -12q-30 0 -60 5q-1 35 -5 103h-210l-42 -103q-36 -4 -83 -4q-58 0 -91 11q135 330 331 635q37 6 93 6zM234 252h131q-12 104 -20 156 l-9 35l-20 -35q-44 -75 -82 -156z" />
<glyph horiz-adv-x="609" d="M265 708q-36 0 -61 25.5t-25 60.5q0 36 25 61t61 25q35 0 60.5 -25t25.5 -61q0 -35 -25.5 -60.5t-60.5 -25.5zM506 880q35 0 60.5 -25t25.5 -61q0 -35 -25.5 -60.5t-60.5 -25.5q-36 0 -61 25.5t-25 60.5q0 36 25 61t61 25zM375 648q51 0 86 -6q79 -297 102 -635 q-70 -12 -121 -12q-30 0 -60 5q-1 35 -5 103h-210l-42 -103q-36 -4 -83 -4q-58 0 -91 11q135 330 331 635q37 6 93 6zM234 252h131q-12 104 -20 156l-9 35l-20 -35q-44 -75 -82 -156z" />
<glyph horiz-adv-x="609" d="M528 747q-10 -46 -43 -77l-251 94q19 98 90 139zM461 642q79 -297 102 -635q-70 -12 -121 -12q-30 0 -60 5q-1 35 -5 103h-210l-42 -103q-36 -4 -83 -4q-58 0 -91 11q135 330 331 635q37 6 93 6q51 0 86 -6zM234 252h131q-12 104 -20 156l-9 35l-20 -35q-44 -75 -82 -156 z" />
<glyph horiz-adv-x="609" d="M383 668q-54 0 -88 28.5t-34 82.5q0 59 39.5 97.5t95.5 38.5q53 0 88 -28t35 -81q0 -61 -38 -99.5t-98 -38.5zM392 834q-20 0 -30.5 -13t-10.5 -33q0 -16 10 -26.5t27 -10.5q41 0 41 46q0 16 -10 26.5t-27 10.5zM461 642q79 -297 102 -635q-70 -12 -121 -12q-30 0 -60 5 q-1 35 -5 103h-210l-42 -103q-36 -4 -83 -4q-58 0 -91 11q135 330 331 635q37 6 93 6q51 0 86 -6zM234 252h131q-12 104 -20 156l-9 35l-20 -35q-44 -75 -82 -156z" />
<glyph horiz-adv-x="609" d="M506 881q75 0 115 -34q-13 -71 -58 -108.5t-105 -37.5q-34 0 -77.5 18t-61.5 18q-39 0 -50 -44q-33 0 -63.5 11t-46.5 30q12 64 58.5 101.5t105.5 37.5q37 0 80 -18.5t56 -18.5q39 0 47 45zM375 648q51 0 86 -6q79 -297 102 -635q-70 -12 -121 -12q-30 0 -60 5 q-1 35 -5 103h-210l-42 -103q-36 -4 -83 -4q-58 0 -91 11q135 330 331 635q37 6 93 6zM234 252h131q-12 104 -20 156l-9 35l-20 -35q-44 -75 -82 -156z" />
<glyph horiz-adv-x="499" d="M323 499q-28 0 -47 -16t-19 -44q0 -22 17.5 -31t56.5 -10h51q6 -13 6 -39q0 -47 -28 -94h-50q-105 -1 -105 -70q0 -23 16.5 -37t49.5 -14q57 0 121 43q30 -17 47 -53t19 -81q-87 -68 -236 -68q-39 0 -75 8.5t-69 26.5t-53 52t-20 79q0 139 134 191q-55 41 -55 112 q0 89 68.5 147t179.5 58q133 0 193 -56q-8 -38 -35 -74.5t-61 -56.5q-52 27 -106 27z" />
<glyph horiz-adv-x="499" d="M493 761l-257 -94q-32 32 -41 77l225 160q67 -53 73 -143zM323 499q-28 0 -47 -16t-19 -44q0 -22 17.5 -31t56.5 -10h51q6 -13 6 -39q0 -47 -28 -94h-50q-105 -1 -105 -70q0 -23 16.5 -37t49.5 -14q57 0 121 43q30 -17 47 -53t19 -81q-87 -68 -236 -68q-39 0 -75 8.5 t-69 26.5t-53 52t-20 79q0 139 134 191q-55 41 -55 112q0 89 68.5 147t179.5 58q133 0 193 -56q-8 -38 -35 -74.5t-61 -56.5q-52 27 -106 27z" />
<glyph horiz-adv-x="499" d="M209 688q-45 28 -52 81l164 111q48 10 94 0l126 -111q-19 -55 -67 -81l-121 79zM84 454q0 89 68.5 147t179.5 58q133 0 193 -56q-8 -38 -35 -74.5t-61 -56.5q-52 27 -106 27q-28 0 -47 -16t-19 -44q0 -22 17.5 -31t56.5 -10h51q6 -13 6 -39q0 -47 -28 -94h-50 q-105 -1 -105 -70q0 -23 16.5 -37t49.5 -14q57 0 121 43q30 -17 47 -53t19 -81q-87 -68 -236 -68q-39 0 -75 8.5t-69 26.5t-53 52t-20 79q0 139 134 191q-55 41 -55 112z" />
<glyph horiz-adv-x="499" d="M229 708q-36 0 -61 25.5t-25 60.5q0 36 25 61t61 25q35 0 60.5 -25t25.5 -61q0 -35 -25.5 -60.5t-60.5 -25.5zM470 880q35 0 60.5 -25t25.5 -61q0 -35 -25.5 -60.5t-60.5 -25.5q-36 0 -61 25.5t-25 60.5q0 36 25 61t61 25zM84 454q0 89 68.5 147t179.5 58q133 0 193 -56 q-8 -38 -35 -74.5t-61 -56.5q-52 27 -106 27q-28 0 -47 -16t-19 -44q0 -22 17.5 -31t56.5 -10h51q6 -13 6 -39q0 -47 -28 -94h-50q-105 -1 -105 -70q0 -23 16.5 -37t49.5 -14q57 0 121 43q30 -17 47 -53t19 -81q-87 -68 -236 -68q-39 0 -75 8.5t-69 26.5t-53 52t-20 79 q0 139 134 191q-55 41 -55 112z" />
<glyph horiz-adv-x="499" d="M492 747q-10 -46 -43 -77l-251 94q19 98 90 139zM323 499q-28 0 -47 -16t-19 -44q0 -22 17.5 -31t56.5 -10h51q6 -13 6 -39q0 -47 -28 -94h-50q-105 -1 -105 -70q0 -23 16.5 -37t49.5 -14q57 0 121 43q30 -17 47 -53t19 -81q-87 -68 -236 -68q-39 0 -75 8.5t-69 26.5 t-53 52t-20 79q0 139 134 191q-55 41 -55 112q0 89 68.5 147t179.5 58q133 0 193 -56q-8 -38 -35 -74.5t-61 -56.5q-52 27 -106 27z" />
<glyph horiz-adv-x="691" d="M677 385q0 -214 -137 -327l44 -88q-22 -26 -62 -44.5t-76 -23.5l-44 89q-40 -10 -88 -10q-131 0 -207.5 73.5t-76.5 206.5q0 183 102 293t262 110q131 0 207 -73t76 -206zM228 282q0 -124 96 -131l-26 53q56 53 137 68l19 -39q25 51 25 130q0 131 -105 131 q-69 0 -107.5 -57.5t-38.5 -154.5z" />
<glyph horiz-adv-x="578" d="M494 161q-6 -37 32 -45q-8 -82 -53 -132q-96 0 -129 42q-34 -26 -67 -35t-79 -9q-85 0 -137 53.5t-52 142.5q0 142 91.5 227t233.5 85q125 0 211 -45zM193 207q0 -36 18 -55t48 -19q27 0 52 16l33 183q-23 5 -40 5q-47 0 -79 -33t-32 -97z" />
<glyph horiz-adv-x="539" d="M461 147q0 -27 36 -34q-9 -82 -59 -132q-60 0 -91.5 11t-48.5 49h-3q-63 -61 -163 -61q-60 0 -101.5 32t-41.5 95q0 85 66 130.5t176 45.5h72l2 10q1 5 1 14q0 38 -62 38q-78 0 -136 -40q-53 44 -52 113q32 25 92 48.5t136 23.5q203 0 203 -159q0 -27 -6 -60l-1 -7 l-18 -105q-1 -4 -1 -12zM210 101q57 0 75 75l2 12h-43q-35 0 -54 -13.5t-19 -36.5q0 -37 39 -37z" />
<glyph d="M264 490q257 0 216 -219l-44 -246q-120 -42 -236 -42q-208 0 -208 140q0 80 65.5 125.5t168.5 41.5q42 -1 77 -9l2 12q4 23 -13 37.5t-64 14.5q-65 0 -119 -29q-53 40 -52 124q87 50 207 50zM174 140q0 -39 55 -39q20 0 44 6l13 75q-23 6 -50 6q-62 0 -62 -48z" />
<glyph horiz-adv-x="578" d="M261 513q-36 23 -45 63l186 183q72 -41 96 -129zM494 161q-6 -37 32 -45q-8 -82 -53 -132q-96 0 -129 42q-34 -26 -67 -35t-79 -9q-85 0 -137 53.5t-52 142.5q0 142 91.5 227t233.5 85q125 0 211 -45zM193 207q0 -36 18 -55t48 -19q27 0 52 16l33 183q-23 5 -40 5 q-47 0 -79 -33t-32 -97z" />
<glyph horiz-adv-x="539" d="M198 513q-36 23 -45 63l186 183q72 -41 96 -129zM461 147q0 -27 36 -34q-9 -82 -59 -132q-60 0 -91.5 11t-48.5 49h-3q-63 -61 -163 -61q-60 0 -101.5 32t-41.5 95q0 85 66 130.5t176 45.5h72l2 10q1 5 1 14q0 38 -62 38q-78 0 -136 -40q-53 44 -52 113q32 25 92 48.5 t136 23.5q203 0 203 -159q0 -27 -6 -60l-1 -7l-18 -105q-1 -4 -1 -12zM210 101q57 0 75 75l2 12h-43q-35 0 -54 -13.5t-19 -36.5q0 -37 39 -37z" />
<glyph d="M204 513q-36 23 -45 63l186 183q72 -41 96 -129zM264 490q257 0 216 -219l-44 -246q-120 -42 -236 -42q-208 0 -208 140q0 80 65.5 125.5t168.5 41.5q42 -1 77 -9l2 12q4 23 -13 37.5t-64 14.5q-65 0 -119 -29q-53 40 -52 124q87 50 207 50zM174 140q0 -39 55 -39 q20 0 44 6l13 75q-23 6 -50 6q-62 0 -62 -48z" />
<glyph horiz-adv-x="578" d="M213 520q-45 20 -53 67l165 152q39 8 79 0l129 -148q-20 -49 -70 -71l-108 88zM494 161q-6 -37 32 -45q-8 -82 -53 -132q-96 0 -129 42q-34 -26 -67 -35t-79 -9q-85 0 -137 53.5t-52 142.5q0 142 91.5 227t233.5 85q125 0 211 -45zM193 207q0 -36 18 -55t48 -19 q27 0 52 16l33 183q-23 5 -40 5q-47 0 -79 -33t-32 -97z" />
<glyph horiz-adv-x="539" d="M150 520q-45 20 -53 67l165 152q40 8 79 0l129 -148q-20 -49 -70 -71l-108 88zM461 147q0 -27 36 -34q-9 -82 -59 -132q-60 0 -91.5 11t-48.5 49h-3q-63 -61 -163 -61q-60 0 -101.5 32t-41.5 95q0 85 66 130.5t176 45.5h72l2 10q1 5 1 14q0 38 -62 38q-78 0 -136 -40 q-53 44 -52 113q32 25 92 48.5t136 23.5q203 0 203 -159q0 -27 -6 -60l-1 -7l-18 -105q-1 -4 -1 -12zM210 101q57 0 75 75l2 12h-43q-35 0 -54 -13.5t-19 -36.5q0 -37 39 -37z" />
<glyph d="M156 520q-45 20 -53 67l165 152q39 8 79 0l129 -148q-20 -49 -70 -71l-108 88zM264 490q257 0 216 -219l-44 -246q-120 -42 -236 -42q-208 0 -208 140q0 80 65.5 125.5t168.5 41.5q42 -1 77 -9l2 12q4 23 -13 37.5t-64 14.5q-65 0 -119 -29q-53 40 -52 124q87 50 207 50z M174 140q0 -39 55 -39q20 0 44 6l13 75q-23 6 -50 6q-62 0 -62 -48z" />
<glyph horiz-adv-x="578" d="M236 541q-35 0 -60 25t-25 60t25 60t60 25t60 -25t25 -60t-25 -60t-60 -25zM470 541q-35 0 -60 25t-25 60t25 60t60 25t60 -25t25 -60t-25 -60t-60 -25zM545 445l-51 -284q-6 -37 32 -45q-8 -82 -53 -132q-96 0 -129 42q-34 -26 -67 -35t-79 -9q-85 0 -137 53.5 t-52 142.5q0 142 91.5 227t233.5 85q125 0 211 -45zM193 207q0 -36 18 -55t48 -19q27 0 52 16l33 183q-23 5 -40 5q-47 0 -79 -33t-32 -97z" />
<glyph horiz-adv-x="539" d="M173 541q-35 0 -60 25t-25 60t25 60t60 25t60 -25t25 -60t-25 -60t-60 -25zM407 541q-35 0 -60 25t-25 60t25 60t60 25t60 -25t25 -60t-25 -60t-60 -25zM461 147q0 -27 36 -34q-9 -82 -59 -132q-60 0 -91.5 11t-48.5 49h-3q-63 -61 -163 -61q-60 0 -101.5 32t-41.5 95 q0 85 66 130.5t176 45.5h72l2 10q1 5 1 14q0 38 -62 38q-78 0 -136 -40q-53 44 -52 113q32 25 92 48.5t136 23.5q203 0 203 -159q0 -27 -6 -60l-1 -7l-18 -105q-1 -4 -1 -12zM210 101q57 0 75 75l2 12h-43q-35 0 -54 -13.5t-19 -36.5q0 -37 39 -37z" />
<glyph d="M179 541q-35 0 -60 25t-25 60t25 60t60 25t60 -25t25 -60t-25 -60t-60 -25zM413 541q-35 0 -60 25t-25 60t25 60t60 25t60 -25t25 -60t-25 -60t-60 -25zM264 490q257 0 216 -219l-44 -246q-120 -42 -236 -42q-208 0 -208 140q0 80 65.5 125.5t168.5 41.5q42 -1 77 -9 l2 12q4 23 -13 37.5t-64 14.5q-65 0 -119 -29q-53 40 -52 124q87 50 207 50zM174 140q0 -39 55 -39q20 0 44 6l13 75q-23 6 -50 6q-62 0 -62 -48z" />
<glyph horiz-adv-x="578" d="M473 577q-17 -42 -50 -64l-221 115q27 89 101 127zM494 161q-6 -37 32 -45q-8 -82 -53 -132q-96 0 -129 42q-34 -26 -67 -35t-79 -9q-85 0 -137 53.5t-52 142.5q0 142 91.5 227t233.5 85q125 0 211 -45zM193 207q0 -36 18 -55t48 -19q27 0 52 16l33 183q-23 5 -40 5 q-47 0 -79 -33t-32 -97z" />
<glyph horiz-adv-x="539" d="M410 577q-17 -42 -50 -64l-221 115q27 89 101 127zM461 147q0 -27 36 -34q-9 -82 -59 -132q-60 0 -91.5 11t-48.5 49h-3q-63 -61 -163 -61q-60 0 -101.5 32t-41.5 95q0 85 66 130.5t176 45.5h72l2 10q1 5 1 14q0 38 -62 38q-78 0 -136 -40q-53 44 -52 113q32 25 92 48.5 t136 23.5q203 0 203 -159q0 -27 -6 -60l-1 -7l-18 -105q-1 -4 -1 -12zM210 101q57 0 75 75l2 12h-43q-35 0 -54 -13.5t-19 -36.5q0 -37 39 -37z" />
<glyph d="M416 577q-17 -42 -50 -64l-221 115q27 89 101 127zM264 490q257 0 216 -219l-44 -246q-120 -42 -236 -42q-208 0 -208 140q0 80 65.5 125.5t168.5 41.5q42 -1 77 -9l2 12q4 23 -13 37.5t-64 14.5q-65 0 -119 -29q-53 40 -52 124q87 50 207 50zM174 140q0 -39 55 -39 q20 0 44 6l13 75q-23 6 -50 6q-62 0 -62 -48z" />
<glyph horiz-adv-x="578" d="M347 512q-54 0 -88 28.5t-34 82.5q0 59 39.5 97.5t95.5 38.5q53 0 88 -28.5t35 -81.5q0 -61 -38 -99t-98 -38zM356 677q-19 0 -30 -12.5t-11 -33.5q0 -16 10.5 -26.5t26.5 -10.5q41 0 41 46q0 17 -10 27t-27 10zM494 161q-6 -37 32 -45q-8 -82 -53 -132q-96 0 -129 42 q-34 -26 -67 -35t-79 -9q-85 0 -137 53.5t-52 142.5q0 142 91.5 227t233.5 85q125 0 211 -45zM193 207q0 -36 18 -55t48 -19q27 0 52 16l33 183q-23 5 -40 5q-47 0 -79 -33t-32 -97z" />
<glyph horiz-adv-x="539" d="M284 512q-54 0 -88 28.5t-34 82.5q0 59 39.5 97.5t95.5 38.5q53 0 88 -28.5t35 -81.5q0 -61 -38 -99t-98 -38zM293 677q-19 0 -30 -12.5t-11 -33.5q0 -16 10.5 -26.5t26.5 -10.5q41 0 41 46q0 17 -10 27t-27 10zM461 147q0 -27 36 -34q-9 -82 -59 -132q-60 0 -91.5 11 t-48.5 49h-3q-63 -61 -163 -61q-60 0 -101.5 32t-41.5 95q0 85 66 130.5t176 45.5h72l2 10q1 5 1 14q0 38 -62 38q-78 0 -136 -40q-53 44 -52 113q32 25 92 48.5t136 23.5q203 0 203 -159q0 -27 -6 -60l-1 -7l-18 -105q-1 -4 -1 -12zM210 101q57 0 75 75l2 12h-43 q-35 0 -54 -13.5t-19 -36.5q0 -37 39 -37z" />
<glyph d="M290 512q-54 0 -88 28.5t-34 82.5q0 59 39.5 97.5t95.5 38.5q53 0 88 -28.5t35 -81.5q0 -61 -38 -99t-98 -38zM299 677q-19 0 -30 -12.5t-11 -33.5q0 -16 10.5 -26.5t26.5 -10.5q41 0 41 46q0 17 -10 27t-27 10zM264 490q257 0 216 -219l-44 -246q-120 -42 -236 -42 q-208 0 -208 140q0 80 65.5 125.5t168.5 41.5q42 -1 77 -9l2 12q4 23 -13 37.5t-64 14.5q-65 0 -119 -29q-53 40 -52 124q87 50 207 50zM174 140q0 -39 55 -39q20 0 44 6l13 75q-23 6 -50 6q-62 0 -62 -48z" />
<glyph horiz-adv-x="578" d="M242 540q-29 0 -63 11t-48 32q20 66 58.5 102.5t90.5 36.5q42 1 79 -18t54 -19q32 0 49 43q74 0 114 -43q-44 -133 -151 -133q-40 -1 -76.5 17.5t-54.5 18.5q-34 0 -52 -48zM545 445l-51 -284q-6 -37 32 -45q-8 -82 -53 -132q-96 0 -129 42q-34 -26 -67 -35t-79 -9 q-85 0 -137 53.5t-52 142.5q0 142 91.5 227t233.5 85q125 0 211 -45zM193 207q0 -36 18 -55t48 -19q27 0 52 16l33 183q-23 5 -40 5q-47 0 -79 -33t-32 -97z" />
<glyph horiz-adv-x="539" d="M179 540q-29 0 -63 11t-48 32q20 66 58.5 102.5t90.5 36.5q42 1 79 -18t54 -19q32 0 49 43q74 0 114 -43q-44 -133 -151 -133q-40 -1 -76.5 17.5t-54.5 18.5q-34 0 -52 -48zM461 147q0 -27 36 -34q-9 -82 -59 -132q-60 0 -91.5 11t-48.5 49h-3q-63 -61 -163 -61 q-60 0 -101.5 32t-41.5 95q0 85 66 130.5t176 45.5h72l2 10q1 5 1 14q0 38 -62 38q-78 0 -136 -40q-53 44 -52 113q32 25 92 48.5t136 23.5q203 0 203 -159q0 -27 -6 -60l-1 -7l-18 -105q-1 -4 -1 -12zM210 101q57 0 75 75l2 12h-43q-35 0 -54 -13.5t-19 -36.5q0 -37 39 -37 z" />
<glyph d="M185 540q-29 0 -63 11t-48 32q20 66 58.5 102.5t90.5 36.5q42 1 79 -18t54 -19q32 0 49 43q74 0 114 -43q-44 -133 -151 -133q-40 -1 -76.5 17.5t-54.5 18.5q-34 0 -52 -48zM264 490q257 0 216 -219l-44 -246q-120 -42 -236 -42q-208 0 -208 140q0 80 65.5 125.5 t168.5 41.5q42 -1 77 -9l2 12q4 23 -13 37.5t-64 14.5q-65 0 -119 -29q-53 40 -52 124q87 50 207 50zM174 140q0 -39 55 -39q20 0 44 6l13 75q-23 6 -50 6q-62 0 -62 -48z" />
<glyph horiz-adv-x="557" d="M354 490q84 0 132 -52.5t48 -142.5q0 -140 -90.5 -226.5t-227.5 -86.5q-129 0 -219 43l110 629q41 7 91 7q48 0 91 -7l-34 -188q44 24 99 24zM242 135q43 0 75.5 34t32.5 95q0 75 -58 75q-41 0 -64 -30l-31 -170q21 -4 45 -4z" />
<glyph horiz-adv-x="555" d="M488 661q49 0 92 -7l-117 -659q-29 -6 -56 -6q-31 0 -61 6l-8 47h-2q-63 -60 -145 -60q-85 0 -133.5 52.5t-48.5 142.5q0 142 88.5 227.5t225.5 85.5q17 0 47 -2l29 166q41 7 89 7zM193 208q0 -75 60 -75q36 0 58 22l31 175q-16 7 -41 7q-46 0 -77 -33t-31 -96z" />
<glyph horiz-adv-x="522" d="M498 309q0 -64 -20 -115h-283q2 -39 22.5 -55.5t65.5 -16.5q57 0 118 37q54 -44 54 -123q-91 -54 -212 -54q-109 0 -169 55.5t-60 157.5q0 143 81 219t205 76q93 0 145.5 -48.5t52.5 -132.5zM330 287q4 7 4 21q0 50 -47 50q-58 0 -81 -71h124z" />
<glyph d="M498 342q0 -75 -49.5 -113t-139.5 -39l-115 -1q6 -37 27.5 -50.5t59.5 -13.5q57 0 119 35q48 -38 48 -126q-92 -52 -211 -52q-102 0 -163.5 56.5t-61.5 156.5q0 130 81 213t208 82q92 -1 144.5 -41t52.5 -107zM202 291h76q40 0 40 34q0 29 -37 29q-56 0 -79 -63z" />
<glyph horiz-adv-x="522" d="M222 513q-36 23 -45 63l186 183q72 -41 96 -129zM498 309q0 -64 -20 -115h-283q2 -39 22.5 -55.5t65.5 -16.5q57 0 118 37q54 -44 54 -123q-91 -54 -212 -54q-109 0 -169 55.5t-60 157.5q0 143 81 219t205 76q93 0 145.5 -48.5t52.5 -132.5zM330 287q4 7 4 21 q0 50 -47 50q-58 0 -81 -71h124z" />
<glyph d="M209 513q-36 23 -45 63l186 183q72 -41 96 -129zM498 342q0 -75 -49.5 -113t-139.5 -39l-115 -1q6 -37 27.5 -50.5t59.5 -13.5q57 0 119 35q48 -38 48 -126q-92 -52 -211 -52q-102 0 -163.5 56.5t-61.5 156.5q0 130 81 213t208 82q92 -1 144.5 -41t52.5 -107zM202 291h76 q40 0 40 34q0 29 -37 29q-56 0 -79 -63z" />
<glyph horiz-adv-x="522" d="M174 520q-45 20 -53 67l165 152q40 8 79 0l129 -148q-20 -49 -70 -71l-108 88zM498 309q0 -64 -20 -115h-283q2 -39 22.5 -55.5t65.5 -16.5q57 0 118 37q54 -44 54 -123q-91 -54 -212 -54q-109 0 -169 55.5t-60 157.5q0 143 81 219t205 76q93 0 145.5 -48.5t52.5 -132.5z M330 287q4 7 4 21q0 50 -47 50q-58 0 -81 -71h124z" />
<glyph d="M161 520q-45 20 -53 67l165 152q39 8 79 0l129 -148q-20 -49 -70 -71l-108 88zM498 342q0 -75 -49.5 -113t-139.5 -39l-115 -1q6 -37 27.5 -50.5t59.5 -13.5q57 0 119 35q48 -38 48 -126q-92 -52 -211 -52q-102 0 -163.5 56.5t-61.5 156.5q0 130 81 213t208 82 q92 -1 144.5 -41t52.5 -107zM202 291h76q40 0 40 34q0 29 -37 29q-56 0 -79 -63z" />
<glyph horiz-adv-x="522" d="M197 541q-35 0 -60 25t-25 60t25 60t60 25t60 -25t25 -60t-25 -60t-60 -25zM431 541q-35 0 -60 25t-25 60t25 60t60 25t60 -25t25 -60t-25 -60t-60 -25zM300 490q93 0 145.5 -48.5t52.5 -132.5q0 -64 -20 -115h-283q2 -39 22.5 -55.5t65.5 -16.5q57 0 118 37 q54 -44 54 -123q-91 -54 -212 -54q-109 0 -169 55.5t-60 157.5q0 143 81 219t205 76zM330 287q4 7 4 21q0 50 -47 50q-58 0 -81 -71h124z" />
<glyph d="M184 541q-35 0 -60 25t-25 60t25 60t60 25t60 -25t25 -60t-25 -60t-60 -25zM418 541q-35 0 -60 25t-25 60t25 60t60 25t60 -25t25 -60t-25 -60t-60 -25zM301 490q92 -1 144.5 -41t52.5 -107q0 -75 -49.5 -113t-139.5 -39l-115 -1q6 -37 27.5 -50.5t59.5 -13.5 q57 0 119 35q48 -38 48 -126q-92 -52 -211 -52q-102 0 -163.5 56.5t-61.5 156.5q0 130 81 213t208 82zM278 291q40 0 40 34q0 29 -37 29q-56 0 -79 -63h76z" />
<glyph horiz-adv-x="522" d="M434 577q-17 -42 -50 -64l-221 115q27 89 101 127zM498 309q0 -64 -20 -115h-283q2 -39 22.5 -55.5t65.5 -16.5q57 0 118 37q54 -44 54 -123q-91 -54 -212 -54q-109 0 -169 55.5t-60 157.5q0 143 81 219t205 76q93 0 145.5 -48.5t52.5 -132.5zM330 287q4 7 4 21 q0 50 -47 50q-58 0 -81 -71h124z" />
<glyph d="M421 577q-17 -42 -50 -64l-221 115q27 89 101 127zM498 342q0 -75 -49.5 -113t-139.5 -39l-115 -1q6 -37 27.5 -50.5t59.5 -13.5q57 0 119 35q48 -38 48 -126q-92 -52 -211 -52q-102 0 -163.5 56.5t-61.5 156.5q0 130 81 213t208 82q92 -1 144.5 -41t52.5 -107zM202 291 h76q40 0 40 34q0 29 -37 29q-56 0 -79 -63z" />
<glyph horiz-adv-x="375" d="M362 668q72 0 121 -28q-6 -35 -25.5 -72.5t-39.5 -55.5q-21 12 -55 12q-52 0 -61 -57l-1 -3h89q3 -76 -26 -147h-88l-51 -292q-21 -120 -77 -177t-169 -57q-72 0 -121 28q5 35 25 72t40 56q21 -12 54 -12q51 0 62 57l57 325h-69q-7 72 26 147h69q23 104 78.5 154 t161.5 50z" />
<glyph horiz-adv-x="542" d="M313 493q137 0 217 -52l-73 -415q-21 -117 -99 -174t-189 -57q-82 0 -137 30t-55 89q0 96 115 146q-77 49 -77 156q0 128 89.5 202.5t208.5 74.5zM292 346q-40 0 -66.5 -26.5t-26.5 -80.5q0 -70 71 -70q16 0 33 3l29 170q-15 4 -40 4zM187 -85q67 0 85 83l6 33 q-33 -3 -36 -3q-47 -4 -74 -25t-27 -48q0 -40 46 -40z" />
<glyph horiz-adv-x="531" d="M569 474q-39 -65 -90 -93q14 -32 14 -73q0 -92 -70 -143.5t-179 -51.5q-28 0 -54 3q-3 -8 -3 -15q0 -15 27.5 -21t66.5 -10.5t77.5 -15.5t66 -43t27.5 -85q0 -164 -264 -164q-157 0 -241 50q14 82 77 116q57 -43 166 -43q80 0 80 28q0 12 -26.5 17.5t-64.5 9.5t-76 13 t-64.5 36t-26.5 71q0 56 63 96q-51 39 -51 116q0 103 77.5 159t200.5 56h61q25 0 44 12t54 53q77 -20 108 -78zM253 240q36 0 57.5 21t21.5 57q0 19 -6 40h-39q-41 0 -65.5 -19.5t-24.5 -50.5q0 -48 56 -48z" />
<glyph horiz-adv-x="534" d="M560 471q-31 -65 -100 -97q26 -36 26 -86q0 -90 -60 -152q29 -38 29 -87q0 -123 -77 -190.5t-193 -67.5q-163 0 -230 100q10 35 42.5 65t78.5 42q43 -62 120 -62q39 0 63.5 24.5t24.5 58.5q0 29 -24 50q-8 -1 -23 -1q-111 0 -165.5 50t-54.5 136q0 113 74.5 173t203.5 60 h48q31 0 60 17t45 48q81 -21 112 -81zM190 267q0 -72 62 -72q75 0 75 91q0 72 -61 72q-34 0 -55 -24t-21 -67z" />
<glyph horiz-adv-x="540" d="M573 474q-39 -65 -90 -93q14 -32 14 -73q0 -92 -70 -143.5t-179 -51.5h-43q-22 0 -34 -13.5t-12 -28.5q0 -30 34 -30h270v-20q0 -56 -25 -121h-283q-160 0 -160 116q0 91 85 139q-52 40 -52 117q0 103 77.5 159t200.5 56h61q25 0 44 12t54 53q77 -20 108 -78zM257 240 q36 0 57.5 21t21.5 57q0 19 -6 40h-39q-41 0 -65.5 -19.5t-24.5 -50.5q0 -48 56 -48z" />
<glyph horiz-adv-x="573" d="M549 349q0 -114 -101 -184l69 -159q-44 -14 -115 -14q-69 0 -93 3l-56 143q-11 27 -11 55q59 0 90 24t31 64q0 21 -12.5 34t-36.5 13q-37 0 -65 -26t-35 -69l-1 -5l-40 -228q-41 -7 -89 -7t-91 7l115 654q41 7 89 7t91 -7l-36 -206q65 41 136 41q72 0 116.5 -36.5 t44.5 -103.5z" />
<glyph horiz-adv-x="559" d="M582 467q-104 -146 -208 -234l154 -227q-40 -14 -136 -14q-63 0 -90 3l-89 136q-6 -3 -18 -7l-22 -124q-41 -7 -89 -7t-91 7l115 654q41 7 89 7t91 -7l-60 -342q86 59 147 159q29 3 88 3q70 0 119 -7z" />
<glyph horiz-adv-x="266" d="M85 -7q-49 0 -92 7l115 654q41 7 91 7q48 0 91 -7l-115 -654q-41 -7 -90 -7z" />
<glyph horiz-adv-x="555" d="M349 490q85 0 133.5 -52.5t48.5 -142.5q0 -141 -88.5 -227t-225.5 -86q-17 0 -47 2l-29 -166q-41 -7 -89 -7q-49 0 -92 7l117 659q28 6 56 6q31 0 61 -6l8 -46h3q62 59 144 59zM239 135q46 0 77 33t31 96q0 75 -60 75q-36 0 -58 -22l-31 -176q17 -6 41 -6z" />
<glyph horiz-adv-x="556" d="M327 490q128 0 217 -49l-108 -623q-41 -7 -91 -7q-48 0 -91 7l34 188q-44 -24 -99 -24q-84 0 -132 52.5t-48 142.5q0 140 90.5 226.5t227.5 86.5zM251 133q41 0 64 30l31 170q-21 4 -44 4q-44 0 -76.5 -34t-32.5 -95q0 -75 58 -75z" />
<glyph horiz-adv-x="543" d="M157 -18q-71 0 -109 30t-38 80q0 30 7 58l56 320q43 7 92 7q47 0 89 -7l-52 -292q-2 -12 -2 -18q0 -24 26 -24q19 0 48 33t53 94t24 125q0 41 -11 82q43 7 93 7q47 0 89 -7q12 -28 12 -65q0 -53 -12 -109t-41 -113t-71 -101t-107.5 -72t-145.5 -28z" />
<glyph horiz-adv-x="535" d="M419 479q82 0 133 -14q-33 -146 -86.5 -252t-158.5 -213q-44 -8 -93 -8q-52 0 -89 8q-51 105 -70 207t-24 258q56 14 118 14q48 0 78 -5q-16 -168 20 -312l3 -16q6 12 9 16q73 104 93 313q40 4 67 4z" />
<glyph horiz-adv-x="761" d="M669 479q62 0 114 -14q-47 -158 -95.5 -260t-135.5 -205q-40 -8 -89 -8q-48 0 -85 8q-21 81 -24 150q-27 -78 -76 -150q-40 -8 -88 -8q-49 0 -86 8q-40 113 -53 214.5t-16 250.5q58 14 119 14q36 0 76 -4q-13 -208 -3 -312q1 -19 0 -36q6 24 11 36q54 141 91 309 q28 7 81 7q62 0 83 -7q-19 -229 -8 -311q1 -8 1 -24q3 13 10 24q22 37 49 125t48 189q42 4 76 4z" />
<glyph horiz-adv-x="544" d="M469 86h-1l-10 -60q-20 -115 -102.5 -173t-188.5 -58q-84 0 -133.5 30t-49.5 92q0 89 103 139q-46 19 -61 53t-4 94l47 267q43 7 91 7t89 -7l-38 -217q-7 -40 3.5 -57.5t42.5 -17.5t50 12l49 280q43 7 92 7q47 0 88 -7zM273 -2l6 32q-4 0 -12 -1t-12 -1q-104 -7 -104 -73 q0 -19 11.5 -29.5t28.5 -10.5q68 0 82 83z" />
<glyph horiz-adv-x="545" d="M526 469q10 -32 10 -75q0 -187 -146.5 -355t-388.5 -264q-53 38 -56 138q107 47 178 96q-86 171 -86 356q0 43 5 100q54 14 122 14q33 0 75 -4q-6 -67 -6 -121q0 -111 31 -220q81 104 87 234q3 51 -9 107q38 4 74 4q60 0 110 -10z" />
<glyph horiz-adv-x="544" d="M236 513q-36 23 -45 63l186 183q72 -41 96 -129zM469 86h-1l-10 -60q-20 -115 -102.5 -173t-188.5 -58q-84 0 -133.5 30t-49.5 92q0 89 103 139q-46 19 -61 53t-4 94l47 267q43 7 91 7t89 -7l-38 -217q-7 -40 3.5 -57.5t42.5 -17.5t50 12l49 280q43 7 92 7q47 0 88 -7z M273 -2l6 32q-4 0 -12 -1t-12 -1q-104 -7 -104 -73q0 -19 11.5 -29.5t28.5 -10.5q68 0 82 83z" />
<glyph horiz-adv-x="545" d="M200 513q-36 23 -45 63l186 183q72 -41 96 -129zM526 469q10 -32 10 -75q0 -187 -146.5 -355t-388.5 -264q-53 38 -56 138q107 47 178 96q-86 171 -86 356q0 43 5 100q54 14 122 14q33 0 75 -4q-6 -67 -6 -121q0 -111 31 -220q81 104 87 234q3 51 -9 107q38 4 74 4 q60 0 110 -10z" />
<glyph horiz-adv-x="544" d="M211 541q-35 0 -60 25t-25 60t25 60t60 25t60 -25t25 -60t-25 -60t-60 -25zM445 541q-35 0 -60 25t-25 60t25 60t60 25t60 -25t25 -60t-25 -60t-60 -25zM469 86h-1l-10 -60q-20 -115 -102.5 -173t-188.5 -58q-84 0 -133.5 30t-49.5 92q0 89 103 139q-46 19 -61 53t-4 94 l47 267q43 7 91 7t89 -7l-38 -217q-7 -40 3.5 -57.5t42.5 -17.5t50 12l49 280q43 7 92 7q47 0 88 -7zM273 -2l6 32q-4 0 -12 -1t-12 -1q-104 -7 -104 -73q0 -19 11.5 -29.5t28.5 -10.5q68 0 82 83z" />
<glyph horiz-adv-x="545" d="M174 541q-35 0 -60 25t-25 60t25 60t60 25t60 -25t25 -60t-25 -60t-60 -25zM408 541q-35 0 -60 25t-25 60t25 60t60 25t60 -25t25 -60t-25 -60t-60 -25zM526 469q10 -32 10 -75q0 -187 -146.5 -355t-388.5 -264q-53 38 -56 138q107 47 178 96q-86 171 -86 356q0 43 5 100 q54 14 122 14q33 0 75 -4q-6 -67 -6 -121q0 -111 31 -220q81 104 87 234q3 51 -9 107q38 4 74 4q60 0 110 -10z" />
<glyph horiz-adv-x="610" d="M599 452l-80 -452q-41 -7 -89 -7t-91 7l59 331l-127 1l-59 -332q-22 -107 -78 -158t-163 -51q-72 0 -121 28q5 35 25 72t40 56q21 -12 54 -12q51 0 62 57l60 340h-56v14q0 46 21 106h57q27 112 92 164t172 52q87 0 150 -34q-8 -36 -28.5 -73.5t-39.5 -53.5q-33 18 -75 18 q-36 0 -60 -17t-30 -47l-2 -9h307z" />
<glyph horiz-adv-x="683" d="M601 157q49 -45 44 -132q-55 -41 -138 -41q-86 0 -114.5 46t-12.5 136l62 351q-26 3 -47 3q-41 0 -63 -13t-32 -44h72v-24q0 -58 -26 -123h-73l-56 -316q-23 -107 -78.5 -158t-162.5 -51q-72 0 -121 28q5 35 25 72t40 56q21 -12 54 -12q51 0 62 57l57 324h-55q-1 4 -1 23 q0 26 3.5 48.5t5.5 31.5t10 27l7 17h57q55 205 298 205q134 0 224 -37l-80 -452q-6 -32 14 -32q12 0 25 10z" />
<glyph horiz-adv-x="610" d="M267 -16q-121 0 -182 63.5t-61 169.5q0 143 84.5 241.5t228.5 98.5q122 0 184.5 -66.5t62.5 -174.5q0 -138 -86 -235t-231 -97zM289 139q32 0 54 14.5t33 39t15.5 48.5t4.5 50q0 101 -77 101q-32 0 -54.5 -14.5t-33.5 -39.5t-15.5 -50t-4.5 -53q0 -96 78 -96z" />
<glyph horiz-adv-x="394" d="M310 553q37 0 74 -7l-97 -546q-50 -8 -91 -8q-43 0 -89 8l62 348l-77 -31q-62 41 -62 145q28 12 71.5 30.5t59 24.5t41.5 16t39 12.5t31 5t38 2.5z" />
<glyph horiz-adv-x="531" d="M333 149l139 1q3 -12 3 -40q0 -56 -30 -110h-448q-2 14 -2 39q0 38 21 69t78 72q146 105 176.5 132t30.5 50q0 28 -32 28q-43 0 -121 -68q-47 12 -70.5 37t-35.5 67q41 59 104.5 94.5t143.5 35.5q93 0 146 -43t53 -122q0 -139 -158 -219l-63 -32z" />
<glyph horiz-adv-x="515" d="M384 225q69 -37 69 -125q0 -65 -27.5 -113t-72 -73.5t-91.5 -37t-95 -11.5q-147 0 -212 83q19 46 53 83.5t76 54.5q26 -32 47.5 -45t55.5 -13q32 0 53 18t21 44q0 31 -18.5 44t-66.5 13q-8 30 -0.5 72t26.5 65q52 0 74.5 15t22.5 50q0 21 -13.5 32t-36.5 11 q-53 0 -111 -41q-38 16 -57.5 42t-27.5 67q83 96 226 96q98 0 151.5 -42.5t53.5 -112.5q0 -118 -100 -176z" />
<glyph horiz-adv-x="579" d="M536 147q3 -68 -26 -145h-90l-22 -125q-43 -8 -80 -8q-41 0 -84 8l22 125h-283q-4 14 -4 38q0 53 56 122l302 378q46 8 103 8t85 -8l-69 -393h90zM178 147h103l24 141l8 43l-30 -42z" />
<glyph horiz-adv-x="523" d="M194 -134q-83 0 -143 21.5t-85 46.5q37 94 106 139q47 -44 120 -44q91 0 91 60q0 24 -12.5 38t-46 21t-76.5 9t-120 1l67 383h406v-21q0 -61 -27 -136h-247l-13 -73q134 -4 195 -48.5t61 -144.5q0 -112 -74 -182t-202 -70z" />
<glyph horiz-adv-x="556" d="M364 424q79 0 123.5 -46t44.5 -132q0 -121 -78 -193t-194 -72q-119 0 -179.5 61t-60.5 172q0 93 40.5 177t107 144t151.5 99t175 50q22 -21 27.5 -70.5t-4.5 -94.5q-189 -15 -267 -123q51 28 114 28zM274 131q36 0 58.5 20.5t22.5 57.5q0 68 -66 68q-49 0 -89 -30 q-1 -9 -1 -28q0 -43 20 -65.5t55 -22.5z" />
<glyph horiz-adv-x="495" d="M521 541q2 -12 2 -26q0 -55 -45 -129l-329 -520q-43 4 -84.5 22.5t-56.5 43.5l291 454h-259v22q0 59 28 133h453z" />
<glyph horiz-adv-x="545" d="M544 511q-1 -104 -116 -167q73 -56 73 -132q0 -78 -41 -131.5t-102 -76.5t-136 -23q-95 0 -154.5 37.5t-59.5 113.5q0 111 126 192q-64 53 -64 125q0 96 70 157.5t197 61.5q98 0 153 -41t54 -116zM306 414h1l1 -1q64 37 64 79q0 45 -57 45q-35 0 -53 -16t-18 -40 q0 -37 62 -67zM245 113q34 0 54.5 17t20.5 46q0 22 -15.5 37t-51.5 35q-6 4 -10 5q-54 -41 -54 -89q0 -24 15.5 -37.5t40.5 -13.5z" />
<glyph horiz-adv-x="562" d="M287 557q119 0 180 -69.5t61 -194.5q0 -430 -483 -427q-26 60 7 156q136 3 197 29t82 93q-52 -45 -142 -45q-76 0 -123 51.5t-47 146.5q0 114 80.5 187t187.5 73zM263 249q49 0 82 16v17q0 55 -19.5 85t-55.5 31q-31 1 -52 -20t-21 -57q0 -34 18 -53t48 -19z" />
<glyph horiz-adv-x="580" d="M255 -16q-111 0 -164 65t-53 184q0 191 82.5 312.5t224.5 121.5q108 0 161 -68t53 -186q0 -187 -82.5 -308t-221.5 -121zM275 139q40 -1 72 71t32 189q0 102 -58 103q-39 1 -71 -70t-32 -188q0 -104 57 -105z" />
<glyph horiz-adv-x="580" d="M518 156q3 -46 -3.5 -77t-24.5 -79h-457q-1 83 27 156h151l54 308l-140 -53q-21 12 -32 56.5t-3 91.5l237 96q32 7 77 7q60 0 74 -7l-88 -499h128z" />
<glyph horiz-adv-x="580" d="M318 161l196 1q13 -79 -29 -162h-479v25q0 85 73 146q28 24 61 51.5t52 43.5t42 35t35 30t26 24.5t21 21.5t14 18t9.5 18t4.5 16.5t2 18.5q0 22 -13 36t-36 14q-32 0 -58 -14t-61 -44q-44 15 -67.5 44t-31.5 77q108 106 256 106q96 0 151.5 -44.5t55.5 -128.5 q0 -94 -52.5 -164t-173.5 -160l-21 -12z" />
<glyph horiz-adv-x="580" d="M231 -20q-82 0 -139.5 23t-85.5 52q35 92 106 143q48 -52 117 -52q51 0 77.5 25t26.5 66q0 71 -83 71h-83q-1 3 -1 12q0 24 12.5 45t41.5 52l72 79h-198q-1 10 -1 39q0 57 28 115h448q1 -62 -52 -122l-99 -109q45 -11 76 -51t31 -109q0 -137 -85.5 -208t-208.5 -71z" />
<glyph horiz-adv-x="580" d="M479 272h70v-15q0 -69 -29 -145h-69l-20 -112q-45 -8 -81 -8q-42 0 -88 8l20 112h-260q-18 39 -11.5 80.5t38.5 110.5l170 368q95 -1 170 -38l-145 -330q-8 -16 -11 -31h77l23 131q50 8 91 8q36 0 78 -8z" />
<glyph horiz-adv-x="580" d="M237 -19q-80 0 -136 19t-80 41q37 101 105 148q49 -41 126 -41q41 0 64 19.5t23 49.5q0 57 -63 57q-35 0 -89 -11t-67 -11q-23 0 -44 7l60 391h410v-20q0 -64 -26 -136h-243l-12 -69q23 7 66 7q92 0 138.5 -47t46.5 -132q0 -129 -75 -200.5t-204 -71.5z" />
<glyph horiz-adv-x="580" d="M377 423q81 0 122.5 -44t41.5 -129q0 -127 -80.5 -198t-202.5 -71q-112 0 -169 60t-57 161q0 98 39.5 184.5t105.5 147t149.5 99.5t174.5 51q20 -20 26 -68t-2 -97q-96 -13 -161 -41t-102 -89q55 34 115 34zM284 131q32 0 51.5 21.5t19.5 62.5q0 62 -59 62q-31 0 -73 -25 q-2 -26 -2 -41q0 -39 17 -59.5t46 -20.5z" />
<glyph horiz-adv-x="580" d="M586 642q2 -6 2 -26q0 -58 -44 -129l-319 -522q-46 5 -88.5 25.5t-58.5 49.5l270 436h-256v19q0 68 29 147h465z" />
<glyph horiz-adv-x="580" d="M440 331q68 -59 68 -131q0 -99 -67.5 -159t-191.5 -60q-216 0 -216 155q0 110 124 194q-57 55 -57 127q0 88 67 149t180 61q102 0 154 -42t52 -118q0 -101 -113 -176zM331 536q-22 0 -37 -13t-15 -33q0 -19 13 -36.5t47 -44.5q40 41 40 82q0 45 -48 45zM274 113 q25 0 41 14.5t16 39.5t-12 40.5t-42 35.5l-15 11q-41 -45 -41 -90q0 -51 53 -51z" />
<glyph horiz-adv-x="580" d="M330 667q109 0 166.5 -65.5t57.5 -177.5q0 -445 -489 -445q-26 61 7 156q123 0 185.5 21.5t89.5 80.5q-48 -27 -105 -27q-86 0 -135 52t-49 143q0 116 78.5 189t193.5 73zM308 361q32 0 64 12q1 13 1 41q0 93 -65 95q-30 1 -49.5 -21t-19.5 -58q0 -34 19 -51.5t50 -17.5z " />
<glyph horiz-adv-x="659" d="M581 292q0 -75 -36 -139l59 -58q-33 -70 -112 -113l-60 59q-63 -36 -130 -36q-43 0 -84 13l-56 -59q-80 41 -116 110l52 54q-24 48 -24 112q0 75 36 138l-60 58q16 32 46.5 63t66.5 51l60 -59q64 36 132 36q44 0 85 -13l50 52q80 -41 116 -109l-47 -50q22 -45 22 -110z M249 258q0 -41 20 -61.5t55 -20.5q36 0 59 25t23 70q0 39 -20 59.5t-53 20.5q-35 0 -59.5 -24.5t-24.5 -68.5z" />
<glyph horiz-adv-x="510" d="M209 364q0 -11 26 -17.5t62.5 -14.5t73.5 -23t63 -51.5t26 -91.5q0 -70 -47.5 -120t-129.5 -60l-18 -102q-35 -8 -74 -8q-38 0 -73 8l19 107q-91 14 -141 51q17 98 75 136q66 -50 156 -50q42 0 57.5 8t15.5 29q0 16 -18.5 25t-46 13t-60 13t-60 22.5t-46 44.5t-18.5 76 q0 66 48.5 114t131.5 62l17 99q38 8 76 8q39 0 71 -8l-18 -101q77 -13 114 -46q-17 -94 -80 -133q-21 17 -59 29t-79 12q-64 0 -64 -31z" />
<glyph horiz-adv-x="511" d="M331 391q-23 0 -39.5 -14.5t-16.5 -41.5v-30h96q14 -49 -15 -98h-88q-3 -18 -7 -35.5t-4 -22.5h195q9 -69 -26 -149h-403q0 53 25.5 113.5t33.5 93.5h-60q-11 51 15 98h58q1 14 1 47q0 88 65 147t161 59q135 0 187 -83q-41 -81 -131 -115q-12 31 -47 31z" />
<glyph horiz-adv-x="620" d="M647 542l-208 -274h69v-10q0 -30 -12 -63h-109l-7 -38h109v-10q0 -26 -13 -63h-109l-15 -84q-39 -7 -89 -7q-47 0 -90 7l15 84h-109v9q0 30 13 64h108l7 38h-108v9q0 32 13 64h75l-121 273q72 14 136 14q42 0 78 -7l49 -160l6 -20l12 20l106 160q35 7 76 7q55 0 118 -13z " />
<glyph horiz-adv-x="878" d="M881 384q10 -66 -7 -136q-89 2 -149 -2q-24 -127 -131.5 -196t-251.5 -69q-164 0 -240 65t-76 192q0 117 72 186.5t189 69.5q84 0 134 -38t60 -113q53 11 70 14q-8 56 -56 130q68 54 172 54q47 -77 59 -163q76 6 155 6zM266 353q-63 0 -65 -95q56 22 121 43 q-14 52 -56 52zM350 130q65 0 117.5 24.5t74.5 70.5q-141 -25 -281 -77q34 -18 89 -18z" />
<glyph horiz-adv-x="346" d="M181 667q-32 32 -41 77l225 160q67 -53 73 -143z" />
<glyph horiz-adv-x="438" d="M408 880l126 -111q-19 -55 -67 -81l-121 79l-144 -79q-45 28 -52 81l164 111q48 10 94 0z" />
<glyph horiz-adv-x="468" d="M243 708q-36 0 -61 25.5t-25 60.5q0 36 25 61t61 25q35 0 60.5 -25t25.5 -61q0 -35 -25.5 -60.5t-60.5 -25.5zM484 708q-36 0 -61 25.5t-25 60.5q0 36 25 61t61 25q35 0 60.5 -25t25.5 -61q0 -35 -25.5 -60.5t-60.5 -25.5z" />
<glyph horiz-adv-x="346" d="M397 670l-251 94q19 98 90 139l204 -156q-10 -46 -43 -77z" />
<glyph horiz-adv-x="388" d="M153 728q-6 24 0 56t21 60h325q6 -60 -20 -116h-326z" />
<glyph horiz-adv-x="480" d="M252 693q-33 0 -63.5 11t-46.5 30q12 64 58.5 101.5t105.5 37.5q37 0 80 -18.5t56 -18.5q39 0 47 45q75 0 115 -34q-13 -71 -58 -108.5t-105 -37.5q-34 0 -77.5 18t-61.5 18q-39 0 -50 -44z" />
<glyph horiz-adv-x="263" d="M193 528q-43 0 -73 30.5t-30 73.5t30 73t73 30t73 -30t30 -73t-30 -73.5t-73 -30.5zM81 -7q-46 0 -89 7l85 476q41 7 91 7q46 0 88 -7l-84 -476q-41 -7 -91 -7z" />
<glyph horiz-adv-x="530" d="M364 389q-44 0 -69 -30h69q0 -39 -13 -73h-86q-3 -18 -3 -34h67q3 -34 -13 -73h-47q15 -33 55 -33q45 0 77 23q54 -40 56 -143q-71 -44 -164 -44q-103 0 -158 51t-60 146h-66q0 38 13 73h54q1 5 2.5 16.5t2.5 17.5h-37q0 38 13 73h45q36 92 111 143t175 51q56 0 96.5 -15 t55.5 -34q-34 -83 -113 -136q-21 21 -63 21z" />
</font>
</defs>
</svg>
