<svg id="Layer_2" data-name="Layer 2" xmlns="http://www.w3.org/2000/svg" viewBox="0 0 451.2 451.2">
  <defs>
    <style>
      .cls-1 {
        fill: #fff;
      }
    </style>
  </defs>
  <title>icon_linkedin_003</title>
  <path id="whiteBackground" class="cls-1" d="M445.23,26.4H60.69C42.29,26.4,27.4,41,27.4,58.9V445.1c0,18,14.89,32.51,33.29,32.51H445.17c18.39,0,33.43-14.53,33.43-32.51V58.9c0-18-15-32.51-33.43-32.51h0.06Z" transform="translate(-27.4 -26.4)"/>
  <path id="blackMask" d="M390.75,388.83h-58V298c0-21.66-.44-49.53-30.2-49.53-30.22,0-34.83,23.56-34.83,47.93v92.42h-58V202.08h55.67v25.46h0.75c7.78-14.68,26.7-30.17,55-30.17,58.72,0,69.59,38.65,69.59,89V388.83h0ZM144.34,176.52A33.66,33.66,0,1,1,178,142.85,33.63,33.63,0,0,1,144.34,176.52ZM173.4,388.83H115.28V202.08H173.4V388.83ZM419.75,55.31H86.19c-16,0-28.88,12.62-28.88,28.2v335c0,15.59,12.92,28.2,28.88,28.2H419.7c15.95,0,29-12.61,29-28.2V83.5c0-15.57-13-28.2-29-28.2h0Z" transform="translate(-27.4 -26.4)"/>
</svg>
