<svg id="Layer_2" data-name="Layer 2" xmlns="http://www.w3.org/2000/svg" viewBox="0 0 451.2 451.2">
  <defs>
    <style>
      .cls-1 {
        fill: #fff;
      }
    </style>
  </defs>
  <title>icon_linkedin_002</title>
  <path id="background" class="cls-1" d="M445.23,26.4H60.69C42.29,26.4,27.4,41,27.4,58.9V445.1c0,18,14.89,32.51,33.29,32.51H445.17c18.39,0,33.43-14.53,33.43-32.51V58.9c0-18-15-32.51-33.43-32.51h0.06Z" transform="translate(-27.4 -26.4)"/>
  <path id="shape" d="M391.89,390H333.45V298.4c0-21.84-.44-49.94-30.45-49.94-30.47,0-35.12,23.76-35.12,48.32V390H209.44V201.67h56.13v25.67h0.76c7.84-14.8,26.92-30.42,55.41-30.42,59.21,0,70.16,39,70.16,89.69V390h0ZM143.45,175.91a33.94,33.94,0,1,1,33.94-34A33.9,33.9,0,0,1,143.45,175.91ZM172.75,390h-58.6V201.67h58.6V390ZM421.12,53.69H84.81c-16.1,0-29.12,12.73-29.12,28.43V419.88c0,15.72,13,28.43,29.12,28.43H421.07c16.08,0,29.23-12.71,29.23-28.43V82.12c0-15.7-13.15-28.43-29.23-28.43h0Z" transform="translate(-27.4 -26.4)"/>
</svg>
