<svg id="Layer_1" data-name="Layer 1" xmlns="http://www.w3.org/2000/svg" viewBox="0 0 480.84 480.84">
  <defs>
    <style>
      .cls-1 {
        fill: #fff;
      }
    </style>
  </defs>
  <title>icon_email_003</title>
  <circle id="whitebackground" class="cls-1" cx="240.42" cy="240.42" r="240.42"/>
  <circle id="blackBackground" cx="239.41" cy="241.09" r="203.66"/>
  <path id="shape" class="cls-1" d="M433.86,233c0-102.09-82.38-167.84-185.82-167.84A185.82,185.82,0,1,0,358.26,400.58a9,9,0,0,0,1.57-12.9l-11.41-13.93a9,9,0,0,0-12.31-1.53A150.22,150.22,0,0,1,248,400.82c-82.63,0-149.86-67.23-149.86-149.86S165.41,101.1,248,101.1c82,0,149.86,48.72,149.86,131.87,0,47.28-31.83,73.65-62.21,73.65-14.61,0-15.09-9.46-12.26-23.57l21.45-111.31A9,9,0,0,0,336,161H306.69a9,9,0,0,0-8.83,7.29c-0.83,4.29-1.24,6.25-1.71,10.48-8.93-14.65-26.88-23.28-48.85-23.28-53.65,0-101.16,46.82-101.16,114.54,0,45.83,24.63,76.51,69.82,76.51,22.33,0,46-12.61,59.75-31.65,3.11,23.11,21.35,28.48,44.49,28.48C394.5,343.43,433.86,295.76,433.86,233ZM228.63,305.92c-21.33,0-34.07-14.58-34.07-39,0-43.09,29.64-70,55.9-70,22.57,0,34.07,16.13,34.07,38.65C284.54,270.69,259.68,305.92,228.63,305.92Z" transform="translate(-9.1 -9.1)"/>
</svg>
