<svg id="Layer_1" data-name="Layer 1" xmlns="http://www.w3.org/2000/svg" viewBox="0 0 500 404.3756">
  <defs>
    <style>
      .cls-1 {
        fill: #fff;
      }
    </style>
  </defs>
  <title>icon_screen</title>
  <g>
    <rect x="10.8821" y="10.8821" width="478.2365" height="314.2239" rx="12" ry="12"/>
    <path d="M470.4633,384.0445H29.5367A29.57,29.57,0,0,1,0,354.5077V77.5932A29.57,29.57,0,0,1,29.5367,48.0565H470.4633A29.57,29.57,0,0,1,500,77.5932V354.5077A29.57,29.57,0,0,1,470.4633,384.0445ZM29.5367,69.82a7.782,7.782,0,0,0-7.7728,7.7728V354.5077a7.782,7.782,0,0,0,7.7728,7.7728H470.4633a7.782,7.782,0,0,0,7.7728-7.7728V77.5932a7.782,7.782,0,0,0-7.7728-7.7728H29.5367Z" transform="translate(0 -48.0565)"/>
  </g>
  <g>
    <g>
      <path class="cls-1" d="M384.4223,209.3515c0,28.4533-59.8932,78.7735-133.7752,78.7735s-133.7752-52.4279-133.7752-78.7735c0-25.8187,59.8932-78.7735,133.7752-78.7735S384.4223,180.8982,384.4223,209.3515Z" transform="translate(0 -48.0565)"/>
      <path d="M250.6471,294.4561c-74.6236,0-140.1067-53.0432-140.1067-85.1049,0-15.6541,16.4674-36.97,41.9522-54.3041,16.9122-11.5029,52.1529-30.8008,98.1545-30.8008,46.4873,0,81.42,18.6582,98.1055,29.78,25.9071,17.2689,42.0012,38.4683,42.0012,55.3248s-16.0941,38.0564-42.0012,55.3253C332.0669,275.7984,297.1344,294.4561,250.6471,294.4561Zm0-157.5468c-42.61,0-75.3242,17.9243-91.0326,28.6086-23.9043,16.2587-36.4112,34.358-36.4112,43.8333,0,21.0073,55.1588,72.4419,127.4438,72.4419,43.1522,0,75.5877-17.3259,91.0815-27.6536,18.0993-12.0646,36.3622-30.592,36.3622-44.7883s-18.2629-32.7237-36.3622-44.7883C326.2348,154.2352,293.7993,136.9093,250.6471,136.9093Z" transform="translate(0 -48.0565)"/>
    </g>
    <ellipse cx="250.6471" cy="154.5955" rx="79.5617" ry="76.1323"/>
    <ellipse class="cls-1" cx="250.6471" cy="154.5955" rx="40.2207" ry="38.487"/>
  </g>
  <path d="M470.4633,384.0445H29.5367A29.57,29.57,0,0,1,0,354.5077V77.5932A29.57,29.57,0,0,1,29.5367,48.0565H470.4633A29.57,29.57,0,0,1,500,77.5932V354.5077A29.57,29.57,0,0,1,470.4633,384.0445ZM29.5367,69.82a7.782,7.782,0,0,0-7.7728,7.7728V354.5077a7.782,7.782,0,0,0,7.7728,7.7728H470.4633a7.782,7.782,0,0,0,7.7728-7.7728V77.5932a7.782,7.782,0,0,0-7.7728-7.7728H29.5367Z" transform="translate(0 -48.0565)"/>
  <path class="cls-1" d="M472.0482,350.75H27.9526V72.4756H472.0482V350.75ZM45.0528,333.65H454.948V89.5758H45.0528V333.65Z" transform="translate(0 -48.0565)"/>
  <g id="Foot">
    <rect x="205.0071" y="316.7162" width="89.9866" height="68.8281"/>
    <path d="M160.24,452.432H341.0542c6.09,0,11.0734-3.7954,11.0734-8.4341l-3.1091-29.3118c0-4.6388-4.983-8.4341-11.0734-8.4341H163.3492c-6.09,0-11.0734,3.7954-11.0734,8.4341l-3.1091,29.3118C149.1667,448.6366,154.15,452.432,160.24,452.432Z" transform="translate(0 -48.0565)"/>
    <path class="cls-1" d="M295,425.8419V398h11.6115S295,405.2042,295,425.8419Z" transform="translate(0 -48.0565)"/>
    <path class="cls-1" d="M205,425.8419V398H193.1282S205,405.2042,205,425.8419Z" transform="translate(0 -48.0565)"/>
  </g>
</svg>
