<svg id="Layer_1" data-name="Layer 1" xmlns="http://www.w3.org/2000/svg" viewBox="0 0 480.84 480.84">
  <defs>
    <style>
      .cls-1 {
        fill: #fff;
      }
    </style>
  </defs>
  <title>icon_email_002</title>
  <circle id="background" class="cls-1" cx="240.42" cy="240.42" r="240.42"/>
  <path id="shape" d="M248.52,52.24A199.76,199.76,0,1,0,357.59,419.36a19.36,19.36,0,0,0,4.47-28.49l-8.2-10a19.28,19.28,0,0,0-25.27-4.13,148.61,148.61,0,0,1-80.07,23.49c-81.72,0-148.21-66.49-148.21-148.21s66.49-148.21,148.21-148.21c80.66,0,148.21,46.41,148.21,128.88,0,31.24-17,64.23-46.86,67.41-14-.37-13.62-10.36-10.85-24.18l18.88-97.55a19.33,19.33,0,0,0-19-23H302.68A10.89,10.89,0,0,0,291.86,165v0.07c-11.84-14.42-32.58-17.54-48.31-17.54-60.07,0-111,50.13-111,122,0,52.6,29.63,85.28,77.33,85.28,21.74,0,46.21-12.6,60.41-30.88,7.67,27.47,32.71,27.47,57,27.47,87.73,0,121.07-57.68,121.07-118.74C448.28,122.84,359.7,52.24,248.52,52.24ZM231.06,297.45c-17.92,0-29.05-12.58-29.05-32.84,0-36.24,24.79-58.58,47.23-58.58,18,0,28.68,12.28,28.68,32.84,0,36.3-27.29,58.58-46.85,58.58h0Z" transform="translate(-9.1 -9.1)"/>
</svg>
