<svg id="Layer_1" data-name="Layer 1" xmlns="http://www.w3.org/2000/svg" viewBox="0 0 480.84 480.84">
  <defs>
    <style>
      .cls-1 {
        fill: #fff;
      }
    </style>
  </defs>
  <title>icon_github_002</title>
  <circle id="background" class="cls-1" cx="240.42" cy="240.42" r="240.42"/>
  <path id="shape" d="M248.52,46.54C136,46.54,44.85,137.73,44.85,250.2A203.63,203.63,0,0,0,184.11,443.43c10.18,1.92,13.92-4.38,13.92-9.79,0-4.84-.17-17.65-0.25-34.62-56.65,12.29-68.6-27.33-68.6-27.33-9.27-23.51-22.66-29.79-22.66-29.79-18.45-12.63,1.43-12.37,1.43-12.37,20.45,1.43,31.19,21,31.19,21,18.16,31.14,47.67,22.15,59.32,16.94,1.83-13.17,7.08-22.15,12.9-27.24-45.23-5.09-92.77-22.61-92.77-100.64,0-22.23,7.89-40.39,21-54.65-2.29-5.14-9.16-25.85,1.78-53.9,0,0,17.06-5.47,56,20.88a192,192,0,0,1,101.83,0c38.7-26.34,55.75-20.88,55.75-20.88,10.95,28.05,4.07,48.76,2,53.9,13,14.26,20.88,32.42,20.88,54.65,0,78.24-47.61,95.47-92.92,100.47,7.13,6.11,13.75,18.6,13.75,37.68,0,27.26-.25,49.15-0.25,55.77,0,5.35,3.56,11.71,14,9.67a203,203,0,0,0,139.78-193c0-112.47-91.19-203.66-203.66-203.66" transform="translate(-9.1 -9.1)"/>
</svg>
