<?xml version="1.0" standalone="no"?>
<!DOCTYPE svg PUBLIC "-//W3C//DTD SVG 1.1//EN" "http://www.w3.org/Graphics/SVG/1.1/DTD/svg11.dtd" >
<svg xmlns="http://www.w3.org/2000/svg">
<metadata></metadata>
<defs>
<font id="brandingblack" horiz-adv-x="580" >
<font-face units-per-em="1000" ascent="770" descent="-230" />
<missing-glyph horiz-adv-x="188" />
<glyph unicode="&#xfb01;" horiz-adv-x="609" d="M566 452v-452q-39 -7 -88 -7q-47 0 -92 7v331l-121 1v-332q-39 -7 -88 -7q-47 0 -92 7v332h-60q-5 30 -5 58q0 29 5 62h61q7 106 71.5 161t170.5 55q100 0 165 -40q-3 -36 -19 -72t-34 -52q-45 21 -93 21q-82 0 -82 -73h301z" />
<glyph unicode="&#xfb02;" horiz-adv-x="629" d="M365 668q125 0 220 -37v-631q-39 -7 -89 -7q-48 0 -93 7v517q-27 3 -53 3q-40 0 -59.5 -14.5t-23.5 -46.5h79q8 -34 8 -70q0 -35 -8 -67h-80v-322q-39 -7 -88 -7q-47 0 -92 7v322h-58q-7 27 -7 66q0 40 7 71h59q16 209 278 209z" />
<glyph horiz-adv-x="0" />
<glyph horiz-adv-x="333" />
<glyph unicode=" "  horiz-adv-x="188" />
<glyph unicode="&#x09;" horiz-adv-x="188" />
<glyph unicode="&#xa0;" horiz-adv-x="188" />
<glyph unicode="!" horiz-adv-x="272" d="M135 213q-27 0 -51 7q-40 265 -40 416q42 20 90 20q46 0 95 -19q0 -152 -40 -415q-25 -9 -54 -9zM135 -37q-39 0 -68 29t-29 69t29 68.5t68 28.5q40 0 69 -28.5t29 -68.5t-29 -69t-69 -29z" />
<glyph unicode="&#x22;" horiz-adv-x="358" d="M100 425q-10 0 -42 3l-30 235q31 10 68 10q33 0 67 -10l-31 -234q-20 -4 -32 -4zM266 425q-11 0 -41 3l-31 235q31 10 68 10q32 0 68 -10l-31 -234q-22 -4 -33 -4z" />
<glyph unicode="#" horiz-adv-x="697" d="M624 334h-67l-34 -102h86q-3 -71 -48 -136h-83l-47 -143q-77 -12 -136 0l47 143h-110l-47 -143q-76 -12 -136 0l47 143h-72q3 79 48 136h69l34 102h-88q3 79 48 136h85l48 145q68 9 136 0l-48 -145h110l48 145q67 9 136 0l-48 -145h70q-5 -73 -48 -136zM387 232l34 102 h-110l-34 -102h110z" />
<glyph unicode="$" horiz-adv-x="504" d="M479 225q0 -169 -153 -202v-88q-35 -8 -74 -8q-38 0 -73 8v85q-106 14 -168 64q2 40 23 75t53 52q69 -50 163 -50q74 0 74 41q0 19 -20 30t-88 19q-81 10 -132.5 52.5t-52.5 120.5q-1 71 38.5 119t109.5 66v101q37 8 74 8q39 0 73 -8v-95q85 -10 137 -45q-7 -85 -53 -131 q-64 35 -157 35q-67 0 -67 -33q0 -18 19.5 -27.5t95.5 -19.5q89 -13 133.5 -53.5t44.5 -115.5z" />
<glyph unicode="%" horiz-adv-x="776" d="M96 -47l453 699q57 10 114 0l-453 -699q-57 -7 -114 0zM188 336q-77 0 -120.5 43.5t-43.5 112.5t43.5 112t120.5 43q76 0 119.5 -43t43.5 -112t-43.5 -112.5t-119.5 -43.5zM188 426q28 0 42.5 18t14.5 48t-14.5 48t-42.5 18q-29 0 -43.5 -18t-14.5 -48t14.5 -48t43.5 -18 zM588 -21q-77 0 -120.5 43.5t-43.5 113.5q0 69 43.5 112t120.5 43q76 0 119.5 -43t43.5 -112q0 -70 -43.5 -113.5t-119.5 -43.5zM588 70q57 0 57 66q0 29 -14.5 47.5t-42.5 18.5q-29 0 -43.5 -18.5t-14.5 -47.5q0 -66 58 -66z" />
<glyph unicode="&#x26;" horiz-adv-x="630" d="M620 332q0 -36 -13 -66h-82v-213q-78 -68 -231 -68q-48 0 -91.5 10t-83.5 31t-64 61t-24 94q0 116 101 160q-74 49 -74 138q0 80 59.5 130t162.5 50q131 0 198 -56q-1 -39 -21.5 -75t-50.5 -56q-56 27 -107 27q-29 0 -46.5 -13t-17.5 -37q0 -26 17 -37.5t55 -12.5h299 q14 -22 14 -67zM365 153v113h-62q-79 -1 -79 -62q0 -27 19 -43.5t52 -16.5q40 0 70 9z" />
<glyph unicode="'" horiz-adv-x="190" d="M99 425q-11 0 -41 3l-31 235q31 10 68 10q32 0 68 -10l-31 -234q-22 -4 -33 -4z" />
<glyph unicode="(" horiz-adv-x="292" d="M149 -204q-120 208 -121 457q1 249 121 457q28 3 69.5 -11.5t55.5 -34.5q-89 -189 -90 -411q1 -222 90 -411q-52 -46 -125 -46z" />
<glyph unicode=")" horiz-adv-x="293" d="M144 -204q-72 0 -124 46q90 195 91 411q-1 214 -93 408q20 24 57.5 38t69.5 12q119 -210 120 -458q-1 -249 -121 -457z" />
<glyph unicode="*" horiz-adv-x="392" d="M276 550v-2l82 -34q-8 -70 -73 -102l-58 68l-7 -3l-8 -88q-67 -15 -119 38l47 78l-4 6l-90 -21q-35 60 0 125l92 -22l3 4l-49 80q47 52 120 39l7 -92q6 -2 7 -2l60 69q64 -27 74 -101l-84 -35v-5z" />
<glyph unicode="+" horiz-adv-x="496" d="M464 292q13 -55 0 -110h-161v-161q-55 -13 -110 0v161h-161q-13 55 0 110h161v161q55 13 110 0v-161h161z" />
<glyph unicode="," horiz-adv-x="235" d="M86 -192q-19 0 -40 11t-29 26q32 71 32 155q0 61 -19 102q37 21 94 21q38 0 62 -12q12 -24 12 -85t-33.5 -122.5t-78.5 -95.5z" />
<glyph unicode="-" horiz-adv-x="371" d="M55 190q-10 24 -10 61q0 35 10 65h262q8 -30 8 -64q0 -33 -8 -62h-262z" />
<glyph unicode="." horiz-adv-x="267" d="M133 -21q-44 0 -76 32.5t-32 76.5t32 76t76 32q45 0 77 -32t32 -76t-32 -76.5t-77 -32.5z" />
<glyph unicode="/" horiz-adv-x="595" d="M88 -190q-31 0 -68 5l409 850q37 5 69 5q34 0 77 -5l-409 -850q-43 -5 -78 -5z" />
<glyph unicode="0" horiz-adv-x="660" d="M330 -16q-145 0 -221.5 94.5t-76.5 245.5q0 153 77.5 248t220.5 95t220.5 -97.5t77.5 -245.5q0 -150 -78 -245t-220 -95zM330 139q112 0 112 185q0 178 -112 178t-112 -178q0 -185 112 -185z" />
<glyph unicode="1" horiz-adv-x="441" d="M301 662q37 0 74 -7v-655q-48 -8 -90 -8t-90 8v461l-131 -48q-26 26 -44 66.5t-18 85.5l223 90q31 7 76 7z" />
<glyph unicode="2" horiz-adv-x="572" d="M535 161q13 -31 13 -79q0 -50 -13 -82h-498q-8 34 -8 61q0 62 50 110q168 155 208 199.5t40 72.5q0 51 -55 51q-59 0 -128 -62q-86 24 -122 109q82 126 255 126q106 0 172 -58t66 -161q0 -128 -192 -271l-32 -21l39 4z" />
<glyph unicode="3" horiz-adv-x="571" d="M49 650h471q8 -77 -32 -122l-104 -114q61 -11 107.5 -55.5t46.5 -128.5q0 -127 -78.5 -188.5t-198.5 -61.5q-84 0 -146 29t-96 67q26 86 111 132q63 -67 131 -67q41 0 65.5 21t24.5 62q0 79 -111 79h-93q-3 11 -3 18q0 22 17 41l109 131h-221q-11 44 -11 83q2 44 11 74z " />
<glyph unicode="4" horiz-adv-x="596" d="M583 175q0 -38 -8 -81h-84v-94q-43 -8 -79 -8q-42 0 -90 8v94h-282q-53 74 -5 191l158 389q96 -4 177 -51l-134 -338q-7 -17 -7 -31h93v149q48 8 90 8q37 0 79 -8v-149h85q7 -36 7 -79z" />
<glyph unicode="5" horiz-adv-x="565" d="M252 -19q-78 0 -136.5 21t-86.5 46q17 94 82 141q63 -49 150 -49q92 0 92 73q0 66 -88 66q-38 0 -93.5 -10t-71.5 -10q-34 0 -44 8v383h435q8 -43 8 -81q0 -40 -7 -75h-276v-73q35 7 74 7q127 0 188 -54.5t61 -154.5q0 -114 -74.5 -176t-212.5 -62z" />
<glyph unicode="6" horiz-adv-x="585" d="M356 424q96 0 152 -53.5t56 -150.5q0 -112 -73.5 -175.5t-189.5 -63.5q-136 0 -203.5 72.5t-67.5 195.5q0 180 120 294.5t297 140.5q45 -42 49 -164q-89 -9 -154 -36.5t-101 -90.5q51 31 115 31zM302 131q91 0 91 78t-90 78q-51 0 -96 -27v-21q0 -52 26 -80t69 -28z" />
<glyph unicode="7" horiz-adv-x="522" d="M503 642q8 -17 8 -47q0 -63 -24 -108l-264 -523q-44 4 -88.5 22.5t-64.5 43.5l241 454h-289q-7 34 -7 80q0 42 7 78h481z" />
<glyph unicode="8" horiz-adv-x="595" d="M466 339q96 -63 96 -152q0 -71 -39 -119t-97.5 -67.5t-132.5 -19.5q-114 0 -187.5 44.5t-73.5 134.5q0 97 93 173q-75 57 -76 138q-2 87 64 141.5t183 54.5q112 0 180.5 -49t68.5 -128q0 -90 -79 -151zM298 536q-34 0 -55 -14.5t-21 -35.5q0 -15 13 -29t27.5 -22 t43.5 -22q3 -1 28 -11q43 38 43 78q0 28 -22.5 42t-56.5 14zM302 113q84 0 84 51q0 26 -21.5 41.5t-81.5 40.5q-4 2 -16.5 8t-18.5 9q-37 -42 -37 -88q0 -29 25.5 -45.5t65.5 -16.5z" />
<glyph unicode="9" horiz-adv-x="590" d="M279 667q139 0 208.5 -88.5t69.5 -236.5q0 -180 -107.5 -272t-337.5 -91q-24 40 -24 104q0 20 4 50q67 1 107.5 5t78 15.5t58 33.5t31.5 57q-42 -35 -116 -35q-106 0 -168.5 57t-62.5 163t74.5 172t184.5 66zM194 434q0 -36 22.5 -55.5t60.5 -19.5q55 0 99 22 q-7 58 -32 90.5t-67 33.5q-35 0 -59 -19.5t-24 -51.5z" />
<glyph unicode=":" horiz-adv-x="288" d="M144 278q-44 0 -76 32.5t-32 76.5t32 76t76 32q45 0 77 -32t32 -76t-32 -76.5t-77 -32.5zM144 -27q-44 0 -76 32.5t-32 76.5t32 76t76 32q45 0 77 -32t32 -76t-32 -76.5t-77 -32.5z" />
<glyph unicode=";" horiz-adv-x="280" d="M138 282q-44 0 -76 32.5t-32 76.5t32 76t76 32q45 0 77 -32t32 -76t-32 -76.5t-77 -32.5zM114 -192q-19 0 -40 11t-29 26q32 71 32 155q0 61 -19 102q37 21 94 21q38 0 62 -12q12 -24 12 -85t-33.5 -122.5t-78.5 -95.5z" />
<glyph unicode="&#x3c;" horiz-adv-x="570" d="M533 125q2 -83 -46 -139l-451 162q-10 44 -10 91q0 52 9 92l452 147q45 -63 45 -153l-339 -75l-50 -13l50 -15z" />
<glyph unicode="=" horiz-adv-x="539" d="M53 276q-5 30 -5 55t5 55h431q6 -27 6 -55t-6 -55h-431zM53 77q-5 30 -5 55t5 55h431q6 -27 6 -55t-6 -55h-431z" />
<glyph unicode="&#x3e;" horiz-adv-x="570" d="M535 331q9 -40 9 -92q0 -47 -10 -91l-450 -162q-50 58 -47 139l340 97l50 15l-50 13l-339 75q0 91 46 153z" />
<glyph unicode="?" horiz-adv-x="434" d="M178 176q-24 0 -44 4q-31 112 -31 174h3q64 0 95.5 23.5t31.5 58.5q0 32 -19.5 50.5t-54.5 18.5q-39 0 -75 -18q-52 46 -60 133q62 38 150 38q106 0 170 -53t64 -151q0 -76 -45 -129t-123 -77q-11 -50 -16 -67q-19 -5 -46 -5zM178 -37q-39 0 -68 29t-29 69t29 68.5 t68 28.5q40 0 69 -28.5t29 -68.5t-29 -69t-69 -29z" />
<glyph unicode="@" horiz-adv-x="913" d="M463 665q186 0 302 -103.5t116 -290.5q0 -47 -10 -87.5t-31.5 -75t-60 -54t-90.5 -19.5q-54 0 -82.5 14.5t-64.5 50.5q-46 -39 -123 -39q-87 0 -139 54t-52 148q0 95 65 155.5t169 60.5q107 0 185 -39v-232q0 -49 48 -49q51 0 51 112q0 111 -77.5 189.5t-204.5 78.5 q-128 0 -213 -71t-85 -213q0 -117 80.5 -189t172.5 -72q68 0 131 27q14 -10 29 -47.5t15 -68.5q-72 -35 -175 -35q-105 0 -192 42.5t-142.5 131t-55.5 209.5q0 98 36 178t97.5 130t138.5 77t162 27zM377 269q0 -39 20.5 -61.5t50.5 -22.5q29 0 51 15v148q-23 5 -39 5 q-36 0 -59.5 -23t-23.5 -61z" />
<glyph unicode="A" horiz-adv-x="640" d="M411 642l236 -635q-67 -12 -118 -12q-30 0 -62 5l-38 103h-225l-38 -103q-36 -4 -82 -4q-58 0 -94 11l241 635q36 6 92 6q52 0 88 -6zM260 252h115l-38 103l-20 64l-19 -64z" />
<glyph unicode="B" horiz-adv-x="589" d="M457 322q110 -41 110 -147q0 -196 -288 -196q-121 0 -224 21v631q103 21 220 21q265 0 265 -190q0 -104 -83 -140zM288 510q-15 0 -53 -2v-118h57q71 0 71 62q0 58 -75 58zM303 121q80 0 80 67q0 65 -83 65h-65v-130q44 -2 68 -2z" />
<glyph unicode="C" horiz-adv-x="587" d="M362 -19q-156 0 -246.5 93.5t-90.5 246.5q0 152 94.5 247.5t248.5 95.5q121 0 200 -63q-7 -41 -33.5 -80.5t-63.5 -60.5q-45 32 -97 32q-73 0 -113 -45t-40 -126q0 -79 40.5 -125t109.5 -46q68 0 113 42q81 -49 98 -146q-80 -65 -220 -65z" />
<glyph unicode="D" horiz-adv-x="673" d="M279 657q175 0 272 -88.5t97 -238.5q0 -162 -100.5 -252.5t-268.5 -90.5q-126 0 -223 13v640q89 17 223 17zM289 156q74 0 117 45.5t43 125.5q0 74 -43 117.5t-117 43.5q-34 0 -53 -1v-330q17 -1 53 -1z" />
<glyph unicode="E" horiz-adv-x="540" d="M502 159q8 -35 8 -79t-8 -80h-446v642h437q8 -35 8 -79t-8 -80h-257v-79h228q8 -35 8 -79q0 -43 -8 -78h-228v-88h266z" />
<glyph unicode="F" horiz-adv-x="519" d="M487 480h-251v-116h224q8 -35 8 -80q0 -44 -8 -79h-224v-205q-48 -8 -90 -8t-90 8v642h431q8 -35 8 -79q0 -46 -8 -83z" />
<glyph unicode="G" horiz-adv-x="642" d="M516 329q42 0 90 -8v-289q-102 -51 -235 -51q-162 0 -254 91.5t-92 245.5q0 153 96.5 249.5t255.5 96.5q126 0 213 -55q-7 -45 -33.5 -87t-64.5 -63q-50 33 -118 33q-73 0 -113 -45t-40 -126q0 -79 40.5 -125t109.5 -46q31 0 55 3v168q48 8 90 8z" />
<glyph unicode="H" horiz-adv-x="681" d="M533 647q47 0 92 -7v-640q-39 -7 -88 -7q-47 0 -92 7v240h-209v-240q-39 -7 -88 -7q-47 0 -92 7v640q39 7 88 7q47 0 92 -7v-235h209v235q39 7 88 7z" />
<glyph unicode="I" horiz-adv-x="292" d="M148 -7q-47 0 -92 7v640q39 7 88 7q47 0 92 -7v-640q-39 -7 -88 -7z" />
<glyph unicode="J" horiz-adv-x="432" d="M159 -32q-106 0 -159 49q0 47 22.5 88t57.5 61q29 -29 69 -29q25 0 38.5 13.5t13.5 37.5v452q39 7 88 7q47 0 92 -7v-447q0 -98 -58.5 -161.5t-163.5 -63.5z" />
<glyph unicode="K" horiz-adv-x="654" d="M409 340l267 -334q-56 -8 -134 -8q-50 0 -98 2l-176 223q-16 -13 -32 -23v-200q-39 -7 -88 -7q-47 0 -92 7v640q39 7 88 7q47 0 92 -7v-236q61 52 105 106.5t90 133.5q42 3 91 3q66 0 121 -6q-99 -172 -234 -301z" />
<glyph unicode="L" horiz-adv-x="507" d="M487 162q8 -37 8 -83q0 -44 -8 -79h-431v642q48 8 90 8t90 -8v-480h251z" />
<glyph unicode="M" horiz-adv-x="804" d="M658 647q47 0 90 -7v-640q-41 -7 -81 -7q-37 0 -83 7v274l4 91l-29 -90l-79 -224q-35 -5 -74 -5q-38 0 -75 5l-86 224l-28 79l4 -80v-274q-41 -7 -84 -7q-36 0 -81 7v640q40 7 87 7q54 0 104 -7l152 -363l12 -32l10 32l138 363q52 7 99 7z" />
<glyph unicode="N" horiz-adv-x="691" d="M543 647q47 0 92 -7v-638q-82 -15 -175 -8l-206 313l-23 41l5 -51v-297q-54 -7 -91 -7q-28 0 -89 7v637q71 20 175 9l206 -326l23 -41l-5 51v310q46 7 88 7z" />
<glyph unicode="O" horiz-adv-x="736" d="M368 -19q-152 0 -248 93t-96 248q0 153 96.5 247.5t247.5 94.5q152 0 248 -93t96 -249q0 -152 -96.5 -246.5t-247.5 -94.5zM368 151q68 0 108 46t40 125q0 81 -40 126.5t-108 45.5t-108 -45.5t-40 -126.5q0 -79 40 -125t108 -46z" />
<glyph unicode="P" horiz-adv-x="599" d="M279 661q305 0 305 -233q0 -122 -80 -186t-215 -64h-53v-178q-39 -7 -88 -7q-47 0 -92 7v640q105 21 223 21zM289 333q57 0 84 25.5t27 67.5q0 85 -112 85q-35 0 -52 -1v-177h53z" />
<glyph unicode="Q" horiz-adv-x="736" d="M591 54q108 -52 137 -143q-44 -50 -156 -82q-29 66 -83 109t-127 43q-150 2 -244 95t-94 246t96.5 247.5t247.5 94.5q152 0 248 -93t96 -249q0 -171 -121 -268zM220 322q0 -79 40 -125t108 -46t108 46t40 125q0 81 -40 126.5t-108 45.5t-108 -45.5t-40 -126.5z" />
<glyph unicode="R" horiz-adv-x="617" d="M466 249l146 -242q-51 -14 -158 -14q-27 0 -39 1l-122 214h-1h-56v-208q-39 -7 -88 -7q-47 0 -92 7v632q107 21 226 21q289 0 289 -212q0 -131 -105 -192zM236 501v-147h65q43 0 64.5 21t21.5 54q0 35 -22 54.5t-65 19.5q-22 0 -64 -2z" />
<glyph unicode="S" horiz-adv-x="571" d="M286 -16q-173 0 -267 77q3 47 24 86.5t54 58.5q79 -57 193 -57q79 0 79 32q0 20 -21 31.5t-100 31.5q-100 25 -153.5 68.5t-54.5 133.5q-1 99 71 156t192 57q79 0 139 -20t93 -47q-3 -45 -24 -85t-57 -61q-67 48 -165 48q-75 0 -75 -32q0 -18 20.5 -28t108.5 -31 q94 -23 146 -68t54 -124q3 -109 -65.5 -168t-191.5 -59z" />
<glyph unicode="T" horiz-adv-x="564" d="M553 563q0 -44 -8 -80h-173v-483q-48 -8 -90 -8t-90 8v483h-173q-8 35 -8 79q0 45 8 80h526q8 -35 8 -79z" />
<glyph unicode="U" horiz-adv-x="669" d="M336 -19q-134 0 -210.5 71.5t-76.5 206.5v381q39 7 88 7q47 0 92 -7v-377q0 -56 29 -85.5t80 -29.5q50 0 78.5 29.5t28.5 85.5v377q38 7 84 7q47 0 92 -7v-374q0 -133 -79 -209t-206 -76z" />
<glyph unicode="V" horiz-adv-x="632" d="M487 648q107 0 143 -12q-63 -320 -219 -634q-36 -7 -92 -7t-99 7q-150 307 -220 634q67 12 141 12q25 0 57 -2q40 -216 127 -473q75 233 118 473q22 2 44 2z" />
<glyph unicode="W" horiz-adv-x="983" d="M834 648q108 0 144 -12q-87 -398 -184 -634q-37 -7 -95 -7q-56 0 -99 7l-95 317l-12 57l-10 -57l-91 -317q-35 -7 -96 -7q-58 0 -104 7q-126 295 -186 634q69 12 146 12q23 0 53 -2q25 -219 94 -451l15 75l90 336q50 8 92 8q43 0 93 -8l94 -336l18 -80q66 239 92 456 q18 2 41 2z" />
<glyph unicode="X" horiz-adv-x="638" d="M441 317l208 -314q-70 -10 -127 -10q-42 0 -86 6l-122 199l-115 -199q-42 -6 -83 -6q-73 0 -124 10l208 322l-202 313q69 12 139 12q34 0 79 -5l112 -198l102 198q30 5 73 5q50 0 131 -11z" />
<glyph unicode="Y" horiz-adv-x="635" d="M642 639l-236 -408v-231q-39 -7 -88 -7q-47 0 -92 7v240l-237 398q66 12 132 12q38 0 81 -5l97 -178l25 -56l25 56l98 178q30 5 76 5t119 -11z" />
<glyph unicode="Z" horiz-adv-x="587" d="M559 161q8 -43 8 -80q0 -38 -8 -81h-528q-7 14 -7 41q0 46 35 95l218 314l23 32l-268 -1q-7 36 -7 81q0 44 7 80h519q7 -17 7 -41q0 -46 -35 -95l-213 -306l-32 -39h281z" />
<glyph unicode="[" horiz-adv-x="324" d="M202 -80h98q13 -61 0 -122h-239v910h239q7 -18 7 -61t-7 -61h-98v-666z" />
<glyph unicode="\" horiz-adv-x="598" d="M510 -190q-35 0 -78 5l-412 850q43 5 77 5q32 0 69 -5l412 -850q-37 -5 -68 -5z" />
<glyph unicode="]" horiz-adv-x="324" d="M23 708h239v-910h-239q-7 18 -7 61t7 61h98v666h-98q-13 61 0 122z" />
<glyph unicode="^" horiz-adv-x="617" d="M168 274q-85 20 -138 80l198 343q81 15 162 0l197 -343q-47 -60 -137 -80l-141 242z" />
<glyph unicode="_" horiz-adv-x="444" d="M10 -136q-10 21 -10 54q0 32 10 58h426q8 -27 8 -57q0 -29 -8 -55h-426z" />
<glyph unicode="`" horiz-adv-x="332" d="M259 513l-234 109q16 96 92 136l193 -172q-12 -47 -51 -73z" />
<glyph unicode="a" horiz-adv-x="529" d="M251 490q246 0 246 -219v-240q-125 -48 -257 -48q-104 0 -162.5 38.5t-58.5 118.5q0 74 58 113t155 37q50 -2 87 -10v13q0 52 -84 52q-75 0 -128 -40q-62 36 -73 113q28 25 85 48.5t132 23.5zM198 147q0 -46 70 -46q20 0 51 7v74q-27 6 -60 6q-61 0 -61 -41z" />
<glyph unicode="b" horiz-adv-x="576" d="M284 490q121 0 195.5 -64t74.5 -185q0 -122 -78 -190.5t-216 -68.5q-127 0 -218 47v628q42 7 90 7t90 -7v-174q25 7 62 7zM275 132q47 0 73 28t26 75t-26.5 75t-73.5 28q-26 0 -52 -6v-193q23 -7 53 -7z" />
<glyph unicode="c" horiz-adv-x="470" d="M290 -18q-127 0 -197.5 66.5t-70.5 187.5q0 118 73.5 187.5t189.5 69.5q52 0 98.5 -15.5t69.5 -35.5q-7 -36 -32 -71t-58 -55q-30 30 -73 30q-41 0 -64.5 -29t-23.5 -78t23 -79.5t67 -30.5q48 0 81 32q67 -33 89 -118q-71 -61 -172 -61z" />
<glyph unicode="d" horiz-adv-x="576" d="M444 664q48 0 90 -7v-628q-98 -47 -222 -47q-141 0 -215.5 65.5t-74.5 187.5q0 115 77.5 185t193.5 70q31 0 61 -5v172q42 7 90 7zM304 132q24 0 50 6v193q-19 8 -48 8q-45 0 -74.5 -28t-29.5 -74t28.5 -75.5t73.5 -29.5z" />
<glyph unicode="e" horiz-adv-x="536" d="M279 490q105 0 168.5 -60t62.5 -162q0 -45 -5 -74h-300q6 -40 29 -56t71 -16q63 0 141 48q53 -45 58 -122q-89 -66 -221 -66q-117 0 -189 66t-72 185q0 113 72.5 185t184.5 72zM204 287h140q0 66 -64 71q-65 0 -76 -71z" />
<glyph unicode="f" horiz-adv-x="380" d="M308 668q79 0 132 -29q-1 -35 -20.5 -72t-43.5 -55q-21 12 -52 12q-56 0 -56 -57v-3h96q8 -35 8 -74q0 -38 -8 -73h-96v-317q-39 -7 -88 -7q-47 0 -92 7v317h-60q-7 28 -7 72q0 41 7 75h61q7 99 64.5 151.5t154.5 52.5z" />
<glyph unicode="g" horiz-adv-x="568" d="M293 493q140 0 234 -72v-385q0 -124 -71.5 -182.5t-189.5 -58.5q-160 0 -246 92q4 37 29 68t65 44q57 -65 141 -65q92 0 92 64v15q-29 -6 -67 -6q-112 0 -185.5 60.5t-73.5 171.5q0 121 78.5 187.5t193.5 66.5zM297 149q27 0 50 6v182q-24 8 -50 8q-40 0 -68 -26t-28 -72 q0 -44 27.5 -71t68.5 -27z" />
<glyph unicode="h" horiz-adv-x="568" d="M309 493q104 0 162.5 -51t58.5 -135v-307q-42 -7 -90 -7t-90 7v264q0 68 -65 68q-34 0 -62 -15v-317q-39 -7 -88 -7q-47 0 -92 7v654q39 7 88 7q47 0 92 -7v-175q40 14 86 14z" />
<glyph unicode="i" horiz-adv-x="266" d="M133 528q-43 0 -73.5 31t-30.5 74q0 42 30.5 72.5t73.5 30.5t74.5 -30.5t31.5 -72.5q0 -43 -31 -74t-75 -31zM133 -7q-47 0 -90 7v476q41 7 90 7q47 0 90 -7v-476q-41 -7 -90 -7z" />
<glyph unicode="j" horiz-adv-x="274" d="M139 528q-43 0 -73.5 31t-30.5 74q0 42 30.5 72.5t73.5 30.5t74.5 -30.5t31.5 -72.5q0 -43 -31 -74t-75 -31zM26 -200q-80 0 -126 36q0 33 19.5 70t49.5 56q19 -14 38 -14q23 0 33.5 13t10.5 43v472q39 7 88 7q47 0 92 -7v-463q0 -101 -55.5 -157t-149.5 -56z" />
<glyph unicode="k" horiz-adv-x="577" d="M405 227l189 -223q-57 -12 -126 -12q-76 0 -104 4l-141 169v-165q-39 -7 -88 -7q-47 0 -92 7v654q39 7 88 7q47 0 92 -7v-370q98 75 148 187q32 3 93 3q60 0 101 -7q-42 -133 -160 -240z" />
<glyph unicode="l" horiz-adv-x="269" d="M136 -7q-48 0 -93 7v654q39 7 89 7q48 0 93 -7v-654q-39 -7 -89 -7z" />
<glyph unicode="m" horiz-adv-x="873" d="M604 493q116 0 173.5 -52t57.5 -144v-297q-42 -7 -90 -7t-90 7v264q0 68 -66 68q-32 0 -60 -15l-3 2q1 -7 1 -22v-297q-42 -7 -90 -7t-90 7v264q0 68 -66 68q-32 0 -60 -15v-317q-42 -7 -90 -7t-90 7v412q34 28 101 54.5t154 26.5q99 0 155 -38q72 38 153 38z" />
<glyph unicode="n" horiz-adv-x="567" d="M292 493q119 0 178 -55t59 -152v-286q-42 -7 -90 -7t-90 7v263q0 69 -69 69q-35 0 -59 -14v-318q-42 -7 -90 -7t-90 7v412q34 30 99 55.5t152 25.5z" />
<glyph unicode="o" horiz-adv-x="579" d="M290 -18q-120 0 -194 67.5t-74 187.5q0 117 75 186.5t193 69.5q119 0 193 -68.5t74 -187.5q0 -116 -74 -185.5t-193 -69.5zM290 129q42 0 64.5 29t22.5 79q0 51 -22.5 80t-64.5 29t-65 -29t-23 -80q0 -50 23 -79t65 -29z" />
<glyph unicode="p" horiz-adv-x="574" d="M283 490q121 0 195 -63.5t74 -187.5q0 -116 -77 -187t-191 -71q-33 0 -63 5v-169q-42 -7 -90 -7t-90 7v599q101 74 242 74zM270 136q46 -1 74 25t28 73q0 48 -28.5 73.5t-76.5 25.5q-25 0 -46 -7v-184q17 -6 49 -6z" />
<glyph unicode="q" horiz-adv-x="574" d="M300 490q142 0 233 -69v-604q-42 -7 -90 -7t-90 7v169q-23 -4 -60 -4q-118 0 -195 63.5t-77 180.5q0 126 80.5 195t198.5 69zM303 136q25 0 50 5v187q-23 8 -50 8q-45 0 -73.5 -26.5t-28.5 -74.5q0 -47 29 -73t73 -26z" />
<glyph unicode="r" horiz-adv-x="376" d="M262 492q78 0 114 -13q-5 -98 -52 -155q-21 6 -44 6q-37 0 -59 -10v-320q-42 -7 -90 -7t-90 7v415q31 29 87.5 53t133.5 24z" />
<glyph unicode="s" horiz-adv-x="489" d="M241 -19q-74 0 -132.5 18.5t-89.5 42.5q10 84 64 119q82 -49 166 -49q36 0 36 23q0 13 -18 20.5t-77 21.5q-33 8 -55.5 16.5t-48.5 25t-39 44.5t-13 67q0 76 62 118t155 42q131 0 206 -44q-11 -88 -59 -122q-64 34 -140 34q-54 0 -54 -22q0 -13 16.5 -18.5t75.5 -17.5 q37 -7 63 -16t52.5 -26t40 -45t13.5 -67q0 -77 -58 -121t-166 -44z" />
<glyph unicode="t" horiz-adv-x="466" d="M390 161q25 -15 47 -51t26 -72q-71 -54 -164 -54q-92 0 -147.5 40t-55.5 124v171h-80q-6 34 -6 76q0 36 6 72h80v124q45 7 92 7q49 0 88 -7v-124h156q8 -37 8 -71q0 -37 -8 -77h-156v-125q0 -58 58 -58q28 0 56 25z" />
<glyph unicode="u" horiz-adv-x="565" d="M433 477q48 0 90 -7v-429q-29 -20 -96 -39.5t-148 -19.5q-241 0 -241 196v292q42 7 90 7t90 -7v-259q0 -40 15.5 -57.5t53.5 -17.5q37 0 56 12v322q42 7 90 7z" />
<glyph unicode="v" horiz-adv-x="536" d="M413 479q65 0 121 -14q-38 -162 -73 -262t-101 -203q-40 -8 -90 -8q-49 0 -90 8q-72 105 -109.5 209.5t-66.5 255.5q51 14 131 14q28 0 66 -4q25 -180 64 -303q3 -11 7 -35q2 20 6 35q37 108 65 303q42 4 70 4z" />
<glyph unicode="w" horiz-adv-x="788" d="M673 479q59 0 112 -14q-34 -158 -68 -259t-95 -206q-39 -8 -88 -8q-48 0 -87 8q-29 47 -57 110q-17 -63 -39 -110q-39 -8 -89 -8q-48 0 -87 8q-71 104 -106 206.5t-64 258.5q51 14 126 14q35 0 73 -4q26 -216 63 -325q4 -12 6 -28q2 16 6 29q26 82 40 170q-18 66 -31 144 q49 14 124 14q26 0 62 -4q22 -194 54 -325q4 -16 6 -35q5 29 7 35q25 90 55 325q42 4 77 4z" />
<glyph unicode="x" horiz-adv-x="554" d="M384 234l175 -232q-16 -8 -116 -8q-54 0 -87 4l-84 124l-75 -124q-40 -4 -85 -4q-73 0 -113 8l167 234l-165 228q36 16 141 16q34 0 57 -3l80 -128l78 128q30 3 61 3q96 0 133 -16z" />
<glyph unicode="y" horiz-adv-x="544" d="M418 479q61 0 117 -14q-18 -231 -115.5 -406.5t-268.5 -276.5q-38 14 -65 49.5t-38 77.5q92 62 131 109q-71 107 -108 206t-65 241q54 14 135 14q28 0 66 -4q19 -168 68 -297q8 -19 11 -36q3 24 8 36q43 115 54 297q44 4 70 4z" />
<glyph unicode="z" horiz-adv-x="486" d="M456 143q11 -31 11 -71q0 -37 -11 -72h-428q-6 15 -6 34q0 47 27 79l154 178l32 36h-198q-11 31 -11 74q0 36 11 69h410q6 -13 6 -34q0 -54 -25 -89l-135 -172l-30 -32h193z" />
<glyph unicode="{" horiz-adv-x="373" d="M316 -80h35q12 -61 0 -122h-99q-73 0 -108.5 45t-35.5 116v164q0 61 -62 61h-35q-13 35 -13 72q0 51 13 76h55q42 0 42 51v164q0 71 35.5 116t108.5 45h99q12 -61 0 -122h-35q-62 0 -62 -39v-184q0 -73 -64 -110q64 -37 64 -110v-184q0 -39 62 -39z" />
<glyph unicode="|" horiz-adv-x="234" d="M61 -186v900q59 17 112 0v-900q-23 -10 -55 -9.5t-57 9.5z" />
<glyph unicode="}" horiz-adv-x="373" d="M362 332q13 -25 13 -76q0 -37 -13 -72h-35q-62 0 -62 -61v-164q0 -71 -35.5 -116t-108.5 -45h-99q-12 61 0 122h35q62 0 62 39v184q0 73 64 110q-64 37 -64 110v184q0 39 -62 39h-35q-12 61 0 122h99q73 0 108.5 -45t35.5 -116v-164q0 -51 42 -51h55z" />
<glyph unicode="~" horiz-adv-x="554" d="M158 142q-77 0 -126 41q15 66 60 104t105 38q36 0 83.5 -18.5t63.5 -18.5q17 0 31.5 11.5t20.5 30.5q76 0 125 -41q-11 -62 -56.5 -98.5t-102.5 -36.5q-38 0 -86 18t-63 18q-36 0 -55 -48z" />
<glyph unicode="&#xa1;" horiz-adv-x="263" d="M132 325q-40 0 -69 29t-29 69t29 69t69 29q39 0 68 -29t29 -69t-29 -69t-68 -29zM134 -171q-49 0 -96 19q0 157 41 414q25 9 54 9q20 0 50 -7q41 -259 41 -416q-41 -19 -90 -19z" />
<glyph unicode="&#xa2;" horiz-adv-x="506" d="M381 251q76 -34 98 -112q-54 -58 -132 -72v-96q-35 -8 -73 -8q-39 0 -74 8v102q-81 21 -127 82.5t-46 155.5q0 90 46 152t127 85v99q35 8 74 8q38 0 73 -8v-94q84 -17 133 -78q-12 -31 -43 -58.5t-71 -43.5q-25 39 -72 39q-43 0 -65 -27t-22 -74q0 -45 22.5 -73.5 t64.5 -28.5q48 0 87 42z" />
<glyph unicode="&#xa3;" horiz-adv-x="593" d="M553 166q8 -45 8 -83t-8 -83h-490q0 55 24.5 125t24.5 124v7h-75q-10 26 -10 60q0 32 10 58h61q-5 30 -5 63q0 93 73.5 160t191.5 67q121 0 199 -57q-14 -102 -82 -149q-44 32 -109 32q-43 0 -68 -21t-25 -59q0 -16 2 -36h120q10 -26 10 -60q0 -32 -10 -58h-103v-10 q0 -32 -14 -80h275z" />
<glyph unicode="&#xa4;" horiz-adv-x="626" d="M572 325q0 -70 -34 -129l52 -52q-16 -33 -44 -61t-60 -43l-55 55q-53 -29 -118 -29t-118 29l-55 -55q-72 34 -104 104l53 53q-34 59 -34 128q0 70 34 129l-53 53q14 32 41.5 59.5t62.5 44.5l56 -56q54 28 117 28t117 -28l56 56q68 -31 104 -104l-53 -53q35 -60 35 -129z M228 325q0 -37 25 -62.5t60 -25.5q34 0 60 26t26 62q0 37 -25.5 62t-60.5 25t-60 -25t-25 -62z" />
<glyph unicode="&#xa5;" horiz-adv-x="690" d="M560 246h-125v-52h125q4 -16 4 -36q0 -21 -4 -37h-125v-121q-39 -7 -88 -7q-47 0 -92 7v121h-125q-4 24 -4 37q0 12 4 36h125v52h-125q-4 24 -4 37q0 12 4 36h99l-211 319q66 12 132 12q38 0 81 -5l97 -159l25 -50l25 50l98 159q30 5 76 5t119 -11l-205 -320h94 q4 -16 4 -36q0 -21 -4 -37z" />
<glyph unicode="&#xa6;" horiz-adv-x="230" d="M59 341v374q57 16 112 0v-374q-23 -10 -55 -9.5t-57 9.5zM59 -186v354q57 16 112 0v-354q-23 -10 -55 -9.5t-57 9.5z" />
<glyph unicode="&#xa7;" horiz-adv-x="608" d="M232 99l-101 90q-104 89 -104 215q0 118 81.5 194t201.5 76q141 0 232 -91q-6 -44 -35 -79.5t-74 -51.5q-52 54 -116 54q-49 0 -83.5 -30.5t-34.5 -78.5q0 -66 50 -111l86 -76q-33 -86 -103 -111zM298 -139q-150 0 -232 91q8 44 37 79.5t72 51.5q52 -54 120 -54 q48 0 81 30.5t33 79.5q0 65 -50 110l-86 77q33 85 103 110l101 -89q104 -91 104 -216q0 -118 -81.5 -194t-201.5 -76z" />
<glyph unicode="&#xa8;" horiz-adv-x="452" d="M106 538q-35 0 -60.5 25.5t-25.5 61.5q0 35 25.5 60t60.5 25q36 0 61.5 -25t25.5 -60q0 -36 -25.5 -61.5t-61.5 -25.5zM345 538q-35 0 -60.5 25.5t-25.5 61.5q0 35 25.5 60t60.5 25q36 0 61.5 -25t25.5 -60q0 -36 -25.5 -61.5t-61.5 -25.5z" />
<glyph unicode="&#xa9;" horiz-adv-x="771" d="M387 -56q-156 0 -257 102.5t-101 261.5t101 262t257 103q155 0 255 -103t100 -262q0 -158 -100 -261t-255 -103zM387 38q109 0 183 75.5t74 194.5q0 121 -74 196t-183 75q-112 0 -186 -75t-74 -196q0 -119 74.5 -194.5t185.5 -75.5zM403 96q-104 0 -162 55t-58 155 q0 97 61.5 155t158.5 58q41 0 78.5 -13t56.5 -29q-5 -29 -25.5 -58t-47.5 -46q-26 24 -62 24q-34 0 -52.5 -22.5t-18.5 -65.5q0 -91 71 -91q43 0 70 28q55 -28 74 -98q-56 -52 -144 -52z" />
<glyph unicode="&#xaa;" horiz-adv-x="396" d="M200 675q159 0 159 -146v-160q-87 -32 -180 -32q-152 0 -152 104q0 50 40 76t107 24q29 0 53 -6v8q0 35 -51 35q-52 0 -90 -27q-42 24 -49 76q61 48 163 48zM161 445q0 -30 37 -30q9 0 29 4v51q-13 3 -29 3q-37 0 -37 -28z" />
<glyph unicode="&#xab;" horiz-adv-x="485" d="M190 65l-168 187l162 187q46 -7 67 -40l-72 -145l73 -150q-19 -33 -62 -39zM387 65l-168 187l162 187q46 -7 67 -40l-72 -145l73 -150q-19 -33 -62 -39z" />
<glyph unicode="&#xad;" horiz-adv-x="371" d="M55 190q-10 24 -10 61q0 35 10 65h262q8 -30 8 -64q0 -33 -8 -62h-262z" />
<glyph unicode="&#xae;" horiz-adv-x="771" d="M387 778q150 0 252.5 -104t102.5 -263t-102.5 -262.5t-252.5 -103.5q-151 0 -254.5 103.5t-103.5 262.5t103.5 263t254.5 104zM387 141q114 0 186.5 75.5t72.5 194.5t-72.5 194t-186.5 75q-115 0 -187.5 -75t-72.5 -194t72.5 -194.5t187.5 -75.5zM551 485q0 -80 -75 -116 l89 -153q-28 -5 -55 -5q-40 0 -53 1l-80 138q-17 0 -51 2v-138q-12 -3 -36 -3q-41 0 -64 3v393q68 14 159 14q84 0 125 -36t41 -100zM326 525v-78q20 -2 61 -2q54 0 54 42q0 40 -54 40q-19 0 -61 -2z" />
<glyph unicode="&#xaf;" horiz-adv-x="394" d="M30 573q-10 26 -10 64q0 37 10 68h336q8 -34 8 -67q0 -35 -8 -65h-336z" />
<glyph unicode="&#xb0;" horiz-adv-x="346" d="M172 386q-63 0 -107.5 44t-44.5 108q0 63 44.5 107.5t107.5 44.5t108 -44.5t45 -107.5t-45 -107.5t-108 -44.5zM172 479q24 0 41.5 17.5t17.5 41.5t-17.5 41t-41.5 17t-41 -17t-17 -41t17.5 -41.5t40.5 -17.5z" />
<glyph unicode="&#xb1;" horiz-adv-x="518" d="M204 252h-161q-13 55 0 110h161v131q55 13 110 0v-131h161q13 -55 0 -110h-161v-131q-55 -13 -110 0v131zM43 66h432q13 -54 0 -110h-432q-13 55 0 110z" />
<glyph unicode="&#xb4;" horiz-adv-x="332" d="M73 513q-37 26 -51 77l193 168q76 -40 92 -136z" />
<glyph unicode="&#xb6;" horiz-adv-x="655" d="M329 661q145 0 252 -21v-829q-39 -7 -82 -7t-78 7v368q-35 -1 -102 -1q-134 0 -214.5 63.5t-80.5 179.5q0 114 78 177t227 63zM421 334v173q-44 4 -101 4q-112 0 -112 -87q0 -41 27 -66t84 -25q67 0 102 1zM179 124q40 8 82 8t80 -8v-313q-30 -10 -78 -10q-50 0 -84 10 v313z" />
<glyph unicode="&#xb7;" horiz-adv-x="241" d="M119 252q-37 0 -64 27.5t-27 64.5t27 63.5t64 26.5q38 0 65 -26.5t27 -63.5q0 -38 -27.5 -65t-64.5 -27z" />
<glyph unicode="&#xb8;" horiz-adv-x="267" d="M79 11h93l-17 -47q92 -15 92 -85q0 -59 -41 -85.5t-97 -26.5q-33 0 -66 9t-48 22q-3 50 35 79q20 -14 46 -14q35 0 35 29q0 32 -64 34z" />
<glyph unicode="&#xba;" horiz-adv-x="409" d="M205 337q-82 0 -132.5 44.5t-50.5 124.5q0 78 51 124t132 46t131.5 -45.5t50.5 -124.5q0 -77 -50.5 -123t-131.5 -46zM205 439q47 0 47 67t-47 67q-49 0 -49 -67t49 -67z" />
<glyph unicode="&#xbb;" horiz-adv-x="485" d="M104 65q-46 7 -67 40l73 145l-74 150q19 33 62 39l168 -186zM301 65q-46 7 -67 40l73 145l-74 150q19 33 62 39l168 -186z" />
<glyph unicode="&#xbc;" horiz-adv-x="830" d="M569 685q59 9 120 0l-474 -732q-66 -12 -120 0zM137 262v264l-78 -28q-37 39 -37 100q89 35 125.5 46.5t63.5 11.5q30 0 53 -5v-389q-31 -4 -63 -4q-37 0 -64 4zM805 98q0 -24 -5 -54h-41v-47q-32 -5 -58 -5q-29 0 -64 5v47h-185q-33 48 -3 116l109 245q65 -1 118 -37 l-81 -198q-4 -8 -4 -19h46v71q28 4 64 4q33 0 58 -4v-71h42q4 -23 4 -53z" />
<glyph unicode="&#xbd;" horiz-adv-x="832" d="M569 685q59 9 120 0l-474 -732q-66 -12 -120 0zM137 262v264l-78 -28q-37 39 -37 100q89 35 125.5 46.5t63.5 11.5q32 0 55 -5v-389q-31 -4 -65 -4q-37 0 -64 4zM795 105q7 -18 7 -52q0 -30 -7 -53h-312q-5 17 -5 36q0 36 30 65q21 20 47.5 44.5t39.5 37t26.5 26.5 t18.5 24t5 20q0 28 -34 28q-27 0 -56 -38q-59 12 -88 54q54 98 164 98q67 0 110 -35t43 -96q0 -75 -106 -151l-23 -12l35 4h105z" />
<glyph unicode="&#xbe;" horiz-adv-x="854" d="M600 685q58 9 120 0l-474 -732q-66 -12 -120 0zM355 395q0 -77 -51 -114t-128 -37q-93 0 -146 58q15 52 67 80q38 -31 75 -31q49 0 49 45q0 42 -57 42h-53q-3 4 -3 15q0 13 11 24l62 68h-136q-7 35 -7 60q2 27 7 45h304q4 -45 -20 -74l-68 -71q37 -6 65.5 -33.5 t28.5 -76.5zM830 98q0 -24 -5 -54h-41v-47q-32 -5 -58 -5q-29 0 -64 5v47h-185q-33 48 -3 116l109 245q66 -1 118 -30l-79 -205q-4 -8 -4 -19h44v71q28 4 64 4q33 0 58 -4v-71h42q4 -23 4 -53z" />
<glyph unicode="&#xbf;" horiz-adv-x="430" d="M253 326q-41 0 -69.5 29t-28.5 69t29 69t69 29q39 0 68 -29t29 -69t-29 -69t-68 -29zM258 -173q-106 0 -170 53.5t-64 150.5q0 76 45 129t122 77q3 14 17 67q23 5 46 5t43 -4q31 -106 31 -174h-3q-63 0 -94.5 -23.5t-31.5 -58.5q0 -32 19.5 -50.5t54.5 -18.5q34 0 75 17 q52 -47 60 -132q-62 -38 -150 -38z" />
<glyph unicode="&#xc0;" horiz-adv-x="640" d="M456 755q-5 -45 -36 -73l-261 78q2 97 70 147zM411 642l236 -635q-67 -12 -118 -12q-30 0 -62 5l-38 103h-225l-38 -103q-36 -4 -82 -4q-58 0 -94 11l241 635q36 6 92 6q52 0 88 -6zM260 252h115l-38 103l-20 64l-19 -64z" />
<glyph unicode="&#xc1;" horiz-adv-x="640" d="M212 682q-32 28 -37 73l228 152q69 -52 69 -147zM411 642l236 -635q-67 -12 -118 -12q-30 0 -62 5l-38 103h-225l-38 -103q-36 -4 -82 -4q-58 0 -94 11l241 635q36 6 92 6q52 0 88 -6zM260 252h115l-38 103l-20 64l-19 -64z" />
<glyph unicode="&#xc2;" horiz-adv-x="640" d="M186 696q-44 21 -54 76l142 116q46 10 93 0l144 -111q-8 -55 -54 -81l-140 79zM411 642l236 -635q-67 -12 -118 -12q-30 0 -62 5l-38 103h-225l-38 -103q-36 -4 -82 -4q-58 0 -94 11l241 635q36 6 92 6q52 0 88 -6zM260 252h115l-38 103l-20 64l-19 -64z" />
<glyph unicode="&#xc3;" horiz-adv-x="640" d="M210 693q-29 0 -65 10.5t-53 30.5q10 65 51.5 102t98.5 37q34 0 80.5 -18.5t61.5 -18.5q16 0 27.5 12.5t16.5 32.5q72 0 118 -41q-10 -64 -51 -101.5t-94 -37.5q-36 0 -83 18t-61 18q-37 0 -47 -44zM411 642l236 -635q-67 -12 -118 -12q-30 0 -62 5l-38 103h-225 l-38 -103q-36 -4 -82 -4q-58 0 -94 11l241 635q36 6 92 6q52 0 88 -6zM260 252h115l-38 103l-20 64l-19 -64z" />
<glyph unicode="&#xc4;" horiz-adv-x="640" d="M191 708q-35 0 -60.5 25.5t-25.5 61.5q0 35 25.5 60t60.5 25q36 0 61.5 -25t25.5 -60q0 -36 -25.5 -61.5t-61.5 -25.5zM446 708q-35 0 -60.5 25.5t-25.5 61.5q0 35 25.5 60t60.5 25q36 0 61.5 -25t25.5 -60q0 -36 -25.5 -61.5t-61.5 -25.5zM411 642l236 -635 q-67 -12 -118 -12q-30 0 -62 5l-38 103h-225l-38 -103q-36 -4 -82 -4q-58 0 -94 11l241 635q36 6 92 6q52 0 88 -6zM260 252h115l-38 103l-20 64l-19 -64z" />
<glyph unicode="&#xc5;" horiz-adv-x="640" d="M320 661q-54 0 -92.5 38.5t-38.5 92.5q0 55 38.5 93t92.5 38t92 -38.5t38 -92.5t-38.5 -92.5t-91.5 -38.5zM319 834q-16 0 -28 -12.5t-12 -29.5t12 -29t28 -12q18 0 29.5 12t11.5 29q0 18 -11.5 30t-29.5 12zM411 642l236 -635q-67 -12 -118 -12q-30 0 -62 5l-38 103 h-225l-38 -103q-36 -4 -82 -4q-58 0 -94 11l241 635q36 6 92 6q52 0 88 -6zM260 252h115l-38 103l-20 64l-19 -64z" />
<glyph unicode="&#xc6;" horiz-adv-x="917" d="M879 159q8 -35 8 -79t-8 -80h-424v198h-178l-116 -198q-37 -4 -85 -4q-61 0 -97 11l363 636l528 -1q8 -35 8 -79t-8 -80h-235v-113h206q8 -31 8 -70q0 -40 -8 -72h-206v-69h244zM360 340h96v117l2 58l-29 -58z" />
<glyph unicode="&#xc7;" horiz-adv-x="587" d="M393 -36q92 -15 92 -85q0 -59 -41 -85.5t-97 -26.5q-33 0 -66 9t-48 22q-3 50 35 79q20 -14 46 -14q35 0 35 29q0 32 -64 34l22 58q-132 17 -207 107.5t-75 229.5q0 152 94.5 247.5t248.5 95.5q121 0 200 -63q-7 -41 -33.5 -80.5t-63.5 -60.5q-45 32 -97 32 q-73 0 -113 -45t-40 -126q0 -79 40.5 -125t109.5 -46q68 0 113 42q81 -49 98 -146q-67 -55 -182 -64z" />
<glyph unicode="&#xc8;" horiz-adv-x="540" d="M421 755q-5 -45 -36 -73l-261 78q2 97 70 147zM502 159q8 -35 8 -79t-8 -80h-446v642h437q8 -35 8 -79t-8 -80h-257v-79h228q8 -35 8 -79q0 -43 -8 -78h-228v-88h266z" />
<glyph unicode="&#xc9;" horiz-adv-x="540" d="M177 682q-32 28 -37 73l228 152q69 -52 69 -147zM502 159q8 -35 8 -79t-8 -80h-446v642h437q8 -35 8 -79t-8 -80h-257v-79h228q8 -35 8 -79q0 -43 -8 -78h-228v-88h266z" />
<glyph unicode="&#xca;" horiz-adv-x="540" d="M151 696q-44 21 -54 76l142 116q47 10 93 0l144 -111q-8 -55 -54 -81l-140 79zM502 159q8 -35 8 -79t-8 -80h-446v642h437q8 -35 8 -79t-8 -80h-257v-79h228q8 -35 8 -79q0 -43 -8 -78h-228v-88h266z" />
<glyph unicode="&#xcb;" horiz-adv-x="540" d="M156 708q-35 0 -60.5 25.5t-25.5 61.5q0 35 25.5 60t60.5 25q36 0 61.5 -25t25.5 -60q0 -36 -25.5 -61.5t-61.5 -25.5zM411 708q-35 0 -60.5 25.5t-25.5 61.5q0 35 25.5 60t60.5 25q36 0 61.5 -25t25.5 -60q0 -36 -25.5 -61.5t-61.5 -25.5zM502 159q8 -35 8 -79t-8 -80 h-446v642h437q8 -35 8 -79t-8 -80h-257v-79h228q8 -35 8 -79q0 -43 -8 -78h-228v-88h266z" />
<glyph unicode="&#xcc;" horiz-adv-x="292" d="M250 678l-271 82q2 96 70 147l238 -156q-6 -45 -37 -73zM148 -7q-47 0 -92 7v640q39 7 88 7q47 0 92 -7v-640q-39 -7 -88 -7z" />
<glyph unicode="&#xcd;" horiz-adv-x="292" d="M29 678q-31 28 -37 73l238 156q68 -51 70 -147zM148 -7q-47 0 -92 7v640q39 7 88 7q47 0 92 -7v-640q-39 -7 -88 -7z" />
<glyph unicode="&#xce;" horiz-adv-x="292" d="M191 889l124 -126q-22 -50 -68 -70l-103 79l-95 -76q-57 20 -69 64l121 129q45 9 90 0zM148 -7q-47 0 -92 7v640q39 7 88 7q47 0 92 -7v-640q-39 -7 -88 -7z" />
<glyph unicode="&#xcf;" horiz-adv-x="292" d="M48 700q-35 0 -60.5 25.5t-25.5 61.5q0 35 25.5 60t60.5 25q36 0 61.5 -25t25.5 -60q0 -36 -25.5 -61.5t-61.5 -25.5zM243 700q-35 0 -60.5 25.5t-25.5 61.5q0 35 25.5 60t60.5 25q36 0 61.5 -25t25.5 -60q0 -36 -25.5 -61.5t-61.5 -25.5zM148 -7q-47 0 -92 7v640 q39 7 88 7q47 0 92 -7v-640q-39 -7 -88 -7z" />
<glyph unicode="&#xd0;" horiz-adv-x="673" d="M279 657q175 0 272 -88.5t97 -238.5q0 -162 -100.5 -252.5t-268.5 -90.5q-126 0 -223 13v268h-65q-9 24 -9 56t9 61h65v255q89 17 223 17zM289 156q74 0 117 45.5t43 125.5q0 74 -43 117.5t-117 43.5q-34 0 -53 -1v-102h91q7 -32 7 -60q0 -27 -7 -57h-91v-111 q17 -1 53 -1z" />
<glyph unicode="&#xd1;" horiz-adv-x="691" d="M244 693q-29 0 -65 10.5t-53 30.5q10 65 51.5 102t98.5 37q34 0 80.5 -18.5t61.5 -18.5q16 0 27.5 12.5t16.5 32.5q72 0 118 -41q-10 -64 -51 -101.5t-94 -37.5q-36 0 -83 18t-61 18q-37 0 -47 -44zM543 647q47 0 92 -7v-638q-82 -15 -175 -8l-206 313l-23 41l5 -51v-297 q-54 -7 -91 -7q-28 0 -89 7v637q71 20 175 9l206 -326l23 -41l-5 51v310q46 7 88 7z" />
<glyph unicode="&#xd2;" horiz-adv-x="736" d="M477 682l-261 78q2 97 70 147l227 -152q-5 -45 -36 -73zM368 -19q-152 0 -248 93t-96 248q0 153 96.5 247.5t247.5 94.5q152 0 248 -93t96 -249q0 -152 -96.5 -246.5t-247.5 -94.5zM368 151q68 0 108 46t40 125q0 81 -40 126.5t-108 45.5t-108 -45.5t-40 -126.5 q0 -79 40 -125t108 -46z" />
<glyph unicode="&#xd3;" horiz-adv-x="736" d="M269 682q-32 28 -37 73l228 152q69 -52 69 -147zM368 -19q-152 0 -248 93t-96 248q0 153 96.5 247.5t247.5 94.5q152 0 248 -93t96 -249q0 -152 -96.5 -246.5t-247.5 -94.5zM368 151q68 0 108 46t40 125q0 81 -40 126.5t-108 45.5t-108 -45.5t-40 -126.5q0 -79 40 -125 t108 -46z" />
<glyph unicode="&#xd4;" horiz-adv-x="736" d="M243 696q-44 21 -54 76l142 116q47 10 93 0l144 -111q-8 -55 -54 -81l-140 79zM368 -19q-152 0 -248 93t-96 248q0 153 96.5 247.5t247.5 94.5q152 0 248 -93t96 -249q0 -152 -96.5 -246.5t-247.5 -94.5zM368 151q68 0 108 46t40 125q0 81 -40 126.5t-108 45.5 t-108 -45.5t-40 -126.5q0 -79 40 -125t108 -46z" />
<glyph unicode="&#xd5;" horiz-adv-x="736" d="M267 693q-29 0 -65 10.5t-53 30.5q10 65 51.5 102t98.5 37q34 0 80.5 -18.5t61.5 -18.5q16 0 27.5 12.5t16.5 32.5q72 0 118 -41q-10 -64 -51 -101.5t-94 -37.5q-36 0 -83 18t-61 18q-37 0 -47 -44zM368 -19q-152 0 -248 93t-96 248q0 153 96.5 247.5t247.5 94.5 q152 0 248 -93t96 -249q0 -152 -96.5 -246.5t-247.5 -94.5zM368 151q68 0 108 46t40 125q0 81 -40 126.5t-108 45.5t-108 -45.5t-40 -126.5q0 -79 40 -125t108 -46z" />
<glyph unicode="&#xd6;" horiz-adv-x="736" d="M248 708q-35 0 -60.5 25.5t-25.5 61.5q0 35 25.5 60t60.5 25q36 0 61.5 -25t25.5 -60q0 -36 -25.5 -61.5t-61.5 -25.5zM503 708q-35 0 -60.5 25.5t-25.5 61.5q0 35 25.5 60t60.5 25q36 0 61.5 -25t25.5 -60q0 -36 -25.5 -61.5t-61.5 -25.5zM368 -19q-152 0 -248 93 t-96 248q0 153 96.5 247.5t247.5 94.5q152 0 248 -93t96 -249q0 -152 -96.5 -246.5t-247.5 -94.5zM368 151q68 0 108 46t40 125q0 81 -40 126.5t-108 45.5t-108 -45.5t-40 -126.5q0 -79 40 -125t108 -46z" />
<glyph unicode="&#xd7;" horiz-adv-x="450" d="M416 351l-114 -114l114 -114q-28 -47 -78 -77l-113 114l-114 -114q-50 30 -78 77l114 114l-114 114q32 50 78 77l114 -113l113 113q46 -27 78 -77z" />
<glyph unicode="&#xd8;" horiz-adv-x="736" d="M725 602l-70 -78q57 -83 57 -202q0 -152 -96.5 -246.5t-247.5 -94.5q-93 0 -169 37l-85 -93q-91 29 -123 118l82 90q-49 82 -49 189q0 153 96.5 247.5t247.5 94.5q86 0 158 -32l76 86q88 -33 123 -116zM368 151q68 0 108 46t40 125q0 81 -40 126.5t-108 45.5t-108 -45.5 t-40 -126.5q0 -79 40 -125t108 -46z" />
<glyph unicode="&#xd9;" horiz-adv-x="669" d="M437 682l-261 78q2 97 70 147l227 -152q-5 -45 -36 -73zM336 -19q-134 0 -210.5 71.5t-76.5 206.5v381q39 7 88 7q47 0 92 -7v-377q0 -56 29 -85.5t80 -29.5q50 0 78.5 29.5t28.5 85.5v377q38 7 84 7q47 0 92 -7v-374q0 -133 -79 -209t-206 -76z" />
<glyph unicode="&#xda;" horiz-adv-x="669" d="M229 682q-32 28 -37 73l228 152q69 -52 69 -147zM336 -19q-134 0 -210.5 71.5t-76.5 206.5v381q39 7 88 7q47 0 92 -7v-377q0 -56 29 -85.5t80 -29.5q50 0 78.5 29.5t28.5 85.5v377q38 7 84 7q47 0 92 -7v-374q0 -133 -79 -209t-206 -76z" />
<glyph unicode="&#xdb;" horiz-adv-x="669" d="M203 696q-44 21 -54 76l142 116q47 10 93 0l144 -111q-8 -55 -54 -81l-140 79zM336 -19q-134 0 -210.5 71.5t-76.5 206.5v381q39 7 88 7q47 0 92 -7v-377q0 -56 29 -85.5t80 -29.5q50 0 78.5 29.5t28.5 85.5v377q38 7 84 7q47 0 92 -7v-374q0 -133 -79 -209t-206 -76z " />
<glyph unicode="&#xdc;" horiz-adv-x="669" d="M208 708q-35 0 -60.5 25.5t-25.5 61.5q0 35 25.5 60t60.5 25q36 0 61.5 -25t25.5 -60q0 -36 -25.5 -61.5t-61.5 -25.5zM463 708q-35 0 -60.5 25.5t-25.5 61.5q0 35 25.5 60t60.5 25q36 0 61.5 -25t25.5 -60q0 -36 -25.5 -61.5t-61.5 -25.5zM336 -19q-134 0 -210.5 71.5 t-76.5 206.5v381q39 7 88 7q47 0 92 -7v-377q0 -56 29 -85.5t80 -29.5q50 0 78.5 29.5t28.5 85.5v377q38 7 84 7q47 0 92 -7v-374q0 -133 -79 -209t-206 -76z" />
<glyph unicode="&#xdd;" horiz-adv-x="635" d="M214 682q-32 28 -37 73l228 152q69 -52 69 -147zM642 639l-236 -408v-231q-39 -7 -88 -7q-47 0 -92 7v240l-237 398q66 12 132 12q38 0 81 -5l97 -178l25 -56l25 56l98 178q30 5 76 5t119 -11z" />
<glyph unicode="&#xde;" horiz-adv-x="571" d="M268 550q289 0 289 -223q0 -117 -77 -178.5t-202 -61.5q-27 0 -42 1v-88q-39 -7 -88 -7q-47 0 -92 7v640q39 7 88 7q47 0 92 -7v-91q11 1 32 1zM278 242q95 0 95 83q0 35 -25 55t-71 20q-9 0 -41 -2v-156h42z" />
<glyph unicode="&#xdf;" horiz-adv-x="661" d="M522 299q48 -11 82 -46.5t34 -103.5q0 -75 -49.5 -121.5t-147.5 -46.5q-62 0 -112 19t-75 43q12 78 69 112q60 -39 106 -39q34 0 34 26q0 15 -10 21.5t-41 17.5q-27 11 -39.5 16t-34.5 19t-32.5 28.5t-19.5 38.5t-9 55q0 71 49 109.5t110 38.5h1q0 25 -25.5 48t-73.5 23 q-53 0 -82.5 -33t-30.5 -95v-429q-39 -7 -89 -7q-48 0 -93 7v445q1 118 84.5 188.5t213.5 70.5q124 0 199 -64.5t76 -178.5q-4 -82 -26 -117q-49 15 -97 15q-41 0 -41 -21q0 -13 12.5 -20.5t57.5 -18.5z" />
<glyph unicode="&#xe0;" horiz-adv-x="529" d="M386 586q-12 -47 -51 -73l-234 109q16 96 92 136zM251 490q246 0 246 -219v-240q-125 -48 -257 -48q-104 0 -162.5 38.5t-58.5 118.5q0 74 58 113t155 37q50 -2 87 -10v13q0 52 -84 52q-75 0 -128 -40q-62 36 -73 113q28 25 85 48.5t132 23.5zM198 147q0 -46 70 -46 q20 0 51 7v74q-27 6 -60 6q-61 0 -61 -41z" />
<glyph unicode="&#xe1;" horiz-adv-x="529" d="M169 513q-37 26 -51 77l193 168q76 -40 92 -136zM251 490q246 0 246 -219v-240q-125 -48 -257 -48q-104 0 -162.5 38.5t-58.5 118.5q0 74 58 113t155 37q50 -2 87 -10v13q0 52 -84 52q-75 0 -128 -40q-62 36 -73 113q28 25 85 48.5t132 23.5zM198 147q0 -46 70 -46 q20 0 51 7v74q-27 6 -60 6q-61 0 -61 -41z" />
<glyph unicode="&#xe2;" horiz-adv-x="529" d="M131 520q-24 9 -41.5 27.5t-22.5 40.5l139 150q47 11 95 0l132 -143q-12 -51 -65 -75l-118 91zM251 490q246 0 246 -219v-240q-125 -48 -257 -48q-104 0 -162.5 38.5t-58.5 118.5q0 74 58 113t155 37q50 -2 87 -10v13q0 52 -84 52q-75 0 -128 -40q-62 36 -73 113 q28 25 85 48.5t132 23.5zM198 147q0 -46 70 -46q20 0 51 7v74q-27 6 -60 6q-61 0 -61 -41z" />
<glyph unicode="&#xe3;" horiz-adv-x="529" d="M154 543q-29 0 -65 10.5t-53 30.5q10 66 51.5 104t98.5 38q29 0 69 -18.5t53 -18.5q16 0 27.5 11.5t16.5 30.5q72 0 118 -41q-10 -63 -51 -99.5t-94 -36.5q-31 0 -71.5 18t-52.5 18q-37 0 -47 -47zM251 490q246 0 246 -219v-240q-125 -48 -257 -48q-104 0 -162.5 38.5 t-58.5 118.5q0 74 58 113t155 37q50 -2 87 -10v13q0 52 -84 52q-75 0 -128 -40q-62 36 -73 113q28 25 85 48.5t132 23.5zM198 147q0 -46 70 -46q20 0 51 7v74q-27 6 -60 6q-61 0 -61 -41z" />
<glyph unicode="&#xe4;" horiz-adv-x="529" d="M133 538q-35 0 -60.5 25.5t-25.5 61.5q0 35 25.5 60t60.5 25q36 0 61.5 -25t25.5 -60q0 -36 -25.5 -61.5t-61.5 -25.5zM372 538q-35 0 -60.5 25.5t-25.5 61.5q0 35 25.5 60t60.5 25q36 0 61.5 -25t25.5 -60q0 -36 -25.5 -61.5t-61.5 -25.5zM251 490q246 0 246 -219v-240 q-125 -48 -257 -48q-104 0 -162.5 38.5t-58.5 118.5q0 74 58 113t155 37q50 -2 87 -10v13q0 52 -84 52q-75 0 -128 -40q-62 36 -73 113q28 25 85 48.5t132 23.5zM198 147q0 -46 70 -46q20 0 51 7v74q-27 6 -60 6q-61 0 -61 -41z" />
<glyph unicode="&#xe5;" horiz-adv-x="529" d="M254 508q-55 0 -94 38.5t-39 92.5q0 55 39 93t94 38q54 0 93 -38.5t39 -92.5t-39 -92.5t-93 -38.5zM253 681q-16 0 -28 -12.5t-12 -29.5t12 -29t28 -12q18 0 29.5 12t11.5 29q0 18 -11.5 30t-29.5 12zM251 490q246 0 246 -219v-240q-125 -48 -257 -48q-104 0 -162.5 38.5 t-58.5 118.5q0 74 58 113t155 37q50 -2 87 -10v13q0 52 -84 52q-75 0 -128 -40q-62 36 -73 113q28 25 85 48.5t132 23.5zM198 147q0 -46 70 -46q20 0 51 7v74q-27 6 -60 6q-61 0 -61 -41z" />
<glyph unicode="&#xe6;" horiz-adv-x="801" d="M194 -17q-74 0 -123.5 39t-49.5 116q0 75 57 115t143 39l85 -1v3q0 51 -84 51q-76 0 -131 -33q-55 49 -58 121q27 20 80.5 38.5t124.5 18.5q120 0 166 -77q24 38 67.5 57.5t94.5 19.5q94 0 150.5 -60t55.5 -162q0 -52 -5 -80h-273v-1q0 -32 26.5 -47t66.5 -15 q53 0 129 42q53 -45 58 -122q-92 -63 -205 -63q-133 0 -186 95q-59 -94 -189 -94zM489 290h117q0 64 -56 64q-27 0 -43.5 -18t-17.5 -46zM241 107q65 0 65 82h-57q-25 0 -40 -11t-15 -30q0 -41 47 -41z" />
<glyph unicode="&#xe7;" horiz-adv-x="470" d="M304 -36q92 -15 92 -85q0 -59 -41 -85.5t-97 -26.5q-33 0 -66 9t-48 22q-3 50 35 79q20 -14 46 -14q35 0 35 29q0 32 -64 34l23 62q-94 17 -145.5 81t-51.5 167q0 118 73.5 187.5t189.5 69.5q52 0 98.5 -15.5t69.5 -35.5q-7 -36 -32 -71t-58 -55q-30 30 -73 30 q-41 0 -64.5 -29t-23.5 -78t23 -79.5t67 -30.5q48 0 81 32q67 -33 89 -118q-65 -55 -151 -60z" />
<glyph unicode="&#xe8;" horiz-adv-x="536" d="M405 586q-12 -47 -51 -73l-234 109q16 96 92 136zM279 490q105 0 168.5 -60t62.5 -162q0 -45 -5 -74h-300q6 -40 29 -56t71 -16q63 0 141 48q53 -45 58 -122q-89 -66 -221 -66q-117 0 -189 66t-72 185q0 113 72.5 185t184.5 72zM204 287h140q0 66 -64 71q-65 0 -76 -71z " />
<glyph unicode="&#xe9;" horiz-adv-x="536" d="M188 513q-37 26 -51 77l193 168q76 -40 92 -136zM279 490q105 0 168.5 -60t62.5 -162q0 -45 -5 -74h-300q6 -40 29 -56t71 -16q63 0 141 48q53 -45 58 -122q-89 -66 -221 -66q-117 0 -189 66t-72 185q0 113 72.5 185t184.5 72zM204 287h140q0 66 -64 71q-65 0 -76 -71z " />
<glyph unicode="&#xea;" horiz-adv-x="536" d="M150 520q-24 9 -41.5 27.5t-22.5 40.5l139 150q47 11 95 0l132 -143q-12 -51 -65 -75l-118 91zM279 490q105 0 168.5 -60t62.5 -162q0 -45 -5 -74h-300q6 -40 29 -56t71 -16q63 0 141 48q53 -45 58 -122q-89 -66 -221 -66q-117 0 -189 66t-72 185q0 113 72.5 185 t184.5 72zM204 287h140q0 66 -64 71q-65 0 -76 -71z" />
<glyph unicode="&#xeb;" horiz-adv-x="536" d="M152 538q-35 0 -60.5 25.5t-25.5 61.5q0 35 25.5 60t60.5 25q36 0 61.5 -25t25.5 -60q0 -36 -25.5 -61.5t-61.5 -25.5zM391 538q-35 0 -60.5 25.5t-25.5 61.5q0 35 25.5 60t60.5 25q36 0 61.5 -25t25.5 -60q0 -36 -25.5 -61.5t-61.5 -25.5zM279 490q105 0 168.5 -60 t62.5 -162q0 -45 -5 -74h-300q6 -40 29 -56t71 -16q63 0 141 48q53 -45 58 -122q-89 -66 -221 -66q-117 0 -189 66t-72 185q0 113 72.5 185t184.5 72zM204 287h140q0 66 -64 71q-65 0 -76 -71z" />
<glyph unicode="&#xec;" horiz-adv-x="266" d="M227 513l-234 109q16 96 92 136l190 -177q-12 -45 -48 -68zM133 -7q-47 0 -90 7v476q41 7 90 7q47 0 90 -7v-476q-41 -7 -90 -7z" />
<glyph unicode="&#xed;" horiz-adv-x="267" d="M60 505q-37 20 -54 64l174 193q78 -34 104 -128zM133 -7q-47 0 -90 7v476q41 7 90 7q47 0 90 -7v-476q-41 -7 -90 -7z" />
<glyph unicode="&#xee;" horiz-adv-x="266" d="M165 738l132 -145q-12 -48 -68 -70l-98 71l-97 -71q-53 21 -64 69l132 146q32 6 63 0zM133 -7q-47 0 -90 7v476q41 7 90 7q47 0 90 -7v-476q-41 -7 -90 -7z" />
<glyph unicode="&#xef;" horiz-adv-x="267" d="M33 538q-35 0 -60.5 25.5t-25.5 61.5q0 35 25.5 60t60.5 25q36 0 61.5 -25t25.5 -60q0 -36 -25.5 -61.5t-61.5 -25.5zM232 538q-35 0 -60.5 25.5t-25.5 61.5q0 35 25.5 60t60.5 25q36 0 61.5 -25t25.5 -60q0 -36 -25.5 -61.5t-61.5 -25.5zM133 -7q-47 0 -90 7v476 q41 7 90 7q47 0 90 -7v-476q-41 -7 -90 -7z" />
<glyph unicode="&#xf0;" horiz-adv-x="544" d="M317 616q202 -117 202 -382q0 -118 -66.5 -185t-184.5 -67q-110 0 -178.5 60t-68.5 164q0 105 68.5 166t178.5 61q19 0 46 -5q-35 43 -93 69l-51 -64q-20 6 -37 23q-17 14 -28 33l28 35q-23 5 -71 11q-12 102 43 147q71 -9 131 -30l45 56q18 -8 35 -21q20 -20 30 -35z M268 129q35 0 53 22.5t18 62.5t-18 62.5t-53 22.5q-32 0 -49.5 -23t-17.5 -62t17.5 -62t49.5 -23z" />
<glyph unicode="&#xf1;" horiz-adv-x="567" d="M181 543q-29 0 -65 10.5t-53 30.5q10 66 51.5 104t98.5 38q29 0 69 -18.5t53 -18.5q16 0 27.5 11.5t16.5 30.5q72 0 118 -41q-10 -63 -51 -99.5t-94 -36.5q-31 0 -71.5 18t-52.5 18q-37 0 -47 -47zM292 493q119 0 178 -55t59 -152v-286q-42 -7 -90 -7t-90 7v263 q0 69 -69 69q-35 0 -59 -14v-318q-42 -7 -90 -7t-90 7v412q34 30 99 55.5t152 25.5z" />
<glyph unicode="&#xf2;" horiz-adv-x="579" d="M372 513l-234 109q16 96 92 136l193 -172q-12 -47 -51 -73zM290 -18q-120 0 -194 67.5t-74 187.5q0 117 75 186.5t193 69.5q119 0 193 -68.5t74 -187.5q0 -116 -74 -185.5t-193 -69.5zM290 129q42 0 64.5 29t22.5 79q0 51 -22.5 80t-64.5 29t-65 -29t-23 -80 q0 -50 23 -79t65 -29z" />
<glyph unicode="&#xf3;" horiz-adv-x="579" d="M206 513q-37 26 -51 77l193 168q76 -40 92 -136zM290 -18q-120 0 -194 67.5t-74 187.5q0 117 75 186.5t193 69.5q119 0 193 -68.5t74 -187.5q0 -116 -74 -185.5t-193 -69.5zM290 129q42 0 64.5 29t22.5 79q0 51 -22.5 80t-64.5 29t-65 -29t-23 -80q0 -50 23 -79t65 -29z " />
<glyph unicode="&#xf4;" horiz-adv-x="579" d="M338 738l132 -143q-12 -51 -65 -75l-118 91l-119 -91q-24 9 -41.5 27.5t-22.5 40.5l139 150q47 11 95 0zM290 -18q-120 0 -194 67.5t-74 187.5q0 117 75 186.5t193 69.5q119 0 193 -68.5t74 -187.5q0 -116 -74 -185.5t-193 -69.5zM290 129q42 0 64.5 29t22.5 79 q0 51 -22.5 80t-64.5 29t-65 -29t-23 -80q0 -50 23 -79t65 -29z" />
<glyph unicode="&#xf5;" horiz-adv-x="579" d="M191 543q-29 0 -65 10.5t-53 30.5q10 66 51.5 104t98.5 38q29 0 69 -18.5t53 -18.5q16 0 27.5 11.5t16.5 30.5q72 0 118 -41q-10 -63 -51 -99.5t-94 -36.5q-31 0 -71.5 18t-52.5 18q-37 0 -47 -47zM290 -18q-120 0 -194 67.5t-74 187.5q0 117 75 186.5t193 69.5 q119 0 193 -68.5t74 -187.5q0 -116 -74 -185.5t-193 -69.5zM290 129q42 0 64.5 29t22.5 79q0 51 -22.5 80t-64.5 29t-65 -29t-23 -80q0 -50 23 -79t65 -29z" />
<glyph unicode="&#xf6;" horiz-adv-x="579" d="M170 538q-35 0 -60.5 25.5t-25.5 61.5q0 35 25.5 60t60.5 25q36 0 61.5 -25t25.5 -60q0 -36 -25.5 -61.5t-61.5 -25.5zM409 538q-35 0 -60.5 25.5t-25.5 61.5q0 35 25.5 60t60.5 25q36 0 61.5 -25t25.5 -60q0 -36 -25.5 -61.5t-61.5 -25.5zM290 -18q-120 0 -194 67.5 t-74 187.5q0 117 75 186.5t193 69.5q119 0 193 -68.5t74 -187.5q0 -116 -74 -185.5t-193 -69.5zM290 129q42 0 64.5 29t22.5 79q0 51 -22.5 80t-64.5 29t-65 -29t-23 -80q0 -50 23 -79t65 -29z" />
<glyph unicode="&#xf7;" horiz-adv-x="483" d="M240 310q-36 0 -62 26t-26 63q0 35 26 61t62 26q37 0 63 -26t26 -61q0 -37 -26 -63t-63 -26zM31 190q-6 26 -6 50q0 25 6 49h420q6 -24 6 -49q0 -24 -6 -50h-420zM240 -4q-36 0 -62 26t-26 62t26 62t62 26q37 0 63 -26t26 -62t-26 -62t-63 -26z" />
<glyph unicode="&#xf8;" horiz-adv-x="579" d="M558 430l-41 -45q40 -62 40 -148q0 -116 -74 -185.5t-193 -69.5q-64 0 -118 20l-51 -57q-76 25 -103 98l43 48q-39 61 -39 146q0 117 75 186.5t193 69.5q63 0 115 -20l50 55q77 -25 103 -98zM290 129q42 0 64.5 29t22.5 79q0 51 -22.5 80t-64.5 29t-65 -29t-23 -80 q0 -50 23 -79t65 -29z" />
<glyph unicode="&#xf9;" horiz-adv-x="565" d="M415 586q-12 -47 -51 -73l-234 109q16 96 92 136zM433 477q48 0 90 -7v-429q-29 -20 -96 -39.5t-148 -19.5q-241 0 -241 196v292q42 7 90 7t90 -7v-259q0 -40 15.5 -57.5t53.5 -17.5q37 0 56 12v322q42 7 90 7z" />
<glyph unicode="&#xfa;" horiz-adv-x="565" d="M198 513q-37 26 -51 77l193 168q76 -40 92 -136zM433 477q48 0 90 -7v-429q-29 -20 -96 -39.5t-148 -19.5q-241 0 -241 196v292q42 7 90 7t90 -7v-259q0 -40 15.5 -57.5t53.5 -17.5q37 0 56 12v322q42 7 90 7z" />
<glyph unicode="&#xfb;" horiz-adv-x="565" d="M160 520q-24 9 -41.5 27.5t-22.5 40.5l139 150q47 11 95 0l132 -143q-12 -51 -65 -75l-118 91zM433 477q48 0 90 -7v-429q-29 -20 -96 -39.5t-148 -19.5q-241 0 -241 196v292q42 7 90 7t90 -7v-259q0 -40 15.5 -57.5t53.5 -17.5q37 0 56 12v322q42 7 90 7z" />
<glyph unicode="&#xfc;" horiz-adv-x="565" d="M162 538q-35 0 -60.5 25.5t-25.5 61.5q0 35 25.5 60t60.5 25q36 0 61.5 -25t25.5 -60q0 -36 -25.5 -61.5t-61.5 -25.5zM401 538q-35 0 -60.5 25.5t-25.5 61.5q0 35 25.5 60t60.5 25q36 0 61.5 -25t25.5 -60q0 -36 -25.5 -61.5t-61.5 -25.5zM433 477q48 0 90 -7v-429 q-29 -20 -96 -39.5t-148 -19.5q-241 0 -241 196v292q42 7 90 7t90 -7v-259q0 -40 15.5 -57.5t53.5 -17.5q37 0 56 12v322q42 7 90 7z" />
<glyph unicode="&#xfd;" horiz-adv-x="544" d="M197 513q-37 26 -51 77l193 168q76 -40 92 -136zM418 479q61 0 117 -14q-18 -231 -115.5 -406.5t-268.5 -276.5q-38 14 -65 49.5t-38 77.5q92 62 131 109q-71 107 -108 206t-65 241q54 14 135 14q28 0 66 -4q19 -168 68 -297q8 -19 11 -36q3 24 8 36q43 115 54 297 q44 4 70 4z" />
<glyph unicode="&#xfe;" horiz-adv-x="575" d="M285 490q121 0 195 -63.5t74 -187.5q0 -116 -77 -187t-191 -71q-33 0 -63 5v-169q-42 -7 -90 -7t-90 7v837q39 7 87 7t93 -7v-169q32 5 62 5zM272 136q46 -1 74 25t28 73q0 46 -28.5 71t-77.5 25q-22 0 -45 -6v-182q17 -6 49 -6z" />
<glyph unicode="&#xff;" horiz-adv-x="544" d="M161 538q-35 0 -60.5 25.5t-25.5 61.5q0 35 25.5 60t60.5 25q36 0 61.5 -25t25.5 -60q0 -36 -25.5 -61.5t-61.5 -25.5zM400 538q-35 0 -60.5 25.5t-25.5 61.5q0 35 25.5 60t60.5 25q36 0 61.5 -25t25.5 -60q0 -36 -25.5 -61.5t-61.5 -25.5zM418 479q61 0 117 -14 q-18 -231 -115.5 -406.5t-268.5 -276.5q-38 14 -65 49.5t-38 77.5q92 62 131 109q-71 107 -108 206t-65 241q54 14 135 14q28 0 66 -4q19 -168 68 -297q8 -19 11 -36q3 24 8 36q43 115 54 297q44 4 70 4z" />
<glyph unicode="&#x13f;" horiz-adv-x="512" d="M487 162q8 -37 8 -83q0 -44 -8 -79h-431v642q48 8 90 8t90 -8v-480h251zM397 261q-37 0 -64 27.5t-27 64.5t27 63.5t64 26.5q38 0 65 -26.5t27 -63.5q0 -38 -27 -65t-65 -27z" />
<glyph unicode="&#x140;" horiz-adv-x="415" d="M136 -7q-48 0 -93 7v654q39 7 89 7q48 0 93 -7v-654q-39 -7 -89 -7zM341 235q-37 0 -64 27.5t-27 64.5t27 63.5t64 26.5q38 0 65 -26.5t27 -63.5q0 -38 -27 -65t-65 -27z" />
<glyph unicode="&#x152;" horiz-adv-x="868" d="M837 80q0 -44 -8 -80h-362q-59 -13 -107 -13q-146 0 -241 92t-95 243q0 149 96.5 241t247.5 92q55 0 111 -13h341q8 -35 8 -79t-8 -80h-230v-79h201q8 -35 8 -79q0 -43 -8 -78h-201v-88h239q8 -35 8 -79zM220 322q0 -76 40 -120.5t108 -44.5q25 0 42 4v321q-20 3 -42 3 q-68 0 -108 -43t-40 -120z" />
<glyph unicode="&#x153;" horiz-adv-x="872" d="M615 490q105 0 168.5 -60t62.5 -162q0 -52 -5 -83h-288q8 -32 31 -46t66 -14q53 0 132 45q53 -45 58 -122q-89 -66 -221 -66q-104 0 -166 64q-67 -64 -173 -64q-115 0 -186.5 67.5t-71.5 187.5q0 117 72 186.5t186 69.5q112 0 178 -68q63 65 157 65zM550 291h130 q0 28 -15.5 45.5t-48.5 17.5q-55 0 -66 -63zM280 129q42 0 64.5 29t22.5 79q0 51 -22.5 80t-64.5 29q-37 0 -57.5 -29t-20.5 -80q0 -50 20.5 -79t57.5 -29z" />
<glyph unicode="&#x178;" horiz-adv-x="635" d="M193 708q-35 0 -60.5 25.5t-25.5 61.5q0 35 25.5 60t60.5 25q36 0 61.5 -25t25.5 -60q0 -36 -25.5 -61.5t-61.5 -25.5zM448 708q-35 0 -60.5 25.5t-25.5 61.5q0 35 25.5 60t60.5 25q36 0 61.5 -25t25.5 -60q0 -36 -25.5 -61.5t-61.5 -25.5zM642 639l-236 -408v-231 q-39 -7 -88 -7q-47 0 -92 7v240l-237 398q66 12 132 12q38 0 81 -5l97 -178l25 -56l25 56l98 178q30 5 76 5t119 -11z" />
<glyph unicode="&#x2c6;" horiz-adv-x="439" d="M268 738l132 -143q-12 -51 -65 -75l-118 91l-119 -91q-24 9 -41.5 27.5t-22.5 40.5l139 150q47 11 95 0z" />
<glyph unicode="&#x2dc;" horiz-adv-x="480" d="M141 543q-29 0 -65 10.5t-53 30.5q10 66 51.5 104t98.5 38q29 0 69 -18.5t53 -18.5q16 0 27.5 11.5t16.5 30.5q72 0 118 -41q-10 -63 -51 -99.5t-94 -36.5q-31 0 -71.5 18t-52.5 18q-37 0 -47 -47z" />
<glyph unicode="&#x2000;" horiz-adv-x="461" />
<glyph unicode="&#x2001;" horiz-adv-x="923" />
<glyph unicode="&#x2002;" horiz-adv-x="461" />
<glyph unicode="&#x2003;" horiz-adv-x="923" />
<glyph unicode="&#x2004;" horiz-adv-x="307" />
<glyph unicode="&#x2005;" horiz-adv-x="230" />
<glyph unicode="&#x2006;" horiz-adv-x="153" />
<glyph unicode="&#x2007;" horiz-adv-x="153" />
<glyph unicode="&#x2008;" horiz-adv-x="115" />
<glyph unicode="&#x2009;" horiz-adv-x="184" />
<glyph unicode="&#x200a;" horiz-adv-x="51" />
<glyph unicode="&#x2010;" horiz-adv-x="371" d="M55 190q-10 24 -10 61q0 35 10 65h262q8 -30 8 -64q0 -33 -8 -62h-262z" />
<glyph unicode="&#x2011;" horiz-adv-x="371" d="M55 190q-10 24 -10 61q0 35 10 65h262q8 -30 8 -64q0 -33 -8 -62h-262z" />
<glyph unicode="&#x2012;" horiz-adv-x="371" d="M55 190q-10 24 -10 61q0 35 10 65h262q8 -30 8 -64q0 -33 -8 -62h-262z" />
<glyph unicode="&#x2013;" horiz-adv-x="551" d="M55 197q-10 21 -10 54q0 32 10 58h442q8 -27 8 -57q0 -29 -8 -55h-442z" />
<glyph unicode="&#x2014;" horiz-adv-x="1053" d="M56 195q-10 23 -10 56t10 60h942q8 -29 8 -59t-8 -57h-942z" />
<glyph unicode="&#x2018;" horiz-adv-x="216" d="M92 421q-30 0 -53 9q-11 30 -11 73q0 54 27.5 110.5t66.5 87.5q47 -2 66 -36q-29 -61 -29 -134q0 -52 20 -92q-32 -18 -87 -18z" />
<glyph unicode="&#x2019;" horiz-adv-x="209" d="M91 421q-19 1 -38 10.5t-27 25.5q29 61 29 134q0 52 -20 92q31 18 87 18q34 0 53 -9q11 -30 11 -73q0 -54 -27.5 -110t-67.5 -88z" />
<glyph unicode="&#x201a;" horiz-adv-x="218" d="M86 -144q-19 1 -38 10.5t-27 25.5q29 61 29 134q0 52 -20 92q31 18 87 18q34 0 53 -9q11 -30 11 -73q0 -54 -27.5 -110.5t-67.5 -87.5z" />
<glyph unicode="&#x201c;" horiz-adv-x="404" d="M92 421q-30 0 -53 9q-11 30 -11 73q0 54 27.5 110.5t66.5 87.5q47 -2 66 -36q-29 -61 -29 -134q0 -52 20 -92q-32 -18 -87 -18zM280 421q-30 0 -53 9q-11 30 -11 73q0 54 27.5 110.5t66.5 87.5q47 -2 66 -36q-29 -61 -29 -134q0 -52 20 -92q-32 -18 -87 -18z" />
<glyph unicode="&#x201d;" horiz-adv-x="397" d="M91 421q-19 1 -38 10.5t-27 25.5q29 61 29 134q0 52 -20 92q31 18 87 18q34 0 53 -9q11 -30 11 -73q0 -54 -27.5 -110t-67.5 -88zM279 421q-19 1 -38 10.5t-27 25.5q29 61 29 134q0 52 -20 92q31 18 87 18q34 0 53 -9q11 -30 11 -73q0 -54 -27.5 -110t-67.5 -88z" />
<glyph unicode="&#x201e;" horiz-adv-x="406" d="M86 -144q-19 1 -38 10.5t-27 25.5q29 61 29 134q0 52 -20 92q31 18 87 18q34 0 53 -9q11 -30 11 -73q0 -54 -27.5 -110.5t-67.5 -87.5zM274 -144q-19 1 -38 10.5t-27 25.5q29 61 29 134q0 52 -20 92q31 18 87 18q34 0 53 -9q11 -30 11 -73q0 -54 -27.5 -110.5 t-67.5 -87.5z" />
<glyph unicode="&#x2022;" horiz-adv-x="346" d="M173 151q-49 0 -84.5 35.5t-35.5 84.5q0 50 35 85.5t85 35.5t85 -35.5t35 -85.5q0 -49 -35.5 -84.5t-84.5 -35.5z" />
<glyph unicode="&#x2026;" horiz-adv-x="640" d="M116 -21q-36 0 -62.5 26.5t-26.5 62.5q0 37 26.5 63t62.5 26q37 0 63 -26t26 -63q0 -36 -26 -62.5t-63 -26.5zM319 -21q-36 0 -62.5 26.5t-26.5 62.5q0 37 26.5 63t62.5 26q37 0 63 -26t26 -63q0 -36 -26 -62.5t-63 -26.5zM522 -21q-35 0 -61.5 26.5t-26.5 62.5t26 62.5 t62 26.5q37 0 63.5 -26t26.5 -63q0 -36 -26.5 -62.5t-63.5 -26.5z" />
<glyph unicode="&#x202f;" horiz-adv-x="184" />
<glyph unicode="&#x2039;" horiz-adv-x="288" d="M190 65l-168 187l162 187q46 -7 67 -40l-72 -145l73 -150q-19 -33 -62 -39z" />
<glyph unicode="&#x203a;" horiz-adv-x="289" d="M104 65q-46 7 -67 40l73 145l-74 150q19 33 62 39l168 -186z" />
<glyph unicode="&#x205f;" horiz-adv-x="230" />
<glyph unicode="&#x20ac;" horiz-adv-x="645" d="M519 188q81 -49 98 -145q-75 -59 -205 -59q-117 0 -194 63t-102 173h-87q-4 16 -4 36q0 21 4 37h77q-1 10 -1 31q0 17 1 25h-60q-4 16 -4 36q0 21 4 37h70q25 112 105 177t197 65q110 0 186 -56q-6 -44 -31 -86t-61 -63q-36 33 -87 33q-80 0 -108 -70h126q4 -24 4 -37 q0 -12 -4 -36h-141q-1 -8 -1 -25q0 -21 1 -31h124q4 -24 4 -37q0 -12 -4 -36h-106q30 -67 102 -67q60 0 97 35z" />
<glyph unicode="&#x2122;" horiz-adv-x="817" d="M690 671q38 0 71 -4v-361q-31 -3 -59 -3q-21 0 -54 3v105l8 51l-22 -51l-34 -76q-24 -3 -42 -3q-16 0 -42 3l-39 76l-19 43l6 -43v-105q-29 -3 -55 -3q-23 0 -58 3v361q36 4 69 4q31 0 59 -4l75 -164l7 -24l6 24l67 164q28 4 56 4zM32 668h295q4 -24 4 -56q0 -29 -4 -53 h-87v-253q-40 -4 -61 -4q-19 0 -61 4v253h-86q-5 21 -5 52q0 35 5 57z" />
<glyph unicode="&#x25fc;" horiz-adv-x="480" d="M0 480h480v-480h-480v480z" />
<glyph horiz-adv-x="633" d="M409 642q140 -300 226 -635q-67 -12 -118 -12q-30 0 -62 5q-8 35 -26 103h-229q-5 -19 -13.5 -54t-12.5 -49q-36 -4 -82 -4q-58 0 -94 11q82 329 231 635q36 6 92 6q52 0 88 -6zM245 252h142q-21 69 -53 156l-15 37l-15 -37q-30 -70 -59 -156z" />
<glyph horiz-adv-x="633" d="M210 682q-32 28 -37 73l228 152q69 -52 69 -147zM409 642q140 -300 226 -635q-67 -12 -118 -12q-30 0 -62 5q-8 35 -26 103h-229q-5 -19 -13.5 -54t-12.5 -49q-36 -4 -82 -4q-58 0 -94 11q82 329 231 635q36 6 92 6q52 0 88 -6zM245 252h142q-21 69 -53 156l-15 37 l-15 -37q-30 -70 -59 -156z" />
<glyph horiz-adv-x="633" d="M184 696q-44 21 -54 76l142 116q46 10 93 0l144 -111q-8 -55 -54 -81l-140 79zM409 642q140 -300 226 -635q-67 -12 -118 -12q-30 0 -62 5q-8 35 -26 103h-229q-5 -19 -13.5 -54t-12.5 -49q-36 -4 -82 -4q-58 0 -94 11q82 329 231 635q36 6 92 6q52 0 88 -6zM245 252h142 q-21 69 -53 156l-15 37l-15 -37q-30 -70 -59 -156z" />
<glyph horiz-adv-x="633" d="M189 708q-35 0 -60.5 25.5t-25.5 61.5q0 35 25.5 60t60.5 25q36 0 61.5 -25t25.5 -60q0 -36 -25.5 -61.5t-61.5 -25.5zM444 708q-35 0 -60.5 25.5t-25.5 61.5q0 35 25.5 60t60.5 25q36 0 61.5 -25t25.5 -60q0 -36 -25.5 -61.5t-61.5 -25.5zM409 642q140 -300 226 -635 q-67 -12 -118 -12q-30 0 -62 5q-8 35 -26 103h-229q-5 -19 -13.5 -54t-12.5 -49q-36 -4 -82 -4q-58 0 -94 11q82 329 231 635q36 6 92 6q52 0 88 -6zM245 252h142q-21 69 -53 156l-15 37l-15 -37q-30 -70 -59 -156z" />
<glyph horiz-adv-x="633" d="M454 755q-5 -45 -36 -73l-261 78q2 97 70 147zM409 642q140 -300 226 -635q-67 -12 -118 -12q-30 0 -62 5q-8 35 -26 103h-229q-5 -19 -13.5 -54t-12.5 -49q-36 -4 -82 -4q-58 0 -94 11q82 329 231 635q36 6 92 6q52 0 88 -6zM245 252h142q-21 69 -53 156l-15 37l-15 -37 q-30 -70 -59 -156z" />
<glyph horiz-adv-x="633" d="M318 661q-54 0 -92.5 38.5t-38.5 92.5q0 55 38.5 93t92.5 38t92 -38.5t38 -92.5t-38.5 -92.5t-91.5 -38.5zM317 834q-16 0 -28 -12.5t-12 -29.5t12 -29t28 -12q18 0 29.5 12t11.5 29q0 18 -11.5 30t-29.5 12zM409 642q140 -300 226 -635q-67 -12 -118 -12q-30 0 -62 5 q-8 35 -26 103h-229q-5 -19 -13.5 -54t-12.5 -49q-36 -4 -82 -4q-58 0 -94 11q82 329 231 635q36 6 92 6q52 0 88 -6zM245 252h142q-21 69 -53 156l-15 37l-15 -37q-30 -70 -59 -156z" />
<glyph horiz-adv-x="633" d="M208 693q-29 0 -65 10.5t-53 30.5q10 65 51.5 102t98.5 37q34 0 80.5 -18.5t61.5 -18.5q16 0 27.5 12.5t16.5 32.5q72 0 118 -41q-10 -64 -51 -101.5t-94 -37.5q-36 0 -83 18t-61 18q-37 0 -47 -44zM409 642q140 -300 226 -635q-67 -12 -118 -12q-30 0 -62 5 q-8 35 -26 103h-229q-5 -19 -13.5 -54t-12.5 -49q-36 -4 -82 -4q-58 0 -94 11q82 329 231 635q36 6 92 6q52 0 88 -6zM245 252h142q-21 69 -53 156l-15 37l-15 -37q-30 -70 -59 -156z" />
<glyph horiz-adv-x="516" d="M426 187q33 -17 56 -53t32 -81q-75 -68 -224 -68q-48 0 -92 10t-84.5 31t-64.5 61t-24 94q0 115 101 159q-74 49 -74 139q0 80 59.5 130t162.5 50q138 0 208 -56q-1 -39 -21.5 -75t-50.5 -56q-61 27 -117 27q-29 0 -46.5 -13t-17.5 -37q0 -27 21 -38.5t70 -12.5h54 q14 -22 14 -67q0 -36 -13 -66h-54q-57 -1 -80 -16.5t-23 -45.5q0 -27 19 -43t52 -16q43 0 72.5 9.5t64.5 33.5z" />
<glyph horiz-adv-x="516" d="M169 682q-32 28 -37 73l228 152q69 -52 69 -147zM426 187q33 -17 56 -53t32 -81q-75 -68 -224 -68q-48 0 -92 10t-84.5 31t-64.5 61t-24 94q0 115 101 159q-74 49 -74 139q0 80 59.5 130t162.5 50q138 0 208 -56q-1 -39 -21.5 -75t-50.5 -56q-61 27 -117 27 q-29 0 -46.5 -13t-17.5 -37q0 -27 21 -38.5t70 -12.5h54q14 -22 14 -67q0 -36 -13 -66h-54q-57 -1 -80 -16.5t-23 -45.5q0 -27 19 -43t52 -16q43 0 72.5 9.5t64.5 33.5z" />
<glyph horiz-adv-x="516" d="M143 696q-44 21 -54 76l142 116q47 10 93 0l144 -111q-8 -55 -54 -81l-140 79zM426 187q33 -17 56 -53t32 -81q-75 -68 -224 -68q-48 0 -92 10t-84.5 31t-64.5 61t-24 94q0 115 101 159q-74 49 -74 139q0 80 59.5 130t162.5 50q138 0 208 -56q-1 -39 -21.5 -75t-50.5 -56 q-61 27 -117 27q-29 0 -46.5 -13t-17.5 -37q0 -27 21 -38.5t70 -12.5h54q14 -22 14 -67q0 -36 -13 -66h-54q-57 -1 -80 -16.5t-23 -45.5q0 -27 19 -43t52 -16q43 0 72.5 9.5t64.5 33.5z" />
<glyph horiz-adv-x="516" d="M148 708q-35 0 -60.5 25.5t-25.5 61.5q0 35 25.5 60t60.5 25q36 0 61.5 -25t25.5 -60q0 -36 -25.5 -61.5t-61.5 -25.5zM403 708q-35 0 -60.5 25.5t-25.5 61.5q0 35 25.5 60t60.5 25q36 0 61.5 -25t25.5 -60q0 -36 -25.5 -61.5t-61.5 -25.5zM426 187q33 -17 56 -53t32 -81 q-75 -68 -224 -68q-48 0 -92 10t-84.5 31t-64.5 61t-24 94q0 115 101 159q-74 49 -74 139q0 80 59.5 130t162.5 50q138 0 208 -56q-1 -39 -21.5 -75t-50.5 -56q-61 27 -117 27q-29 0 -46.5 -13t-17.5 -37q0 -27 21 -38.5t70 -12.5h54q14 -22 14 -67q0 -36 -13 -66h-54 q-57 -1 -80 -16.5t-23 -45.5q0 -27 19 -43t52 -16q43 0 72.5 9.5t64.5 33.5z" />
<glyph horiz-adv-x="516" d="M413 755q-5 -45 -36 -73l-261 78q2 97 70 147zM426 187q33 -17 56 -53t32 -81q-75 -68 -224 -68q-48 0 -92 10t-84.5 31t-64.5 61t-24 94q0 115 101 159q-74 49 -74 139q0 80 59.5 130t162.5 50q138 0 208 -56q-1 -39 -21.5 -75t-50.5 -56q-61 27 -117 27 q-29 0 -46.5 -13t-17.5 -37q0 -27 21 -38.5t70 -12.5h54q14 -22 14 -67q0 -36 -13 -66h-54q-57 -1 -80 -16.5t-23 -45.5q0 -27 19 -43t52 -16q43 0 72.5 9.5t64.5 33.5z" />
<glyph horiz-adv-x="720" d="M712 322q0 -155 -101 -251l65 -100q-53 -78 -156 -94l-72 112q-40 -8 -80 -8q-152 0 -248 93t-96 248q0 153 96.5 247.5t247.5 94.5q152 0 248 -93t96 -249zM220 322q0 -79 40 -125t108 -46t108 46t40 125q0 81 -40 126.5t-108 45.5t-108 -45.5t-40 -126.5z" />
<glyph horiz-adv-x="594" d="M530 188q0 -32 9.5 -47.5t36.5 -25.5q-7 -89 -66 -137q-72 7 -110 52q-61 -48 -147 -48q-105 0 -168 65.5t-63 177.5q0 117 78.5 191t205.5 74t225 -47zM202 232q0 -46 25 -72.5t62 -26.5t62 18v180q-25 6 -48 6q-44 0 -72.5 -28.5t-28.5 -76.5z" />
<glyph horiz-adv-x="594" d="M208 513q-37 26 -51 77l193 168q76 -40 92 -136zM530 188q0 -32 9.5 -47.5t36.5 -25.5q-7 -89 -66 -137q-72 7 -110 52q-61 -48 -147 -48q-105 0 -168 65.5t-63 177.5q0 117 78.5 191t205.5 74t225 -47zM202 232q0 -46 25 -72.5t62 -26.5t62 18v180q-25 6 -48 6 q-44 0 -72.5 -28.5t-28.5 -76.5z" />
<glyph horiz-adv-x="594" d="M170 520q-24 9 -41.5 27.5t-22.5 40.5l139 150q47 11 95 0l132 -143q-12 -51 -65 -75l-118 91zM530 188q0 -32 9.5 -47.5t36.5 -25.5q-7 -89 -66 -137q-72 7 -110 52q-61 -48 -147 -48q-105 0 -168 65.5t-63 177.5q0 117 78.5 191t205.5 74t225 -47zM202 232 q0 -46 25 -72.5t62 -26.5t62 18v180q-25 6 -48 6q-44 0 -72.5 -28.5t-28.5 -76.5z" />
<glyph horiz-adv-x="594" d="M172 538q-35 0 -60.5 25.5t-25.5 61.5q0 35 25.5 60t60.5 25q36 0 61.5 -25t25.5 -60q0 -36 -25.5 -61.5t-61.5 -25.5zM411 538q-35 0 -60.5 25.5t-25.5 61.5q0 35 25.5 60t60.5 25q36 0 61.5 -25t25.5 -60q0 -36 -25.5 -61.5t-61.5 -25.5zM530 188q0 -32 9.5 -47.5 t36.5 -25.5q-7 -89 -66 -137q-72 7 -110 52q-61 -48 -147 -48q-105 0 -168 65.5t-63 177.5q0 117 78.5 191t205.5 74t225 -47zM202 232q0 -46 25 -72.5t62 -26.5t62 18v180q-25 6 -48 6q-44 0 -72.5 -28.5t-28.5 -76.5z" />
<glyph horiz-adv-x="594" d="M425 586q-12 -47 -51 -73l-234 109q16 96 92 136zM530 188q0 -32 9.5 -47.5t36.5 -25.5q-7 -89 -66 -137q-72 7 -110 52q-61 -48 -147 -48q-105 0 -168 65.5t-63 177.5q0 117 78.5 191t205.5 74t225 -47zM202 232q0 -46 25 -72.5t62 -26.5t62 18v180q-25 6 -48 6 q-44 0 -72.5 -28.5t-28.5 -76.5z" />
<glyph horiz-adv-x="594" d="M293 508q-55 0 -94 38.5t-39 92.5q0 55 39 93t94 38q54 0 93 -38.5t39 -92.5t-39 -92.5t-93 -38.5zM292 681q-16 0 -28 -12.5t-12 -29.5t12 -29t28 -12q18 0 29.5 12t11.5 29q0 18 -11.5 30t-29.5 12zM530 188q0 -32 9.5 -47.5t36.5 -25.5q-7 -89 -66 -137q-72 7 -110 52 q-61 -48 -147 -48q-105 0 -168 65.5t-63 177.5q0 117 78.5 191t205.5 74t225 -47zM202 232q0 -46 25 -72.5t62 -26.5t62 18v180q-25 6 -48 6q-44 0 -72.5 -28.5t-28.5 -76.5z" />
<glyph horiz-adv-x="594" d="M193 543q-29 0 -65 10.5t-53 30.5q10 66 51.5 104t98.5 38q29 0 69 -18.5t53 -18.5q16 0 27.5 11.5t16.5 30.5q72 0 118 -41q-10 -63 -51 -99.5t-94 -36.5q-31 0 -71.5 18t-52.5 18q-37 0 -47 -47zM530 188q0 -32 9.5 -47.5t36.5 -25.5q-7 -89 -66 -137q-72 7 -110 52 q-61 -48 -147 -48q-105 0 -168 65.5t-63 177.5q0 117 78.5 191t205.5 74t225 -47zM202 232q0 -46 25 -72.5t62 -26.5t62 18v180q-25 6 -48 6q-44 0 -72.5 -28.5t-28.5 -76.5z" />
<glyph horiz-adv-x="530" d="M446 170q53 -45 58 -122q-89 -66 -228 -66q-112 0 -183 65t-71 185q0 113 73.5 185.5t188.5 72.5q102 0 160 -47t58 -118q0 -149 -219 -149q-40 0 -75 6q8 -33 32 -46.5t72 -13.5q55 0 134 48zM280 357q-65 0 -76 -76q30 -6 72 -6q55 0 55 42q0 17 -14 28.5t-37 11.5z " />
<glyph horiz-adv-x="530" d="M186 513q-37 26 -51 77l193 168q76 -40 92 -136zM446 170q53 -45 58 -122q-89 -66 -228 -66q-112 0 -183 65t-71 185q0 113 73.5 185.5t188.5 72.5q102 0 160 -47t58 -118q0 -149 -219 -149q-40 0 -75 6q8 -33 32 -46.5t72 -13.5q55 0 134 48zM280 357q-65 0 -76 -76 q30 -6 72 -6q55 0 55 42q0 17 -14 28.5t-37 11.5z" />
<glyph horiz-adv-x="530" d="M148 520q-24 9 -41.5 27.5t-22.5 40.5l139 150q47 11 95 0l132 -143q-12 -51 -65 -75l-118 91zM446 170q53 -45 58 -122q-89 -66 -228 -66q-112 0 -183 65t-71 185q0 113 73.5 185.5t188.5 72.5q102 0 160 -47t58 -118q0 -149 -219 -149q-40 0 -75 6q8 -33 32 -46.5 t72 -13.5q55 0 134 48zM280 357q-65 0 -76 -76q30 -6 72 -6q55 0 55 42q0 17 -14 28.5t-37 11.5z" />
<glyph horiz-adv-x="530" d="M150 538q-35 0 -60.5 25.5t-25.5 61.5q0 35 25.5 60t60.5 25q36 0 61.5 -25t25.5 -60q0 -36 -25.5 -61.5t-61.5 -25.5zM389 538q-35 0 -60.5 25.5t-25.5 61.5q0 35 25.5 60t60.5 25q36 0 61.5 -25t25.5 -60q0 -36 -25.5 -61.5t-61.5 -25.5zM446 170q53 -45 58 -122 q-89 -66 -228 -66q-112 0 -183 65t-71 185q0 113 73.5 185.5t188.5 72.5q102 0 160 -47t58 -118q0 -149 -219 -149q-40 0 -75 6q8 -33 32 -46.5t72 -13.5q55 0 134 48zM280 357q-65 0 -76 -76q30 -6 72 -6q55 0 55 42q0 17 -14 28.5t-37 11.5z" />
<glyph horiz-adv-x="530" d="M403 586q-12 -47 -51 -73l-234 109q16 96 92 136zM446 170q53 -45 58 -122q-89 -66 -228 -66q-112 0 -183 65t-71 185q0 113 73.5 185.5t188.5 72.5q102 0 160 -47t58 -118q0 -149 -219 -149q-40 0 -75 6q8 -33 32 -46.5t72 -13.5q55 0 134 48zM280 357q-65 0 -76 -76 q30 -6 72 -6q55 0 55 42q0 17 -14 28.5t-37 11.5z" />
<glyph horiz-adv-x="559" d="M286 493q138 0 232 -72v-395q0 -117 -72 -174t-189 -57q-88 0 -147.5 36.5t-59.5 109.5q0 72 89 114q-117 57 -117 195q0 115 76.5 179t187.5 64zM288 346q-36 0 -61 -23.5t-25 -64.5q0 -40 24.5 -64.5t61.5 -24.5q28 0 50 6v163q-24 8 -50 8zM261 -85q77 0 77 83v34 q-12 -2 -36 -4q-94 -7 -94 -63q0 -24 15 -37t38 -13z" />
<glyph horiz-adv-x="591" d="M476 165l107 -159q-44 -14 -114 -14q-67 0 -93 3l-96 154q-10 15 -10 44q109 6 109 78q0 24 -17 40.5t-47 16.5q-41 0 -66.5 -26t-25.5 -69v-233q-39 -7 -88 -7q-47 0 -92 7v654q39 7 88 7q47 0 92 -7v-208q59 43 137 43q85 0 140 -44t55 -123q0 -102 -79 -157z" />
<glyph horiz-adv-x="339" d="M214 -16q-174 0 -174 182v488q45 7 92 7q49 0 88 -7v-463q0 -47 34 -47q21 0 37 10q44 -45 50 -135q-51 -35 -127 -35z" />
<glyph horiz-adv-x="566" d="M433 477q48 0 90 -7v-444q0 -116 -74.5 -173.5t-185.5 -57.5q-96 0 -153 36t-57 110q0 75 83 115q-53 19 -75.5 53t-22.5 94v267q42 7 90 7t90 -7v-217q0 -40 15.5 -57.5t53.5 -17.5q37 0 56 12v280q42 7 90 7zM343 -2v33l-29 -3q-101 -7 -101 -64q0 -24 15 -36.5 t38 -12.5q77 0 77 83z" />
<glyph horiz-adv-x="566" d="M199 513q-37 26 -51 77l193 168q76 -40 92 -136zM433 477q48 0 90 -7v-444q0 -116 -74.5 -173.5t-185.5 -57.5q-96 0 -153 36t-57 110q0 75 83 115q-53 19 -75.5 53t-22.5 94v267q42 7 90 7t90 -7v-217q0 -40 15.5 -57.5t53.5 -17.5q37 0 56 12v280q42 7 90 7zM343 -2v33 l-29 -3q-101 -7 -101 -64q0 -24 15 -36.5t38 -12.5q77 0 77 83z" />
<glyph horiz-adv-x="566" d="M163 538q-35 0 -60.5 25.5t-25.5 61.5q0 35 25.5 60t60.5 25q36 0 61.5 -25t25.5 -60q0 -36 -25.5 -61.5t-61.5 -25.5zM402 538q-35 0 -60.5 25.5t-25.5 61.5q0 35 25.5 60t60.5 25q36 0 61.5 -25t25.5 -60q0 -36 -25.5 -61.5t-61.5 -25.5zM433 477q48 0 90 -7v-444 q0 -116 -74.5 -173.5t-185.5 -57.5q-96 0 -153 36t-57 110q0 75 83 115q-53 19 -75.5 53t-22.5 94v267q42 7 90 7t90 -7v-217q0 -40 15.5 -57.5t53.5 -17.5q37 0 56 12v280q42 7 90 7zM343 -2v33l-29 -3q-101 -7 -101 -64q0 -24 15 -36.5t38 -12.5q77 0 77 83z" />
<glyph horiz-adv-x="558" d="M546 113q5 -83 -37 -132q-60 0 -92.5 11t-54.5 49h-12q-55 -61 -156 -61q-72 0 -123.5 38t-51.5 114q0 74 59.5 113.5t162.5 38.5l78 -1v10q0 52 -78 52q-39 0 -76.5 -12.5t-57.5 -27.5q-62 36 -73 113q31 25 91.5 48.5t141.5 23.5q232 0 232 -219v-112q0 -39 47 -46z M246 101q73 0 73 87h-59q-62 0 -62 -44q0 -20 12.5 -31.5t35.5 -11.5z" />
<glyph horiz-adv-x="558" d="M171 513q-37 26 -51 77l193 168q76 -40 92 -136zM546 113q5 -83 -37 -132q-60 0 -92.5 11t-54.5 49h-12q-55 -61 -156 -61q-72 0 -123.5 38t-51.5 114q0 74 59.5 113.5t162.5 38.5l78 -1v10q0 52 -78 52q-39 0 -76.5 -12.5t-57.5 -27.5q-62 36 -73 113q31 25 91.5 48.5 t141.5 23.5q232 0 232 -219v-112q0 -39 47 -46zM246 101q73 0 73 87h-59q-62 0 -62 -44q0 -20 12.5 -31.5t35.5 -11.5z" />
<glyph horiz-adv-x="558" d="M133 520q-24 9 -41.5 27.5t-22.5 40.5l139 150q47 11 95 0l132 -143q-12 -51 -65 -75l-118 91zM546 113q5 -83 -37 -132q-60 0 -92.5 11t-54.5 49h-12q-55 -61 -156 -61q-72 0 -123.5 38t-51.5 114q0 74 59.5 113.5t162.5 38.5l78 -1v10q0 52 -78 52q-39 0 -76.5 -12.5 t-57.5 -27.5q-62 36 -73 113q31 25 91.5 48.5t141.5 23.5q232 0 232 -219v-112q0 -39 47 -46zM246 101q73 0 73 87h-59q-62 0 -62 -44q0 -20 12.5 -31.5t35.5 -11.5z" />
<glyph horiz-adv-x="558" d="M135 538q-35 0 -60.5 25.5t-25.5 61.5q0 35 25.5 60t60.5 25q36 0 61.5 -25t25.5 -60q0 -36 -25.5 -61.5t-61.5 -25.5zM374 538q-35 0 -60.5 25.5t-25.5 61.5q0 35 25.5 60t60.5 25q36 0 61.5 -25t25.5 -60q0 -36 -25.5 -61.5t-61.5 -25.5zM546 113q5 -83 -37 -132 q-60 0 -92.5 11t-54.5 49h-12q-55 -61 -156 -61q-72 0 -123.5 38t-51.5 114q0 74 59.5 113.5t162.5 38.5l78 -1v10q0 52 -78 52q-39 0 -76.5 -12.5t-57.5 -27.5q-62 36 -73 113q31 25 91.5 48.5t141.5 23.5q232 0 232 -219v-112q0 -39 47 -46zM246 101q73 0 73 87h-59 q-62 0 -62 -44q0 -20 12.5 -31.5t35.5 -11.5z" />
<glyph horiz-adv-x="558" d="M388 586q-12 -47 -51 -73l-234 109q16 96 92 136zM546 113q5 -83 -37 -132q-60 0 -92.5 11t-54.5 49h-12q-55 -61 -156 -61q-72 0 -123.5 38t-51.5 114q0 74 59.5 113.5t162.5 38.5l78 -1v10q0 52 -78 52q-39 0 -76.5 -12.5t-57.5 -27.5q-62 36 -73 113q31 25 91.5 48.5 t141.5 23.5q232 0 232 -219v-112q0 -39 47 -46zM246 101q73 0 73 87h-59q-62 0 -62 -44q0 -20 12.5 -31.5t35.5 -11.5z" />
<glyph horiz-adv-x="558" d="M256 508q-55 0 -94 38.5t-39 92.5q0 55 39 93t94 38q54 0 93 -38.5t39 -92.5t-39 -92.5t-93 -38.5zM255 681q-16 0 -28 -12.5t-12 -29.5t12 -29t28 -12q18 0 29.5 12t11.5 29q0 18 -11.5 30t-29.5 12zM546 113q5 -83 -37 -132q-60 0 -92.5 11t-54.5 49h-12 q-55 -61 -156 -61q-72 0 -123.5 38t-51.5 114q0 74 59.5 113.5t162.5 38.5l78 -1v10q0 52 -78 52q-39 0 -76.5 -12.5t-57.5 -27.5q-62 36 -73 113q31 25 91.5 48.5t141.5 23.5q232 0 232 -219v-112q0 -39 47 -46zM246 101q73 0 73 87h-59q-62 0 -62 -44q0 -20 12.5 -31.5 t35.5 -11.5z" />
<glyph horiz-adv-x="558" d="M156 543q-29 0 -65 10.5t-53 30.5q10 66 51.5 104t98.5 38q29 0 69 -18.5t53 -18.5q16 0 27.5 11.5t16.5 30.5q72 0 118 -41q-10 -63 -51 -99.5t-94 -36.5q-31 0 -71.5 18t-52.5 18q-37 0 -47 -47zM546 113q5 -83 -37 -132q-60 0 -92.5 11t-54.5 49h-12q-55 -61 -156 -61 q-72 0 -123.5 38t-51.5 114q0 74 59.5 113.5t162.5 38.5l78 -1v10q0 52 -78 52q-39 0 -76.5 -12.5t-57.5 -27.5q-62 36 -73 113q31 25 91.5 48.5t141.5 23.5q232 0 232 -219v-112q0 -39 47 -46zM246 101q73 0 73 87h-59q-62 0 -62 -44q0 -20 12.5 -31.5t35.5 -11.5z" />
<glyph horiz-adv-x="534" d="M448 169q52 -46 57 -121q-89 -66 -222 -66q-116 0 -188.5 66.5t-72.5 184.5q0 113 72.5 185t184.5 72q65 0 113.5 -23t73 -60.5t36 -77t11.5 -80.5l-297 -91q24 -41 94 -41q58 0 138 52zM276 354q-69 0 -75 -93l137 44q-8 49 -62 49z" />
<glyph horiz-adv-x="534" d="M184 513q-37 26 -51 77l193 168q76 -40 92 -136zM448 169q52 -46 57 -121q-89 -66 -222 -66q-116 0 -188.5 66.5t-72.5 184.5q0 113 72.5 185t184.5 72q65 0 113.5 -23t73 -60.5t36 -77t11.5 -80.5l-297 -91q24 -41 94 -41q58 0 138 52zM276 354q-69 0 -75 -93l137 44 q-8 49 -62 49z" />
<glyph horiz-adv-x="534" d="M146 520q-24 9 -41.5 27.5t-22.5 40.5l139 150q47 11 95 0l132 -143q-12 -51 -65 -75l-118 91zM448 169q52 -46 57 -121q-89 -66 -222 -66q-116 0 -188.5 66.5t-72.5 184.5q0 113 72.5 185t184.5 72q65 0 113.5 -23t73 -60.5t36 -77t11.5 -80.5l-297 -91q24 -41 94 -41 q58 0 138 52zM276 354q-69 0 -75 -93l137 44q-8 49 -62 49z" />
<glyph horiz-adv-x="534" d="M148 538q-35 0 -60.5 25.5t-25.5 61.5q0 35 25.5 60t60.5 25q36 0 61.5 -25t25.5 -60q0 -36 -25.5 -61.5t-61.5 -25.5zM387 538q-35 0 -60.5 25.5t-25.5 61.5q0 35 25.5 60t60.5 25q36 0 61.5 -25t25.5 -60q0 -36 -25.5 -61.5t-61.5 -25.5zM448 169q52 -46 57 -121 q-89 -66 -222 -66q-116 0 -188.5 66.5t-72.5 184.5q0 113 72.5 185t184.5 72q65 0 113.5 -23t73 -60.5t36 -77t11.5 -80.5l-297 -91q24 -41 94 -41q58 0 138 52zM276 354q-69 0 -75 -93l137 44q-8 49 -62 49z" />
<glyph horiz-adv-x="534" d="M401 586q-12 -47 -51 -73l-234 109q16 96 92 136zM448 169q52 -46 57 -121q-89 -66 -222 -66q-116 0 -188.5 66.5t-72.5 184.5q0 113 72.5 185t184.5 72q65 0 113.5 -23t73 -60.5t36 -77t11.5 -80.5l-297 -91q24 -41 94 -41q58 0 138 52zM276 354q-69 0 -75 -93l137 44 q-8 49 -62 49z" />
<glyph horiz-adv-x="552" d="M555 477q-23 -55 -75 -89q27 -38 27 -90q0 -83 -66 -129t-174 -46q-51 0 -86 7q-6 -6 -6 -13q0 -29 44 -29h121q173 0 173 -129q0 -78 -65.5 -125t-181.5 -47q-91 0 -154.5 15.5t-90.5 34.5q9 76 58 116q70 -45 187 -45q77 0 77 28q0 12 -12.5 16.5t-47.5 4.5h-69 q-175 0 -175 106q0 63 58 99q-69 44 -69 140q0 84 63.5 134.5t175.5 50.5h76q42 0 65 11.5t38 40.5q73 -16 109 -62zM344 308q2 27 -6 50h-64q-75 0 -75 -55q0 -53 68 -53q34 0 55 15.5t22 42.5z" />
<glyph horiz-adv-x="785" d="M665 479q62 0 116 -14q-32 -157 -65 -258.5t-92 -206.5q-39 -8 -87 -8t-87 8q-41 78 -58 152q-17 -77 -56 -152q-39 -8 -87 -8t-87 8q-59 104 -91.5 204.5t-66.5 260.5q54 14 116 14q35 0 77 -4q31 -226 58 -312q4 -12 8 -32q1 9 5 32q30 126 43 309q26 7 80 7 q60 0 85 -7q8 -96 24 -184t29 -127q5 -16 6 -29q5 23 7 29q25 98 48 314q42 4 75 4z" />
<glyph horiz-adv-x="566" d="M433 477q48 0 90 -7v-434q0 -124 -71.5 -182.5t-189.5 -58.5q-160 0 -246 92q4 37 29 68t65 44q58 -64 141 -64q92 0 92 63v36q-35 -9 -74 -9q-231 0 -231 196v249q42 7 90 7t90 -7v-216q0 -40 15.5 -57.5t53.5 -17.5q37 0 56 12v279q42 7 90 7z" />
<glyph horiz-adv-x="566" d="M198 513q-37 26 -51 77l193 168q76 -40 92 -136zM433 477q48 0 90 -7v-434q0 -124 -71.5 -182.5t-189.5 -58.5q-160 0 -246 92q4 37 29 68t65 44q58 -64 141 -64q92 0 92 63v36q-35 -9 -74 -9q-231 0 -231 196v249q42 7 90 7t90 -7v-216q0 -40 15.5 -57.5t53.5 -17.5 q37 0 56 12v279q42 7 90 7z" />
<glyph horiz-adv-x="566" d="M162 538q-35 0 -60.5 25.5t-25.5 61.5q0 35 25.5 60t60.5 25q36 0 61.5 -25t25.5 -60q0 -36 -25.5 -61.5t-61.5 -25.5zM401 538q-35 0 -60.5 25.5t-25.5 61.5q0 35 25.5 60t60.5 25q36 0 61.5 -25t25.5 -60q0 -36 -25.5 -61.5t-61.5 -25.5zM433 477q48 0 90 -7v-434 q0 -124 -71.5 -182.5t-189.5 -58.5q-160 0 -246 92q4 37 29 68t65 44q58 -64 141 -64q92 0 92 63v36q-35 -9 -74 -9q-231 0 -231 196v249q42 7 90 7t90 -7v-216q0 -40 15.5 -57.5t53.5 -17.5q37 0 56 12v279q42 7 90 7z" />
<glyph horiz-adv-x="528" d="M250 490q246 0 246 -219v-240q-120 -48 -254 -48q-104 0 -164 37t-60 114q0 74 58 112.5t155 36.5h87v10q0 52 -84 52q-75 0 -128 -40q-62 36 -73 113q28 25 85 48.5t132 23.5zM197 143q0 -42 67 -42q24 0 54 8v72h-67q-54 0 -54 -38z" />
<glyph horiz-adv-x="528" d="M172 513q-37 26 -51 77l193 168q76 -40 92 -136zM250 490q246 0 246 -219v-240q-120 -48 -254 -48q-104 0 -164 37t-60 114q0 74 58 112.5t155 36.5h87v10q0 52 -84 52q-75 0 -128 -40q-62 36 -73 113q28 25 85 48.5t132 23.5zM197 143q0 -42 67 -42q24 0 54 8v72h-67 q-54 0 -54 -38z" />
<glyph horiz-adv-x="528" d="M134 520q-24 9 -41.5 27.5t-22.5 40.5l139 150q47 11 95 0l132 -143q-12 -51 -65 -75l-118 91zM250 490q246 0 246 -219v-240q-120 -48 -254 -48q-104 0 -164 37t-60 114q0 74 58 112.5t155 36.5h87v10q0 52 -84 52q-75 0 -128 -40q-62 36 -73 113q28 25 85 48.5 t132 23.5zM197 143q0 -42 67 -42q24 0 54 8v72h-67q-54 0 -54 -38z" />
<glyph horiz-adv-x="528" d="M136 538q-35 0 -60.5 25.5t-25.5 61.5q0 35 25.5 60t60.5 25q36 0 61.5 -25t25.5 -60q0 -36 -25.5 -61.5t-61.5 -25.5zM375 538q-35 0 -60.5 25.5t-25.5 61.5q0 35 25.5 60t60.5 25q36 0 61.5 -25t25.5 -60q0 -36 -25.5 -61.5t-61.5 -25.5zM250 490q246 0 246 -219v-240 q-120 -48 -254 -48q-104 0 -164 37t-60 114q0 74 58 112.5t155 36.5h87v10q0 52 -84 52q-75 0 -128 -40q-62 36 -73 113q28 25 85 48.5t132 23.5zM197 143q0 -42 67 -42q24 0 54 8v72h-67q-54 0 -54 -38z" />
<glyph horiz-adv-x="528" d="M389 586q-12 -47 -51 -73l-234 109q16 96 92 136zM250 490q246 0 246 -219v-240q-120 -48 -254 -48q-104 0 -164 37t-60 114q0 74 58 112.5t155 36.5h87v10q0 52 -84 52q-75 0 -128 -40q-62 36 -73 113q28 25 85 48.5t132 23.5zM197 143q0 -42 67 -42q24 0 54 8v72h-67 q-54 0 -54 -38z" />
<glyph horiz-adv-x="528" d="M257 508q-55 0 -94 38.5t-39 92.5q0 55 39 93t94 38q54 0 93 -38.5t39 -92.5t-39 -92.5t-93 -38.5zM256 681q-16 0 -28 -12.5t-12 -29.5t12 -29t28 -12q18 0 29.5 12t11.5 29q0 18 -11.5 30t-29.5 12zM250 490q246 0 246 -219v-240q-120 -48 -254 -48q-104 0 -164 37 t-60 114q0 74 58 112.5t155 36.5h87v10q0 52 -84 52q-75 0 -128 -40q-62 36 -73 113q28 25 85 48.5t132 23.5zM197 143q0 -42 67 -42q24 0 54 8v72h-67q-54 0 -54 -38z" />
<glyph horiz-adv-x="528" d="M157 543q-29 0 -65 10.5t-53 30.5q10 66 51.5 104t98.5 38q29 0 69 -18.5t53 -18.5q16 0 27.5 11.5t16.5 30.5q72 0 118 -41q-10 -63 -51 -99.5t-94 -36.5q-31 0 -71.5 18t-52.5 18q-37 0 -47 -47zM250 490q246 0 246 -219v-240q-120 -48 -254 -48q-104 0 -164 37 t-60 114q0 74 58 112.5t155 36.5h87v10q0 52 -84 52q-75 0 -128 -40q-62 36 -73 113q28 25 85 48.5t132 23.5zM197 143q0 -42 67 -42q24 0 54 8v72h-67q-54 0 -54 -38z" />
<glyph horiz-adv-x="531" d="M506 317q-1 -68 -43.5 -97t-129.5 -30l-127 -1q7 -36 31.5 -50t76.5 -14q70 0 130 38q55 -44 60 -120q-87 -61 -221 -61q-117 0 -189 66t-72 185q0 113 75 185t192 72q97 0 158 -49t59 -124zM286 291q39 0 39 29q0 16 -12.5 25t-32.5 9q-62 0 -75 -63h81z" />
<glyph horiz-adv-x="531" d="M189 513q-37 26 -51 77l193 168q76 -40 92 -136zM506 317q-1 -68 -43.5 -97t-129.5 -30l-127 -1q7 -36 31.5 -50t76.5 -14q70 0 130 38q55 -44 60 -120q-87 -61 -221 -61q-117 0 -189 66t-72 185q0 113 75 185t192 72q97 0 158 -49t59 -124zM286 291q39 0 39 29 q0 16 -12.5 25t-32.5 9q-62 0 -75 -63h81z" />
<glyph horiz-adv-x="531" d="M151 520q-24 9 -41.5 27.5t-22.5 40.5l139 150q47 11 95 0l132 -143q-12 -51 -65 -75l-118 91zM506 317q-1 -68 -43.5 -97t-129.5 -30l-127 -1q7 -36 31.5 -50t76.5 -14q70 0 130 38q55 -44 60 -120q-87 -61 -221 -61q-117 0 -189 66t-72 185q0 113 75 185t192 72 q97 0 158 -49t59 -124zM286 291q39 0 39 29q0 16 -12.5 25t-32.5 9q-62 0 -75 -63h81z" />
<glyph horiz-adv-x="531" d="M153 538q-35 0 -60.5 25.5t-25.5 61.5q0 35 25.5 60t60.5 25q36 0 61.5 -25t25.5 -60q0 -36 -25.5 -61.5t-61.5 -25.5zM392 538q-35 0 -60.5 25.5t-25.5 61.5q0 35 25.5 60t60.5 25q36 0 61.5 -25t25.5 -60q0 -36 -25.5 -61.5t-61.5 -25.5zM506 317q-1 -68 -43.5 -97 t-129.5 -30l-127 -1q7 -36 31.5 -50t76.5 -14q70 0 130 38q55 -44 60 -120q-87 -61 -221 -61q-117 0 -189 66t-72 185q0 113 75 185t192 72q97 0 158 -49t59 -124zM286 291q39 0 39 29q0 16 -12.5 25t-32.5 9q-62 0 -75 -63h81z" />
<glyph horiz-adv-x="531" d="M406 586q-12 -47 -51 -73l-234 109q16 96 92 136zM506 317q-1 -68 -43.5 -97t-129.5 -30l-127 -1q7 -36 31.5 -50t76.5 -14q70 0 130 38q55 -44 60 -120q-87 -61 -221 -61q-117 0 -189 66t-72 185q0 113 75 185t192 72q97 0 158 -49t59 -124zM286 291q39 0 39 29 q0 16 -12.5 25t-32.5 9q-62 0 -75 -63h81z" />
<glyph horiz-adv-x="553" d="M460 151q55 -56 55 -138q0 -107 -69.5 -163.5t-179.5 -56.5q-159 0 -244 98q4 38 31 70.5t70 46.5q59 -73 142 -73q39 0 61 21.5t22 55.5q0 35 -30 60q-21 -4 -50 -4q-124 0 -186.5 55t-62.5 156q0 95 71 154t178 59h68q32 0 53.5 14t41.5 49q79 -19 117 -73 q-23 -59 -73 -95q36 -52 32 -111q-3 -73 -47 -125zM263 205q34 0 55 19t22 52q2 44 -13 77h-64q-36 0 -57 -19.5t-21 -54.5t21 -54.5t57 -19.5z" />
<glyph horiz-adv-x="556" d="M564 449q-26 -54 -84 -83q24 -41 21 -99q-3 -77 -69.5 -129.5t-167.5 -52.5h-46q-21 0 -31.5 -11t-10.5 -25t10.5 -25t31.5 -11h274q8 -38 8 -71t-8 -70h-276q-86 0 -137 31t-51 113q0 80 75 118q-68 47 -68 140q0 89 68 147t170 58h67q42 0 65 11.5t38 40.5 q82 -22 121 -82zM264 222q34 0 55 16t22 42q0 39 -5 60h-65q-34 0 -54.5 -16t-20.5 -45q0 -57 68 -57z" />
<glyph horiz-adv-x="626" d="M313 -16q-138 0 -211.5 79t-73.5 206q0 128 74.5 208t210.5 80q137 0 211 -81.5t74 -206.5q0 -126 -74.5 -205.5t-210.5 -79.5zM313 139q99 0 99 130q0 123 -99 123t-99 -123q0 -130 99 -130z" />
<glyph horiz-adv-x="401" d="M266 553q36 0 75 -7v-546q-48 -8 -90 -8t-90 8v349l-97 -39q-26 26 -44 66.5t-18 85.5l189 84q31 7 75 7z" />
<glyph horiz-adv-x="541" d="M506 150q13 -28 13 -74t-13 -76h-466q-8 34 -8 59q0 42 28 76.5t111 94.5q85 65 105.5 85.5t20.5 38.5q0 36 -42 36q-48 0 -121 -68q-44 13 -70.5 40.5t-45.5 73.5q93 120 239 120q102 0 162.5 -50t60.5 -138q0 -75 -37.5 -120t-96.5 -78l-56 -29l61 8z" />
<glyph horiz-adv-x="523" d="M398 227q99 -45 99 -161q0 -55 -24 -96t-63.5 -63t-81 -32t-85.5 -10q-159 0 -235 83q7 43 34 81t64 55q31 -34 59 -47.5t69 -13.5q33 0 51.5 16t18.5 46q0 33 -22 47.5t-82 14.5q-13 30 -13 68q0 45 14 69q52 0 73.5 12.5t21.5 43.5q0 27 -17.5 41.5t-46.5 14.5 q-58 0 -111 -45q-37 16 -58.5 41t-36.5 66q71 98 225 98q103 0 162.5 -51t59.5 -134q0 -94 -75 -144z" />
<glyph horiz-adv-x="596" d="M584 80q0 -43 -8 -78h-93v-125q-42 -8 -79 -8q-40 0 -86 8v125h-297q-13 26 -13 56q0 52 36 104l251 378q46 8 102 8q57 0 86 -8v-393h94q7 -31 7 -67zM200 147h118v153l1 41l-23 -40z" />
<glyph horiz-adv-x="532" d="M240 -134q-74 0 -130 21.5t-83 46.5q21 94 82 139q58 -44 135 -44q90 0 90 59q0 21 -7.5 32.5t-41.5 21.5t-99 10l-136 1v388h420q8 -43 8 -82q0 -40 -7 -75h-261v-78h23q146 0 211.5 -51.5t65.5 -150.5q0 -111 -71.5 -174.5t-198.5 -63.5z" />
<glyph horiz-adv-x="567" d="M350 424q92 0 145.5 -53t53.5 -151q0 -112 -71 -175.5t-184 -63.5q-132 0 -200.5 71.5t-68.5 200.5q0 167 119 288t288 143q26 -21 39.5 -67.5t13.5 -97.5q-185 -13 -248 -123q48 28 113 28zM295 131q83 0 83 76q0 70 -84 70q-46 0 -92 -27q0 -58 25.5 -88.5t67.5 -30.5z " />
<glyph horiz-adv-x="508" d="M491 541q8 -17 8 -47q0 -58 -24 -108l-252 -520q-45 4 -89 22.5t-64 43.5l226 454h-276q-7 32 -7 77q0 42 7 78h471z" />
<glyph horiz-adv-x="563" d="M430 346q103 -64 103 -159q0 -105 -74.5 -155.5t-186.5 -50.5q-106 0 -174.5 44.5t-68.5 134.5q0 93 102 163q-89 61 -90 150q-2 87 62 141t176 54q111 0 176 -46t65 -126q0 -95 -90 -150zM280 537q-33 0 -51 -14t-18 -35q0 -16 13 -30.5t26 -22.5t42 -23h1l1 -1 q58 34 58 71q0 55 -72 55zM280 113q35 0 56 14t21 38q0 26 -19 42.5t-69 41.5q-3 1 -7.5 3.5t-6.5 3.5q-49 -38 -49 -81q0 -29 21 -45.5t53 -16.5z" />
<glyph horiz-adv-x="566" d="M269 557q131 0 200 -85t69 -237q0 -183 -106 -276.5t-318 -92.5q-24 40 -24 104q0 20 4 52q115 2 173 25t79 87q-45 -35 -131 -35q-87 -1 -145 56.5t-58 160.5q0 107 75 174t182 67zM186 324q0 -35 20.5 -55t54.5 -20q61 0 96 20q-6 60 -32 94t-65 35q-33 1 -53.5 -19.5 t-20.5 -54.5z" />
<glyph d="M290 -16q-135 0 -202 89t-67 251q0 164 68 253.5t201 89.5q134 0 201.5 -92t67.5 -251q0 -162 -68 -251t-201 -89zM290 139q42 0 60 46.5t18 138.5q0 89 -18 133.5t-60 44.5t-60 -44.5t-18 -133.5q0 -92 18 -138.5t60 -46.5z" />
<glyph d="M547 156q9 -34 9 -77q0 -35 -9 -79h-471q-9 49 -9 78q0 35 9 78h157v308l-137 -53q-24 12 -43 56.5t-19 91.5l229 96q31 7 76 7q58 0 74 -7v-499h134z" />
<glyph d="M534 162q13 -39 13 -86q0 -40 -13 -76h-483q-7 30 -7 61q0 64 50 110q158 143 196 185t38 77q0 29 -17 47t-52 18q-36 0 -61 -14t-54 -44q-87 32 -120 121q42 48 107.5 77t144.5 29q111 0 176 -54t65 -157q0 -80 -49 -143t-152 -143l-20 -13l41 4z" />
<glyph d="M260 -20q-77 0 -134 23t-88 52q20 92 83 141q66 -57 140 -57q39 0 62.5 22.5t23.5 65.5q0 81 -93 81h-95q-4 18 -4 25q0 36 40 84l66 78h-204q-11 42 -11 79q2 44 11 76h455q1 -7 1 -23q0 -57 -33 -99l-88 -109q56 -12 97.5 -58.5t41.5 -126.5q0 -66 -22 -116.5 t-60.5 -79.5t-86 -43.5t-102.5 -14.5z" />
<glyph d="M565 193q0 -38 -8 -81h-73v-112q-43 -8 -79 -8q-42 0 -90 8v112h-272q-26 36 -26.5 80.5t21.5 110.5l116 369q94 -3 173 -39l-101 -330q-6 -17 -6 -31h95v131q48 8 90 8q37 0 79 -8v-131h74q7 -36 7 -79z" />
<glyph d="M275 -19q-81 0 -137.5 18.5t-84.5 41.5q19 101 80 148q57 -41 141 -41q87 0 87 63t-87 63q-37 0 -91 -11t-68 -11q-22 0 -45 7v391h418q8 -43 8 -81q0 -40 -7 -75h-259v-69q25 7 71 7q114 0 173.5 -57.5t59.5 -159.5q0 -109 -69.5 -171.5t-189.5 -62.5z" />
<glyph d="M359 423q93 0 144.5 -52.5t51.5 -150.5q0 -112 -71 -175.5t-185 -63.5q-130 0 -197.5 72.5t-67.5 193.5q0 182 115.5 298.5t286.5 138.5q46 -55 46 -165q-91 -12 -151.5 -41t-90.5 -96q56 41 119 41zM300 131q74 0 74 77q0 69 -75 69q-37 0 -84 -29v-1q0 -57 23.5 -86.5 t61.5 -29.5z" />
<glyph d="M551 642q8 -20 8 -53q0 -50 -24 -102l-274 -521q-43 0 -88 22.5t-65 56.5l229 431h-281q-8 35 -8 88q0 43 8 78h495z" />
<glyph d="M431 332q50 -38 73 -74.5t23 -90.5q0 -86 -62.5 -136t-178.5 -50q-108 0 -171 44t-63 135q0 94 92 169q-78 58 -79 142q-2 88 59.5 142t170.5 54q103 0 161 -48.5t58 -128.5q0 -90 -83 -158zM288 536q-22 0 -35.5 -13t-13.5 -33q0 -22 15.5 -38.5t61.5 -43.5q27 35 27 77 q0 25 -15.5 38t-39.5 13zM296 113q57 0 57 53q0 23 -15 37.5t-56 40.5l-18 11q-28 -37 -28 -76q0 -32 16.5 -49t43.5 -17z" />
<glyph d="M277 667q127 0 197 -85.5t70 -229.5q0 -179 -106.5 -276.5t-324.5 -96.5q-24 41 -24 106q0 20 4 50q118 5 175 23.5t80 75.5q-45 -24 -100 -24q-100 0 -159 57.5t-59 158.5q0 108 71 174.5t176 66.5zM206 436q0 -37 23.5 -56t54.5 -19q42 0 80 13q-4 64 -27 99t-61 36 q-30 0 -50 -19.5t-20 -53.5z" />
<glyph horiz-adv-x="616" d="M567 270q0 -70 -34 -129l52 -52q-14 -34 -42 -62t-62 -42l-55 55q-53 -29 -118 -29t-118 29l-55 -55q-33 15 -61.5 43t-42.5 61l53 53q-34 59 -34 128q0 70 34 129l-53 53q17 33 45 61t59 43l56 -56q54 28 117 28t117 -28l56 56q73 -32 104 -104l-53 -53q35 -60 35 -129z M223 270q0 -37 25 -62.5t60 -25.5q34 0 60 26t26 62t-25 61.5t-61 25.5q-35 0 -60 -25t-25 -62z" />
<glyph horiz-adv-x="519" d="M491 179q0 -157 -153 -189v-106q-35 -8 -74 -8q-38 0 -73 8v103q-106 14 -168 64q2 40 23 75t53 52q69 -50 163 -50q44 0 59 7t15 25q0 17 -19 23.5t-89 10.5q-84 9 -136 49.5t-53 117.5q-1 64 40 108.5t112 61.5v114q37 8 74 8q39 0 73 -8v-109q90 -12 140 -50 q0 -77 -59 -131q-63 40 -158 40q-67 0 -67 -27q0 -8 6 -12.5t32 -9t81 -9.5q178 -21 178 -158z" />
<glyph horiz-adv-x="529" d="M272 149h213q11 -35 11 -67q0 -40 -11 -82h-421q0 46 17 104.5t17 102.5h-62q-10 21 -10 50q0 27 10 48h53q-2 26 -2 47q0 89 62.5 147.5t163.5 58.5q125 0 188 -72q-24 -88 -109 -125q-23 30 -63 30q-61 0 -61 -54q0 -10 2 -32h114q10 -21 10 -50q0 -27 -10 -48h-104 q0 -32 -8 -58z" />
<glyph horiz-adv-x="639" d="M525 195h-115v-38h115q4 -16 4 -36q0 -21 -4 -37h-115v-84q-39 -7 -88 -7q-47 0 -92 7v84h-115q-4 24 -4 37q0 12 4 36h115v38h-115q-4 24 -4 37q0 12 4 36h80l-176 273q68 14 132 14q45 0 81 -7l86 -160l10 -22l9 22l87 160q34 7 76 7q54 0 119 -13l-167 -274h73 q4 -16 4 -36q0 -21 -4 -37z" />
<glyph horiz-adv-x="694" d="M541 158l153 -147q-18 -11 -81 -22q-41 -6 -78 -6l-62 58q-69 -60 -198 -60q-119 0 -186 51.5t-67 143.5q0 119 110 184q-45 52 -45 120q0 83 60.5 133.5t158.5 50.5q106 0 187 -62q-21 -88 -83 -118q-44 32 -98 32q-68 0 -68 -43q0 -16 13.5 -34.5t54.5 -58.5l96 -93 v112h246q19 -64 1 -133h-105v-28q0 -42 -9 -80zM301 129q37 0 65 11l-129 119q-35 -23 -35 -60q0 -33 26 -51.5t73 -18.5z" />
<glyph horiz-adv-x="346" d="M66 682q-32 28 -37 73l228 152q69 -52 69 -147z" />
<glyph horiz-adv-x="438" d="M84 696q-44 21 -54 76l142 116q46 10 93 0l144 -111q-8 -55 -54 -81l-140 79z" />
<glyph horiz-adv-x="468" d="M106 708q-35 0 -60.5 25.5t-25.5 61.5q0 35 25.5 60t60.5 25q36 0 61.5 -25t25.5 -60q0 -36 -25.5 -61.5t-61.5 -25.5zM361 708q-35 0 -60.5 25.5t-25.5 61.5q0 35 25.5 60t60.5 25q36 0 61.5 -25t25.5 -60q0 -36 -25.5 -61.5t-61.5 -25.5z" />
<glyph horiz-adv-x="346" d="M287 682l-261 78q2 97 70 147l227 -152q-5 -45 -36 -73z" />
<glyph horiz-adv-x="388" d="M27 728q-10 23 -10 56t10 60h336q8 -29 8 -59t-8 -57h-336z" />
<glyph horiz-adv-x="480" d="M131 693q-29 0 -65 10.5t-53 30.5q10 65 51.5 102t98.5 37q34 0 80.5 -18.5t61.5 -18.5q16 0 27.5 12.5t16.5 32.5q72 0 118 -41q-10 -64 -51 -101.5t-94 -37.5q-36 0 -83 18t-61 18q-37 0 -47 -44z" />
<glyph horiz-adv-x="266" d="M133 528q-43 0 -73.5 31t-30.5 74q0 42 30.5 72.5t73.5 30.5t74.5 -30.5t31.5 -72.5q0 -43 -31 -74t-75 -31zM133 -7q-47 0 -90 7v476q41 7 90 7q47 0 90 -7v-476q-41 -7 -90 -7z" />
<glyph horiz-adv-x="515" d="M381 200q76 -34 98 -112q-54 -58 -132 -72v-96q-35 -8 -73 -8q-39 0 -74 8v102q-81 21 -127 82.5t-46 155.5q0 90 46 152t127 85v99q35 8 74 8q38 0 73 -8v-94q84 -17 133 -78q-12 -31 -43 -58.5t-71 -43.5q-25 39 -72 39q-43 0 -65 -27t-22 -74q0 -45 22.5 -73.5 t64.5 -28.5q48 0 87 42z" />
<glyph horiz-adv-x="556" d="M445 169q60 -39 81 -143q-65 -44 -165 -44q-224 0 -264 197h-70q-4 24 -4 37q0 12 4 36h61v17v17h-44q-4 24 -4 37q0 12 4 36h54q23 92 90.5 143t167.5 51q58 0 102.5 -15t66.5 -34q-21 -84 -89 -136q-29 21 -75 21q-45 0 -67 -30h72q4 -16 4 -36q0 -21 -4 -37h-94v-17 v-17h77q4 -16 4 -36q0 -21 -4 -37h-57q22 -33 71 -33q51 0 82 23z" />
</font>
</defs>
</svg>
